G04 ================== begin FILE IDENTIFICATION RECORD ==================*
G04 Layout Name:  C:/Users/DF/Desktop/MEGA128L/footprint/Nano128l.brd*
G04 Film Name:    BOTTOM*
G04 File Format:  Gerber RS274X*
G04 File Origin:  Cadence Allegro 17.2-S058*
G04 Origin Date:  Sat Apr 04 22:42:22 2020*
G04 *
G04 Layer:  ETCH/BOTTOM*
G04 Layer:  PIN/BOTTOM*
G04 Layer:  VIA CLASS/BOTTOM*
G04 *
G04 Offset:    (0.0000 0.0000)*
G04 Mirror:    No*
G04 Mode:      Positive*
G04 Rotation:  0*
G04 FullContactRelief:  No*
G04 UndefLineWidth:     0.1600*
G04 ================== end FILE IDENTIFICATION RECORD ====================*
%FSLAX25Y25*MOMM*%
%IR0*IPPOS*OFA0.00000B0.00000*MIA0B0*SFA1.00000B1.00000*%
%ADD14C,.5*%
%ADD15C,.8*%
%ADD13C,.65*%
%ADD11C,1.5*%
%ADD12C,1.15*%
%ADD10C,1.6*%
%ADD16C,.2*%
%ADD17C,.25*%
%ADD18C,.35*%
%ADD19C,1.8204*%
%ADD20C,1.9204*%
%ADD23C,2.0568*%
%ADD22C,1.7544*%
%ADD21C,1.8544*%
G75*
%LPD*%
G75*
G36*
G01X70000Y1770000D02*
X4230000D01*
X4234970Y1765030D01*
G02X4224480Y1748240I-7182J-7185D01*
G03X4191010Y1753840I-33473J-97241D01*
G01X4191000D01*
G03X4293840Y1651000I0J-102840D01*
G01Y1651010D01*
G03X4288240Y1684480I-102841J-3D01*
G02X4305030Y1694970I9605J3308D01*
G01X4310000Y1690000D01*
Y90000D01*
X4306010Y86010D01*
G02X4289130Y96230I-7186J7182D01*
G03X4293840Y126990I-98131J30766D01*
G01Y127000D01*
G03X4191000Y24160I-102840J0D01*
G01X4191010D01*
G03X4221770Y28870I-6J102841D01*
G02X4231990Y11990I3038J-9694D01*
G01X4230000Y10000D01*
X70000D01*
X10000Y70000D01*
Y1710000D01*
X70000Y1770000D01*
G37*
%LPC*%
G75*
G36*
G01X717220Y1516020D02*
X805190Y1603990D01*
X803510Y1607280D01*
G02X792980Y1651000I85497J43720D01*
G02X889000Y1554980I96020J0D01*
G02X845280Y1565510I0J96027D01*
G01X841990Y1567190D01*
X746400Y1471600D01*
G02X728000Y1463980I-18400J18405D01*
G01X436080D01*
X389910Y1417810D01*
X390200Y1415360D01*
G02X390520Y1410000I-44899J-5370D01*
G02X345300Y1455220I-45220J0D01*
G02X350660Y1454900I-10J-45219D01*
G01X353110Y1454610D01*
X406900Y1508400D01*
G02X425300Y1516020I18400J-18405D01*
G01X717220D01*
G37*
G36*
G01X1536750Y1068790D02*
G03Y1086210I-5222J8710D01*
G02X1514780Y1125000I23259J38790D01*
G02X1560000Y1170220I45220J0D01*
G02X1596980Y1151020I0J-45213D01*
G01X2725000D01*
G02X2743400Y1143400I0J-26025D01*
G01X2988400Y898400D01*
G02X2996020Y880000I-18405J-18400D01*
G01Y716980D01*
G02X3015220Y680000I-26013J-36980D01*
G02X2924780I-45220J0D01*
G02X2943980Y716980I45213J0D01*
G01Y869220D01*
X2870860Y942340D01*
G03X2853520Y935160I-7181J-7186D01*
G01Y523520D01*
X2999650D01*
G02X3030000Y535220I30350J-33514D01*
G02Y444780I0J-45220D01*
G02X2999650Y456480I0J45214D01*
G01X2720350D01*
G02X2694040Y444960I-30353J33519D01*
G01X2692200Y444800D01*
X2523700Y276300D01*
G02X2500000Y266480I-23700J23689D01*
G01X821880D01*
X722370Y166970D01*
X723680Y163830D01*
G02X731020Y127020I-88682J-36820D01*
G01Y127000D01*
G02X635000Y223020I-96020J0D01*
G01X635020D01*
G02X671830Y215680I-10J-96022D01*
G01X674970Y214370D01*
X784300Y323700D01*
G02X808000Y333520I23700J-23689D01*
G01X2486120D01*
X2644800Y492200D01*
X2644960Y494040D01*
G02X2690000Y535220I45040J-4041D01*
G02X2720350Y523520I0J-45214D01*
G01X2796480D01*
Y943190D01*
X2688190Y1051480D01*
X1621810D01*
X1605030Y1034690D01*
X1605150Y1032420D01*
G02X1605220Y1030000I-45147J-2517D01*
G02X1514780I-45220J0D01*
G02X1536750Y1068790I45229J0D01*
G37*
G36*
G01X3176480Y1169800D02*
Y1199310D01*
G02X3157280Y1240000I33517J40690D01*
G02X3262720I52720J0D01*
G02X3243520Y1199310I-52717J0D01*
G01Y1183680D01*
X3333700Y1093500D01*
G02X3343520Y1069800I-23689J-23700D01*
G01Y920000D01*
G02X3333700Y896300I-33509J0D01*
G01X3313520Y876120D01*
Y840690D01*
G02X3332720Y800000I-33517J-40690D01*
G02X3227280I-52720J0D01*
G02X3246480Y840690I52717J0D01*
G01Y890000D01*
G02X3256300Y913700I33509J0D01*
G01X3276480Y933880D01*
Y1055920D01*
X3186300Y1146100D01*
G02X3176480Y1169800I23689J23700D01*
G37*
G36*
G01X3388530Y1563930D02*
G02X3332980Y1651000I40462J87070D01*
G02X3525020I96020J0D01*
G02X3458540Y1559640I-96016J0D01*
G01X3455020Y1558500D01*
Y1548300D01*
G02X3447400Y1529900I-26025J0D01*
G01X3339100Y1421600D01*
G02X3320700Y1413980I-18400J18405D01*
G01X2950780D01*
X2946020Y1409220D01*
Y1346980D01*
G02X2965220Y1310000I-26013J-36980D01*
G02X2874780I-45220J0D01*
G02X2893980Y1346980I45213J0D01*
G01Y1420000D01*
G02X2901600Y1438400I26025J0D01*
G01X2908510Y1445310D01*
G03X2904920Y1453980I-3593J3591D01*
G01X2090780D01*
X2034610Y1397810D01*
X2034900Y1395360D01*
G02X2035220Y1390000I-44899J-5370D01*
G02X2001910Y1346380I-45216J0D01*
G03X1997400Y1329390I2672J-9803D01*
G01X2038520Y1288270D01*
G02X2046140Y1269870I-18405J-18400D01*
G01Y1237700D01*
G02X2057840Y1210390I-26023J-27310D01*
G02X1982400I-37720J0D01*
G02X1994100Y1237700I37723J0D01*
G01Y1259090D01*
X1872550Y1380640D01*
G03X1855210Y1373670I-7183J-7184D01*
G02X1810000Y1329390I-45210J940D01*
G02X1804640Y1329710I10J45219D01*
G01X1802190Y1330000D01*
X1713790Y1241600D01*
G02X1695390Y1233980I-18400J18405D01*
G01X625780D01*
X611740Y1219940D01*
X617270Y1214400D01*
X619960Y1214960D01*
G02X635000Y1216520I15065J-71957D01*
G02X703760Y1169020I0J-73518D01*
G01X867000D01*
G02X885400Y1161400I0J-26025D01*
G01X1160780Y886020D01*
X1949220D01*
X2001600Y938400D01*
G02X2020000Y946020I18400J-18405D01*
G01X2360000D01*
G02X2378400Y938400I0J-26025D01*
G01X2420780Y896020D01*
X2642690D01*
G02X2670000Y907720I27310J-26023D01*
G02X2707720Y870000I0J-37720D01*
G02X2698510Y845300I-37726J0D01*
G03Y832000I7679J-6650D01*
G02X2707720Y807300I-28516J-24700D01*
G02X2698560Y782660I-37720J0D01*
G03X2698950Y768950I7687J-6642D01*
G02X2709590Y742690I-27085J-26260D01*
G02X2699630Y717150I-37726J0D01*
G03X2699230Y703850I7475J-6881D01*
G02X2707720Y680010I-29226J-23840D01*
G02X2671060Y642300I-37725J0D01*
G01X2669040Y642250D01*
X2472390Y445600D01*
G02X2453990Y437980I-18400J18405D01*
G01X1865080D01*
G02X1846680Y445600I0J26025D01*
G01X1688300Y603980D01*
X1573850D01*
G03X1565810Y587620I6J-10158D01*
G02X1575220Y560000I-35812J-27614D01*
G02X1556360Y523260I-45215J0D01*
G03Y506740I5919J-8260D01*
G02X1575220Y470000I-26355J-36740D01*
G02X1530000Y424780I-45220J0D01*
G02X1524640Y425100I10J45219D01*
G01X1522190Y425390D01*
X1498400Y401600D01*
G02X1480000Y393980I-18400J18405D01*
G01X558000D01*
G02X539600Y401600I0J26025D01*
G01X465280Y475920D01*
X462170Y474690D01*
G02X435000Y469480I-27183J68308D01*
G02Y616520I0J73520D01*
G02X495460Y584820I0J-73506D01*
G03X513980Y590600I8358J5779D01*
G01Y627220D01*
X465280Y675920D01*
X462170Y674690D01*
G02X435000Y669480I-27183J68308D01*
G02X508520Y743000I0J73520D01*
G02X503310Y715830I-73518J13D01*
G01X502080Y712720D01*
X558400Y656400D01*
G02X566020Y638000I-18405J-18400D01*
G01Y602520D01*
G03X583320Y595290I10160J-2D01*
G02X635000Y616520I51680J-52287D01*
G02X703760Y569020I0J-73518D01*
G01X747650D01*
G03X754840Y586360I4J10159D01*
G01X665280Y675920D01*
X662170Y674690D01*
G02X635000Y669480I-27183J68308D01*
G02X708520Y743000I0J73520D01*
G02X703310Y715830I-73518J13D01*
G01X702080Y712720D01*
X809780Y605020D01*
X1378220D01*
X1461600Y688400D01*
G02X1480000Y696020I18400J-18405D01*
G01X1710000D01*
G02X1728400Y688400I0J-26025D01*
G01X1890780Y526020D01*
X2370700D01*
X2605770Y761090D01*
G02X2624170Y768710I18400J-18405D01*
G01X2644560D01*
G02X2646330Y770450I27314J-26015D01*
G03X2646110Y778110I-3443J3734D01*
G02X2642690Y781280I23883J29196D01*
G01X2465670D01*
X2275990Y591600D01*
G02X2257590Y583980I-18400J18405D01*
G01X2010000D01*
G02X1991600Y591600I0J26025D01*
G01X1789220Y793980D01*
X1173850D01*
G03X1165810Y777620I6J-10158D01*
G02X1175220Y750000I-35812J-27614D01*
G02X1084780I-45220J0D01*
G02X1085100Y755360I45219J-10D01*
G01X1085390Y757810D01*
X909220Y933980D01*
X856980D01*
G02X820000Y914780I-36980J26013D01*
G02X774780Y960000I0J45220D01*
G02X784190Y987620I45222J6D01*
G03X776150Y1003980I-8046J6202D01*
G01X732780D01*
X702080Y973280D01*
X703310Y970170D01*
G02X708520Y943000I-68308J-27183D01*
G02X635000Y1016520I-73520J0D01*
G02X662170Y1011310I-13J-73518D01*
G01X665280Y1010080D01*
X703600Y1048400D01*
G02X722000Y1056020I18400J-18405D01*
G01X892650D01*
G03X899840Y1073360I4J10159D01*
G01X856220Y1116980D01*
X703760D01*
G02X635000Y1069480I-68760J26018D01*
G02X583320Y1090710I0J73517D01*
G03X566020Y1083480I-7140J-7228D01*
G01Y1048000D01*
G02X558400Y1029600I-26025J0D01*
G01X502080Y973280D01*
X503310Y970170D01*
G02X508520Y943000I-68308J-27183D01*
G02X435000Y1016520I-73520J0D01*
G02X462170Y1011310I-13J-73518D01*
G01X465280Y1010080D01*
X513980Y1058780D01*
Y1095400D01*
G03X495460Y1101180I-10162J1D01*
G02X435000Y1069480I-60460J41806D01*
G02Y1216520I0J73520D01*
G02X462170Y1211310I-13J-73518D01*
G01X465280Y1210080D01*
X573600Y1318400D01*
G02X592000Y1326020I18400J-18405D01*
G01X1629230D01*
X1761610Y1458400D01*
G02X1780010Y1466020I18400J-18405D01*
G01X1849990D01*
G02X1868390Y1458400I0J-26025D01*
G01X1929390Y1397400D01*
G03X1946380Y1401910I7187J7182D01*
G02X1990000Y1435220I43620J-11906D01*
G02X1995360Y1434900I-10J-45219D01*
G01X1997810Y1434610D01*
X2061600Y1498400D01*
G02X2080000Y1506020I18400J-18405D01*
G01X2993220D01*
X3091190Y1603990D01*
X3089510Y1607280D01*
G02X3078980Y1651000I85497J43720D01*
G02X3175000Y1554980I96020J0D01*
G02X3128040Y1567250I5J96019D01*
G01X3044160Y1483360D01*
G03X3051350Y1466020I7186J-7181D01*
G01X3309920D01*
X3391430Y1547530D01*
G03X3388530Y1563930I-7183J7186D01*
G37*
G54D19*
X127000Y1016000D03*
Y1270000D03*
Y508000D03*
X4159250Y1016000D03*
G54D20*
X2413000Y1651000D03*
X2159000D03*
X1905000D03*
X1651000D03*
X1397000D03*
X1143000D03*
X635000D03*
X3937000D03*
X3683000D03*
X2921000D03*
X2667000D03*
X381000D03*
X2413000Y127000D03*
X2159000D03*
X1905000D03*
X1651000D03*
X1397000D03*
X1143000D03*
X889000D03*
X3937000D03*
X3429000D03*
X3175000D03*
X2921000D03*
X2667000D03*
G54D23*
X127000D03*
Y1651000D03*
G54D22*
Y762000D03*
X4159250Y1270000D03*
G54D21*
X3683000Y127000D03*
X381000D03*
%LPD*%
G75*
G36*
G01X2030780Y893980D02*
X2349220D01*
X2391600Y851600D01*
G03X2410000Y843980I18400J18405D01*
G01X2642690D01*
G03X2644320Y842370I27310J26019D01*
G02Y834930I-3458J-3720D01*
G03X2642690Y833320I25680J-27629D01*
G01X2454890D01*
G03X2436490Y825700I0J-26025D01*
G01X2246810Y636020D01*
X2020780D01*
X1840160Y816640D01*
G02X1847350Y833980I7186J7181D01*
G01X1960000D01*
G03X1978400Y841600I0J26025D01*
G01X2030780Y893980D01*
G37*
G36*
G01X2646190Y709350D02*
X2644540Y707840D01*
G03X2632290Y681070I25456J-27837D01*
G01X2632240Y679050D01*
X2443210Y490020D01*
X2432820D01*
G02X2425640Y507360I6J10159D01*
G01X2634950Y716670D01*
X2642990D01*
G03X2646190Y713510I28867J26032D01*
G01Y709350D01*
G37*
G54D10*
X381000Y127000D03*
Y1651000D03*
X1143000Y127000D03*
X889000D03*
X635000D03*
X1143000Y1651000D03*
X889000D03*
X635000D03*
X1905000Y127000D03*
X1651000D03*
X1397000D03*
X1905000Y1651000D03*
X1651000D03*
X1397000D03*
X2667000Y127000D03*
X2413000D03*
X2159000D03*
X2667000Y1651000D03*
X2413000D03*
X2159000D03*
X3429000Y127000D03*
X3175000D03*
X2921000D03*
X3429000Y1651000D03*
X3175000D03*
X2921000D03*
X3937000Y127000D03*
X3683000D03*
X3937000Y1651000D03*
X3683000D03*
G54D11*
X127000Y508000D03*
Y1016000D03*
Y1270000D03*
Y762000D03*
X4159250Y1016000D03*
Y1270000D03*
G54D12*
X435000Y543000D03*
Y743000D03*
Y943000D03*
Y1143000D03*
X635000Y543000D03*
Y743000D03*
Y943000D03*
Y1143000D03*
G54D13*
X345300Y1410000D03*
X820000Y960000D03*
X1130000Y750000D03*
X857500Y1382500D03*
X1530000Y470000D03*
Y560000D03*
X1560000Y1125000D03*
X1340000Y1020000D03*
X1560000Y1030000D03*
X1990000Y1390000D03*
X1810000Y1374610D03*
X2690000Y490000D03*
X2438380Y671620D03*
X2360000Y1190000D03*
X3030000Y490000D03*
X2970000Y680000D03*
X2920000Y1310000D03*
G54D14*
X2020120Y1210390D03*
X2670000Y870000D03*
Y807300D03*
X2671870Y742690D03*
X2670000Y680010D03*
G54D15*
X1880000Y980000D03*
X2680000Y350000D03*
X2090000Y840000D03*
X2770000Y1190000D03*
X3230000Y370000D03*
X3030000Y990000D03*
X3200000D03*
X3280000Y800000D03*
X3210000Y1240000D03*
X4150000Y460000D03*
G54D16*
G01X1530000Y470000D02*
X1480000Y420000D01*
X558000D01*
X435000Y543000D01*
G01X1530000Y560000D02*
X1426000Y456000D01*
X584010D01*
X540000Y500010D01*
Y638000D01*
X435000Y743000D01*
G01X2020120Y1210390D02*
Y1269870D01*
X1849990Y1440000D01*
X1780010D01*
X1640010Y1300000D01*
X592000D01*
X435000Y1143000D01*
G01X1810000Y1374610D02*
X1695390Y1260000D01*
X615000D01*
X540000Y1185000D01*
Y1048000D01*
X435000Y943000D01*
G01X889000Y1651000D02*
X728000Y1490000D01*
X425300D01*
X345300Y1410000D01*
G01X820000Y960000D02*
X920000D01*
X1130000Y750000D01*
G01X635000Y1143000D02*
X867000D01*
X1150000Y860000D01*
X1960000D01*
X2020000Y920000D01*
X2360000D01*
X2410000Y870000D01*
X2670000D01*
G01Y807300D02*
X2454890D01*
X2257590Y610000D01*
X2010000D01*
X1800000Y820000D01*
X1120000D01*
X1116000Y824000D01*
X1115080D01*
X909080Y1030000D01*
X722000D01*
X635000Y943000D01*
G01Y743000D02*
X799000Y579000D01*
X1389000D01*
X1480000Y670000D01*
X1710000D01*
X1880000Y500000D01*
X2381480D01*
X2624170Y742690D01*
X2671870D01*
G01X635000Y543000D02*
X1413000D01*
X1500000Y630000D01*
X1699080D01*
X1865080Y464000D01*
X2453990D01*
X2670000Y680010D01*
G01X2970000Y680000D02*
Y880000D01*
X2725000Y1125000D01*
X1560000D01*
G01X3175000Y1651000D02*
X3004000Y1480000D01*
X2080000D01*
X1990000Y1390000D01*
G01X2920000Y1310000D02*
Y1420000D01*
X2940000Y1440000D01*
X3320700D01*
X3429000Y1548300D01*
Y1651000D01*
G01X4160000Y1270000D02*
X4159250D01*
G54D17*
G01X1560000Y1030000D02*
X1610000Y1080000D01*
X2700000D01*
X2825000Y955000D01*
Y490000D01*
G54D18*
G01X381000Y29200D02*
Y127000D01*
G01D02*
Y224800D01*
G01X283200Y127000D02*
X381000D01*
G01D02*
X478800D01*
G01X127000Y669200D02*
Y762000D01*
G01D02*
Y854800D01*
G01X34200Y762000D02*
X127000D01*
G01D02*
X219800D01*
G01X2690000Y490000D02*
X2500000Y300000D01*
X808000D01*
X635000Y127000D01*
G01X2825000Y490000D02*
X2690000D01*
G01X2825000D02*
X3030000D01*
G01X3280000Y800000D02*
Y890000D01*
X3310000Y920000D01*
Y1069800D01*
X3210000Y1169800D01*
Y1240000D01*
G01X3683000Y29200D02*
Y127000D01*
G01D02*
Y224800D01*
G01X3585200Y127000D02*
X3683000D01*
G01D02*
X3780800D01*
G01X4159250Y1177200D02*
Y1270000D01*
G01D02*
Y1362800D01*
G01X4066450Y1270000D02*
X4159250D01*
M02*
