G04 ================== begin FILE IDENTIFICATION RECORD ==================*
G04 Layout Name:  C:/Users/DF/Desktop/MEGA128L/footprint/Nano128l.brd*
G04 Film Name:    TOP*
G04 File Format:  Gerber RS274X*
G04 File Origin:  Cadence Allegro 17.2-S058*
G04 Origin Date:  Sat Apr 04 22:42:22 2020*
G04 *
G04 Layer:  ETCH/TOP*
G04 Layer:  PIN/TOP*
G04 Layer:  VIA CLASS/TOP*
G04 *
G04 Offset:    (0.0000 0.0000)*
G04 Mirror:    No*
G04 Mode:      Positive*
G04 Rotation:  0*
G04 FullContactRelief:  No*
G04 UndefLineWidth:     0.1600*
G04 ================== end FILE IDENTIFICATION RECORD ====================*
%FSLAX25Y25*MOMM*%
%IR0*IPPOS*OFA0.00000B0.00000*MIA0B0*SFA1.00000B1.00000*%
%ADD25R,1.X.9*%
%ADD15R,.9X1.*%
%ADD21C,.5*%
%ADD14C,.6*%
%ADD17R,3.6X.85*%
%ADD22C,.75*%
%ADD13R,.75X.75*%
%ADD24R,1.6X3.*%
%ADD28R,1.8X1.03*%
%ADD27R,2.7X1.32*%
%ADD23R,.9X.6*%
%ADD16R,.92X.3*%
%ADD11C,1.5*%
%ADD12C,1.15*%
%ADD10C,1.6*%
%ADD26R,5.6X5.8*%
%ADD20R,5.588X5.588*%
%ADD19R,.2794X.8382*%
%ADD18R,.8382X.2794*%
%ADD29C,.2*%
%ADD30C,.3*%
%ADD31C,.4*%
%ADD32C,.25*%
%ADD33C,.35*%
%ADD34C,.65*%
G75*
%LPD*%
G75*
G54D10*
X381000Y127000D03*
Y1651000D03*
X1143000Y127000D03*
X889000D03*
X635000D03*
X1143000Y1651000D03*
X889000D03*
X635000D03*
X1905000Y127000D03*
X1651000D03*
X1397000D03*
X1905000Y1651000D03*
X1651000D03*
X1397000D03*
X2667000Y127000D03*
X2413000D03*
X2159000D03*
X2667000Y1651000D03*
X2413000D03*
X2159000D03*
X3429000Y127000D03*
X3175000D03*
X2921000D03*
X3429000Y1651000D03*
X3175000D03*
X2921000D03*
X3937000Y127000D03*
X3683000D03*
X3937000Y1651000D03*
X3683000D03*
G54D20*
X2095100Y846580D03*
G54D11*
X127000Y508000D03*
Y1016000D03*
Y1270000D03*
Y762000D03*
X4159250Y1016000D03*
Y1270000D03*
G54D30*
G01X127000Y508000D02*
X254000D01*
X635000Y127000D01*
G01X845000Y670000D02*
Y520000D01*
G01D02*
Y337000D01*
X635000Y127000D01*
G01X814000Y880000D02*
X920000D01*
G01D02*
X1006000D01*
G01X920000D02*
Y750000D01*
X845000Y675000D01*
G01X2360000Y1190000D02*
Y1090000D01*
G54D12*
X435000Y543000D03*
Y743000D03*
Y943000D03*
Y1143000D03*
X635000Y543000D03*
Y743000D03*
Y943000D03*
Y1143000D03*
G54D21*
X2020120Y1210390D03*
X2670000Y870000D03*
Y807300D03*
X2671870Y742690D03*
X2670000Y680010D03*
G54D31*
G01X4128400Y750000D02*
X4030000D01*
X3960000Y680000D01*
X3887800D01*
X3849500Y641700D01*
Y539000D01*
G01X4130000Y748400D02*
Y868600D01*
X4159250Y897850D01*
Y1016000D01*
G54D13*
X522500Y1360000D03*
X357500D03*
G54D22*
X1880000Y980000D03*
X2680000Y350000D03*
X2090000Y840000D03*
X2770000Y1190000D03*
X3230000Y370000D03*
X3030000Y990000D03*
X3200000D03*
X3280000Y800000D03*
X3210000Y1240000D03*
X4150000Y460000D03*
G54D32*
G01X127000Y1016000D02*
X303000Y840000D01*
X720000D01*
X745000Y815000D01*
X814000D01*
G01X1006000Y945000D02*
X975000D01*
X760000Y1160000D01*
Y1210000D01*
X700000Y1270000D01*
X127000D01*
G01X889000Y127000D02*
Y232200D01*
X920000Y263200D01*
Y590000D01*
X995000Y665000D01*
G01Y520000D02*
X1140000D01*
G01D02*
X1130000Y530000D01*
Y750000D01*
G01X1140000Y520000D02*
X1143000Y517000D01*
Y127000D01*
G01X1006000Y815000D02*
Y753700D01*
G01X995000Y742700D02*
Y670000D01*
G01X1006000Y815000D02*
X1580480D01*
X1587070Y821590D01*
X1651680D01*
G01X1130000Y750000D02*
X1280000D01*
X1301600Y771600D01*
X1651680D01*
G01Y971550D02*
X1718450D01*
X1750000Y940000D01*
X2001680D01*
G01X1651680Y1021530D02*
X1568470D01*
X1560000Y1030000D01*
G01X2690000Y490000D02*
X2650960Y529040D01*
Y559040D01*
X2588360Y621640D01*
X2538520D01*
G01Y671620D02*
X2438380D01*
G01D02*
X2423550D01*
X2391930Y640000D01*
X2301680D01*
G01X2750000Y1190000D02*
X2682300D01*
X2663800Y1171500D01*
X2538520D01*
G01Y1221480D02*
X2626480D01*
X2735000Y1330000D01*
G01X3937000Y1651000D02*
Y1548300D01*
X3828700Y1440000D01*
X2619990D01*
X2569990Y1390000D01*
X2455400D01*
X2420010Y1354610D01*
Y1290000D01*
G01X2370030D02*
Y1380020D01*
X2430010Y1440000D01*
X2539990D01*
X2589990Y1490000D01*
X3624700D01*
X3683000Y1548300D01*
Y1651000D01*
G01X2159000D02*
Y1545800D01*
X2170080Y1534720D01*
Y1290000D01*
G01X3055000Y365000D02*
X3150000Y270000D01*
X3286000D01*
X3429000Y127000D01*
G01X3333500Y525000D02*
X3230000D01*
G54D23*
X2650000Y520000D03*
Y380000D03*
X2750000Y1190000D03*
Y1330000D03*
X3010000Y790000D03*
Y650000D03*
G54D14*
X345300Y1410000D03*
X820000Y960000D03*
X1130000Y750000D03*
X857500Y1382500D03*
X1530000Y470000D03*
Y560000D03*
X1560000Y1125000D03*
X1340000Y1020000D03*
X1560000Y1030000D03*
X1990000Y1390000D03*
X1810000Y1374610D03*
X2690000Y490000D03*
X2438380Y671620D03*
X2360000Y1190000D03*
X3030000Y490000D03*
X2970000Y680000D03*
X2920000Y1310000D03*
G54D33*
G01X522500Y1360000D02*
X685000D01*
G01X1280000Y1010000D02*
X1270000Y1020000D01*
X1060000D01*
X835000Y1245000D01*
Y1360000D01*
G01X2750000Y1330000D02*
X2825200D01*
X2882300Y1387100D01*
X2955400D01*
X3042500Y1300000D01*
G01X3230000Y655000D02*
Y525000D01*
G01X3030000Y490000D02*
X3130000Y590000D01*
Y717700D01*
X3212300Y800000D01*
X3280000D01*
G01X3170000Y1300000D02*
X3210000Y1260000D01*
G01X3937000Y127000D02*
X3849500Y214500D01*
Y469000D01*
G01Y539000D02*
Y469000D01*
G54D24*
X3389500D03*
X3849500D03*
G54D15*
X845000Y520000D03*
X995000D03*
Y670000D03*
X845000D03*
X685000Y1360000D03*
X835000D03*
G54D34*
G01X3170000Y1300000D02*
X3408500D01*
G01X3111500D02*
X3170000D01*
G54D16*
X1006000Y945000D03*
Y880000D03*
Y815000D03*
X814000D03*
Y945000D03*
Y880000D03*
G54D25*
X3230000Y525000D03*
Y375000D03*
X3050000Y515000D03*
Y365000D03*
X3230000Y655000D03*
Y805000D03*
G54D26*
X3619500Y1089000D03*
G54D17*
X1280000Y889350D03*
Y1010000D03*
Y1130650D03*
G54D18*
X1651680Y521660D03*
Y471680D03*
Y1221480D03*
Y1171500D03*
Y1121510D03*
Y1071520D03*
Y1021530D03*
Y971550D03*
Y921560D03*
Y871570D03*
Y821590D03*
Y771600D03*
Y721610D03*
Y671620D03*
Y621640D03*
Y571650D03*
X2538520Y471680D03*
Y521660D03*
Y571650D03*
Y621640D03*
Y671620D03*
Y721610D03*
Y771600D03*
Y821590D03*
Y871570D03*
Y921560D03*
Y971550D03*
Y1021530D03*
Y1071520D03*
Y1121510D03*
Y1171500D03*
Y1221480D03*
G54D27*
X3111500Y986000D03*
Y1300000D03*
G54D19*
X1720190Y403160D03*
X1770180D03*
X1820170D03*
X1870150D03*
X1920140D03*
X1970130D03*
X2020120D03*
Y1290000D03*
X1970130D03*
X1920140D03*
X1870150D03*
X1820170D03*
X1770180D03*
X1720190D03*
X2070100Y403160D03*
X2120090D03*
X2170080D03*
X2220060D03*
X2270050D03*
X2320040D03*
X2370030D03*
X2420010D03*
X2470000D03*
Y1290000D03*
X2420010D03*
X2370030D03*
X2320040D03*
X2270050D03*
X2220060D03*
X2170080D03*
X2120090D03*
X2070100D03*
G54D28*
X4130000Y451600D03*
Y748400D03*
G54D29*
G01X357500Y1360000D02*
Y1397800D01*
X345300Y1410000D01*
G01X1651680Y1221480D02*
X1158520D01*
X920000Y1460000D01*
X572000D01*
X381000Y1651000D01*
G01X995000Y665000D02*
Y670000D01*
G01X1006000Y753700D02*
X995000Y742700D01*
G01X814000Y945000D02*
X820000Y951000D01*
Y960000D01*
G01X1260000Y1130650D02*
X1280000D01*
G01X1260000Y889350D02*
X1280000D01*
G01X845000Y675000D02*
Y670000D01*
G01X1143000Y1651000D02*
Y1548300D01*
X1241300Y1450000D01*
X1850150D01*
X1870150Y1430000D01*
Y1290000D01*
G01X889000Y1651000D02*
X1160000Y1380000D01*
X1725410D01*
X1770180Y1335230D01*
Y1290000D01*
G01X1720190D02*
X1170000D01*
X940000Y1520000D01*
X766000D01*
X635000Y1651000D01*
G01X857500Y1382500D02*
X835000Y1360000D01*
G01X1397000Y127000D02*
X1324380Y199620D01*
Y634380D01*
X1410500Y720500D01*
X1598420D01*
X1599530Y721610D01*
X1651680D01*
G01X1651000Y127000D02*
X1578380Y199620D01*
X1530380D01*
X1380000Y350000D01*
Y620000D01*
X1431620Y671620D01*
X1651680D01*
G01Y621640D02*
X1470000D01*
X1440000Y591640D01*
Y380000D01*
X1560000Y260000D01*
X1772000D01*
X1905000Y127000D01*
G01X1530000Y470000D02*
X1581660Y521660D01*
X1651680D01*
G01X1530000Y560000D02*
X1550000D01*
X1561650Y571650D01*
X1651680D01*
G01X1280000Y1130650D02*
X1459350D01*
X1500000Y1090000D01*
Y950000D01*
X1530000Y920000D01*
X1585510D01*
X1587070Y921560D01*
X1651680D01*
G01X1280000Y889350D02*
X1462700D01*
X1480480Y871570D01*
X1651680D01*
G01X1560000Y1125000D02*
Y1110000D01*
X1598480Y1071520D01*
X1651680D01*
G01X2020120Y1210390D02*
Y1290000D01*
G01X2001680Y940000D02*
X2095100Y846580D01*
G01X1905000Y1651000D02*
X2120090Y1435910D01*
Y1290000D01*
G01X2070100D02*
Y1399900D01*
X1930000Y1540000D01*
X1762000D01*
X1651000Y1651000D01*
G01X1970130Y1290000D02*
Y1370130D01*
X1990000Y1390000D01*
G01X1397000Y1651000D02*
Y1548300D01*
X1445300Y1500000D01*
X1870000D01*
X1920140Y1449860D01*
Y1290000D01*
G01X1810000Y1374610D02*
Y1370000D01*
X1820170Y1359830D01*
Y1290000D01*
G01X2667000Y127000D02*
X2739620Y199620D01*
X2789620D01*
X2830000Y240000D01*
Y970010D01*
X2778480Y1021530D01*
X2538520D01*
G01Y971550D02*
X2758440D01*
X2786000Y943990D01*
Y265990D01*
X2760010Y240000D01*
X2526000D01*
X2413000Y127000D01*
G01X2538520Y921560D02*
X2730000D01*
X2750000Y901560D01*
Y300010D01*
X2729990Y280000D01*
X2312000D01*
X2159000Y127000D01*
G01X2650000Y380000D02*
X2680000Y350000D01*
G01X2650000Y520000D02*
X2670000D01*
X2690000Y500000D01*
Y490000D01*
G01X2921000Y127000D02*
Y259000D01*
X2870000Y310000D01*
Y999990D01*
X2799990Y1070000D01*
X2604650D01*
X2603130Y1071520D01*
X2538520D01*
G01X2670000Y870000D02*
X2608480D01*
X2606910Y871570D01*
X2538520D01*
G01X2670000Y807300D02*
X2617420D01*
X2603130Y821590D01*
X2538520D01*
G01X2671870Y742690D02*
X2635810D01*
X2606900Y771600D01*
X2538520D01*
G01X2670000Y680010D02*
X2669140Y679150D01*
X2640850D01*
X2598390Y721610D01*
X2538520D01*
G01X2301680Y640000D02*
X2095100Y846580D01*
G01X2360000Y1090000D02*
X2290000Y1020000D01*
G01X2750000Y1190000D02*
X2770000D01*
G01X2735000Y1330000D02*
X2750000D01*
G01X2538520Y1121510D02*
X2848480D01*
X2910000Y1059990D01*
Y359990D01*
X3015990Y254000D01*
X3048000D01*
X3175000Y127000D01*
G01X2921000Y1651000D02*
X2810000Y1540000D01*
X2529990D01*
X2479990Y1490000D01*
X2400000D01*
X2320040Y1410040D01*
Y1290000D01*
G01X2667000Y1651000D02*
X2564300D01*
X2443300Y1530000D01*
X2370000D01*
X2270050Y1430050D01*
Y1290000D01*
G01X2413000Y1651000D02*
X2220060Y1458060D01*
Y1290000D01*
G01X3042500Y1300000D02*
X3111500D01*
G01X2744480Y1386000D02*
X2694230D01*
X2639980Y1331750D01*
X2481730D01*
X2475880Y1325900D01*
Y1295880D01*
X2470000Y1290000D01*
G01X3050000Y365000D02*
X3045000D01*
X2970000Y440000D01*
Y680000D01*
G01X3050000Y365000D02*
X3055000D01*
G01X3389500Y469000D02*
X3333500Y525000D01*
G01X2920000Y1310000D02*
Y1140000D01*
X2950000Y1110000D01*
Y880000D01*
X3010000Y820000D01*
Y790000D01*
G01X3408500Y1300000D02*
X3619500Y1089000D01*
G01X3210000Y1260000D02*
Y1240000D01*
G01X4130000Y748400D02*
X4128400Y750000D01*
M02*
