G04 ================== begin FILE IDENTIFICATION RECORD ==================*
G04 Layout Name:  C:/Users/DF/Desktop/MEGA128L/footprint/Nano128l.brd*
G04 Film Name:    TOP_SC*
G04 File Format:  Gerber RS274X*
G04 File Origin:  Cadence Allegro 17.2-S058*
G04 Origin Date:  Sat Apr 04 22:42:22 2020*
G04 *
G04 Layer:  REF DES/SILKSCREEN_TOP*
G04 Layer:  BOARD GEOMETRY/SILKSCREEN_TOP*
G04 *
G04 Offset:    (0.0000 0.0000)*
G04 Mirror:    No*
G04 Mode:      Positive*
G04 Rotation:  0*
G04 FullContactRelief:  No*
G04 UndefLineWidth:     0.1600*
G04 ================== end FILE IDENTIFICATION RECORD ====================*
%FSLAX25Y25*MOMM*%
%IR0*IPPOS*OFA0.00000B0.00000*MIA0B0*SFA1.00000B1.00000*%
%ADD10C,.2*%
G75*
%LPD*%
G75*
G36*
G01X380000Y1010000D02*
Y1050000D01*
X480000D01*
Y1010000D01*
X380000D01*
G37*
G36*
G01X340000Y1730000D02*
Y1770000D01*
X440000D01*
Y1730000D01*
X340000D01*
G37*
G36*
G01X580000D02*
Y1770000D01*
X680000D01*
Y1730000D01*
X580000D01*
G37*
G36*
G01X840000D02*
Y1770000D01*
X940000D01*
Y1730000D01*
X840000D01*
G37*
G36*
G01X2620000D02*
Y1770000D01*
X2720000D01*
Y1730000D01*
X2620000D01*
G37*
G36*
G01X2360000D02*
Y1770000D01*
X2460000D01*
Y1730000D01*
X2360000D01*
G37*
G36*
G01X2100000D02*
Y1770000D01*
X2200000D01*
Y1730000D01*
X2100000D01*
G37*
G54D10*
G01X460670Y248000D02*
X468670Y237500D01*
X479330Y231500D01*
X491330Y230000D01*
X502000Y231500D01*
X512670Y239000D01*
X519330Y248000D01*
X520670Y257000D01*
X518000Y267500D01*
X508670Y275000D01*
X499330Y278000D01*
X487330D01*
G01X499330D02*
X507330Y282500D01*
X514000Y290000D01*
X516670Y299000D01*
X514000Y308000D01*
X507330Y315500D01*
X495330Y320000D01*
X483330Y318500D01*
X471330Y312500D01*
G01X546670Y320000D02*
X580000Y230000D01*
X613330Y320000D01*
G01X640670Y248000D02*
X648670Y237500D01*
X659330Y231500D01*
X671330Y230000D01*
X682000Y231500D01*
X692670Y239000D01*
X699330Y248000D01*
X700670Y257000D01*
X698000Y267500D01*
X688670Y275000D01*
X679330Y278000D01*
X667330D01*
G01X679330D02*
X687330Y282500D01*
X694000Y290000D01*
X696670Y299000D01*
X694000Y308000D01*
X687330Y315500D01*
X675330Y320000D01*
X663330Y318500D01*
X651330Y312500D01*
G01X12000Y1112000D02*
X22670Y1104500D01*
X34670Y1100000D01*
X45330D01*
X56000Y1104500D01*
X64000Y1112000D01*
X68000Y1122500D01*
X65330Y1133000D01*
X58670Y1142000D01*
X46670Y1148000D01*
X30670Y1151000D01*
X21330Y1157000D01*
X17330Y1167500D01*
X20000Y1178000D01*
X26670Y1185500D01*
X36000Y1190000D01*
X45330D01*
X54670Y1187000D01*
X62670Y1179500D01*
G01X159330Y1182500D02*
X151330Y1187000D01*
X142000Y1190000D01*
X131330D01*
X119330Y1185500D01*
X110000Y1178000D01*
X103330Y1169000D01*
X98000Y1154000D01*
X96670Y1140500D01*
X99330Y1127000D01*
X103330Y1118000D01*
X111330Y1109000D01*
X120670Y1103000D01*
X130000Y1100000D01*
X139330D01*
X148670Y1103000D01*
X156670Y1107500D01*
X163330Y1113500D01*
G01X193330Y1190000D02*
Y1100000D01*
X246670D01*
G01X48000Y895000D02*
X74670D01*
Y868000D01*
X66670Y859000D01*
X57330Y853000D01*
X44000Y850000D01*
X30670Y853000D01*
X21330Y859000D01*
X13330Y868000D01*
X8000Y878500D01*
X5330Y890500D01*
Y901000D01*
X8000Y910000D01*
X13330Y920500D01*
X21330Y929500D01*
X29330Y935500D01*
X40000Y940000D01*
X49330D01*
X60000Y937000D01*
X68000Y931000D01*
G01X99330Y850000D02*
Y940000D01*
X160670Y850000D01*
Y940000D01*
G01X190670Y850000D02*
Y940000D01*
X217330D01*
X228000Y935500D01*
X236000Y929500D01*
X242670Y920500D01*
X248000Y910000D01*
X249330Y895000D01*
X248000Y880000D01*
X242670Y869500D01*
X236000Y860500D01*
X228000Y854500D01*
X217330Y850000D01*
X190670D01*
G01X10670Y608000D02*
X18670Y597500D01*
X29330Y591500D01*
X41330Y590000D01*
X52000Y591500D01*
X62670Y599000D01*
X69330Y608000D01*
X70670Y617000D01*
X68000Y627500D01*
X58670Y635000D01*
X49330Y638000D01*
X37330D01*
G01X49330D02*
X57330Y642500D01*
X64000Y650000D01*
X66670Y659000D01*
X64000Y668000D01*
X57330Y675500D01*
X45330Y680000D01*
X33330Y678500D01*
X21330Y672500D01*
G01X96670Y680000D02*
X130000Y590000D01*
X163330Y680000D01*
G01X190670Y608000D02*
X198670Y597500D01*
X209330Y591500D01*
X221330Y590000D01*
X232000Y591500D01*
X242670Y599000D01*
X249330Y608000D01*
X250670Y617000D01*
X248000Y627500D01*
X238670Y635000D01*
X229330Y638000D01*
X217330D01*
G01X229330D02*
X237330Y642500D01*
X244000Y650000D01*
X246670Y659000D01*
X244000Y668000D01*
X237330Y675500D01*
X225330Y680000D01*
X213330Y678500D01*
X201330Y672500D01*
G01X12000Y1372000D02*
X22670Y1364500D01*
X34670Y1360000D01*
X45330D01*
X56000Y1364500D01*
X64000Y1372000D01*
X68000Y1382500D01*
X65330Y1393000D01*
X58670Y1402000D01*
X46670Y1408000D01*
X30670Y1411000D01*
X21330Y1417000D01*
X17330Y1427500D01*
X20000Y1438000D01*
X26670Y1445500D01*
X36000Y1450000D01*
X45330D01*
X54670Y1447000D01*
X62670Y1439500D01*
G01X100670Y1360000D02*
Y1450000D01*
X127330D01*
X138000Y1445500D01*
X146000Y1439500D01*
X152670Y1430500D01*
X158000Y1420000D01*
X159330Y1405000D01*
X158000Y1390000D01*
X152670Y1379500D01*
X146000Y1370500D01*
X138000Y1364500D01*
X127330Y1360000D01*
X100670D01*
G01X186670D02*
X220000Y1450000D01*
X253330Y1360000D01*
G01X241330Y1391500D02*
X198670D01*
G01X330000Y1450000D02*
Y1540000D01*
X314000Y1522000D01*
G01Y1450000D02*
X346000D01*
G01X390670Y1463500D02*
X398670Y1456000D01*
X408000Y1451500D01*
X420000Y1450000D01*
X432000Y1453000D01*
X441330Y1459000D01*
X448000Y1469500D01*
X449330Y1481500D01*
X446670Y1493500D01*
X440000Y1501000D01*
X430670Y1507000D01*
X421330Y1508500D01*
X412000Y1507000D01*
X400000Y1501000D01*
X404000Y1540000D01*
X440000D01*
G01X889330Y322500D02*
X881330Y327000D01*
X872000Y330000D01*
X861330D01*
X849330Y325500D01*
X840000Y318000D01*
X833330Y309000D01*
X828000Y294000D01*
X826670Y280500D01*
X829330Y267000D01*
X833330Y258000D01*
X841330Y249000D01*
X850670Y243000D01*
X860000Y240000D01*
X869330D01*
X878670Y243000D01*
X886670Y247500D01*
X893330Y253500D01*
G01X923330Y330000D02*
Y240000D01*
X976670D01*
G01X1070670D02*
Y330000D01*
X1097330D01*
X1108000Y325500D01*
X1116000Y319500D01*
X1122670Y310500D01*
X1128000Y300000D01*
X1129330Y285000D01*
X1128000Y270000D01*
X1122670Y259500D01*
X1116000Y250500D01*
X1108000Y244500D01*
X1097330Y240000D01*
X1070670D01*
G01X1156670D02*
X1190000Y330000D01*
X1223330Y240000D01*
G01X1211330Y271500D02*
X1168670D01*
G01X1083330Y490000D02*
Y580000D01*
X1116670D01*
X1127330Y575500D01*
X1134000Y569500D01*
X1136670Y557500D01*
X1134000Y545500D01*
X1126000Y538000D01*
X1116670Y533500D01*
X1083330D01*
G01X1116670D02*
X1136670Y490000D01*
G01X1174670Y527500D02*
X1184000Y538000D01*
X1192000Y544000D01*
X1202670Y547000D01*
X1212000Y544000D01*
X1218670Y538000D01*
X1224000Y529000D01*
X1225330Y518500D01*
X1224000Y509500D01*
X1218670Y500500D01*
X1210670Y493000D01*
X1201330Y490000D01*
X1190670Y493000D01*
X1181330Y502000D01*
X1176000Y515500D01*
X1174670Y530500D01*
X1177330Y550000D01*
X1181330Y560500D01*
X1188000Y571000D01*
X1197330Y578500D01*
X1206670Y580000D01*
X1216000Y577000D01*
X1222670Y569500D01*
G01X1070000Y850000D02*
Y780000D01*
X1030000D01*
G01X1083330Y620000D02*
Y710000D01*
X1116670D01*
X1127330Y705500D01*
X1134000Y699500D01*
X1136670Y687500D01*
X1134000Y675500D01*
X1126000Y668000D01*
X1116670Y663500D01*
X1083330D01*
G01X1116670D02*
X1136670Y620000D01*
G01X1170670Y633500D02*
X1178670Y626000D01*
X1188000Y621500D01*
X1200000Y620000D01*
X1212000Y623000D01*
X1221330Y629000D01*
X1228000Y639500D01*
X1229330Y651500D01*
X1226670Y663500D01*
X1220000Y671000D01*
X1210670Y677000D01*
X1201330Y678500D01*
X1192000Y677000D01*
X1180000Y671000D01*
X1184000Y710000D01*
X1220000D01*
G01X763330Y1190000D02*
Y1280000D01*
X796670D01*
X807330Y1275500D01*
X814000Y1269500D01*
X816670Y1257500D01*
X814000Y1245500D01*
X806000Y1238000D01*
X796670Y1233500D01*
X763330D01*
G01X796670D02*
X816670Y1190000D01*
G01X850670Y1208000D02*
X858670Y1197500D01*
X869330Y1191500D01*
X881330Y1190000D01*
X892000Y1191500D01*
X902670Y1199000D01*
X909330Y1208000D01*
X910670Y1217000D01*
X908000Y1227500D01*
X898670Y1235000D01*
X889330Y1238000D01*
X877330D01*
G01X889330D02*
X897330Y1242500D01*
X904000Y1250000D01*
X906670Y1259000D01*
X904000Y1268000D01*
X897330Y1275500D01*
X885330Y1280000D01*
X873330Y1278500D01*
X861330Y1272500D01*
G01X1110000Y1450000D02*
Y1540000D01*
X1094000Y1522000D01*
G01Y1450000D02*
X1126000D01*
G01X1200000D02*
Y1540000D01*
X1184000Y1522000D01*
G01Y1450000D02*
X1216000D01*
G01X860000D02*
Y1540000D01*
X844000Y1522000D01*
G01Y1450000D02*
X876000D01*
G01X920670Y1468000D02*
X928670Y1457500D01*
X939330Y1451500D01*
X951330Y1450000D01*
X962000Y1451500D01*
X972670Y1459000D01*
X979330Y1468000D01*
X980670Y1477000D01*
X978000Y1487500D01*
X968670Y1495000D01*
X959330Y1498000D01*
X947330D01*
G01X959330D02*
X967330Y1502500D01*
X974000Y1510000D01*
X976670Y1519000D01*
X974000Y1528000D01*
X967330Y1535500D01*
X955330Y1540000D01*
X943330Y1538500D01*
X931330Y1532500D01*
G01X590000Y1450000D02*
Y1540000D01*
X574000Y1522000D01*
G01Y1450000D02*
X606000D01*
G01X696000D02*
Y1540000D01*
X646670Y1475500D01*
X713330D01*
G01X1314670Y315000D02*
X1322670Y324000D01*
X1332000Y328500D01*
X1342670Y330000D01*
X1356000Y327000D01*
X1365330Y319500D01*
X1368000Y310500D01*
X1366670Y301500D01*
X1361330Y294000D01*
X1334670Y279000D01*
X1322670Y268500D01*
X1314670Y253500D01*
X1312000Y240000D01*
X1368000D01*
G01X1430000Y330000D02*
X1419330Y327000D01*
X1411330Y319500D01*
X1406000Y310500D01*
X1402000Y298500D01*
X1400670Y285000D01*
X1402000Y271500D01*
X1406000Y259500D01*
X1411330Y250500D01*
X1419330Y243000D01*
X1430000Y240000D01*
X1440670Y243000D01*
X1448670Y250500D01*
X1454000Y259500D01*
X1458000Y271500D01*
X1459330Y285000D01*
X1458000Y298500D01*
X1454000Y310500D01*
X1448670Y319500D01*
X1440670Y327000D01*
X1430000Y330000D01*
G01X1584670Y315000D02*
X1592670Y324000D01*
X1602000Y328500D01*
X1612670Y330000D01*
X1626000Y327000D01*
X1635330Y319500D01*
X1638000Y310500D01*
X1636670Y301500D01*
X1631330Y294000D01*
X1604670Y279000D01*
X1592670Y268500D01*
X1584670Y253500D01*
X1582000Y240000D01*
X1638000D01*
G01X1700000D02*
Y330000D01*
X1684000Y312000D01*
G01Y240000D02*
X1716000D01*
G01X1854670Y315000D02*
X1862670Y324000D01*
X1872000Y328500D01*
X1882670Y330000D01*
X1896000Y327000D01*
X1905330Y319500D01*
X1908000Y310500D01*
X1906670Y301500D01*
X1901330Y294000D01*
X1874670Y279000D01*
X1862670Y268500D01*
X1854670Y253500D01*
X1852000Y240000D01*
X1908000D01*
G01X1944670Y315000D02*
X1952670Y324000D01*
X1962000Y328500D01*
X1972670Y330000D01*
X1986000Y327000D01*
X1995330Y319500D01*
X1998000Y310500D01*
X1996670Y301500D01*
X1991330Y294000D01*
X1964670Y279000D01*
X1952670Y268500D01*
X1944670Y253500D01*
X1942000Y240000D01*
X1998000D01*
G01X1450670Y560000D02*
Y495500D01*
X1456000Y482000D01*
X1466670Y473000D01*
X1480000Y470000D01*
X1493330Y473000D01*
X1504000Y482000D01*
X1509330Y495500D01*
Y560000D01*
G01X1570000Y470000D02*
Y560000D01*
X1554000Y542000D01*
G01Y470000D02*
X1586000D01*
G01X1345000Y740000D02*
Y780500D01*
X1318330Y830000D01*
G01X1371670D02*
X1345000Y780500D01*
G01X1435000Y740000D02*
Y830000D01*
X1419000Y812000D01*
G01Y740000D02*
X1451000D01*
G01X1360000Y1450000D02*
Y1540000D01*
X1344000Y1522000D01*
G01Y1450000D02*
X1376000D01*
G01X1450000Y1540000D02*
X1439330Y1537000D01*
X1431330Y1529500D01*
X1426000Y1520500D01*
X1422000Y1508500D01*
X1420670Y1495000D01*
X1422000Y1481500D01*
X1426000Y1469500D01*
X1431330Y1460500D01*
X1439330Y1453000D01*
X1450000Y1450000D01*
X1460670Y1453000D01*
X1468670Y1460500D01*
X1474000Y1469500D01*
X1478000Y1481500D01*
X1479330Y1495000D01*
X1478000Y1508500D01*
X1474000Y1520500D01*
X1468670Y1529500D01*
X1460670Y1537000D01*
X1450000Y1540000D01*
G01X1884670Y1487500D02*
X1894000Y1498000D01*
X1902000Y1504000D01*
X1912670Y1507000D01*
X1922000Y1504000D01*
X1928670Y1498000D01*
X1934000Y1489000D01*
X1935330Y1478500D01*
X1934000Y1469500D01*
X1928670Y1460500D01*
X1920670Y1453000D01*
X1911330Y1450000D01*
X1900670Y1453000D01*
X1891330Y1462000D01*
X1886000Y1475500D01*
X1884670Y1490500D01*
X1887330Y1510000D01*
X1891330Y1520500D01*
X1898000Y1531000D01*
X1907330Y1538500D01*
X1916670Y1540000D01*
X1926000Y1537000D01*
X1932670Y1529500D01*
G01X1657330Y1450000D02*
X1660000Y1469500D01*
X1664000Y1486000D01*
X1669330Y1501000D01*
X1676000Y1517500D01*
X1686670Y1540000D01*
X1633330D01*
G01X2606670Y240000D02*
X2640000Y330000D01*
X2673330Y240000D01*
G01X2661330Y271500D02*
X2618670D01*
G01X2730000Y240000D02*
Y330000D01*
X2714000Y312000D01*
G01Y240000D02*
X2746000D01*
G01X2336670D02*
X2370000Y330000D01*
X2403330Y240000D01*
G01X2391330Y271500D02*
X2348670D01*
G01X2434670Y315000D02*
X2442670Y324000D01*
X2452000Y328500D01*
X2462670Y330000D01*
X2476000Y327000D01*
X2485330Y319500D01*
X2488000Y310500D01*
X2486670Y301500D01*
X2481330Y294000D01*
X2454670Y279000D01*
X2442670Y268500D01*
X2434670Y253500D01*
X2432000Y240000D01*
X2488000D01*
G01X2086670D02*
X2120000Y330000D01*
X2153330Y240000D01*
G01X2141330Y271500D02*
X2098670D01*
G01X2180670Y258000D02*
X2188670Y247500D01*
X2199330Y241500D01*
X2211330Y240000D01*
X2222000Y241500D01*
X2232670Y249000D01*
X2239330Y258000D01*
X2240670Y267000D01*
X2238000Y277500D01*
X2228670Y285000D01*
X2219330Y288000D01*
X2207330D01*
G01X2219330D02*
X2227330Y292500D01*
X2234000Y300000D01*
X2236670Y309000D01*
X2234000Y318000D01*
X2227330Y325500D01*
X2215330Y330000D01*
X2203330Y328500D01*
X2191330Y322500D01*
G01X2760000Y536670D02*
X2850000D01*
Y503330D01*
X2845500Y492670D01*
X2839500Y486000D01*
X2827500Y483330D01*
X2815500Y486000D01*
X2808000Y494000D01*
X2803500Y503330D01*
Y536670D01*
G01Y503330D02*
X2760000Y483330D01*
G01Y422670D02*
X2779500Y420000D01*
X2796000Y416000D01*
X2811000Y410670D01*
X2827500Y404000D01*
X2850000Y393330D01*
Y446670D01*
G01X2802500Y820670D02*
X2807000Y828670D01*
X2810000Y838000D01*
Y848670D01*
X2805500Y860670D01*
X2798000Y870000D01*
X2789000Y876670D01*
X2774000Y882000D01*
X2760500Y883330D01*
X2747000Y880670D01*
X2738000Y876670D01*
X2729000Y868670D01*
X2723000Y859330D01*
X2720000Y850000D01*
Y840670D01*
X2723000Y831330D01*
X2727500Y823330D01*
X2733500Y816670D01*
G01Y789330D02*
X2726000Y781330D01*
X2721500Y772000D01*
X2720000Y760000D01*
X2723000Y748000D01*
X2729000Y738670D01*
X2739500Y732000D01*
X2751500Y730670D01*
X2763500Y733330D01*
X2771000Y740000D01*
X2777000Y749330D01*
X2778500Y758670D01*
X2777000Y768000D01*
X2771000Y780000D01*
X2810000Y776000D01*
Y740000D01*
G01X2902500Y1280670D02*
X2907000Y1288670D01*
X2910000Y1298000D01*
Y1308670D01*
X2905500Y1320670D01*
X2898000Y1330000D01*
X2889000Y1336670D01*
X2874000Y1342000D01*
X2860500Y1343330D01*
X2847000Y1340670D01*
X2838000Y1336670D01*
X2829000Y1328670D01*
X2823000Y1319330D01*
X2820000Y1310000D01*
Y1300670D01*
X2823000Y1291330D01*
X2827500Y1283330D01*
X2833500Y1276670D01*
G01X2838000Y1249330D02*
X2827500Y1241330D01*
X2821500Y1230670D01*
X2820000Y1218670D01*
X2821500Y1208000D01*
X2829000Y1197330D01*
X2838000Y1190670D01*
X2847000Y1189330D01*
X2857500Y1192000D01*
X2865000Y1201330D01*
X2868000Y1210670D01*
Y1222670D01*
G01Y1210670D02*
X2872500Y1202670D01*
X2880000Y1196000D01*
X2889000Y1193330D01*
X2898000Y1196000D01*
X2905500Y1202670D01*
X2910000Y1214670D01*
X2908500Y1226670D01*
X2902500Y1238670D01*
G01X2692500Y660670D02*
X2697000Y668670D01*
X2700000Y678000D01*
Y688670D01*
X2695500Y700670D01*
X2688000Y710000D01*
X2679000Y716670D01*
X2664000Y722000D01*
X2650500Y723330D01*
X2637000Y720670D01*
X2628000Y716670D01*
X2619000Y708670D01*
X2613000Y699330D01*
X2610000Y690000D01*
Y680670D01*
X2613000Y671330D01*
X2617500Y663330D01*
X2623500Y656670D01*
G01X2610000Y584000D02*
X2700000D01*
X2635500Y633330D01*
Y566670D01*
G01X2630670Y1468000D02*
X2638670Y1457500D01*
X2649330Y1451500D01*
X2661330Y1450000D01*
X2672000Y1451500D01*
X2682670Y1459000D01*
X2689330Y1468000D01*
X2690670Y1477000D01*
X2688000Y1487500D01*
X2678670Y1495000D01*
X2669330Y1498000D01*
X2657330D01*
G01X2669330D02*
X2677330Y1502500D01*
X2684000Y1510000D01*
X2686670Y1519000D01*
X2684000Y1528000D01*
X2677330Y1535500D01*
X2665330Y1540000D01*
X2653330Y1538500D01*
X2641330Y1532500D01*
G01X2416000Y1450000D02*
Y1540000D01*
X2366670Y1475500D01*
X2433330D01*
G01X2130670Y1463500D02*
X2138670Y1456000D01*
X2148000Y1451500D01*
X2160000Y1450000D01*
X2172000Y1453000D01*
X2181330Y1459000D01*
X2188000Y1469500D01*
X2189330Y1481500D01*
X2186670Y1493500D01*
X2180000Y1501000D01*
X2170670Y1507000D01*
X2161330Y1508500D01*
X2152000Y1507000D01*
X2140000Y1501000D01*
X2144000Y1540000D01*
X2180000D01*
G01X2400000Y1370000D02*
X2500000D01*
X2550000Y1320000D01*
X2540000Y1310000D01*
X2530000D01*
X2490000Y1350000D01*
X2400000D01*
Y1370000D01*
G01X2856670Y240000D02*
X2890000Y330000D01*
X2923330Y240000D01*
G01X2911330Y271500D02*
X2868670D01*
G01X2980000Y330000D02*
X2969330Y327000D01*
X2961330Y319500D01*
X2956000Y310500D01*
X2952000Y298500D01*
X2950670Y285000D01*
X2952000Y271500D01*
X2956000Y259500D01*
X2961330Y250500D01*
X2969330Y243000D01*
X2980000Y240000D01*
X2990670Y243000D01*
X2998670Y250500D01*
X3004000Y259500D01*
X3008000Y271500D01*
X3009330Y285000D01*
X3008000Y298500D01*
X3004000Y310500D01*
X2998670Y319500D01*
X2990670Y327000D01*
X2980000Y330000D01*
G01X3303330Y220000D02*
Y310000D01*
X3336670D01*
X3347330Y305500D01*
X3354000Y299500D01*
X3356670Y287500D01*
X3354000Y275500D01*
X3346000Y268000D01*
X3336670Y263500D01*
X3303330D01*
G01X3336670D02*
X3356670Y220000D01*
G01X3446670D02*
X3393330D01*
Y310000D01*
X3446670D01*
G01X3425330Y266500D02*
X3393330D01*
G01X3510000Y310000D02*
Y220000D01*
G01X3479330Y310000D02*
X3540670D01*
G01X2930000Y546670D02*
X3020000D01*
Y513330D01*
X3015500Y502670D01*
X3009500Y496000D01*
X2997500Y493330D01*
X2985500Y496000D01*
X2978000Y504000D01*
X2973500Y513330D01*
Y546670D01*
G01Y513330D02*
X2930000Y493330D01*
G01Y430000D02*
X3020000D01*
X3002000Y446000D01*
G01X2930000D02*
Y414000D01*
G01X3540670Y770000D02*
Y705500D01*
X3546000Y692000D01*
X3556670Y683000D01*
X3570000Y680000D01*
X3583330Y683000D01*
X3594000Y692000D01*
X3599330Y705500D01*
Y770000D01*
G01X3634670Y755000D02*
X3642670Y764000D01*
X3652000Y768500D01*
X3662670Y770000D01*
X3676000Y767000D01*
X3685330Y759500D01*
X3688000Y750500D01*
X3686670Y741500D01*
X3681330Y734000D01*
X3654670Y719000D01*
X3642670Y708500D01*
X3634670Y693500D01*
X3632000Y680000D01*
X3688000D01*
G01X3152500Y1150670D02*
X3157000Y1158670D01*
X3160000Y1168000D01*
Y1178670D01*
X3155500Y1190670D01*
X3148000Y1200000D01*
X3139000Y1206670D01*
X3124000Y1212000D01*
X3110500Y1213330D01*
X3097000Y1210670D01*
X3088000Y1206670D01*
X3079000Y1198670D01*
X3073000Y1189330D01*
X3070000Y1180000D01*
Y1170670D01*
X3073000Y1161330D01*
X3077500Y1153330D01*
X3083500Y1146670D01*
G01X3145000Y1115330D02*
X3154000Y1107330D01*
X3158500Y1098000D01*
X3160000Y1087330D01*
X3157000Y1074000D01*
X3149500Y1064670D01*
X3140500Y1062000D01*
X3131500Y1063330D01*
X3124000Y1068670D01*
X3109000Y1095330D01*
X3098500Y1107330D01*
X3083500Y1115330D01*
X3070000Y1118000D01*
Y1062000D01*
G01X2880000Y866670D02*
X2970000D01*
Y833330D01*
X2965500Y822670D01*
X2959500Y816000D01*
X2947500Y813330D01*
X2935500Y816000D01*
X2928000Y824000D01*
X2923500Y833330D01*
Y866670D01*
G01Y833330D02*
X2880000Y813330D01*
G01X2955000Y775330D02*
X2964000Y767330D01*
X2968500Y758000D01*
X2970000Y747330D01*
X2967000Y734000D01*
X2959500Y724670D01*
X2950500Y722000D01*
X2941500Y723330D01*
X2934000Y728670D01*
X2919000Y755330D01*
X2908500Y767330D01*
X2893500Y775330D01*
X2880000Y778000D01*
Y722000D01*
G01X2894670Y1525000D02*
X2902670Y1534000D01*
X2912000Y1538500D01*
X2922670Y1540000D01*
X2936000Y1537000D01*
X2945330Y1529500D01*
X2948000Y1520500D01*
X2946670Y1511500D01*
X2941330Y1504000D01*
X2914670Y1489000D01*
X2902670Y1478500D01*
X2894670Y1463500D01*
X2892000Y1450000D01*
X2948000D01*
G01X3390000Y1539330D02*
X3480000D01*
Y1512670D01*
X3475500Y1502000D01*
X3469500Y1494000D01*
X3460500Y1487330D01*
X3450000Y1482000D01*
X3435000Y1480670D01*
X3420000Y1482000D01*
X3409500Y1487330D01*
X3400500Y1494000D01*
X3394500Y1502000D01*
X3390000Y1512670D01*
Y1539330D01*
G01Y1446670D02*
X3480000D01*
Y1413330D01*
X3475500Y1402670D01*
X3469500Y1396000D01*
X3457500Y1393330D01*
X3445500Y1396000D01*
X3438000Y1404000D01*
X3433500Y1413330D01*
Y1446670D01*
G01Y1413330D02*
X3390000Y1393330D01*
G01X3157330Y1460500D02*
X3166670Y1453000D01*
X3177330Y1450000D01*
X3188000Y1453000D01*
X3197330Y1462000D01*
X3204000Y1475500D01*
X3206670Y1489000D01*
Y1505500D01*
X3204000Y1519000D01*
X3197330Y1531000D01*
X3189330Y1537000D01*
X3180000Y1540000D01*
X3169330Y1537000D01*
X3161330Y1531000D01*
X3156000Y1522000D01*
X3153330Y1510000D01*
X3156000Y1499500D01*
X3162670Y1489000D01*
X3170670Y1483000D01*
X3180000Y1481500D01*
X3190670Y1484500D01*
X3198670Y1492000D01*
X3206670Y1505500D01*
G01X3140000Y1430000D02*
G03X3220000I40000J20000D01*
G01X3856670Y310000D02*
X3890000Y220000D01*
X3923330Y310000D01*
G01X4009330Y302500D02*
X4001330Y307000D01*
X3992000Y310000D01*
X3981330D01*
X3969330Y305500D01*
X3960000Y298000D01*
X3953330Y289000D01*
X3948000Y274000D01*
X3946670Y260500D01*
X3949330Y247000D01*
X3953330Y238000D01*
X3961330Y229000D01*
X3970670Y223000D01*
X3980000Y220000D01*
X3989330D01*
X3998670Y223000D01*
X4006670Y227500D01*
X4013330Y233500D01*
G01X4099330Y302500D02*
X4091330Y307000D01*
X4082000Y310000D01*
X4071330D01*
X4059330Y305500D01*
X4050000Y298000D01*
X4043330Y289000D01*
X4038000Y274000D01*
X4036670Y260500D01*
X4039330Y247000D01*
X4043330Y238000D01*
X4051330Y229000D01*
X4060670Y223000D01*
X4070000Y220000D01*
X4079330D01*
X4088670Y223000D01*
X4096670Y227500D01*
X4103330Y233500D01*
G01X3675000Y268000D02*
Y294670D01*
X3702000D01*
X3711000Y286670D01*
X3717000Y277330D01*
X3720000Y264000D01*
X3717000Y250670D01*
X3711000Y241330D01*
X3702000Y233330D01*
X3691500Y228000D01*
X3679500Y225330D01*
X3669000D01*
X3660000Y228000D01*
X3649500Y233330D01*
X3640500Y241330D01*
X3634500Y249330D01*
X3630000Y260000D01*
Y269330D01*
X3633000Y280000D01*
X3639000Y288000D01*
G01X3720000Y319330D02*
X3630000D01*
X3720000Y380670D01*
X3630000D01*
G01X3720000Y410670D02*
X3630000D01*
Y437330D01*
X3634500Y448000D01*
X3640500Y456000D01*
X3649500Y462670D01*
X3660000Y468000D01*
X3675000Y469330D01*
X3690000Y468000D01*
X3700500Y462670D01*
X3709500Y456000D01*
X3715500Y448000D01*
X3720000Y437330D01*
Y410670D01*
G01X4026670Y920000D02*
X4060000Y830000D01*
X4093330Y920000D01*
G01X4179330Y912500D02*
X4171330Y917000D01*
X4162000Y920000D01*
X4151330D01*
X4139330Y915500D01*
X4130000Y908000D01*
X4123330Y899000D01*
X4118000Y884000D01*
X4116670Y870500D01*
X4119330Y857000D01*
X4123330Y848000D01*
X4131330Y839000D01*
X4140670Y833000D01*
X4150000Y830000D01*
X4159330D01*
X4168670Y833000D01*
X4176670Y837500D01*
X4183330Y843500D01*
G01X4269330Y912500D02*
X4261330Y917000D01*
X4252000Y920000D01*
X4241330D01*
X4229330Y915500D01*
X4220000Y908000D01*
X4213330Y899000D01*
X4208000Y884000D01*
X4206670Y870500D01*
X4209330Y857000D01*
X4213330Y848000D01*
X4221330Y839000D01*
X4230670Y833000D01*
X4240000Y830000D01*
X4249330D01*
X4258670Y833000D01*
X4266670Y837500D01*
X4273330Y843500D01*
G01X4078000Y1145000D02*
X4104670D01*
Y1118000D01*
X4096670Y1109000D01*
X4087330Y1103000D01*
X4074000Y1100000D01*
X4060670Y1103000D01*
X4051330Y1109000D01*
X4043330Y1118000D01*
X4038000Y1128500D01*
X4035330Y1140500D01*
Y1151000D01*
X4038000Y1160000D01*
X4043330Y1170500D01*
X4051330Y1179500D01*
X4059330Y1185500D01*
X4070000Y1190000D01*
X4079330D01*
X4090000Y1187000D01*
X4098000Y1181000D01*
G01X4129330Y1100000D02*
Y1190000D01*
X4190670Y1100000D01*
Y1190000D01*
G01X4220670Y1100000D02*
Y1190000D01*
X4247330D01*
X4258000Y1185500D01*
X4266000Y1179500D01*
X4272670Y1170500D01*
X4278000Y1160000D01*
X4279330Y1145000D01*
X4278000Y1130000D01*
X4272670Y1119500D01*
X4266000Y1110500D01*
X4258000Y1104500D01*
X4247330Y1100000D01*
X4220670D01*
G01X3900000Y1536670D02*
X3990000D01*
Y1503330D01*
X3985500Y1492670D01*
X3979500Y1486000D01*
X3967500Y1483330D01*
X3955500Y1486000D01*
X3948000Y1494000D01*
X3943500Y1503330D01*
Y1536670D01*
G01Y1503330D02*
X3900000Y1483330D01*
G01Y1448000D02*
X3990000Y1392000D01*
G01Y1448000D02*
X3900000Y1392000D01*
G01X3730000Y1520000D02*
X3640000D01*
G01X3730000Y1550670D02*
Y1489330D01*
G01X3640000Y1458000D02*
X3730000Y1402000D01*
G01Y1458000D02*
X3640000Y1402000D01*
M02*
