G04 ================== begin FILE IDENTIFICATION RECORD ==================*
G04 Layout Name:  C:/Users/DF/Desktop/MEGA128L/footprint/Nano128l.brd*
G04 Film Name:    TOP_SOLDERMASK*
G04 File Format:  Gerber RS274X*
G04 File Origin:  Cadence Allegro 17.2-S058*
G04 Origin Date:  Sat Apr 04 22:42:22 2020*
G04 *
G04 Layer:  VIA CLASS/SOLDERMASK_TOP*
G04 Layer:  PIN/SOLDERMASK_TOP*
G04 Layer:  PACKAGE GEOMETRY/SOLDERMASK_TOP*
G04 *
G04 Offset:    (0.0000 0.0000)*
G04 Mirror:    No*
G04 Mode:      Positive*
G04 Rotation:  0*
G04 FullContactRelief:  No*
G04 UndefLineWidth:     0.1600*
G04 ================== end FILE IDENTIFICATION RECORD ====================*
%FSLAX25Y25*MOMM*%
%IR0*IPPOS*OFA0.00000B0.00000*MIA0B0*SFA1.00000B1.00000*%
%ADD16R,1.02X.4*%
%ADD14C,.4*%
%ADD21C,.26*%
%ADD22C,.55*%
%ADD23R,1.028X.728*%
%ADD13R,.878X.878*%
%ADD25R,1.13X1.03*%
%ADD15R,1.03X1.13*%
%ADD17R,3.8X1.*%
%ADD24R,1.8X3.2*%
%ADD12C,1.3*%
%ADD11C,1.6*%
%ADD10C,1.8*%
%ADD28R,1.928X1.158*%
%ADD26R,5.75X5.95*%
%ADD27R,2.828X1.448*%
%ADD19R,.381X.9398*%
%ADD18R,.9398X.381*%
%ADD20R,5.6896X5.6896*%
%LPD*%
G75*
G54D10*
X381000Y127000D03*
X127000D03*
X381000Y1651000D03*
X127000D03*
X1143000Y127000D03*
X889000D03*
X635000D03*
X1143000Y1651000D03*
X889000D03*
X635000D03*
X1905000Y127000D03*
X1651000D03*
X1397000D03*
X1905000Y1651000D03*
X1651000D03*
X1397000D03*
X2667000Y127000D03*
X2413000D03*
X2159000D03*
X2667000Y1651000D03*
X2413000D03*
X2159000D03*
X3429000Y127000D03*
X3175000D03*
X2921000D03*
X3429000Y1651000D03*
X3175000D03*
X2921000D03*
X3937000Y127000D03*
X3683000D03*
X4191000D03*
X3937000Y1651000D03*
X3683000D03*
X4191000D03*
G54D20*
X2095100Y846580D03*
G54D11*
X127000Y508000D03*
Y1016000D03*
Y1270000D03*
Y762000D03*
X4159250Y1016000D03*
Y1270000D03*
G54D12*
X435000Y543000D03*
Y743000D03*
Y943000D03*
Y1143000D03*
X635000Y543000D03*
Y743000D03*
Y943000D03*
Y1143000D03*
G54D21*
X2020120Y1210390D03*
X2670000Y870000D03*
Y807300D03*
X2671870Y742690D03*
X2670000Y680010D03*
G54D13*
X522500Y1360000D03*
X357500D03*
G54D22*
X1880000Y980000D03*
X2680000Y350000D03*
X2090000Y840000D03*
X2770000Y1190000D03*
X3230000Y370000D03*
X3030000Y990000D03*
X3200000D03*
X3280000Y800000D03*
X3210000Y1240000D03*
X4150000Y460000D03*
G54D23*
X2650000Y520000D03*
Y380000D03*
X2750000Y1190000D03*
Y1330000D03*
X3010000Y790000D03*
Y650000D03*
G54D14*
X345300Y1410000D03*
X820000Y960000D03*
X1130000Y750000D03*
X857500Y1382500D03*
X1530000Y470000D03*
Y560000D03*
X1560000Y1125000D03*
X1340000Y1020000D03*
X1560000Y1030000D03*
X1990000Y1390000D03*
X1810000Y1374610D03*
X2690000Y490000D03*
X2438380Y671620D03*
X2360000Y1190000D03*
X3030000Y490000D03*
X2970000Y680000D03*
X2920000Y1310000D03*
G54D24*
X3389500Y469000D03*
X3849500D03*
G54D15*
X845000Y520000D03*
X995000D03*
Y670000D03*
X845000D03*
X685000Y1360000D03*
X835000D03*
G54D25*
X3230000Y525000D03*
Y375000D03*
X3050000Y515000D03*
Y365000D03*
X3230000Y655000D03*
Y805000D03*
G54D16*
X1006000Y945000D03*
Y880000D03*
Y815000D03*
X814000D03*
Y945000D03*
Y880000D03*
G54D26*
X3619500Y1089000D03*
G54D17*
X1280000Y889350D03*
Y1010000D03*
Y1130650D03*
G54D18*
X1651680Y521660D03*
Y471680D03*
Y1221480D03*
Y1171500D03*
Y1121510D03*
Y1071520D03*
Y1021530D03*
Y971550D03*
Y921560D03*
Y871570D03*
Y821590D03*
Y771600D03*
Y721610D03*
Y671620D03*
Y621640D03*
Y571650D03*
X2538520Y471680D03*
Y521660D03*
Y571650D03*
Y621640D03*
Y671620D03*
Y721610D03*
Y771600D03*
Y821590D03*
Y871570D03*
Y921560D03*
Y971550D03*
Y1021530D03*
Y1071520D03*
Y1121510D03*
Y1171500D03*
Y1221480D03*
G54D27*
X3111500Y986000D03*
Y1300000D03*
G54D19*
X1720190Y403160D03*
X1770180D03*
X1820170D03*
X1870150D03*
X1920140D03*
X1970130D03*
X2020120D03*
Y1290000D03*
X1970130D03*
X1920140D03*
X1870150D03*
X1820170D03*
X1770180D03*
X1720190D03*
X2070100Y403160D03*
X2120090D03*
X2170080D03*
X2220060D03*
X2270050D03*
X2320040D03*
X2370030D03*
X2420010D03*
X2470000D03*
Y1290000D03*
X2420010D03*
X2370030D03*
X2320040D03*
X2270050D03*
X2220060D03*
X2170080D03*
X2120090D03*
X2070100D03*
G54D28*
X4130000Y451600D03*
Y748400D03*
M02*
