G04 ================== begin FILE IDENTIFICATION RECORD ==================*
G04 Layout Name:  C:/Users/works/Desktop/168paSensor/SMD/demo_sensor.brd*
G04 Film Name:    BOTTOM_SILKSCREEN*
G04 File Format:  Gerber RS274X*
G04 File Origin:  Cadence Allegro 16.6-2015-S066*
G04 Origin Date:  Sun Sep 10 22:47:33 2017*
G04 *
G04 Layer:  REF DES/SILKSCREEN_BOTTOM*
G04 Layer:  PACKAGE GEOMETRY/SILKSCREEN_BOTTOM*
G04 Layer:  BOARD GEOMETRY/SILKSCREEN_BOTTOM*
G04 Layer:  BOARD GEOMETRY/OUTLINE*
G04 *
G04 Offset:    (0.0000 0.0000)*
G04 Mirror:    No*
G04 Mode:      Positive*
G04 Rotation:  0*
G04 FullContactRelief:  No*
G04 UndefLineWidth:     0.0000*
G04 ================== end FILE IDENTIFICATION RECORD ====================*
%FSLAX25Y25*MOMM*%
%IR0*IPPOS*OFA0.00000B0.00000*MIA0B0*SFA1.00000B1.00000*%
%ADD10C,.1*%
%ADD11C,.2*%
%ADD12C,.4*%
G75*
%LPD*%
G75*
G36*
G01X160000Y945000D02*
G03I-25000J0D01*
G37*
G36*
G01X1025010Y90000D02*
G03I-25010J0D01*
G37*
G36*
G01X2375010Y710000D02*
G03I-25010J0D01*
G37*
G36*
G01X1890000Y1355000D02*
G03I-25000J0D01*
G37*
G36*
G01X4249990Y175000D02*
G03I-24990J0D01*
G37*
G36*
G01X4385010Y900000D02*
G03I-25010J0D01*
G37*
G54D10*
G01X80000Y0D02*
X4920000D01*
G03X5000000Y80000I0J80000D01*
G01Y3920000D01*
G03X4920000Y4000000I-80000J0D01*
G01X80000D01*
G03X0Y3920000I0J-80000D01*
G01Y80000D01*
G03X80000Y0I80000J0D01*
G01X3020000Y240000D02*
G03X3180000I80000J0D01*
G01X3020000D02*
Y1940000D01*
G01X3180000Y240000D02*
Y1940000D01*
G01X3020000D02*
G02X3180000I80000J0D01*
G54D11*
G01X180670Y391670D02*
X188670Y396670D01*
X198000Y400000D01*
X208670D01*
X220670Y395000D01*
X230000Y386670D01*
X236670Y376670D01*
X242000Y360000D01*
X243330Y345000D01*
X240670Y330000D01*
X236670Y320000D01*
X228670Y310000D01*
X219330Y303330D01*
X210000Y300000D01*
X200670D01*
X191330Y303330D01*
X183330Y308330D01*
X176670Y315000D01*
G01X106000Y300000D02*
Y400000D01*
X155330Y328330D01*
X88670D01*
G01X180670Y741670D02*
X188670Y746670D01*
X198000Y750000D01*
X208670D01*
X220670Y745000D01*
X230000Y736670D01*
X236670Y726670D01*
X242000Y710000D01*
X243330Y695000D01*
X240670Y680000D01*
X236670Y670000D01*
X228670Y660000D01*
X219330Y653330D01*
X210000Y650000D01*
X200670D01*
X191330Y653330D01*
X183330Y658330D01*
X176670Y665000D01*
G01X151330D02*
X143330Y656670D01*
X134000Y651670D01*
X122000Y650000D01*
X110000Y653330D01*
X100670Y660000D01*
X94000Y671670D01*
X92670Y685000D01*
X95330Y698330D01*
X102000Y706670D01*
X111330Y713330D01*
X120670Y715000D01*
X130000Y713330D01*
X142000Y706670D01*
X138000Y750000D01*
X102000D01*
G01X539330Y1300000D02*
Y1400000D01*
X512670D01*
X502000Y1395000D01*
X494000Y1388330D01*
X487330Y1378330D01*
X482000Y1366660D01*
X480670Y1350000D01*
X482000Y1333330D01*
X487330Y1321670D01*
X494000Y1311660D01*
X502000Y1305000D01*
X512670Y1300000D01*
X539330D01*
G01X451330Y1320000D02*
X443330Y1308330D01*
X432670Y1301670D01*
X420670Y1300000D01*
X410000Y1301670D01*
X399330Y1310000D01*
X392670Y1320000D01*
X391330Y1330000D01*
X394000Y1341660D01*
X403330Y1350000D01*
X412670Y1353330D01*
X424670D01*
G01X412670D02*
X404670Y1358330D01*
X398000Y1366660D01*
X395330Y1376670D01*
X398000Y1386670D01*
X404670Y1395000D01*
X416670Y1400000D01*
X428670Y1398330D01*
X440670Y1391670D01*
G01X550000Y444000D02*
X505000D01*
X450000Y470670D01*
G01Y417330D02*
X505000Y444000D01*
G01X466670Y381330D02*
X456670Y373330D01*
X451670Y364000D01*
X450000Y353330D01*
X453330Y340000D01*
X461670Y330670D01*
X471670Y328000D01*
X481670Y329330D01*
X490000Y334670D01*
X506670Y361330D01*
X518330Y373330D01*
X535000Y381330D01*
X550000Y384000D01*
Y328000D01*
G01X1036670Y950000D02*
Y1050000D01*
X1003330D01*
X992670Y1045000D01*
X986000Y1038330D01*
X983330Y1025000D01*
X986000Y1011670D01*
X994000Y1003330D01*
X1003330Y998330D01*
X1036670D01*
G01X1003330D02*
X983330Y950000D01*
G01X951330Y970000D02*
X943330Y958330D01*
X932670Y951670D01*
X920670Y950000D01*
X910000Y951670D01*
X899330Y960000D01*
X892670Y970000D01*
X891330Y980000D01*
X894000Y991660D01*
X903330Y1000000D01*
X912670Y1003330D01*
X924670D01*
G01X912670D02*
X904670Y1008330D01*
X898000Y1016660D01*
X895330Y1026670D01*
X898000Y1036670D01*
X904670Y1045000D01*
X916670Y1050000D01*
X928670Y1048330D01*
X940670Y1041670D01*
G01X510000Y2400000D02*
X520670Y2396670D01*
X528670Y2388330D01*
X534000Y2378330D01*
X538000Y2365000D01*
X539330Y2350000D01*
X538000Y2335000D01*
X534000Y2321670D01*
X528670Y2311660D01*
X520670Y2303330D01*
X510000Y2300000D01*
X499330Y2303330D01*
X491330Y2311660D01*
X486000Y2321670D01*
X482000Y2335000D01*
X480670Y2350000D01*
X482000Y2365000D01*
X486000Y2378330D01*
X491330Y2388330D01*
X499330Y2396670D01*
X510000Y2400000D01*
G01X810000Y2300000D02*
Y2400000D01*
X826000Y2380000D01*
G01Y2300000D02*
X794000D01*
G01X1085330Y2383330D02*
X1077330Y2393330D01*
X1068000Y2398330D01*
X1057330Y2400000D01*
X1044000Y2396670D01*
X1034670Y2388330D01*
X1032000Y2378330D01*
X1033330Y2368330D01*
X1038670Y2360000D01*
X1065330Y2343330D01*
X1077330Y2331670D01*
X1085330Y2315000D01*
X1088000Y2300000D01*
X1032000D01*
G01X900000Y3636670D02*
X800000D01*
Y3604670D01*
X805000Y3594000D01*
X816670Y3586000D01*
X830000Y3583330D01*
X843330Y3586000D01*
X853330Y3592670D01*
X858340Y3604670D01*
Y3636670D01*
G01X808330Y3492670D02*
X803330Y3500670D01*
X800000Y3510000D01*
Y3520670D01*
X805000Y3532670D01*
X813330Y3542000D01*
X823330Y3548670D01*
X840000Y3554000D01*
X855000Y3555330D01*
X870000Y3552670D01*
X880000Y3548670D01*
X890000Y3540670D01*
X896670Y3531330D01*
X900000Y3522000D01*
Y3512670D01*
X896670Y3503330D01*
X891670Y3495330D01*
X885000Y3488670D01*
G01X800000Y3434000D02*
X803330Y3444670D01*
X811670Y3452670D01*
X821670Y3458000D01*
X835000Y3462000D01*
X850000Y3463330D01*
X865000Y3462000D01*
X878330Y3458000D01*
X888340Y3452670D01*
X896670Y3444670D01*
X900000Y3434000D01*
X896670Y3423330D01*
X888340Y3415330D01*
X878330Y3410000D01*
X865000Y3406000D01*
X850000Y3404670D01*
X835000Y3406000D01*
X821670Y3410000D01*
X811670Y3415330D01*
X803330Y3423330D01*
X800000Y3434000D01*
G01X1150000Y3636670D02*
X1050000D01*
Y3604670D01*
X1055000Y3594000D01*
X1066670Y3586000D01*
X1080000Y3583330D01*
X1093330Y3586000D01*
X1103330Y3592670D01*
X1108340Y3604670D01*
Y3636670D01*
G01X1058330Y3492670D02*
X1053330Y3500670D01*
X1050000Y3510000D01*
Y3520670D01*
X1055000Y3532670D01*
X1063330Y3542000D01*
X1073330Y3548670D01*
X1090000Y3554000D01*
X1105000Y3555330D01*
X1120000Y3552670D01*
X1130000Y3548670D01*
X1140000Y3540670D01*
X1146670Y3531330D01*
X1150000Y3522000D01*
Y3512670D01*
X1146670Y3503330D01*
X1141670Y3495330D01*
X1135000Y3488670D01*
G01X1150000Y3434000D02*
X1050000D01*
X1070000Y3450000D01*
G01X1150000D02*
Y3418000D01*
G01X1323330Y150000D02*
Y78330D01*
X1318000Y63330D01*
X1307330Y53330D01*
X1294000Y50000D01*
X1280670Y53330D01*
X1270000Y63330D01*
X1264670Y78330D01*
Y150000D01*
G01X1208670Y50000D02*
X1206000Y71670D01*
X1202000Y90000D01*
X1196670Y106670D01*
X1190000Y125000D01*
X1179330Y150000D01*
X1232670D01*
G01X1589330Y1300000D02*
Y1400000D01*
X1562670D01*
X1552000Y1395000D01*
X1544000Y1388330D01*
X1537330Y1378330D01*
X1532000Y1366660D01*
X1530670Y1350000D01*
X1532000Y1333330D01*
X1537330Y1321670D01*
X1544000Y1311660D01*
X1552000Y1305000D01*
X1562670Y1300000D01*
X1589330D01*
G01X1456000D02*
Y1400000D01*
X1505330Y1328330D01*
X1438670D01*
G01X1339330Y2320000D02*
X1331330Y2308330D01*
X1320670Y2301670D01*
X1308670Y2300000D01*
X1298000Y2301670D01*
X1287330Y2310000D01*
X1280670Y2320000D01*
X1279330Y2330000D01*
X1282000Y2341660D01*
X1291330Y2350000D01*
X1300670Y2353330D01*
X1312670D01*
G01X1300670D02*
X1292670Y2358330D01*
X1286000Y2366660D01*
X1283330Y2376670D01*
X1286000Y2386670D01*
X1292670Y2395000D01*
X1304670Y2400000D01*
X1316670Y2398330D01*
X1328670Y2391670D01*
G01X1594000Y2300000D02*
Y2400000D01*
X1643330Y2328330D01*
X1576670D01*
G01X1400000Y3636670D02*
X1300000D01*
Y3604670D01*
X1305000Y3594000D01*
X1316670Y3586000D01*
X1330000Y3583330D01*
X1343330Y3586000D01*
X1353330Y3592670D01*
X1358340Y3604670D01*
Y3636670D01*
G01X1308330Y3492670D02*
X1303330Y3500670D01*
X1300000Y3510000D01*
Y3520670D01*
X1305000Y3532670D01*
X1313330Y3542000D01*
X1323330Y3548670D01*
X1340000Y3554000D01*
X1355000Y3555330D01*
X1370000Y3552670D01*
X1380000Y3548670D01*
X1390000Y3540670D01*
X1396670Y3531330D01*
X1400000Y3522000D01*
Y3512670D01*
X1396670Y3503330D01*
X1391670Y3495330D01*
X1385000Y3488670D01*
G01X1316670Y3459330D02*
X1306670Y3451330D01*
X1301670Y3442000D01*
X1300000Y3431330D01*
X1303330Y3418000D01*
X1311670Y3408670D01*
X1321670Y3406000D01*
X1331670Y3407330D01*
X1340000Y3412670D01*
X1356670Y3439330D01*
X1368330Y3451330D01*
X1385000Y3459330D01*
X1400000Y3462000D01*
Y3406000D01*
G01X1650000Y3636670D02*
X1550000D01*
Y3604670D01*
X1555000Y3594000D01*
X1566670Y3586000D01*
X1580000Y3583330D01*
X1593330Y3586000D01*
X1603330Y3592670D01*
X1608340Y3604670D01*
Y3636670D01*
G01X1558330Y3492670D02*
X1553330Y3500670D01*
X1550000Y3510000D01*
Y3520670D01*
X1555000Y3532670D01*
X1563330Y3542000D01*
X1573330Y3548670D01*
X1590000Y3554000D01*
X1605000Y3555330D01*
X1620000Y3552670D01*
X1630000Y3548670D01*
X1640000Y3540670D01*
X1646670Y3531330D01*
X1650000Y3522000D01*
Y3512670D01*
X1646670Y3503330D01*
X1641670Y3495330D01*
X1635000Y3488670D01*
G01X1630000Y3463330D02*
X1641670Y3455330D01*
X1648330Y3444670D01*
X1650000Y3432670D01*
X1648330Y3422000D01*
X1640000Y3411330D01*
X1630000Y3404670D01*
X1620000Y3403330D01*
X1608340Y3406000D01*
X1600000Y3415330D01*
X1596670Y3424670D01*
Y3436670D01*
G01Y3424670D02*
X1591670Y3416670D01*
X1583340Y3410000D01*
X1573330Y3407330D01*
X1563330Y3410000D01*
X1555000Y3416670D01*
X1550000Y3428670D01*
X1551670Y3440670D01*
X1558330Y3452670D01*
G01X2173330Y150000D02*
Y78330D01*
X2168000Y63330D01*
X2157330Y53330D01*
X2144000Y50000D01*
X2130670Y53330D01*
X2120000Y63330D01*
X2114670Y78330D01*
Y150000D01*
G01X2081330Y91660D02*
X2072000Y103330D01*
X2064000Y110000D01*
X2053330Y113330D01*
X2044000Y110000D01*
X2037330Y103330D01*
X2032000Y93330D01*
X2030670Y81670D01*
X2032000Y71670D01*
X2037330Y61660D01*
X2045330Y53330D01*
X2054670Y50000D01*
X2065330Y53330D01*
X2074670Y63330D01*
X2080000Y78330D01*
X2081330Y95000D01*
X2078670Y116660D01*
X2074670Y128330D01*
X2068000Y140000D01*
X2058670Y148330D01*
X2049330Y150000D01*
X2040000Y146670D01*
X2033330Y138330D01*
G01X2080670Y991670D02*
X2088670Y996670D01*
X2098000Y1000000D01*
X2108670D01*
X2120670Y995000D01*
X2130000Y986670D01*
X2136670Y976670D01*
X2142000Y960000D01*
X2143330Y945000D01*
X2140670Y930000D01*
X2136670Y920000D01*
X2128670Y910000D01*
X2119330Y903330D01*
X2110000Y900000D01*
X2100670D01*
X2091330Y903330D01*
X2083330Y908330D01*
X2076670Y915000D01*
G01X2022000Y900000D02*
X2012670Y901670D01*
X2002000Y906670D01*
X1995330Y915000D01*
X1992670Y926670D01*
X1995330Y938330D01*
X2003330Y948330D01*
X2015330Y953330D01*
X2028670D01*
X2036670Y956670D01*
X2043330Y965000D01*
X2046000Y976670D01*
X2042000Y988330D01*
X2032670Y996670D01*
X2022000Y1000000D01*
X2011330Y996670D01*
X2002000Y988330D01*
X1998000Y976670D01*
X2000670Y965000D01*
X2007330Y956670D01*
X2015330Y953330D01*
X2028670D01*
X2040670Y948330D01*
X2048670Y938330D01*
X2051330Y926670D01*
X2048670Y915000D01*
X2042000Y906670D01*
X2031330Y901670D01*
X2022000Y900000D01*
G01X2136670Y1200000D02*
Y1300000D01*
X2103330D01*
X2092670Y1295000D01*
X2086000Y1288330D01*
X2083330Y1275000D01*
X2086000Y1261670D01*
X2094000Y1253330D01*
X2103330Y1248330D01*
X2136670D01*
G01X2103330D02*
X2083330Y1200000D01*
G01X2022000D02*
Y1300000D01*
X2038000Y1280000D01*
G01Y1200000D02*
X2006000D01*
G01X2136670Y1050000D02*
Y1150000D01*
X2103330D01*
X2092670Y1145000D01*
X2086000Y1138330D01*
X2083330Y1125000D01*
X2086000Y1111670D01*
X2094000Y1103330D01*
X2103330Y1098330D01*
X2136670D01*
G01X2103330D02*
X2083330Y1050000D01*
G01X2047330Y1133330D02*
X2039330Y1143330D01*
X2030000Y1148330D01*
X2019330Y1150000D01*
X2006000Y1146670D01*
X1996670Y1138330D01*
X1994000Y1128330D01*
X1995330Y1118330D01*
X2000670Y1110000D01*
X2027330Y1093330D01*
X2039330Y1081670D01*
X2047330Y1065000D01*
X2050000Y1050000D01*
X1994000D01*
G01X1889330Y2315000D02*
X1881330Y2306670D01*
X1872000Y2301670D01*
X1860000Y2300000D01*
X1848000Y2303330D01*
X1838670Y2310000D01*
X1832000Y2321670D01*
X1830670Y2335000D01*
X1833330Y2348330D01*
X1840000Y2356670D01*
X1849330Y2363330D01*
X1858670Y2365000D01*
X1868000Y2363330D01*
X1880000Y2356670D01*
X1876000Y2400000D01*
X1840000D01*
G01X2185330Y2341660D02*
X2176000Y2353330D01*
X2168000Y2360000D01*
X2157330Y2363330D01*
X2148000Y2360000D01*
X2141330Y2353330D01*
X2136000Y2343330D01*
X2134670Y2331670D01*
X2136000Y2321670D01*
X2141330Y2311660D01*
X2149330Y2303330D01*
X2158670Y2300000D01*
X2169330Y2303330D01*
X2178670Y2313330D01*
X2184000Y2328330D01*
X2185330Y2345000D01*
X2182670Y2366660D01*
X2178670Y2378330D01*
X2172000Y2390000D01*
X2162670Y2398330D01*
X2153330Y2400000D01*
X2144000Y2396670D01*
X2137330Y2388330D01*
G01X1950000Y3636670D02*
X1850000D01*
Y3604670D01*
X1855000Y3594000D01*
X1866670Y3586000D01*
X1880000Y3583330D01*
X1893330Y3586000D01*
X1903330Y3592670D01*
X1908340Y3604670D01*
Y3636670D01*
G01X1858330Y3492670D02*
X1853330Y3500670D01*
X1850000Y3510000D01*
Y3520670D01*
X1855000Y3532670D01*
X1863330Y3542000D01*
X1873330Y3548670D01*
X1890000Y3554000D01*
X1905000Y3555330D01*
X1920000Y3552670D01*
X1930000Y3548670D01*
X1940000Y3540670D01*
X1946670Y3531330D01*
X1950000Y3522000D01*
Y3512670D01*
X1946670Y3503330D01*
X1941670Y3495330D01*
X1935000Y3488670D01*
G01X1950000Y3418000D02*
X1850000D01*
X1921670Y3467330D01*
Y3400670D01*
G01X2200000Y3636670D02*
X2100000D01*
Y3604670D01*
X2105000Y3594000D01*
X2116670Y3586000D01*
X2130000Y3583330D01*
X2143330Y3586000D01*
X2153330Y3592670D01*
X2158340Y3604670D01*
Y3636670D01*
G01X2108330Y3492670D02*
X2103330Y3500670D01*
X2100000Y3510000D01*
Y3520670D01*
X2105000Y3532670D01*
X2113330Y3542000D01*
X2123330Y3548670D01*
X2140000Y3554000D01*
X2155000Y3555330D01*
X2170000Y3552670D01*
X2180000Y3548670D01*
X2190000Y3540670D01*
X2196670Y3531330D01*
X2200000Y3522000D01*
Y3512670D01*
X2196670Y3503330D01*
X2191670Y3495330D01*
X2185000Y3488670D01*
G01Y3463330D02*
X2193330Y3455330D01*
X2198330Y3446000D01*
X2200000Y3434000D01*
X2196670Y3422000D01*
X2190000Y3412670D01*
X2178330Y3406000D01*
X2165000Y3404670D01*
X2151670Y3407330D01*
X2143330Y3414000D01*
X2136670Y3423330D01*
X2135000Y3432670D01*
X2136670Y3442000D01*
X2143330Y3454000D01*
X2100000Y3450000D01*
Y3414000D01*
G01X2450000Y3643330D02*
X2350000Y3610000D01*
X2450000Y3576670D01*
G01X2415000Y3588670D02*
Y3631330D01*
G01X2450000Y3551330D02*
X2350000D01*
Y3524670D01*
X2355000Y3514000D01*
X2361670Y3506000D01*
X2371670Y3499330D01*
X2383340Y3494000D01*
X2400000Y3492670D01*
X2416670Y3494000D01*
X2428330Y3499330D01*
X2438340Y3506000D01*
X2445000Y3514000D01*
X2450000Y3524670D01*
Y3551330D01*
G01X2408340Y3459330D02*
X2396670Y3450000D01*
X2390000Y3442000D01*
X2386670Y3431330D01*
X2390000Y3422000D01*
X2396670Y3415330D01*
X2406670Y3410000D01*
X2418330Y3408670D01*
X2428330Y3410000D01*
X2438340Y3415330D01*
X2446670Y3423330D01*
X2450000Y3432670D01*
X2446670Y3443330D01*
X2436670Y3452670D01*
X2421670Y3458000D01*
X2405000Y3459330D01*
X2383340Y3456670D01*
X2371670Y3452670D01*
X2360000Y3446000D01*
X2351670Y3436670D01*
X2350000Y3427330D01*
X2353330Y3418000D01*
X2361670Y3411330D01*
G01X2638000Y913330D02*
X2627330Y905000D01*
X2615330Y900000D01*
X2604670D01*
X2594000Y905000D01*
X2586000Y913330D01*
X2582000Y925000D01*
X2584670Y936660D01*
X2591330Y946670D01*
X2603330Y953330D01*
X2619330Y956670D01*
X2628670Y963330D01*
X2632670Y975000D01*
X2630000Y986670D01*
X2623330Y995000D01*
X2614000Y1000000D01*
X2604670D01*
X2595330Y996670D01*
X2587330Y988330D01*
G01X2492670Y991670D02*
X2500670Y996670D01*
X2510000Y1000000D01*
X2520670D01*
X2532670Y995000D01*
X2542000Y986670D01*
X2548670Y976670D01*
X2554000Y960000D01*
X2555330Y945000D01*
X2552670Y930000D01*
X2548670Y920000D01*
X2540670Y910000D01*
X2531330Y903330D01*
X2522000Y900000D01*
X2512670D01*
X2503330Y903330D01*
X2495330Y908330D01*
X2488670Y915000D01*
G01X2460670Y1000000D02*
Y900000D01*
X2407330D01*
G01X2643330Y500000D02*
X2610000Y400000D01*
X2576670Y500000D01*
G01X2500670Y458330D02*
X2510000Y465000D01*
X2518000Y466660D01*
X2528670Y463330D01*
X2536670Y456670D01*
X2542000Y445000D01*
X2543330Y433330D01*
X2542000Y421670D01*
X2536670Y411660D01*
X2528670Y403330D01*
X2518000Y400000D01*
X2508670Y403330D01*
X2500670Y410000D01*
G01X2412670Y458330D02*
X2422000Y465000D01*
X2430000Y466660D01*
X2440670Y463330D01*
X2448670Y456670D01*
X2454000Y445000D01*
X2455330Y433330D01*
X2454000Y421670D01*
X2448670Y411660D01*
X2440670Y403330D01*
X2430000Y400000D01*
X2420670Y403330D01*
X2412670Y410000D01*
G01X2602000Y700000D02*
X2575330D01*
Y670000D01*
X2583330Y660000D01*
X2592670Y653330D01*
X2606000Y650000D01*
X2619330Y653330D01*
X2628670Y660000D01*
X2636670Y670000D01*
X2642000Y681670D01*
X2644670Y695000D01*
Y706670D01*
X2642000Y716660D01*
X2636670Y728330D01*
X2628670Y738330D01*
X2620670Y745000D01*
X2610000Y750000D01*
X2600670D01*
X2590000Y746670D01*
X2582000Y740000D01*
G01X2544670Y650000D02*
Y716660D01*
G01Y700000D02*
X2539330Y708330D01*
X2531330Y715000D01*
X2520670Y716660D01*
X2511330Y715000D01*
X2503330Y708330D01*
X2499330Y696670D01*
Y650000D01*
G01X2410000Y750000D02*
Y650000D01*
G01Y665000D02*
X2415330Y656670D01*
X2423330Y651670D01*
X2432670Y650000D01*
X2443330Y653330D01*
X2451330Y661660D01*
X2456670Y671670D01*
X2458000Y683330D01*
X2456670Y695000D01*
X2451330Y705000D01*
X2443330Y713330D01*
X2432670Y716660D01*
X2423330Y715000D01*
X2416670Y711670D01*
X2410000Y705000D01*
G01X2638000Y1163330D02*
X2627330Y1155000D01*
X2615330Y1150000D01*
X2604670D01*
X2594000Y1155000D01*
X2586000Y1163330D01*
X2582000Y1175000D01*
X2584670Y1186660D01*
X2591330Y1196670D01*
X2603330Y1203330D01*
X2619330Y1206670D01*
X2628670Y1213330D01*
X2632670Y1225000D01*
X2630000Y1236670D01*
X2623330Y1245000D01*
X2614000Y1250000D01*
X2604670D01*
X2595330Y1246670D01*
X2587330Y1238330D01*
G01X2551330Y1150000D02*
Y1250000D01*
X2524670D01*
X2514000Y1245000D01*
X2506000Y1238330D01*
X2499330Y1228330D01*
X2494000Y1216660D01*
X2492670Y1200000D01*
X2494000Y1183330D01*
X2499330Y1171670D01*
X2506000Y1161660D01*
X2514000Y1155000D01*
X2524670Y1150000D01*
X2551330D01*
G01X2467330D02*
X2434000Y1250000D01*
X2400670Y1150000D01*
G01X2412670Y1185000D02*
X2455330D01*
G01X2412670Y2300000D02*
X2410000Y2321670D01*
X2406000Y2340000D01*
X2400670Y2356670D01*
X2394000Y2375000D01*
X2383330Y2400000D01*
X2436670D01*
G01X2710000Y2300000D02*
X2700670Y2301670D01*
X2690000Y2306670D01*
X2683330Y2315000D01*
X2680670Y2326670D01*
X2683330Y2338330D01*
X2691330Y2348330D01*
X2703330Y2353330D01*
X2716670D01*
X2724670Y2356670D01*
X2731330Y2365000D01*
X2734000Y2376670D01*
X2730000Y2388330D01*
X2720670Y2396670D01*
X2710000Y2400000D01*
X2699330Y2396670D01*
X2690000Y2388330D01*
X2686000Y2376670D01*
X2688670Y2365000D01*
X2695330Y2356670D01*
X2703330Y2353330D01*
X2716670D01*
X2728670Y2348330D01*
X2736670Y2338330D01*
X2739330Y2326670D01*
X2736670Y2315000D01*
X2730000Y2306670D01*
X2719330Y2301670D01*
X2710000Y2300000D01*
G01X2982670Y2311660D02*
X2973330Y2303330D01*
X2962670Y2300000D01*
X2952000Y2303330D01*
X2942670Y2313330D01*
X2936000Y2328330D01*
X2933330Y2343330D01*
Y2361670D01*
X2936000Y2376670D01*
X2942670Y2390000D01*
X2950670Y2396670D01*
X2960000Y2400000D01*
X2970670Y2396670D01*
X2978670Y2390000D01*
X2984000Y2380000D01*
X2986670Y2366660D01*
X2984000Y2355000D01*
X2977330Y2343330D01*
X2969330Y2336660D01*
X2960000Y2335000D01*
X2949330Y2338330D01*
X2941330Y2346670D01*
X2933330Y2361670D01*
G01X2576000Y1900000D02*
X2544000D01*
G01X2560000D02*
Y1800000D01*
G01X2576000D02*
X2544000D01*
G01X2498670D02*
Y1900000D01*
X2465330D01*
X2454670Y1895000D01*
X2448000Y1888330D01*
X2445330Y1875000D01*
X2448000Y1861670D01*
X2456000Y1853330D01*
X2465330Y1848330D01*
X2498670D01*
G01X2465330D02*
X2445330Y1800000D01*
G01X2960000Y2886670D02*
X2860000D01*
Y2854670D01*
X2865000Y2844000D01*
X2876670Y2836000D01*
X2890000Y2833330D01*
X2903330Y2836000D01*
X2913330Y2842670D01*
X2918340Y2854670D01*
Y2886670D01*
G01X2906670Y2761330D02*
X2901670Y2756000D01*
X2893340Y2752000D01*
X2881670Y2749330D01*
X2871670Y2752000D01*
X2865000Y2757330D01*
X2860000Y2766670D01*
Y2802670D01*
X2960000D01*
Y2758670D01*
X2953330Y2749330D01*
X2943330Y2744000D01*
X2931670Y2741330D01*
X2920000Y2744000D01*
X2910000Y2752000D01*
X2906670Y2761330D01*
Y2802670D01*
G01X2860000Y2684000D02*
X2863330Y2694670D01*
X2871670Y2702670D01*
X2881670Y2708000D01*
X2895000Y2712000D01*
X2910000Y2713330D01*
X2925000Y2712000D01*
X2938330Y2708000D01*
X2948340Y2702670D01*
X2956670Y2694670D01*
X2960000Y2684000D01*
X2956670Y2673330D01*
X2948340Y2665330D01*
X2938330Y2660000D01*
X2925000Y2656000D01*
X2910000Y2654670D01*
X2895000Y2656000D01*
X2881670Y2660000D01*
X2871670Y2665330D01*
X2863330Y2673330D01*
X2860000Y2684000D01*
G01X2700000Y3643330D02*
X2600000Y3610000D01*
X2700000Y3576670D01*
G01X2665000Y3588670D02*
Y3631330D01*
G01X2700000Y3551330D02*
X2600000D01*
Y3524670D01*
X2605000Y3514000D01*
X2611670Y3506000D01*
X2621670Y3499330D01*
X2633340Y3494000D01*
X2650000Y3492670D01*
X2666670Y3494000D01*
X2678330Y3499330D01*
X2688340Y3506000D01*
X2695000Y3514000D01*
X2700000Y3524670D01*
Y3551330D01*
G01Y3436670D02*
X2678330Y3434000D01*
X2660000Y3430000D01*
X2643330Y3424670D01*
X2625000Y3418000D01*
X2600000Y3407330D01*
Y3460670D01*
G01X2950000Y3636670D02*
X2850000D01*
Y3604670D01*
X2855000Y3594000D01*
X2866670Y3586000D01*
X2880000Y3583330D01*
X2893330Y3586000D01*
X2903330Y3592670D01*
X2908340Y3604670D01*
Y3636670D01*
G01X2950000Y3551330D02*
X2850000D01*
Y3524670D01*
X2855000Y3514000D01*
X2861670Y3506000D01*
X2871670Y3499330D01*
X2883340Y3494000D01*
X2900000Y3492670D01*
X2916670Y3494000D01*
X2928330Y3499330D01*
X2938340Y3506000D01*
X2945000Y3514000D01*
X2950000Y3524670D01*
Y3551330D01*
G01X2850000Y3434000D02*
X2853330Y3444670D01*
X2861670Y3452670D01*
X2871670Y3458000D01*
X2885000Y3462000D01*
X2900000Y3463330D01*
X2915000Y3462000D01*
X2928330Y3458000D01*
X2938340Y3452670D01*
X2946670Y3444670D01*
X2950000Y3434000D01*
X2946670Y3423330D01*
X2938340Y3415330D01*
X2928330Y3410000D01*
X2915000Y3406000D01*
X2900000Y3404670D01*
X2885000Y3406000D01*
X2871670Y3410000D01*
X2861670Y3415330D01*
X2853330Y3423330D01*
X2850000Y3434000D01*
G01X3243330Y2300000D02*
X3210000Y2400000D01*
X3176670Y2300000D01*
G01X3188670Y2335000D02*
X3231330D01*
G01X3449330Y2353330D02*
X3444000Y2358330D01*
X3440000Y2366660D01*
X3437330Y2378330D01*
X3440000Y2388330D01*
X3445330Y2395000D01*
X3454670Y2400000D01*
X3490670D01*
Y2300000D01*
X3446670D01*
X3437330Y2306670D01*
X3432000Y2316670D01*
X3429330Y2328330D01*
X3432000Y2340000D01*
X3440000Y2350000D01*
X3449330Y2353330D01*
X3490670D01*
G01X3220000Y2886670D02*
X3120000D01*
Y2854670D01*
X3125000Y2844000D01*
X3136670Y2836000D01*
X3150000Y2833330D01*
X3163330Y2836000D01*
X3173330Y2842670D01*
X3178340Y2854670D01*
Y2886670D01*
G01X3166670Y2761330D02*
X3161670Y2756000D01*
X3153340Y2752000D01*
X3141670Y2749330D01*
X3131670Y2752000D01*
X3125000Y2757330D01*
X3120000Y2766670D01*
Y2802670D01*
X3220000D01*
Y2758670D01*
X3213330Y2749330D01*
X3203330Y2744000D01*
X3191670Y2741330D01*
X3180000Y2744000D01*
X3170000Y2752000D01*
X3166670Y2761330D01*
Y2802670D01*
G01X3220000Y2684000D02*
X3120000D01*
X3140000Y2700000D01*
G01X3220000D02*
Y2668000D01*
G01X3480000Y2886670D02*
X3380000D01*
Y2854670D01*
X3385000Y2844000D01*
X3396670Y2836000D01*
X3410000Y2833330D01*
X3423330Y2836000D01*
X3433330Y2842670D01*
X3438340Y2854670D01*
Y2886670D01*
G01X3426670Y2761330D02*
X3421670Y2756000D01*
X3413340Y2752000D01*
X3401670Y2749330D01*
X3391670Y2752000D01*
X3385000Y2757330D01*
X3380000Y2766670D01*
Y2802670D01*
X3480000D01*
Y2758670D01*
X3473330Y2749330D01*
X3463330Y2744000D01*
X3451670Y2741330D01*
X3440000Y2744000D01*
X3430000Y2752000D01*
X3426670Y2761330D01*
Y2802670D01*
G01X3396670Y2709330D02*
X3386670Y2701330D01*
X3381670Y2692000D01*
X3380000Y2681330D01*
X3383330Y2668000D01*
X3391670Y2658670D01*
X3401670Y2656000D01*
X3411670Y2657330D01*
X3420000Y2662670D01*
X3436670Y2689330D01*
X3448330Y2701330D01*
X3465000Y2709330D01*
X3480000Y2712000D01*
Y2656000D01*
G01X3200000Y3636670D02*
X3100000D01*
Y3604670D01*
X3105000Y3594000D01*
X3116670Y3586000D01*
X3130000Y3583330D01*
X3143330Y3586000D01*
X3153330Y3592670D01*
X3158340Y3604670D01*
Y3636670D01*
G01X3200000Y3551330D02*
X3100000D01*
Y3524670D01*
X3105000Y3514000D01*
X3111670Y3506000D01*
X3121670Y3499330D01*
X3133340Y3494000D01*
X3150000Y3492670D01*
X3166670Y3494000D01*
X3178330Y3499330D01*
X3188340Y3506000D01*
X3195000Y3514000D01*
X3200000Y3524670D01*
Y3551330D01*
G01Y3434000D02*
X3100000D01*
X3120000Y3450000D01*
G01X3200000D02*
Y3418000D01*
G01X3450000Y3636670D02*
X3350000D01*
Y3604670D01*
X3355000Y3594000D01*
X3366670Y3586000D01*
X3380000Y3583330D01*
X3393330Y3586000D01*
X3403330Y3592670D01*
X3408340Y3604670D01*
Y3636670D01*
G01X3450000Y3551330D02*
X3350000D01*
Y3524670D01*
X3355000Y3514000D01*
X3361670Y3506000D01*
X3371670Y3499330D01*
X3383340Y3494000D01*
X3400000Y3492670D01*
X3416670Y3494000D01*
X3428330Y3499330D01*
X3438340Y3506000D01*
X3445000Y3514000D01*
X3450000Y3524670D01*
Y3551330D01*
G01X3366670Y3459330D02*
X3356670Y3451330D01*
X3351670Y3442000D01*
X3350000Y3431330D01*
X3353330Y3418000D01*
X3361670Y3408670D01*
X3371670Y3406000D01*
X3381670Y3407330D01*
X3390000Y3412670D01*
X3406670Y3439330D01*
X3418330Y3451330D01*
X3435000Y3459330D01*
X3450000Y3462000D01*
Y3406000D01*
G01X3700000Y3636670D02*
X3600000D01*
Y3604670D01*
X3605000Y3594000D01*
X3616670Y3586000D01*
X3630000Y3583330D01*
X3643330Y3586000D01*
X3653330Y3592670D01*
X3658340Y3604670D01*
Y3636670D01*
G01X3700000Y3551330D02*
X3600000D01*
Y3524670D01*
X3605000Y3514000D01*
X3611670Y3506000D01*
X3621670Y3499330D01*
X3633340Y3494000D01*
X3650000Y3492670D01*
X3666670Y3494000D01*
X3678330Y3499330D01*
X3688340Y3506000D01*
X3695000Y3514000D01*
X3700000Y3524670D01*
Y3551330D01*
G01X3680000Y3463330D02*
X3691670Y3455330D01*
X3698330Y3444670D01*
X3700000Y3432670D01*
X3698330Y3422000D01*
X3690000Y3411330D01*
X3680000Y3404670D01*
X3670000Y3403330D01*
X3658340Y3406000D01*
X3650000Y3415330D01*
X3646670Y3424670D01*
Y3436670D01*
G01Y3424670D02*
X3641670Y3416670D01*
X3633340Y3410000D01*
X3623330Y3407330D01*
X3613330Y3410000D01*
X3605000Y3416670D01*
X3600000Y3428670D01*
X3601670Y3440670D01*
X3608330Y3452670D01*
G01X4467330Y450000D02*
Y378330D01*
X4462000Y363330D01*
X4451330Y353330D01*
X4438000Y350000D01*
X4424670Y353330D01*
X4414000Y363330D01*
X4408670Y378330D01*
Y450000D01*
G01X4350000Y350000D02*
Y450000D01*
X4366000Y430000D01*
G01Y350000D02*
X4334000D01*
G01X4262000Y450000D02*
X4272670Y446670D01*
X4280670Y438330D01*
X4286000Y428330D01*
X4290000Y415000D01*
X4291330Y400000D01*
X4290000Y385000D01*
X4286000Y371670D01*
X4280670Y361660D01*
X4272670Y353330D01*
X4262000Y350000D01*
X4251330Y353330D01*
X4243330Y361660D01*
X4238000Y371670D01*
X4234000Y385000D01*
X4232670Y400000D01*
X4234000Y415000D01*
X4238000Y428330D01*
X4243330Y438330D01*
X4251330Y446670D01*
X4262000Y450000D01*
G01X3730670Y2391670D02*
X3738670Y2396670D01*
X3748000Y2400000D01*
X3758670D01*
X3770670Y2395000D01*
X3780000Y2386670D01*
X3786670Y2376670D01*
X3792000Y2360000D01*
X3793330Y2345000D01*
X3790670Y2330000D01*
X3786670Y2320000D01*
X3778670Y2310000D01*
X3769330Y2303330D01*
X3760000Y2300000D01*
X3750670D01*
X3741330Y2303330D01*
X3733330Y2308330D01*
X3726670Y2315000D01*
G01X4089330Y2300000D02*
Y2400000D01*
X4062670D01*
X4052000Y2395000D01*
X4044000Y2388330D01*
X4037330Y2378330D01*
X4032000Y2366660D01*
X4030670Y2350000D01*
X4032000Y2333330D01*
X4037330Y2321670D01*
X4044000Y2311660D01*
X4052000Y2305000D01*
X4062670Y2300000D01*
X4089330D01*
G01X4283330D02*
X4336670D01*
Y2400000D01*
X4283330D01*
G01X4304670Y2351670D02*
X4336670D01*
G01X3740000Y2886670D02*
X3640000D01*
Y2854670D01*
X3645000Y2844000D01*
X3656670Y2836000D01*
X3670000Y2833330D01*
X3683330Y2836000D01*
X3693330Y2842670D01*
X3698340Y2854670D01*
Y2886670D01*
G01X3686670Y2761330D02*
X3681670Y2756000D01*
X3673340Y2752000D01*
X3661670Y2749330D01*
X3651670Y2752000D01*
X3645000Y2757330D01*
X3640000Y2766670D01*
Y2802670D01*
X3740000D01*
Y2758670D01*
X3733330Y2749330D01*
X3723330Y2744000D01*
X3711670Y2741330D01*
X3700000Y2744000D01*
X3690000Y2752000D01*
X3686670Y2761330D01*
Y2802670D01*
G01X3720000Y2713330D02*
X3731670Y2705330D01*
X3738330Y2694670D01*
X3740000Y2682670D01*
X3738330Y2672000D01*
X3730000Y2661330D01*
X3720000Y2654670D01*
X3710000Y2653330D01*
X3698340Y2656000D01*
X3690000Y2665330D01*
X3686670Y2674670D01*
Y2686670D01*
G01Y2674670D02*
X3681670Y2666670D01*
X3673340Y2660000D01*
X3663330Y2657330D01*
X3653330Y2660000D01*
X3645000Y2666670D01*
X3640000Y2678670D01*
X3641670Y2690670D01*
X3648330Y2702670D01*
G01X3980000Y2886670D02*
X3880000D01*
Y2854670D01*
X3885000Y2844000D01*
X3896670Y2836000D01*
X3910000Y2833330D01*
X3923330Y2836000D01*
X3933330Y2842670D01*
X3938340Y2854670D01*
Y2886670D01*
G01X3926670Y2761330D02*
X3921670Y2756000D01*
X3913340Y2752000D01*
X3901670Y2749330D01*
X3891670Y2752000D01*
X3885000Y2757330D01*
X3880000Y2766670D01*
Y2802670D01*
X3980000D01*
Y2758670D01*
X3973330Y2749330D01*
X3963330Y2744000D01*
X3951670Y2741330D01*
X3940000Y2744000D01*
X3930000Y2752000D01*
X3926670Y2761330D01*
Y2802670D01*
G01X3980000Y2668000D02*
X3880000D01*
X3951670Y2717330D01*
Y2650670D01*
G01X4220000Y2886670D02*
X4120000D01*
Y2854670D01*
X4125000Y2844000D01*
X4136670Y2836000D01*
X4150000Y2833330D01*
X4163330Y2836000D01*
X4173330Y2842670D01*
X4178340Y2854670D01*
Y2886670D01*
G01X4166670Y2761330D02*
X4161670Y2756000D01*
X4153340Y2752000D01*
X4141670Y2749330D01*
X4131670Y2752000D01*
X4125000Y2757330D01*
X4120000Y2766670D01*
Y2802670D01*
X4220000D01*
Y2758670D01*
X4213330Y2749330D01*
X4203330Y2744000D01*
X4191670Y2741330D01*
X4180000Y2744000D01*
X4170000Y2752000D01*
X4166670Y2761330D01*
Y2802670D01*
G01X4205000Y2713330D02*
X4213330Y2705330D01*
X4218330Y2696000D01*
X4220000Y2684000D01*
X4216670Y2672000D01*
X4210000Y2662670D01*
X4198330Y2656000D01*
X4185000Y2654670D01*
X4171670Y2657330D01*
X4163330Y2664000D01*
X4156670Y2673330D01*
X4155000Y2682670D01*
X4156670Y2692000D01*
X4163330Y2704000D01*
X4120000Y2700000D01*
Y2664000D01*
G01X3950000Y3636670D02*
X3850000D01*
Y3604670D01*
X3855000Y3594000D01*
X3866670Y3586000D01*
X3880000Y3583330D01*
X3893330Y3586000D01*
X3903330Y3592670D01*
X3908340Y3604670D01*
Y3636670D01*
G01X3950000Y3551330D02*
X3850000D01*
Y3524670D01*
X3855000Y3514000D01*
X3861670Y3506000D01*
X3871670Y3499330D01*
X3883340Y3494000D01*
X3900000Y3492670D01*
X3916670Y3494000D01*
X3928330Y3499330D01*
X3938340Y3506000D01*
X3945000Y3514000D01*
X3950000Y3524670D01*
Y3551330D01*
G01Y3418000D02*
X3850000D01*
X3921670Y3467330D01*
Y3400670D01*
G01X4200000Y3636670D02*
X4100000D01*
Y3604670D01*
X4105000Y3594000D01*
X4116670Y3586000D01*
X4130000Y3583330D01*
X4143330Y3586000D01*
X4153330Y3592670D01*
X4158340Y3604670D01*
Y3636670D01*
G01X4200000Y3551330D02*
X4100000D01*
Y3524670D01*
X4105000Y3514000D01*
X4111670Y3506000D01*
X4121670Y3499330D01*
X4133340Y3494000D01*
X4150000Y3492670D01*
X4166670Y3494000D01*
X4178330Y3499330D01*
X4188340Y3506000D01*
X4195000Y3514000D01*
X4200000Y3524670D01*
Y3551330D01*
G01X4185000Y3463330D02*
X4193330Y3455330D01*
X4198330Y3446000D01*
X4200000Y3434000D01*
X4196670Y3422000D01*
X4190000Y3412670D01*
X4178330Y3406000D01*
X4165000Y3404670D01*
X4151670Y3407330D01*
X4143330Y3414000D01*
X4136670Y3423330D01*
X4135000Y3432670D01*
X4136670Y3442000D01*
X4143330Y3454000D01*
X4100000Y3450000D01*
Y3414000D01*
G01X4473330Y1200000D02*
Y1128330D01*
X4468000Y1113330D01*
X4457330Y1103330D01*
X4444000Y1100000D01*
X4430670Y1103330D01*
X4420000Y1113330D01*
X4414670Y1128330D01*
Y1200000D01*
G01X4378670Y1111660D02*
X4369330Y1103330D01*
X4358670Y1100000D01*
X4348000Y1103330D01*
X4338670Y1113330D01*
X4332000Y1128330D01*
X4329330Y1143330D01*
Y1161670D01*
X4332000Y1176670D01*
X4338670Y1190000D01*
X4346670Y1196670D01*
X4356000Y1200000D01*
X4366670Y1196670D01*
X4374670Y1190000D01*
X4380000Y1180000D01*
X4382670Y1166660D01*
X4380000Y1155000D01*
X4373330Y1143330D01*
X4365330Y1136660D01*
X4356000Y1135000D01*
X4345330Y1138330D01*
X4337330Y1146670D01*
X4329330Y1161670D01*
G01X4585330Y2300000D02*
Y2400000D01*
X4534670D01*
G01X4553330Y2351670D02*
X4585330D01*
G01X4450000Y3636670D02*
X4350000D01*
Y3604670D01*
X4355000Y3594000D01*
X4366670Y3586000D01*
X4380000Y3583330D01*
X4393330Y3586000D01*
X4403330Y3592670D01*
X4408340Y3604670D01*
Y3636670D01*
G01X4450000Y3551330D02*
X4350000D01*
Y3524670D01*
X4355000Y3514000D01*
X4361670Y3506000D01*
X4371670Y3499330D01*
X4383340Y3494000D01*
X4400000Y3492670D01*
X4416670Y3494000D01*
X4428330Y3499330D01*
X4438340Y3506000D01*
X4445000Y3514000D01*
X4450000Y3524670D01*
Y3551330D01*
G01X4408340Y3459330D02*
X4396670Y3450000D01*
X4390000Y3442000D01*
X4386670Y3431330D01*
X4390000Y3422000D01*
X4396670Y3415330D01*
X4406670Y3410000D01*
X4418330Y3408670D01*
X4428330Y3410000D01*
X4438340Y3415330D01*
X4446670Y3423330D01*
X4450000Y3432670D01*
X4446670Y3443330D01*
X4436670Y3452670D01*
X4421670Y3458000D01*
X4405000Y3459330D01*
X4383340Y3456670D01*
X4371670Y3452670D01*
X4360000Y3446000D01*
X4351670Y3436670D01*
X4350000Y3427330D01*
X4353330Y3418000D01*
X4361670Y3411330D01*
G01X4700000Y3636670D02*
X4600000D01*
Y3604670D01*
X4605000Y3594000D01*
X4616670Y3586000D01*
X4630000Y3583330D01*
X4643330Y3586000D01*
X4653330Y3592670D01*
X4658340Y3604670D01*
Y3636670D01*
G01X4700000Y3551330D02*
X4600000D01*
Y3524670D01*
X4605000Y3514000D01*
X4611670Y3506000D01*
X4621670Y3499330D01*
X4633340Y3494000D01*
X4650000Y3492670D01*
X4666670Y3494000D01*
X4678330Y3499330D01*
X4688340Y3506000D01*
X4695000Y3514000D01*
X4700000Y3524670D01*
Y3551330D01*
G01Y3436670D02*
X4678330Y3434000D01*
X4660000Y3430000D01*
X4643330Y3424670D01*
X4625000Y3418000D01*
X4600000Y3407330D01*
Y3460670D01*
G54D12*
G01X1920000Y1850000D02*
X1941340Y1843330D01*
X1957330Y1826670D01*
X1968000Y1806670D01*
X1976000Y1780000D01*
X1978670Y1750000D01*
X1976000Y1720000D01*
X1968000Y1693330D01*
X1957330Y1673330D01*
X1941340Y1656670D01*
X1920000Y1650000D01*
X1898670Y1656670D01*
X1882670Y1673330D01*
X1872000Y1693330D01*
X1864000Y1720000D01*
X1861330Y1750000D01*
X1864000Y1780000D01*
X1872000Y1806670D01*
X1882670Y1826670D01*
X1898670Y1843330D01*
X1920000Y1850000D01*
G01X1744000Y1650000D02*
Y1850000D01*
X1776000Y1810000D01*
G01Y1650000D02*
X1712000D01*
G01X1568000Y1850000D02*
X1589340Y1843330D01*
X1605330Y1826670D01*
X1616000Y1806670D01*
X1624000Y1780000D01*
X1626670Y1750000D01*
X1624000Y1720000D01*
X1616000Y1693330D01*
X1605330Y1673330D01*
X1589340Y1656670D01*
X1568000Y1650000D01*
X1546670Y1656670D01*
X1530670Y1673330D01*
X1520000Y1693330D01*
X1512000Y1720000D01*
X1509330Y1750000D01*
X1512000Y1780000D01*
X1520000Y1806670D01*
X1530670Y1826670D01*
X1546670Y1843330D01*
X1568000Y1850000D01*
G01X1392000Y1650000D02*
X1373330Y1653330D01*
X1352000Y1663330D01*
X1338670Y1679990D01*
X1333330Y1703330D01*
X1338670Y1726660D01*
X1354670Y1746660D01*
X1378670Y1756670D01*
X1405330D01*
X1421330Y1763330D01*
X1434670Y1780000D01*
X1440000Y1803330D01*
X1432000Y1826670D01*
X1413340Y1843330D01*
X1392000Y1850000D01*
X1370670Y1843330D01*
X1352000Y1826670D01*
X1344000Y1803330D01*
X1349340Y1780000D01*
X1362670Y1763330D01*
X1378670Y1756670D01*
X1405330D01*
X1429330Y1746660D01*
X1445330Y1726660D01*
X1450670Y1703330D01*
X1445330Y1679990D01*
X1432000Y1663330D01*
X1410670Y1653330D01*
X1392000Y1650000D01*
G01X1261340Y1673330D02*
X1242670Y1656670D01*
X1221330Y1650000D01*
X1200000Y1656670D01*
X1181330Y1676660D01*
X1168000Y1706670D01*
X1162670Y1736670D01*
Y1773330D01*
X1168000Y1803330D01*
X1181330Y1830000D01*
X1197330Y1843330D01*
X1216000Y1850000D01*
X1237340Y1843330D01*
X1253330Y1830000D01*
X1264000Y1810000D01*
X1269330Y1783330D01*
X1264000Y1760000D01*
X1250670Y1736670D01*
X1234670Y1723330D01*
X1216000Y1720000D01*
X1194670Y1726660D01*
X1178670Y1743330D01*
X1162670Y1773330D01*
G01X1040000Y1850000D02*
X1061340Y1843330D01*
X1077330Y1826670D01*
X1088000Y1806670D01*
X1096000Y1780000D01*
X1098670Y1750000D01*
X1096000Y1720000D01*
X1088000Y1693330D01*
X1077330Y1673330D01*
X1061340Y1656670D01*
X1040000Y1650000D01*
X1018670Y1656670D01*
X1002670Y1673330D01*
X992000Y1693330D01*
X984000Y1720000D01*
X981330Y1750000D01*
X984000Y1780000D01*
X992000Y1806670D01*
X1002670Y1826670D01*
X1018670Y1843330D01*
X1040000Y1850000D01*
G01X864000Y1650000D02*
Y1850000D01*
X896000Y1810000D01*
G01Y1650000D02*
X832000D01*
G01X754670D02*
X688000Y1850000D01*
X621330Y1650000D01*
G01X645340Y1720000D02*
X730670D01*
G01X512000Y1850000D02*
X533340Y1843330D01*
X549330Y1826670D01*
X560000Y1806670D01*
X568000Y1780000D01*
X570670Y1750000D01*
X568000Y1720000D01*
X560000Y1693330D01*
X549330Y1673330D01*
X533340Y1656670D01*
X512000Y1650000D01*
X490670Y1656670D01*
X474670Y1673330D01*
X464000Y1693330D01*
X456000Y1720000D01*
X453330Y1750000D01*
X456000Y1780000D01*
X464000Y1806670D01*
X474670Y1826670D01*
X490670Y1843330D01*
X512000Y1850000D01*
G01X336000Y1650000D02*
Y1850000D01*
X368000Y1810000D01*
G01Y1650000D02*
X304000D01*
G01X226670D02*
X160000Y1850000D01*
X93330Y1650000D01*
G01X117340Y1720000D02*
X202670D01*
M02*
