M48
METRIC
T01C.3
T02C.45
T03C.75
T04C.85
T05C1.2
T06C.85
T07C1.1
;LEADER: 12 
;HEADER: 
;CODE  : ASCII 
;FILE  : demo_sensor-1-2.drl for  ... layers TOP and BOTTOM
;DESIGN: demo_sensor.brd
;T01 Holesize 1. = 0.300000 Tolerance = +0.000000/-0.000000 PLATED MM Quantity = 24
;T02 Holesize 2. = 0.450000 Tolerance = +0.000000/-0.000000 PLATED MM Quantity = 15
;T03 Holesize 3. = 0.750000 Tolerance = +0.000000/-0.000000 PLATED MM Quantity = 4
;T04 Holesize 4. = 0.850000 Tolerance = +0.000000/-0.000000 PLATED MM Quantity = 37
;T05 Holesize 5. = 1.200000 Tolerance = +0.000000/-0.000000 PLATED MM Quantity = 18
;T06 Holesize 6. = 0.850000 Tolerance = +0.000000/-0.000000 NON_PLATED MM Quantity = 1
;T07 Holesize 7. = 1.100000 Tolerance = +0.000000/-0.000000 NON_PLATED MM Quantity = 1
%
G90
T01
X3990000Y0890000
X2000000Y2940000
X1992000Y3060000
X2072000Y2440000
X1992000Y2517840
X2640000Y3320000
X2640000Y2943000
X2151990Y3680000
X2232000Y3620000
X2220000Y3320000
X2220000Y3239000
X2040000Y0820000
X2220000Y3158000
X2200000Y0130000
X1912010Y2580000
X1832000Y2700000
X1751990Y2760000
X1760080Y3247030
X1758010Y3328010
X1740000Y3585280
X2395000Y1355000
X2497500Y1220000
X3922490Y0480000
X4180000Y0480000
T02
X0700000Y2860000
X0600000Y2860000
X1380000Y3200000
X2716300Y3118000
X4550000Y3450000
X4650000Y3450000
X1006210Y0673790
X2600000Y0460000
X2150000Y0600000
X0150000Y0962300
X3955000Y0240000
X3745000Y0255000
X3865000Y1015000
X4540000Y0520000
X4400000Y0650000
T03
X4800000Y1700000
X4800000Y1450000
X2780000Y1840000
X4800000Y0700000
T04
X0381000Y3810000
R09X0254000
X4699000Y2540000
X4445000Y2540000
X0381000Y2540000
R02X0254000
X2921000Y3810000
R07X0254000
X2921000Y2540000
R05X0254000
X2794000Y0444500
R03Y0254000
X3365500Y1206500
R03Y-0254000
T05
X0540000Y2200000
X0270000Y2200000
X0810000Y2200000
R05X0270000
X4860000Y2200000
X2970000Y2200000
X2430000Y2200000
X2700000Y2200000
X3240000Y2200000
R05X0270000
T06
X1410000Y1030000
T07
X0650000Y1030000
M30
