G04 ================== begin FILE IDENTIFICATION RECORD ==================*
G04 Layout Name:  C:/Users/works/Desktop/168paSensor/SMD/demo_sensor.brd*
G04 Film Name:    TOP*
G04 File Format:  Gerber RS274X*
G04 File Origin:  Cadence Allegro 16.6-2015-S066*
G04 Origin Date:  Sun Sep 10 22:47:33 2017*
G04 *
G04 Layer:  BOARD GEOMETRY/OUTLINE*
G04 Layer:  ETCH/TOP*
G04 Layer:  PIN/TOP*
G04 Layer:  VIA CLASS/TOP*
G04 *
G04 Offset:    (0.0000 0.0000)*
G04 Mirror:    No*
G04 Mode:      Positive*
G04 Rotation:  0*
G04 FullContactRelief:  No*
G04 UndefLineWidth:     0.0000*
G04 ================== end FILE IDENTIFICATION RECORD ====================*
%FSLAX25Y25*MOMM*%
%IR0*IPPOS*OFA0.00000B0.00000*MIA0B0*SFA1.00000B1.00000*%
%ADD19R,2.1001X.4*%
%ADD26R,.9X1.*%
%ADD15C,.5*%
%ADD20C,.6*%
%ADD11C,.75*%
%ADD28R,1.5748X.4064*%
%ADD18R,1.5499X.5499*%
%ADD17R,.5499X1.5499*%
%ADD25C,1.4*%
%ADD16R,.9X.6*%
%ADD13C,1.5*%
%ADD24R,.6X.9*%
%ADD12C,1.6*%
%ADD23R,.27X.62*%
%ADD22R,.6X.85*%
%ADD14O,2.667X1.27*%
%ADD21R,.85X.85*%
%AMMACRO10*
21,1,1.8,3.5,0.0,0.0,89.839*%
%ADD10MACRO10*%
%ADD27R,.95X.5499*%
%ADD29C,.1*%
%ADD30C,.2*%
%ADD31C,.3*%
%ADD32C,.4*%
%ADD33C,.25*%
%ADD34C,.35*%
G75*
%LPD*%
G75*
G36*
G01X360000Y3120000D02*
X820000D01*
Y2900000D01*
X720000Y2800000D01*
X420000D01*
X340000Y2880000D01*
Y3100000D01*
X360000Y3120000D01*
G37*
G36*
G01X4300000Y3600000D02*
X4700000D01*
X4750000Y3550000D01*
Y3350000D01*
X4650000Y3250000D01*
X4190000D01*
X4150000Y3290000D01*
Y3450000D01*
X4300000Y3600000D01*
G37*
%LPC*%
G75*
G36*
G01X438150Y2920980D02*
G02Y3073420I0J76220D01*
G01X577850D01*
G02Y2920980I0J-76220D01*
G01X438150D01*
G37*
G36*
G01X4248150Y3276580D02*
G02Y3429020I0J76220D01*
G01X4387850D01*
G02Y3276580I0J-76220D01*
G01X4248150D01*
G37*
%LPD*%
G75*
G54D10*
X250000Y1030000D03*
X1810000D03*
G54D11*
X150000Y962300D03*
X1006210Y673790D03*
X600000Y2860000D03*
X700000D03*
X1380000Y3200000D03*
X2150000Y600000D03*
X2600000Y460000D03*
X2716300Y3118000D03*
X3745000Y255000D03*
X3955000Y240000D03*
X3865000Y1015000D03*
X4400000Y650000D03*
X4540000Y520000D03*
X4650000Y3450000D03*
X4550000D03*
G54D20*
X1740000Y3585280D03*
X2200000Y130000D03*
X2040000Y820000D03*
X1751990Y2760000D03*
X1832000Y2700000D03*
X1912010Y2580000D03*
X1992000Y2517840D03*
X2072000Y2440000D03*
X1758010Y3328010D03*
X1760080Y3247030D03*
X2220000Y3158000D03*
Y3239000D03*
Y3320000D03*
X1992000Y3060000D03*
X2000000Y2940000D03*
X2232000Y3620000D03*
X2151990Y3680000D03*
X2497500Y1220000D03*
X2395000Y1355000D03*
X2640000Y2943000D03*
Y3320000D03*
X4180000Y480000D03*
X3922490D03*
X3990000Y890000D03*
G54D30*
G01X3310000Y1990000D02*
X4440000D01*
Y1560000D01*
X3310000D01*
Y1990000D01*
G01Y1973570D02*
X3326430Y1990000D01*
G01X3310000Y1909930D02*
X3390070Y1990000D01*
G01X3310000Y1846290D02*
X3453710Y1990000D01*
G01X3310000Y1782650D02*
X3517350Y1990000D01*
G01X3310000Y1719010D02*
X3580990Y1990000D01*
G01X3310010Y1655380D02*
X3644630Y1990000D01*
G01X3310010Y1591740D02*
X3708270Y1990000D01*
G01X3341910Y1560000D02*
X3771910Y1990000D01*
G01X3405550Y1560000D02*
X3835550Y1990000D01*
G01X3469190Y1560000D02*
X3899190Y1990000D01*
G01X3532830Y1560000D02*
X3962830Y1990000D01*
G01X3596470Y1560000D02*
X4026470Y1990000D01*
G01X3660110Y1560000D02*
X4090110Y1990000D01*
G01X3723750Y1560000D02*
X4153750Y1990000D01*
G01X3787390Y1560000D02*
X4217390Y1990000D01*
G01X3851030Y1560000D02*
X4281030Y1990000D01*
G01X3914670Y1560000D02*
X4344670Y1990000D01*
G01X3978310Y1560000D02*
X4408310Y1990000D01*
G01X4041950Y1560010D02*
X4440000Y1958060D01*
G01X4105590Y1560010D02*
X4440000Y1894420D01*
G01X4169230Y1560010D02*
X4440000Y1830780D01*
G01X4232870Y1560010D02*
X4440000Y1767140D01*
G01X4296510Y1560010D02*
X4440000Y1703500D01*
G01X4360150Y1560010D02*
X4440000Y1639860D01*
G01X4423790Y1560010D02*
X4440000Y1576220D01*
G01X3340240Y1560010D02*
X3310010Y1590240D01*
G01X3403880Y1560010D02*
X3310010Y1653880D01*
G01X3467520Y1560010D02*
X3310010Y1717520D01*
G01X3531160Y1560010D02*
X3310010Y1781160D01*
G01X3594800Y1560010D02*
X3310010Y1844800D01*
G01X3658440Y1560010D02*
X3310010Y1908440D01*
G01X3722080Y1560010D02*
X3310010Y1972080D01*
G01X3785720Y1560010D02*
X3355730Y1990000D01*
G01X3849360Y1560010D02*
X3419370Y1990000D01*
G01X3913000Y1560010D02*
X3483010Y1990000D01*
G01X3976640Y1560010D02*
X3546650Y1990000D01*
G01X4040280Y1560010D02*
X3610290Y1990000D01*
G01X4103920Y1560010D02*
X3673930Y1990000D01*
G01X4167560Y1560000D02*
X3737560Y1990000D01*
G01X4231200Y1560000D02*
X3801200Y1990000D01*
G01X4294840Y1560000D02*
X3864840Y1990000D01*
G01X4358480Y1560000D02*
X3928480Y1990000D01*
G01X4422120Y1560000D02*
X3992120Y1990000D01*
G01X4440000Y1605760D02*
X4055760Y1990000D01*
G01X4440000Y1669400D02*
X4119400Y1990000D01*
G01X4440000Y1733040D02*
X4183040Y1990000D01*
G01X4440000Y1796680D02*
X4246680Y1990000D01*
G01X4440000Y1860320D02*
X4310320Y1990000D01*
G01X4440000Y1923960D02*
X4373960Y1990000D01*
G01X4440000Y1987600D02*
X4437600Y1990000D01*
G54D21*
X2202500Y897500D03*
Y1022500D03*
X2497500Y897500D03*
Y1022500D03*
G54D12*
X270000Y2200000D03*
X1080000D03*
X810000D03*
X540000D03*
X1620000D03*
X1350000D03*
X2430000D03*
X2160000D03*
X1890000D03*
X2700000D03*
X2970000D03*
X3510000D03*
X3240000D03*
X4320000D03*
X4050000D03*
X3780000D03*
X4590000D03*
X4860000D03*
G54D31*
G01X4700000Y326000D02*
Y389700D01*
X4669700Y420000D01*
X4380000D01*
G54D22*
X2305000Y897500D03*
X2395000D03*
Y1022500D03*
X2305000D03*
G54D13*
X381000Y2540000D03*
Y3810000D03*
X889000Y2540000D03*
X635000D03*
X1143000Y3810000D03*
X889000D03*
X635000D03*
X1651000D03*
X1397000D03*
X2413000D03*
X2159000D03*
X1905000D03*
X2794000Y952500D03*
Y698500D03*
Y444500D03*
Y1206500D03*
X2921000Y2540000D03*
X2667000Y3810000D03*
X2921000D03*
X3365500Y444500D03*
Y698500D03*
Y952500D03*
Y1206500D03*
X3683000Y2540000D03*
X3429000D03*
X3175000D03*
X3683000Y3810000D03*
X3429000D03*
X3175000D03*
X4191000Y2540000D03*
X3937000D03*
X4191000Y3810000D03*
X3937000D03*
X4445000Y2540000D03*
X4699000D03*
Y3810000D03*
X4445000D03*
G54D32*
G01X356850Y2997200D02*
X508000D01*
G01X762000Y2978000D02*
Y2915300D01*
G01D02*
X947300Y2730000D01*
X1270000D01*
G01X508000Y2997200D02*
Y3078500D01*
G01X1612010Y2928010D02*
X1722210D01*
X1723180Y2927040D01*
X1800000D01*
G01D02*
Y3048000D01*
X1760000Y3088000D01*
X1612010D01*
G01Y3167990D02*
X1412010D01*
X1380000Y3200000D01*
G01X2451990Y2848000D02*
X1952000D01*
X1886000Y2914000D01*
X1813040D01*
X1800000Y2927040D01*
G01X2420000Y460000D02*
Y600000D01*
G01X2620000Y698500D02*
X2618500Y700000D01*
X2470000D01*
X2395000Y775000D01*
Y897500D01*
G01X2794000Y2978000D02*
Y2915300D01*
X2726700Y2848000D01*
X2451990D01*
G01Y3088000D02*
X2686300D01*
X2716300Y3118000D01*
G01D02*
X2794000D01*
G01X4177510Y255000D02*
Y350000D01*
G01X4380000Y420000D02*
Y390000D01*
X4340000Y350000D01*
X4177510D01*
G01X3922490D02*
Y255000D01*
G01X4380000Y600000D02*
X4300000D01*
X4268440Y631560D01*
Y752460D01*
G01X3865000Y1015000D02*
X3831560Y981560D01*
Y947540D01*
G01X4380000Y420000D02*
Y600000D01*
G54D14*
X508000Y3302000D03*
Y2997200D03*
X4318000Y3048000D03*
Y3352800D03*
G54D23*
X2420000Y134000D03*
X2470000D03*
X2520000D03*
X2420000Y286000D03*
X2470000D03*
X2520000D03*
X4600000Y174000D03*
X4650000D03*
X4700000D03*
X4600000Y326000D03*
X4650000D03*
X4700000D03*
G54D33*
G01X1270000Y2849990D02*
X1509820D01*
X1511810Y2848000D01*
X1612010D01*
G01Y2767990D02*
Y2717790D01*
X1610000Y2715780D01*
Y2710000D01*
X1510010Y2610010D01*
X1270000D01*
G01X1612010Y3328010D02*
X1758010D01*
G01X1760080Y3247030D02*
X1759110Y3248000D01*
X1612010D01*
G01X2420000Y134000D02*
X2381300D01*
X2377300Y130000D01*
X2200000D01*
G01D02*
X1940000Y390000D01*
Y825200D01*
X2137300Y1022500D01*
X2202500D01*
G01X2040000Y820000D02*
Y380000D01*
X2134000Y286000D01*
X2420000D01*
G01X2202500Y897500D02*
X2117500D01*
X2040000Y820000D01*
G01X1751990Y2628010D02*
Y2760000D01*
G01X1832000Y2628010D02*
Y2700000D01*
G01X1912010Y2628010D02*
Y2580000D01*
G01X1992000Y2628010D02*
Y2517840D01*
G01X2072000Y2628010D02*
Y2440000D01*
G01X2151990Y2628010D02*
Y2527810D01*
X2239800Y2440000D01*
X2660000D01*
X2880000Y2660000D01*
X3309000D01*
X3429000Y2540000D01*
G01X2232000Y2628010D02*
Y2527810D01*
X2259810Y2500000D01*
X2620000D01*
X2839000Y2719000D01*
X3504000D01*
X3683000Y2540000D01*
G01X3937000D02*
X3697000Y2780000D01*
X2820000D01*
X2668010Y2628010D01*
X2312010D01*
G01X2921000Y3810000D02*
X2817500Y3913500D01*
X2063500D01*
X2020000Y3870000D01*
Y3739990D01*
X1912010Y3632000D01*
Y3467990D01*
G01X3175000Y3810000D02*
X3030500Y3954500D01*
X1874490D01*
X1790000Y3870010D01*
Y3618020D01*
X1798500Y3609520D01*
Y3601690D01*
X1832000Y3568190D01*
Y3467990D01*
G01X1740000Y3585280D02*
Y3479980D01*
X1751990Y3467990D01*
G01X2220000Y3158000D02*
X2222000D01*
X2222320Y3157680D01*
X2257680D01*
X2348000Y3248000D01*
X2451990D01*
G01X2220000Y3239000D02*
X2221000Y3240000D01*
X2261280D01*
X2349290Y3328010D01*
X2451990D01*
G01X2220000Y3320000D02*
X2275200D01*
X2312010Y3356810D01*
Y3467990D01*
G01X2232000D02*
Y3620000D01*
G01X2151990Y3467990D02*
Y3680000D01*
G01X2159000Y3810000D02*
X2072000Y3723000D01*
Y3467990D01*
G01X1992000Y3060000D02*
Y3467990D01*
G01X2000000Y2940000D02*
X2068000Y3008000D01*
X2451990D01*
G01X2470000Y286000D02*
X2520000D01*
G01X2470000D02*
Y342200D01*
X2480000Y352200D01*
Y420000D01*
X2440000Y460000D01*
X2420000D01*
G01X2600000D02*
X2620000Y440000D01*
Y245000D01*
X2595000Y220000D01*
X2500000D01*
X2470000Y190000D01*
Y134000D01*
G01X2497500Y1022500D02*
Y1220000D01*
G01X2395000Y1022500D02*
Y1355000D01*
G01X2451990Y2767990D02*
X2728000D01*
X2800010Y2840000D01*
X3891000D01*
X4191000Y2540000D01*
G01X2640000Y2943000D02*
X2569680D01*
X2554690Y2928010D01*
X2451990D01*
G01X2640000Y3320000D02*
Y3583000D01*
X2413000Y3810000D01*
G01X2667000D02*
X2790000Y3687000D01*
Y3310000D01*
X2647990Y3167990D01*
X2451990D01*
G01X3598500Y445000D02*
Y221500D01*
X3740000Y80000D01*
X4562200D01*
X4600000Y117800D01*
Y174000D01*
G01X3775000Y1350000D02*
Y1425200D01*
X3750200Y1450000D01*
X3280500D01*
X3250000Y1419500D01*
Y475000D01*
X3280500Y444500D01*
X3365500D01*
G01X3598500Y445000D02*
Y698500D01*
G01Y445000D02*
X3922490D01*
G01X3598500Y698500D02*
X3365500D01*
G01X3652460Y752460D02*
X3598500Y698500D01*
G01X4600000Y326000D02*
Y269800D01*
X4480200Y150000D01*
X4150000D01*
X4080000Y220000D01*
Y460000D01*
G01D02*
X4162510D01*
X4177510Y445000D01*
G01X3831560Y817490D02*
X4080000D01*
G01D02*
Y1280000D01*
X4010000Y1350000D01*
X3775000D01*
G01X4080000Y817490D02*
Y460000D01*
G01X4180000Y480000D02*
Y447490D01*
X4177510Y445000D01*
G01X3652460Y752460D02*
Y1002260D01*
X3775000Y1124800D01*
Y1200000D01*
G01X3831560Y752460D02*
X3652460D01*
G01X3922490Y480000D02*
Y445000D01*
G01X4268440Y882510D02*
X4447510D01*
X4535000Y970000D01*
X4550000D01*
G01X4268440Y817490D02*
X4467290D01*
X4479800Y830000D01*
X4550000D01*
G01X3990000Y890000D02*
X3982510Y882510D01*
X3831560D01*
G01X4650000Y326000D02*
X4700000D01*
G01X4540000Y520000D02*
X4730000D01*
X4750000Y500000D01*
Y270000D01*
X4720000Y240000D01*
X4681190D01*
X4650000Y208810D01*
Y174000D01*
G01X4800000Y700000D02*
Y199000D01*
X4775000Y174000D01*
X4700000D01*
G01X4550000Y970000D02*
Y1450000D01*
X4800000Y1700000D01*
G01Y1450000D02*
X4675000D01*
X4650000Y1425000D01*
Y859800D01*
X4620200Y830000D01*
X4550000D01*
G54D24*
X2560000Y460000D03*
X2420000D03*
X4520000Y600000D03*
X4380000D03*
G54D15*
G01X381000Y2540000D02*
X508000Y2667000D01*
Y2997200D01*
G01X356850D02*
X182800D01*
X180000Y3000000D01*
Y3609000D01*
X381000Y3810000D01*
G01X1006210Y673790D02*
X1753790D01*
X1809640Y729640D01*
Y902300D01*
X1810000Y1030000D01*
G01X635000Y3810000D02*
X508000Y3683000D01*
Y3302000D01*
G01X1000000Y3118000D02*
X1022000D01*
X1052000Y3088000D01*
X1612010D01*
G01X1000000Y3118000D02*
X985000D01*
X801000Y3302000D01*
X508000D01*
G01X1000000Y2978000D02*
X1471810D01*
X1501810Y3008000D01*
X1612010D01*
G01X1000000Y2978000D02*
X762000D01*
G01D02*
X742800Y2997200D01*
G01D02*
X508000D01*
G01X2420000Y600000D02*
X2150000D01*
G01X1810000Y1030000D02*
Y1350000D01*
X1920000Y1460000D01*
X2540000D01*
X2620000Y1380000D01*
Y698500D01*
G01X2794000Y444500D02*
X2638500Y600000D01*
X2420000D01*
G01X2794000Y698500D02*
X2620000D01*
G01X2560000Y460000D02*
X2600000D01*
G01X3937000Y3232000D02*
X3922000D01*
X3668000Y2978000D01*
X2794000D01*
G01Y3118000D02*
X3318000D01*
X3572000Y3372000D01*
X3937000D01*
G01X3365500Y1206500D02*
X3535800D01*
X3542300Y1200000D01*
X3625000D01*
G01D02*
Y1350000D01*
G01X3922490Y255000D02*
X3940000D01*
X3955000Y240000D01*
G01X3922490Y255000D02*
X3745000D01*
G01X4318000Y3048000D02*
X4248150D01*
X4176590Y3119560D01*
Y3123410D01*
X4068000Y3232000D01*
X3937000D01*
G01Y3372000D02*
X4127750D01*
X4146950Y3352800D01*
X4318000D01*
G01X4400000Y650000D02*
Y620000D01*
X4380000Y600000D01*
G01X4540000Y520000D02*
Y580000D01*
X4520000Y600000D01*
G01X4445000Y2540000D02*
Y2652700D01*
X4450000Y2657700D01*
Y2950000D01*
X4352000Y3048000D01*
X4318000D01*
G01X4597200Y3352800D02*
X4700000Y3250000D01*
Y2653700D01*
X4699000Y2652700D01*
Y2540000D01*
G01X4318000Y3352800D02*
X4597200D01*
X650000Y1030000D03*
X1410000D03*
G54D34*
G01X4318000Y3271500D02*
Y3352800D01*
G01D02*
Y3434100D01*
G54D16*
X1000000Y3118000D03*
Y2978000D03*
X2794000D03*
Y3118000D03*
X3937000Y3232000D03*
Y3372000D03*
X4550000Y830000D03*
Y970000D03*
G54D25*
X2780000Y1840000D03*
X4800000Y700000D03*
Y1450000D03*
Y1700000D03*
G54D17*
X1751990Y2628010D03*
Y3467990D03*
X2232000Y2628010D03*
X2151990D03*
X2072000D03*
X1992000D03*
X1912010D03*
X1832000D03*
X2312010D03*
Y3467990D03*
X1832000D03*
X1912010D03*
X1992000D03*
X2072000D03*
X2151990D03*
X2232000D03*
G54D26*
X3625000Y1350000D03*
Y1200000D03*
X3775000Y1350000D03*
Y1200000D03*
G54D27*
X3922490Y350000D03*
Y255000D03*
X4177510D03*
Y350000D03*
X3922490Y445000D03*
X4177510D03*
G54D18*
X1612010Y2767990D03*
Y2848000D03*
Y2928010D03*
Y3008000D03*
Y3088000D03*
Y3167990D03*
Y3248000D03*
Y3328010D03*
X2451990Y2928010D03*
Y2848000D03*
Y2767990D03*
Y3248000D03*
Y3167990D03*
Y3088000D03*
Y3008000D03*
Y3328010D03*
G54D28*
X3831560Y752460D03*
Y817490D03*
Y882510D03*
Y947540D03*
X4268440D03*
Y882510D03*
Y817490D03*
Y752460D03*
G54D19*
X1270000Y2849990D03*
Y2610010D03*
Y2730000D03*
G54D29*
G01X80000Y0D02*
X4920000D01*
G03X5000000Y80000I0J80000D01*
G01Y3920000D01*
G03X4920000Y4000000I-80000J0D01*
G01X80000D01*
G03X0Y3920000I0J-80000D01*
G01Y80000D01*
G03X80000Y0I80000J0D01*
G01X3020000Y240000D02*
G03X3180000I80000J0D01*
G01X3020000D02*
Y1940000D01*
G01X3180000Y240000D02*
Y1940000D01*
G01X3020000D02*
G02X3180000I80000J0D01*
M02*
