G04 ================== begin FILE IDENTIFICATION RECORD ==================*
G04 Layout Name:  C:/Users/works/Desktop/168paSensor/SMD/demo_sensor.brd*
G04 Film Name:    TOP_SILKSCREEN*
G04 File Format:  Gerber RS274X*
G04 File Origin:  Cadence Allegro 16.6-2015-S066*
G04 Origin Date:  Sun Sep 10 22:47:33 2017*
G04 *
G04 Layer:  REF DES/SILKSCREEN_TOP*
G04 Layer:  PACKAGE GEOMETRY/SILKSCREEN_TOP*
G04 Layer:  BOARD GEOMETRY/OUTLINE*
G04 Layer:  BOARD GEOMETRY/SILKSCREEN_TOP*
G04 *
G04 Offset:    (0.0000 0.0000)*
G04 Mirror:    No*
G04 Mode:      Positive*
G04 Rotation:  0*
G04 FullContactRelief:  No*
G04 UndefLineWidth:     0.0000*
G04 ================== end FILE IDENTIFICATION RECORD ====================*
%FSLAX25Y25*MOMM*%
%IR0*IPPOS*OFA0.00000B0.00000*MIA0B0*SFA1.00000B1.00000*%
%ADD10C,.1*%
%ADD11C,.2*%
%ADD12C,.2032*%
%ADD13C,.0025*%
G75*
%LPD*%
G75*
G36*
G01X400000Y2300000D02*
Y2100000D01*
X4750000D01*
Y2300000D01*
X400000D01*
G37*
G36*
G01X522000Y776000D02*
Y268000D01*
X776000D01*
Y776000D01*
X522000D01*
G37*
G36*
G01Y1792000D02*
Y1284000D01*
X776000D01*
Y1792000D01*
X522000D01*
G37*
G36*
G01X1465990Y2611000D02*
G03I-24990J0D01*
G37*
G36*
G01X1489810Y3328000D02*
G03I-25010J0D01*
G37*
G36*
G01X2388500Y117500D02*
G03I-25000J0D01*
G37*
G36*
G01X2237000Y800500D02*
G03I-25000J0D01*
G37*
G36*
G01X3899990Y525000D02*
G03I-24990J0D01*
G37*
G36*
G01X4265390Y684900D02*
G03I-24890J0D01*
G37*
G36*
G01X4568500Y157500D02*
G03I-25000J0D01*
G37*
G54D10*
G01X80000Y0D02*
X4920000D01*
G03X5000000Y80000I0J80000D01*
G01Y3920000D01*
G03X4920000Y4000000I-80000J0D01*
G01X80000D01*
G03X0Y3920000I0J-80000D01*
G01Y80000D01*
G03X80000Y0I80000J0D01*
G01X3020000Y240000D02*
G03X3180000I80000J0D01*
G01X3020000D02*
Y1940000D01*
G01X3180000Y240000D02*
Y1940000D01*
G01X3020000D02*
G02X3180000I80000J0D01*
G54D11*
G01X300670Y803330D02*
X306000Y808330D01*
X310000Y816660D01*
X312670Y828330D01*
X310000Y838330D01*
X304670Y845000D01*
X295330Y850000D01*
X259330D01*
Y750000D01*
X303330D01*
X312670Y756670D01*
X318000Y766670D01*
X320670Y778330D01*
X318000Y790000D01*
X310000Y800000D01*
X300670Y803330D01*
X259330D01*
G01X378000Y850000D02*
Y750000D01*
G01X347330Y850000D02*
X408670D01*
G01X466000Y750000D02*
Y850000D01*
X450000Y830000D01*
G01Y750000D02*
X482000D01*
G01X400000Y2698000D02*
Y2724670D01*
X430000D01*
X440000Y2716670D01*
X446670Y2707330D01*
X450000Y2694000D01*
X446670Y2680670D01*
X440000Y2671330D01*
X430000Y2663330D01*
X418330Y2658000D01*
X405000Y2655330D01*
X393330D01*
X383340Y2658000D01*
X371670Y2663330D01*
X361670Y2671330D01*
X355000Y2679330D01*
X350000Y2690000D01*
Y2699330D01*
X353330Y2710000D01*
X360000Y2718000D01*
G01X450000Y2755330D02*
X383340D01*
G01X400000D02*
X391670Y2760670D01*
X385000Y2768670D01*
X383340Y2779330D01*
X385000Y2788670D01*
X391670Y2796670D01*
X403330Y2800670D01*
X450000D01*
G01X350000Y2890000D02*
X450000D01*
G01X435000D02*
X443330Y2884670D01*
X448330Y2876670D01*
X450000Y2867330D01*
X446670Y2856670D01*
X438340Y2848670D01*
X428330Y2843330D01*
X416670Y2842000D01*
X405000Y2843330D01*
X395000Y2848670D01*
X386670Y2856670D01*
X383340Y2867330D01*
X385000Y2876670D01*
X388330Y2883330D01*
X395000Y2890000D01*
G01X350000Y3498000D02*
Y3524670D01*
X380000D01*
X390000Y3516670D01*
X396670Y3507330D01*
X400000Y3494000D01*
X396670Y3480670D01*
X390000Y3471330D01*
X380000Y3463330D01*
X368330Y3458000D01*
X355000Y3455330D01*
X343330D01*
X333340Y3458000D01*
X321670Y3463330D01*
X311670Y3471330D01*
X305000Y3479330D01*
X300000Y3490000D01*
Y3499330D01*
X303330Y3510000D01*
X310000Y3518000D01*
G01X400000Y3555330D02*
X333340D01*
G01X350000D02*
X341670Y3560670D01*
X335000Y3568670D01*
X333340Y3579330D01*
X335000Y3588670D01*
X341670Y3596670D01*
X353330Y3600670D01*
X400000D01*
G01X300000Y3690000D02*
X400000D01*
G01X385000D02*
X393330Y3684670D01*
X398330Y3676670D01*
X400000Y3667330D01*
X396670Y3656670D01*
X388340Y3648670D01*
X378330Y3643330D01*
X366670Y3642000D01*
X355000Y3643330D01*
X345000Y3648670D01*
X336670Y3656670D01*
X333340Y3667330D01*
X335000Y3676670D01*
X338330Y3683330D01*
X345000Y3690000D01*
G01X700000Y2663330D02*
X600000D01*
Y2696670D01*
X605000Y2707330D01*
X611670Y2714000D01*
X625000Y2716670D01*
X638330Y2714000D01*
X646670Y2706000D01*
X651670Y2696670D01*
Y2663330D01*
G01Y2696670D02*
X700000Y2716670D01*
G01Y2804670D02*
Y2751330D01*
X600000D01*
Y2804670D01*
G01X648330Y2783330D02*
Y2751330D01*
G01X600000Y2866000D02*
X700000D01*
G01X600000Y2835330D02*
Y2896670D01*
G01X900000Y2656670D02*
X800000Y2690000D01*
X900000Y2723330D01*
G01X865000Y2711330D02*
Y2668670D01*
G01X900000Y2759330D02*
X833340D01*
G01X846670D02*
X840000Y2766000D01*
X835000Y2772670D01*
X833340Y2782000D01*
X835000Y2788670D01*
X840000Y2796670D01*
G01X855000Y2846000D02*
Y2888670D01*
X843330Y2884670D01*
X836670Y2878000D01*
X833340Y2868670D01*
X835000Y2859330D01*
X840000Y2851330D01*
X851670Y2846000D01*
X861670Y2843330D01*
X871670D01*
X881670Y2846000D01*
X891670Y2852670D01*
X898330Y2860670D01*
X900000Y2870000D01*
X896670Y2879330D01*
X886670Y2888670D01*
G01X900000Y2946000D02*
X815000D01*
X806670Y2948670D01*
X801670Y2954000D01*
X800000Y2962000D01*
X803330Y2970000D01*
X811670Y2974000D01*
G01X840000Y2958000D02*
Y2931330D01*
G01X550000Y3456670D02*
X650000Y3490000D01*
X550000Y3523330D01*
G01X591670Y3599330D02*
X585000Y3590000D01*
X583340Y3582000D01*
X586670Y3571330D01*
X593330Y3563330D01*
X605000Y3558000D01*
X616670Y3556670D01*
X628330Y3558000D01*
X638340Y3563330D01*
X646670Y3571330D01*
X650000Y3582000D01*
X646670Y3591330D01*
X640000Y3599330D01*
G01X591670Y3687330D02*
X585000Y3678000D01*
X583340Y3670000D01*
X586670Y3659330D01*
X593330Y3651330D01*
X605000Y3646000D01*
X616670Y3644670D01*
X628330Y3646000D01*
X638340Y3651330D01*
X646670Y3659330D01*
X650000Y3670000D01*
X646670Y3679330D01*
X640000Y3687330D01*
G01X1069330Y3341670D02*
X1061330Y3346670D01*
X1052000Y3350000D01*
X1041330D01*
X1029330Y3345000D01*
X1020000Y3336670D01*
X1013330Y3326670D01*
X1008000Y3310000D01*
X1006670Y3295000D01*
X1009330Y3280000D01*
X1013330Y3270000D01*
X1021330Y3260000D01*
X1030670Y3253330D01*
X1040000Y3250000D01*
X1049330D01*
X1058670Y3253330D01*
X1066670Y3258330D01*
X1073330Y3265000D01*
G01X1128000Y3250000D02*
Y3350000D01*
X1112000Y3330000D01*
G01Y3250000D02*
X1144000D01*
G01X1476670Y3600000D02*
Y3528330D01*
X1482000Y3513330D01*
X1492670Y3503330D01*
X1506000Y3500000D01*
X1519330Y3503330D01*
X1530000Y3513330D01*
X1535330Y3528330D01*
Y3600000D01*
G01X1594000Y3500000D02*
Y3600000D01*
X1578000Y3580000D01*
G01Y3500000D02*
X1610000D01*
G01X1206000Y2950000D02*
Y2995000D01*
X1179330Y3050000D01*
G01X1232670D02*
X1206000Y2995000D01*
G01X1294000Y2950000D02*
Y3050000D01*
X1278000Y3030000D01*
G01Y2950000D02*
X1310000D01*
G01X2076670Y300000D02*
Y228330D01*
X2082000Y213330D01*
X2092670Y203330D01*
X2106000Y200000D01*
X2119330Y203330D01*
X2130000Y213330D01*
X2135330Y228330D01*
Y300000D01*
G01X2168670Y283330D02*
X2176670Y293330D01*
X2186000Y298330D01*
X2196670Y300000D01*
X2210000Y296670D01*
X2219330Y288330D01*
X2222000Y278330D01*
X2220670Y268330D01*
X2215330Y260000D01*
X2188670Y243330D01*
X2176670Y231670D01*
X2168670Y215000D01*
X2166000Y200000D01*
X2222000D01*
G01X2219330Y541670D02*
X2211330Y546670D01*
X2202000Y550000D01*
X2191330D01*
X2179330Y545000D01*
X2170000Y536670D01*
X2163330Y526670D01*
X2158000Y510000D01*
X2156670Y495000D01*
X2159330Y480000D01*
X2163330Y470000D01*
X2171330Y460000D01*
X2180670Y453330D01*
X2190000Y450000D01*
X2199330D01*
X2208670Y453330D01*
X2216670Y458330D01*
X2223330Y465000D01*
G01X2252670Y491660D02*
X2262000Y503330D01*
X2270000Y510000D01*
X2280670Y513330D01*
X2290000Y510000D01*
X2296670Y503330D01*
X2302000Y493330D01*
X2303330Y481670D01*
X2302000Y471670D01*
X2296670Y461660D01*
X2288670Y453330D01*
X2279330Y450000D01*
X2268670Y453330D01*
X2259330Y463330D01*
X2254000Y478330D01*
X2252670Y495000D01*
X2255330Y516660D01*
X2259330Y528330D01*
X2266000Y540000D01*
X2275330Y548330D01*
X2284670Y550000D01*
X2294000Y546670D01*
X2300670Y538330D01*
G01X2126670Y1250000D02*
Y1178330D01*
X2132000Y1163330D01*
X2142670Y1153330D01*
X2156000Y1150000D01*
X2169330Y1153330D01*
X2180000Y1163330D01*
X2185330Y1178330D01*
Y1250000D01*
G01X2214670Y1170000D02*
X2222670Y1158330D01*
X2233330Y1151670D01*
X2245330Y1150000D01*
X2256000Y1151670D01*
X2266670Y1160000D01*
X2273330Y1170000D01*
X2274670Y1180000D01*
X2272000Y1191660D01*
X2262670Y1200000D01*
X2253330Y1203330D01*
X2241330D01*
G01X2253330D02*
X2261330Y1208330D01*
X2268000Y1216660D01*
X2270670Y1226670D01*
X2268000Y1236670D01*
X2261330Y1245000D01*
X2249330Y1250000D01*
X2237330Y1248330D01*
X2225330Y1241670D01*
G01X2819330Y3291670D02*
X2811330Y3296670D01*
X2802000Y3300000D01*
X2791330D01*
X2779330Y3295000D01*
X2770000Y3286670D01*
X2763330Y3276670D01*
X2758000Y3260000D01*
X2756670Y3245000D01*
X2759330Y3230000D01*
X2763330Y3220000D01*
X2771330Y3210000D01*
X2780670Y3203330D01*
X2790000Y3200000D01*
X2799330D01*
X2808670Y3203330D01*
X2816670Y3208330D01*
X2823330Y3215000D01*
G01X2878000Y3200000D02*
Y3300000D01*
X2862000Y3280000D01*
G01Y3200000D02*
X2894000D01*
G01X2966000Y3300000D02*
X2955330Y3296670D01*
X2947330Y3288330D01*
X2942000Y3278330D01*
X2938000Y3265000D01*
X2936670Y3250000D01*
X2938000Y3235000D01*
X2942000Y3221670D01*
X2947330Y3211660D01*
X2955330Y3203330D01*
X2966000Y3200000D01*
X2976670Y3203330D01*
X2984670Y3211660D01*
X2990000Y3221670D01*
X2994000Y3235000D01*
X2995330Y3250000D01*
X2994000Y3265000D01*
X2990000Y3278330D01*
X2984670Y3288330D01*
X2976670Y3296670D01*
X2966000Y3300000D01*
G01X3548000Y950000D02*
X3574670D01*
Y920000D01*
X3566670Y910000D01*
X3557330Y903330D01*
X3544000Y900000D01*
X3530670Y903330D01*
X3521330Y910000D01*
X3513330Y920000D01*
X3508000Y931670D01*
X3505330Y945000D01*
Y956670D01*
X3508000Y966660D01*
X3513330Y978330D01*
X3521330Y988330D01*
X3529330Y995000D01*
X3540000Y1000000D01*
X3549330D01*
X3560000Y996670D01*
X3568000Y990000D01*
G01X3605330Y900000D02*
Y966660D01*
G01Y950000D02*
X3610670Y958330D01*
X3618670Y965000D01*
X3629330Y966660D01*
X3638670Y965000D01*
X3646670Y958330D01*
X3650670Y946670D01*
Y900000D01*
G01X3740000Y1000000D02*
Y900000D01*
G01Y915000D02*
X3734670Y906670D01*
X3726670Y901670D01*
X3717330Y900000D01*
X3706670Y903330D01*
X3698670Y911660D01*
X3693330Y921670D01*
X3692000Y933330D01*
X3693330Y945000D01*
X3698670Y955000D01*
X3706670Y963330D01*
X3717330Y966660D01*
X3726670Y965000D01*
X3733330Y961670D01*
X3740000Y955000D01*
G01X3512000Y663330D02*
X3522670Y655000D01*
X3534670Y650000D01*
X3545330D01*
X3556000Y655000D01*
X3564000Y663330D01*
X3568000Y675000D01*
X3565330Y686660D01*
X3558670Y696670D01*
X3546670Y703330D01*
X3530670Y706670D01*
X3521330Y713330D01*
X3517330Y725000D01*
X3520000Y736670D01*
X3526670Y745000D01*
X3536000Y750000D01*
X3545330D01*
X3554670Y746670D01*
X3562670Y738330D01*
G01X3657330Y741670D02*
X3649330Y746670D01*
X3640000Y750000D01*
X3629330D01*
X3617330Y745000D01*
X3608000Y736670D01*
X3601330Y726670D01*
X3596000Y710000D01*
X3594670Y695000D01*
X3597330Y680000D01*
X3601330Y670000D01*
X3609330Y660000D01*
X3618670Y653330D01*
X3628000Y650000D01*
X3637330D01*
X3646670Y653330D01*
X3654670Y658330D01*
X3661330Y665000D01*
G01X3689330Y750000D02*
Y650000D01*
X3742670D01*
G01X3512000Y413330D02*
X3522670Y405000D01*
X3534670Y400000D01*
X3545330D01*
X3556000Y405000D01*
X3564000Y413330D01*
X3568000Y425000D01*
X3565330Y436660D01*
X3558670Y446670D01*
X3546670Y453330D01*
X3530670Y456670D01*
X3521330Y463330D01*
X3517330Y475000D01*
X3520000Y486670D01*
X3526670Y495000D01*
X3536000Y500000D01*
X3545330D01*
X3554670Y496670D01*
X3562670Y488330D01*
G01X3598670Y400000D02*
Y500000D01*
X3625330D01*
X3636000Y495000D01*
X3644000Y488330D01*
X3650670Y478330D01*
X3656000Y466660D01*
X3657330Y450000D01*
X3656000Y433330D01*
X3650670Y421670D01*
X3644000Y411660D01*
X3636000Y405000D01*
X3625330Y400000D01*
X3598670D01*
G01X3682670D02*
X3716000Y500000D01*
X3749330Y400000D01*
G01X3737330Y435000D02*
X3694670D01*
G01X3306670Y1500000D02*
X3340000Y1400000D01*
X3373330Y1500000D01*
G01X3449330Y1458330D02*
X3440000Y1465000D01*
X3432000Y1466660D01*
X3421330Y1463330D01*
X3413330Y1456670D01*
X3408000Y1445000D01*
X3406670Y1433330D01*
X3408000Y1421670D01*
X3413330Y1411660D01*
X3421330Y1403330D01*
X3432000Y1400000D01*
X3441330Y1403330D01*
X3449330Y1410000D01*
G01X3537330Y1458330D02*
X3528000Y1465000D01*
X3520000Y1466660D01*
X3509330Y1463330D01*
X3501330Y1456670D01*
X3496000Y1445000D01*
X3494670Y1433330D01*
X3496000Y1421670D01*
X3501330Y1411660D01*
X3509330Y1403330D01*
X3520000Y1400000D01*
X3529330Y1403330D01*
X3537330Y1410000D01*
G01X3700000Y2655330D02*
X3600000D01*
X3683330Y2690000D01*
X3600000Y2724670D01*
X3700000D01*
G01Y2778000D02*
X3698330Y2767330D01*
X3691670Y2758000D01*
X3681670Y2750000D01*
X3670000Y2744670D01*
X3656670Y2742000D01*
X3643330D01*
X3630000Y2744670D01*
X3618330Y2750000D01*
X3608330Y2758000D01*
X3601670Y2767330D01*
X3600000Y2778000D01*
X3601670Y2788670D01*
X3608330Y2798000D01*
X3618330Y2806000D01*
X3630000Y2811330D01*
X3643330Y2814000D01*
X3656670D01*
X3670000Y2811330D01*
X3681670Y2806000D01*
X3691670Y2798000D01*
X3698330Y2788670D01*
X3700000Y2778000D01*
G01X3686670Y2838000D02*
X3695000Y2848670D01*
X3700000Y2860670D01*
Y2871330D01*
X3695000Y2882000D01*
X3686670Y2890000D01*
X3675000Y2894000D01*
X3663340Y2891330D01*
X3653330Y2884670D01*
X3646670Y2872670D01*
X3643330Y2856670D01*
X3636670Y2847330D01*
X3625000Y2843330D01*
X3613330Y2846000D01*
X3605000Y2852670D01*
X3600000Y2862000D01*
Y2871330D01*
X3603330Y2880670D01*
X3611670Y2888670D01*
G01X3600000Y2938000D02*
Y2970000D01*
G01Y2954000D02*
X3700000D01*
G01Y2938000D02*
Y2970000D01*
G01X3840000Y150000D02*
Y50000D01*
G01X3809330Y150000D02*
X3870670D01*
G01X3893330Y50000D02*
Y150000D01*
X3928000Y66670D01*
X3962670Y150000D01*
Y50000D01*
G01X3989330D02*
Y150000D01*
X4021330D01*
X4032000Y145000D01*
X4040000Y133330D01*
X4042670Y120000D01*
X4040000Y106670D01*
X4033330Y96670D01*
X4021330Y91660D01*
X3989330D01*
G01X4104000Y50000D02*
Y150000D01*
X4088000Y130000D01*
G01Y50000D02*
X4120000D01*
G01X4192000Y150000D02*
X4181330Y146670D01*
X4173330Y138330D01*
X4168000Y128330D01*
X4164000Y115000D01*
X4162670Y100000D01*
X4164000Y85000D01*
X4168000Y71670D01*
X4173330Y61660D01*
X4181330Y53330D01*
X4192000Y50000D01*
X4202670Y53330D01*
X4210670Y61660D01*
X4216000Y71670D01*
X4220000Y85000D01*
X4221330Y100000D01*
X4220000Y115000D01*
X4216000Y128330D01*
X4210670Y138330D01*
X4202670Y146670D01*
X4192000Y150000D01*
G01X4280000D02*
X4269330Y146670D01*
X4261330Y138330D01*
X4256000Y128330D01*
X4252000Y115000D01*
X4250670Y100000D01*
X4252000Y85000D01*
X4256000Y71670D01*
X4261330Y61660D01*
X4269330Y53330D01*
X4280000Y50000D01*
X4290670Y53330D01*
X4298670Y61660D01*
X4304000Y71670D01*
X4308000Y85000D01*
X4309330Y100000D01*
X4308000Y115000D01*
X4304000Y128330D01*
X4298670Y138330D01*
X4290670Y146670D01*
X4280000Y150000D01*
G01X3976670Y650000D02*
Y578330D01*
X3982000Y563330D01*
X3992670Y553330D01*
X4006000Y550000D01*
X4019330Y553330D01*
X4030000Y563330D01*
X4035330Y578330D01*
Y650000D01*
G01X4094000Y550000D02*
X4103330Y551670D01*
X4114000Y556670D01*
X4120670Y565000D01*
X4123330Y576670D01*
X4120670Y588330D01*
X4112670Y598330D01*
X4100670Y603330D01*
X4087330D01*
X4079330Y606670D01*
X4072670Y615000D01*
X4070000Y626670D01*
X4074000Y638330D01*
X4083330Y646670D01*
X4094000Y650000D01*
X4104670Y646670D01*
X4114000Y638330D01*
X4118000Y626670D01*
X4115330Y615000D01*
X4108670Y606670D01*
X4100670Y603330D01*
X4087330D01*
X4075330Y598330D01*
X4067330Y588330D01*
X4064670Y576670D01*
X4067330Y565000D01*
X4074000Y556670D01*
X4084670Y551670D01*
X4094000Y550000D01*
G01X3913330Y1400000D02*
Y1500000D01*
X3946670D01*
X3957330Y1495000D01*
X3964000Y1488330D01*
X3966670Y1475000D01*
X3964000Y1461670D01*
X3956000Y1453330D01*
X3946670Y1448330D01*
X3913330D01*
G01X3946670D02*
X3966670Y1400000D01*
G01X4044000D02*
Y1500000D01*
X3994670Y1428330D01*
X4061330D01*
G01X3913330Y1200000D02*
Y1300000D01*
X3946670D01*
X3957330Y1295000D01*
X3964000Y1288330D01*
X3966670Y1275000D01*
X3964000Y1261670D01*
X3956000Y1253330D01*
X3946670Y1248330D01*
X3913330D01*
G01X3946670D02*
X3966670Y1200000D01*
G01X3998670Y1215000D02*
X4006670Y1206670D01*
X4016000Y1201670D01*
X4028000Y1200000D01*
X4040000Y1203330D01*
X4049330Y1210000D01*
X4056000Y1221670D01*
X4057330Y1235000D01*
X4054670Y1248330D01*
X4048000Y1256670D01*
X4038670Y1263330D01*
X4029330Y1265000D01*
X4020000Y1263330D01*
X4008000Y1256670D01*
X4012000Y1300000D01*
X4048000D01*
G01X4186670Y2662000D02*
X4195000Y2672670D01*
X4200000Y2684670D01*
Y2695330D01*
X4195000Y2706000D01*
X4186670Y2714000D01*
X4175000Y2718000D01*
X4163340Y2715330D01*
X4153330Y2708670D01*
X4146670Y2696670D01*
X4143330Y2680670D01*
X4136670Y2671330D01*
X4125000Y2667330D01*
X4113330Y2670000D01*
X4105000Y2676670D01*
X4100000Y2686000D01*
Y2695330D01*
X4103330Y2704670D01*
X4111670Y2712670D01*
G01X4108330Y2807330D02*
X4103330Y2799330D01*
X4100000Y2790000D01*
Y2779330D01*
X4105000Y2767330D01*
X4113330Y2758000D01*
X4123330Y2751330D01*
X4140000Y2746000D01*
X4155000Y2744670D01*
X4170000Y2747330D01*
X4180000Y2751330D01*
X4190000Y2759330D01*
X4196670Y2768670D01*
X4200000Y2778000D01*
Y2787330D01*
X4196670Y2796670D01*
X4191670Y2804670D01*
X4185000Y2811330D01*
G01X4200000Y2836670D02*
X4100000D01*
G01Y2887330D02*
X4161670Y2836670D01*
G01X4200000Y2895330D02*
X4133340Y2859330D01*
G01X3950000Y2655330D02*
X3850000D01*
X3933330Y2690000D01*
X3850000Y2724670D01*
X3950000D01*
G01X3850000Y2762000D02*
Y2794000D01*
G01Y2778000D02*
X3950000D01*
G01Y2762000D02*
Y2794000D01*
G01X3936670Y2838000D02*
X3945000Y2848670D01*
X3950000Y2860670D01*
Y2871330D01*
X3945000Y2882000D01*
X3936670Y2890000D01*
X3925000Y2894000D01*
X3913340Y2891330D01*
X3903330Y2884670D01*
X3896670Y2872670D01*
X3893330Y2856670D01*
X3886670Y2847330D01*
X3875000Y2843330D01*
X3863330Y2846000D01*
X3855000Y2852670D01*
X3850000Y2862000D01*
Y2871330D01*
X3853330Y2880670D01*
X3861670Y2888670D01*
G01X3950000Y2954000D02*
X3948330Y2943330D01*
X3941670Y2934000D01*
X3931670Y2926000D01*
X3920000Y2920670D01*
X3906670Y2918000D01*
X3893330D01*
X3880000Y2920670D01*
X3868330Y2926000D01*
X3858330Y2934000D01*
X3851670Y2943330D01*
X3850000Y2954000D01*
X3851670Y2964670D01*
X3858330Y2974000D01*
X3868330Y2982000D01*
X3880000Y2987330D01*
X3893330Y2990000D01*
X3906670D01*
X3920000Y2987330D01*
X3931670Y2982000D01*
X3941670Y2974000D01*
X3948330Y2964670D01*
X3950000Y2954000D01*
G01X3919330Y3541670D02*
X3911330Y3546670D01*
X3902000Y3550000D01*
X3891330D01*
X3879330Y3545000D01*
X3870000Y3536670D01*
X3863330Y3526670D01*
X3858000Y3510000D01*
X3856670Y3495000D01*
X3859330Y3480000D01*
X3863330Y3470000D01*
X3871330Y3460000D01*
X3880670Y3453330D01*
X3890000Y3450000D01*
X3899330D01*
X3908670Y3453330D01*
X3916670Y3458330D01*
X3923330Y3465000D01*
G01X3948670Y3470000D02*
X3956670Y3458330D01*
X3967330Y3451670D01*
X3979330Y3450000D01*
X3990000Y3451670D01*
X4000670Y3460000D01*
X4007330Y3470000D01*
X4008670Y3480000D01*
X4006000Y3491660D01*
X3996670Y3500000D01*
X3987330Y3503330D01*
X3975330D01*
G01X3987330D02*
X3995330Y3508330D01*
X4002000Y3516660D01*
X4004670Y3526670D01*
X4002000Y3536670D01*
X3995330Y3545000D01*
X3983330Y3550000D01*
X3971330Y3548330D01*
X3959330Y3541670D01*
G01X4326670Y300000D02*
Y228330D01*
X4332000Y213330D01*
X4342670Y203330D01*
X4356000Y200000D01*
X4369330Y203330D01*
X4380000Y213330D01*
X4385330Y228330D01*
Y300000D01*
G01X4460000Y200000D02*
Y300000D01*
X4410670Y228330D01*
X4477330D01*
G01X4506670Y650000D02*
X4540000Y750000D01*
X4573330Y650000D01*
G01X4561330Y685000D02*
X4518670D01*
G01X4601330Y650000D02*
Y750000D01*
X4634670D01*
X4645330Y745000D01*
X4652000Y738330D01*
X4654670Y725000D01*
X4652000Y711670D01*
X4644000Y703330D01*
X4634670Y698330D01*
X4601330D01*
G01X4634670D02*
X4654670Y650000D01*
G01X4369330Y491670D02*
X4361330Y496670D01*
X4352000Y500000D01*
X4341330D01*
X4329330Y495000D01*
X4320000Y486670D01*
X4313330Y476670D01*
X4308000Y460000D01*
X4306670Y445000D01*
X4309330Y430000D01*
X4313330Y420000D01*
X4321330Y410000D01*
X4330670Y403330D01*
X4340000Y400000D01*
X4349330D01*
X4358670Y403330D01*
X4366670Y408330D01*
X4373330Y415000D01*
G01X4425330Y400000D02*
X4428000Y421670D01*
X4432000Y440000D01*
X4437330Y456670D01*
X4444000Y475000D01*
X4454670Y500000D01*
X4401330D01*
G01X4410670Y1650000D02*
Y1750000D01*
X4437330D01*
X4448000Y1745000D01*
X4456000Y1738330D01*
X4462670Y1728330D01*
X4468000Y1716660D01*
X4469330Y1700000D01*
X4468000Y1683330D01*
X4462670Y1671670D01*
X4456000Y1661660D01*
X4448000Y1655000D01*
X4437330Y1650000D01*
X4410670D01*
G01X4488000Y1616670D02*
X4568000D01*
G01X4585330Y1650000D02*
Y1750000D01*
X4646670Y1650000D01*
Y1750000D01*
G01X4410670Y1400000D02*
Y1500000D01*
X4437330D01*
X4448000Y1495000D01*
X4456000Y1488330D01*
X4462670Y1478330D01*
X4468000Y1466660D01*
X4469330Y1450000D01*
X4468000Y1433330D01*
X4462670Y1421670D01*
X4456000Y1411660D01*
X4448000Y1405000D01*
X4437330Y1400000D01*
X4410670D01*
G01X4488000Y1366670D02*
X4568000D01*
G01X4589330Y1400000D02*
Y1500000D01*
X4621330D01*
X4632000Y1495000D01*
X4640000Y1483330D01*
X4642670Y1470000D01*
X4640000Y1456670D01*
X4633330Y1446670D01*
X4621330Y1441660D01*
X4589330D01*
G01X4419330Y1141670D02*
X4411330Y1146670D01*
X4402000Y1150000D01*
X4391330D01*
X4379330Y1145000D01*
X4370000Y1136670D01*
X4363330Y1126670D01*
X4358000Y1110000D01*
X4356670Y1095000D01*
X4359330Y1080000D01*
X4363330Y1070000D01*
X4371330Y1060000D01*
X4380670Y1053330D01*
X4390000Y1050000D01*
X4399330D01*
X4408670Y1053330D01*
X4416670Y1058330D01*
X4423330Y1065000D01*
G01X4455330Y1061660D02*
X4464670Y1053330D01*
X4475330Y1050000D01*
X4486000Y1053330D01*
X4495330Y1063330D01*
X4502000Y1078330D01*
X4504670Y1093330D01*
Y1111670D01*
X4502000Y1126670D01*
X4495330Y1140000D01*
X4487330Y1146670D01*
X4478000Y1150000D01*
X4467330Y1146670D01*
X4459330Y1140000D01*
X4454000Y1130000D01*
X4451330Y1116660D01*
X4454000Y1105000D01*
X4460670Y1093330D01*
X4468670Y1086660D01*
X4478000Y1085000D01*
X4488670Y1088330D01*
X4496670Y1096670D01*
X4504670Y1111670D01*
G01X4350000Y2656670D02*
X4450000Y2690000D01*
X4350000Y2723330D01*
G01X4391670Y2799330D02*
X4385000Y2790000D01*
X4383340Y2782000D01*
X4386670Y2771330D01*
X4393330Y2763330D01*
X4405000Y2758000D01*
X4416670Y2756670D01*
X4428330Y2758000D01*
X4438340Y2763330D01*
X4446670Y2771330D01*
X4450000Y2782000D01*
X4446670Y2791330D01*
X4440000Y2799330D01*
G01X4391670Y2887330D02*
X4385000Y2878000D01*
X4383340Y2870000D01*
X4386670Y2859330D01*
X4393330Y2851330D01*
X4405000Y2846000D01*
X4416670Y2844670D01*
X4428330Y2846000D01*
X4438340Y2851330D01*
X4446670Y2859330D01*
X4450000Y2870000D01*
X4446670Y2879330D01*
X4440000Y2887330D01*
G01X4650000Y2698000D02*
Y2724670D01*
X4680000D01*
X4690000Y2716670D01*
X4696670Y2707330D01*
X4700000Y2694000D01*
X4696670Y2680670D01*
X4690000Y2671330D01*
X4680000Y2663330D01*
X4668330Y2658000D01*
X4655000Y2655330D01*
X4643330D01*
X4633340Y2658000D01*
X4621670Y2663330D01*
X4611670Y2671330D01*
X4605000Y2679330D01*
X4600000Y2690000D01*
Y2699330D01*
X4603330Y2710000D01*
X4610000Y2718000D01*
G01X4700000Y2755330D02*
X4633340D01*
G01X4650000D02*
X4641670Y2760670D01*
X4635000Y2768670D01*
X4633340Y2779330D01*
X4635000Y2788670D01*
X4641670Y2796670D01*
X4653330Y2800670D01*
X4700000D01*
G01X4600000Y2890000D02*
X4700000D01*
G01X4685000D02*
X4693330Y2884670D01*
X4698330Y2876670D01*
X4700000Y2867330D01*
X4696670Y2856670D01*
X4688340Y2848670D01*
X4678330Y2843330D01*
X4666670Y2842000D01*
X4655000Y2843330D01*
X4645000Y2848670D01*
X4636670Y2856670D01*
X4633340Y2867330D01*
X4635000Y2876670D01*
X4638330Y2883330D01*
X4645000Y2890000D01*
G54D12*
G01X660400Y3390900D02*
X355600D01*
Y2908300D01*
X660400D01*
Y3390900D01*
G01X4165600Y2959100D02*
X4470400D01*
Y3441700D01*
X4165600D01*
Y2959100D01*
G54D13*
G01X3679670Y846970D02*
X3681120D01*
X3681430Y847110D01*
X3681630Y847380D01*
X3681700Y847710D01*
X3681630Y848050D01*
X3681430Y848320D01*
X3681120Y848460D01*
X3679670D01*
G01X3681700Y849990D02*
X3679670D01*
X3680080Y849590D01*
G01X3681700D02*
Y850400D01*
G01Y852270D02*
X3679670D01*
X3680080Y851870D01*
G01X3681700D02*
Y852680D01*
M02*
