G04 ================== begin FILE IDENTIFICATION RECORD ==================*
G04 Layout Name:  C:/Users/works/Desktop/168paSensor/SMD/demo_sensor.brd*
G04 Film Name:    TOP_MASK*
G04 File Format:  Gerber RS274X*
G04 File Origin:  Cadence Allegro 16.6-2015-S066*
G04 Origin Date:  Sun Sep 10 22:47:33 2017*
G04 *
G04 Layer:  VIA CLASS/SOLDERMASK_TOP*
G04 Layer:  PIN/SOLDERMASK_TOP*
G04 Layer:  PACKAGE GEOMETRY/SOLDERMASK_TOP*
G04 Layer:  BOARD GEOMETRY/SOLDERMASK_TOP*
G04 Layer:  BOARD GEOMETRY/OUTLINE*
G04 *
G04 Offset:    (0.0000 0.0000)*
G04 Mirror:    No*
G04 Mode:      Positive*
G04 Rotation:  0*
G04 FullContactRelief:  No*
G04 UndefLineWidth:     0.0000*
G04 ================== end FILE IDENTIFICATION RECORD ====================*
%FSLAX25Y25*MOMM*%
%IR0*IPPOS*OFA0.00000B0.00000*MIA0B0*SFA1.00000B1.00000*%
%ADD24R,1.08X.68*%
%ADD15R,1.028X.728*%
%ADD22R,.728X1.028*%
%ADD17R,1.68X.68*%
%ADD16R,.68X1.68*%
%ADD18R,2.2281X.5281*%
%ADD25R,1.7043X.5359*%
%ADD23R,1.03X1.13*%
%ADD14C,1.5*%
%ADD12C,1.6*%
%ADD21R,.4X.75*%
%ADD11C,1.8*%
%ADD20R,.73X.98*%
%ADD19R,.98X.98*%
%ADD13O,2.7686X1.3716*%
%AMMACRO10*
21,1,2.,3.65,0.0,0.0,89.839*%
%ADD10MACRO10*%
%ADD26C,.1*%
G75*
%LPD*%
G75*
G54D10*
X250000Y1030000D03*
X1810000D03*
G54D20*
X2305000Y897500D03*
X2395000D03*
Y1022500D03*
X2305000D03*
G54D11*
X270000Y2200000D03*
X1080000D03*
X810000D03*
X540000D03*
X1620000D03*
X1350000D03*
X2430000D03*
X2160000D03*
X1890000D03*
X2700000D03*
X2970000D03*
X3510000D03*
X3240000D03*
X4320000D03*
X4050000D03*
X3780000D03*
X4590000D03*
X4860000D03*
G54D21*
X2420000Y134000D03*
X2470000D03*
X2520000D03*
X2420000Y286000D03*
X2470000D03*
X2520000D03*
X4600000Y174000D03*
X4650000D03*
X4700000D03*
X4600000Y326000D03*
X4650000D03*
X4700000D03*
G54D12*
X381000Y2540000D03*
Y3810000D03*
X889000Y2540000D03*
X635000D03*
X1143000Y3810000D03*
X889000D03*
X635000D03*
X1651000D03*
X1397000D03*
X2413000D03*
X2159000D03*
X1905000D03*
X2794000Y952500D03*
Y698500D03*
Y444500D03*
Y1206500D03*
X2780000Y1840000D03*
X2921000Y2540000D03*
X2667000Y3810000D03*
X2921000D03*
X3365500Y444500D03*
Y698500D03*
Y952500D03*
Y1206500D03*
X3683000Y2540000D03*
X3429000D03*
X3175000D03*
X3683000Y3810000D03*
X3429000D03*
X3175000D03*
X4191000Y2540000D03*
X3937000D03*
X4191000Y3810000D03*
X3937000D03*
X4800000Y700000D03*
Y1450000D03*
Y1700000D03*
X4445000Y2540000D03*
X4699000D03*
Y3810000D03*
X4445000D03*
G54D13*
X508000Y3302000D03*
Y2997200D03*
X4318000Y3048000D03*
Y3352800D03*
G54D22*
X2560000Y460000D03*
X2420000D03*
X4520000Y600000D03*
X4380000D03*
G54D14*
X650000Y1030000D03*
X1410000D03*
G54D23*
X3625000Y1350000D03*
Y1200000D03*
X3775000Y1350000D03*
Y1200000D03*
G54D15*
X1000000Y3118000D03*
Y2978000D03*
X2794000D03*
Y3118000D03*
X3937000Y3232000D03*
Y3372000D03*
X4550000Y830000D03*
Y970000D03*
G54D24*
X3922490Y350000D03*
Y255000D03*
X4177510D03*
Y350000D03*
X3922490Y445000D03*
X4177510D03*
G54D25*
X3831560Y752460D03*
Y817490D03*
Y882510D03*
Y947540D03*
X4268440D03*
Y882510D03*
Y817490D03*
Y752460D03*
G54D16*
X1751990Y2628010D03*
Y3467990D03*
X2232000Y2628010D03*
X2151990D03*
X2072000D03*
X1992000D03*
X1912010D03*
X1832000D03*
X2312010D03*
Y3467990D03*
X1832000D03*
X1912010D03*
X1992000D03*
X2072000D03*
X2151990D03*
X2232000D03*
G54D26*
G01X80000Y0D02*
X4920000D01*
G03X5000000Y80000I0J80000D01*
G01Y3920000D01*
G03X4920000Y4000000I-80000J0D01*
G01X80000D01*
G03X0Y3920000I0J-80000D01*
G01Y80000D01*
G03X80000Y0I80000J0D01*
G01X3020000Y240000D02*
G03X3180000I80000J0D01*
G01X3020000D02*
Y1940000D01*
G01X3180000Y240000D02*
Y1940000D01*
G01X3020000D02*
G02X3180000I80000J0D01*
G54D17*
X1612010Y2767990D03*
Y2848000D03*
Y2928010D03*
Y3008000D03*
Y3088000D03*
Y3167990D03*
Y3248000D03*
Y3328010D03*
X2451990Y2928010D03*
Y2848000D03*
Y2767990D03*
Y3248000D03*
Y3167990D03*
Y3088000D03*
Y3008000D03*
Y3328010D03*
G54D18*
X1270000Y2849990D03*
Y2610010D03*
Y2730000D03*
G54D19*
X2202500Y897500D03*
Y1022500D03*
X2497500Y897500D03*
Y1022500D03*
M02*
