G04 ================== begin FILE IDENTIFICATION RECORD ==================*
G04 Layout Name:  D:/MEGA128L/footprint/ATmega128L.brd*
G04 Film Name:    BOTTOM*
G04 File Format:  Gerber RS274X*
G04 File Origin:  Cadence Allegro 16.3-p003*
G04 Origin Date:  Thu Dec 08 14:23:57 2016*
G04 *
G04 Layer:  ETCH/BOTTOM*
G04 Layer:  PIN/BOTTOM*
G04 Layer:  VIA CLASS/BOTTOM*
G04 *
G04 Offset:    (0.0000 0.0000)*
G04 Mirror:    No*
G04 Mode:      Positive*
G04 Rotation:  0*
G04 FullContactRelief:  No*
G04 UndefLineWidth:     0.1600*
G04 ================== end FILE IDENTIFICATION RECORD ====================*
%FSLAX35Y35*MOMM*%
%IR0*IPPOS*OFA0.00000B0.00000*MIA0B0*SFA1.00000B1.00000*%
%ADD11C,.3*%
%ADD12C,.8*%
%ADD13C,.65*%
%ADD14C,1.3*%
%ADD10C,1.5*%
%ADD15R,1.3X1.3*%
%ADD16R,1.55X1.55*%
%ADD17C,.2*%
%ADD18C,.4*%
%ADD19C,.32*%
%ADD20C,.25*%
%ADD21C,.16*%
%ADD22C,.254*%
%ADD24C,2.0544*%
%ADD23C,1.2068*%
%ADD25C,1.8544*%
%ADD26R,1.8544X1.8544*%
G75*
%LPD*%
G75*
G36*
G01X-3470000Y-1714500D02*
Y1460500D01*
X1660000D01*
Y-1714500D01*
X-3470000D01*
G37*
%LPC*%
G75*
G36*
G01X-1354220Y-162970D02*
Y-184740D01*
G02X-1424020Y-186180I-34017J-43499D01*
G01Y116500D01*
G02X-1355980I34020J43500D01*
G01Y-161210D01*
X-1354220Y-162970D01*
G37*
G36*
G01X-3001980Y-1361830D02*
Y-1432170D01*
G02X-3094020I-46020J-91830D01*
G01Y-1361830D01*
G02X-3001980I46020J91830D01*
G37*
G36*
G01X-3255980D02*
Y-1432170D01*
G02X-3348020I-46020J-91830D01*
G01Y-1361830D01*
G02X-3255980I46020J91830D01*
G37*
G36*
G01X-1106980Y-1427800D02*
G02X-1179020I-36020J-96200D01*
G01Y-1348800D01*
G03X-1196450Y-1341710I-10159J-5D01*
G02Y-1198290I-73550J71710D01*
G03X-1179020Y-1191200I7271J7095D01*
G01Y-1163000D01*
G02X-1159380Y-1130920I36020J0D01*
G01X-1158670Y-1130560D01*
X-911480Y-883360D01*
G03X-918660Y-866020I-7183J7182D01*
G01X-1579060D01*
X-1663910Y-781170D01*
X-1665270Y-780830D01*
G02X-1587470Y-724930I15274J60832D01*
G01X-1587660Y-727260D01*
X-1540940Y-773980D01*
X-1397120D01*
G03X-1391350Y-755460I-1J10159D01*
G02X-1304840Y-707340I31352J45459D01*
G01X-1304610Y-712170D01*
X-250280D01*
X-243040Y-704930D01*
X-246730Y-701230D01*
X-246830Y-701140D01*
G02X-175980Y-703500I36835J41140D01*
G01Y-734090D01*
X-198520Y-756640D01*
G03X-191340Y-773980I7183J-7182D01*
G01X-119060D01*
X-84150Y-739060D01*
X-83820Y-737640D01*
G02X-36120Y-695120I53819J-12360D01*
G01X-34350Y-694920D01*
X47980Y-612590D01*
Y-482590D01*
X197980Y-332590D01*
Y-327410D01*
X-57410Y-72020D01*
X-207410D01*
X-232330Y-47100D01*
G03X-249660Y-53740I-7185J-7182D01*
G02X-314860Y-105100I-55143J2937D01*
G03X-326700Y-116940I-1855J-9985D01*
G02X-391060Y-181300I-54300J-10060D01*
G03X-402900Y-193140I-1855J-9985D01*
G02X-499240Y-239010I-54298J-10065D01*
G01X-500760Y-237220D01*
X-511260D01*
G03X-515270Y-245430I-6J-5081D01*
G02X-602300Y-313420I-43533J-33972D01*
G01X-624070D01*
X-718870Y-218620D01*
G03X-735590Y-222290I-7186J-7185D01*
G02X-799100Y-257170I-51816J19087D01*
G01X-801810Y-256580D01*
X-807360Y-262130D01*
X-794150Y-275340D01*
X-791810Y-275160D01*
G02X-768540Y-382100I4407J-55043D01*
G03X-772260Y-398830I3468J-9550D01*
G01X-768750Y-402340D01*
X-766410Y-402160D01*
G02X-817040Y-452790I4410J-55040D01*
G01X-816860Y-450450D01*
X-974020Y-293290D01*
Y135910D01*
X-1033680Y195570D01*
G03X-1050950Y187170I-7185J-7181D01*
G02X-1207760Y242360I-92048J-11168D01*
G03X-1214850Y259790I-7095J7271D01*
G01X-1677900D01*
X-1693250Y275140D01*
X-1695590Y274960D01*
G02X-1718360Y382080I-4408J55043D01*
G03X-1714560Y398840I-3382J9578D01*
G01X-1730850Y415140D01*
X-1733190Y414960D01*
G02X-1764570Y518190I-4411J55044D01*
G03X-1762350Y534240I-4962J8865D01*
G01X-1884090Y655980D01*
X-2514090D01*
X-2809670Y951560D01*
X-2810380Y951920D01*
G02X-2830020Y984000I16380J32080D01*
G01Y1237300D01*
G02X-2757980I36020J96200D01*
G01Y1158300D01*
G03X-2740550Y1151210I10159J5D01*
G02X-2593450I73550J-71710D01*
G03X-2576020Y1158300I7271J7095D01*
G01Y1237300D01*
G02X-2503980I36020J96200D01*
G01Y1158300D01*
G03X-2486550Y1151210I10159J5D01*
G02X-2339450I73550J-71710D01*
G03X-2322020Y1158300I7271J7095D01*
G01Y1237300D01*
G02X-2249980I36020J96200D01*
G01Y1158300D01*
G03X-2232550Y1151210I10159J5D01*
G02X-2085450I73550J-71710D01*
G03X-2068020Y1158300I7271J7095D01*
G01Y1237300D01*
G02X-1995980I36020J96200D01*
G01Y1158300D01*
G03X-1978550Y1151210I10159J5D01*
G02X-1849650Y1166030I73547J-71710D01*
G03X-1834020Y1174590I5470J8562D01*
G01Y1203940D01*
X-1834270Y1204700D01*
G02X-1831100Y1233970I34269J11095D01*
G03X-1834310Y1247590I-8776J5120D01*
G02X-1690610Y1279520I56308J85910D01*
G03X-1681960Y1264020I8645J-5339D01*
G01X-1644420D01*
X-1617490Y1290950D01*
G02X-1422310Y1348000I93489J42555D01*
G03X-1405070Y1342250I10057J1433D01*
G01X-1398140Y1349170D01*
X-1397780Y1349880D01*
G02X-1366200Y1369520I32083J-16378D01*
G02X-1204350Y1254490I96198J-36025D01*
G03X-1197860Y1236520I6493J-7812D01*
G01X-1088140D01*
G03X-1081650Y1254490I-3J10158D01*
G02X-979980Y1237300I65647J79009D01*
G02X-999620Y1205720I-36018J503D01*
G01X-1000330Y1205360D01*
X-1037210Y1168480D01*
X-1062200D01*
G03X-1069470Y1151230I5J-10159D01*
G02X-1050410Y1035020I-73530J-71728D01*
G01X-1017650Y1002260D01*
X-979790D01*
G03X-971610Y1018460I7J10162D01*
G02X-833070Y993340I82615J61040D01*
G03X-834720Y977640I5533J-8518D01*
G01X-799030Y941940D01*
X-653520D01*
G03X-649920Y950610I5J5080D01*
G01X-650670Y951360D01*
X-651380Y951720D01*
G02X-671020Y983300I16378J32083D01*
G02X-579070Y993340I36019J96199D01*
G03X-580720Y977640I5533J-8518D01*
G01X-327110Y724020D01*
X-277660D01*
G03X-270480Y741360I-3J10158D01*
G01X-396670Y867560D01*
X-397380Y867920D01*
G02X-417020Y900000I16380J32080D01*
G01Y983300D01*
G02X-344980I36020J96200D01*
G01Y912090D01*
X-216910Y784020D01*
X-86660D01*
G03X-79480Y801360I-3J10158D01*
G01X-142670Y864560D01*
X-143380Y864920D01*
G02X-163020Y897000I16380J32080D01*
G01Y983300D01*
G02X-90980I36020J96200D01*
G01Y909090D01*
X73640Y744480D01*
G03X90980Y751660I7182J7183D01*
G01Y983300D01*
G02X163020I36020J96200D01*
G01Y745090D01*
X696640Y211480D01*
G03X713980Y218660I7182J7183D01*
G01Y221920D01*
X785080Y293020D01*
X1003800D01*
G02X1079960Y357750I96200J-36018D01*
G03X1085160Y374900I-1980J9964D01*
G01X1076980Y383080D01*
X655560D01*
X344980Y693660D01*
Y983300D01*
G02X417020I36020J96200D01*
G01Y723500D01*
X685400Y455120D01*
X1063980D01*
Y552520D01*
X1157080Y645620D01*
X1231740D01*
G03X1238030Y663760I2J10160D01*
G02X1209150Y702580I57374J72836D01*
G01X789310D01*
X746330Y745560D01*
X745620Y745920D01*
G02X725980Y778000I16380J32080D01*
G01Y1237300D01*
G02X798020I36020J96200D01*
G01Y790090D01*
X817490Y770620D01*
X1209150D01*
G02X1352770Y663760I86252J-34019D01*
G03X1359060Y645620I6288J-7980D01*
G01X1407480D01*
X1463470Y701610D01*
X1462350Y704660D01*
G02X1517460Y649550I87050J31940D01*
G01X1514410Y650670D01*
X1437320Y573580D01*
X1359060D01*
G03X1352770Y555440I-2J-10160D01*
G02X1238030I-57370J-72840D01*
G03X1231740Y573580I-6288J7980D01*
G01X1186920D01*
X1136020Y522680D01*
Y425920D01*
X1397440Y164500D01*
G03X1414780Y171690I7180J7188D01*
G01Y350220D01*
X1625220D01*
Y139780D01*
X1446690D01*
G03X1439500Y122440I-2J-10160D01*
G01X1477410Y84530D01*
X1480540Y85840D01*
G02X1482950Y-104810I39457J-94841D01*
G01X1479860Y-103610D01*
X1314960Y-268520D01*
X1259570D01*
G02Y-191480I-39570J38520D01*
G01X1283040D01*
X1425390Y-49140D01*
X1424190Y-46050D01*
G02X1425160Y30460I95809J37046D01*
G01X1426470Y33590D01*
X1217900Y242160D01*
G03X1200750Y236960I-7186J-7180D01*
G02X1003800Y220980I-100749J20036D01*
G01X814920D01*
X786020Y192080D01*
Y-54920D01*
X550300Y-290640D01*
G03X557490Y-307980I7188J-7180D01*
G01X576750D01*
X696750Y-427990D01*
X698910Y-427950D01*
G02X637290Y-489570I1090J-62710D01*
G01X637330Y-487410D01*
X541930Y-392020D01*
X337690D01*
G03X328630Y-406780I-3J-10159D01*
G02X334440Y-436210I-49232J-25008D01*
G01X334260Y-438550D01*
X584020Y-688310D01*
Y-755310D01*
G03X599750Y-763810I10162J0D01*
G02X672230Y-774420I30255J-46192D01*
G03X687770I7770J6545D01*
G02X764020Y-853500I42227J-35585D01*
G01Y-875270D01*
X488700Y-1150590D01*
G03X496980Y-1167870I7188J-7180D01*
G02X434450Y-1341710I11018J-102129D01*
G03X417020Y-1348800I-7271J-7095D01*
G01Y-1427800D01*
G02X344980I-36020J-96200D01*
G01Y-1348800D01*
G03X327550Y-1341710I-10159J-5D01*
G02X180450I-73550J71710D01*
G03X163020Y-1348800I-7271J-7095D01*
G01Y-1427800D01*
G02X90980I-36020J-96200D01*
G01Y-1348800D01*
G03X73550Y-1341710I-10159J-5D01*
G02X-73550I-73550J71710D01*
G03X-90980Y-1348800I-7271J-7095D01*
G01Y-1427800D01*
G02X-163020I-36020J-96200D01*
G01Y-1348800D01*
G03X-180450Y-1341710I-10159J-5D01*
G02X-327550I-73550J71710D01*
G03X-344980Y-1348800I-7271J-7095D01*
G01Y-1427800D01*
G02X-417020I-36020J-96200D01*
G01Y-1348800D01*
G03X-434450Y-1341710I-10159J-5D01*
G02X-581550I-73550J71710D01*
G03X-598980Y-1348800I-7271J-7095D01*
G01Y-1427800D01*
G02X-671020I-36020J-96200D01*
G01Y-1348800D01*
G03X-688450Y-1341710I-10159J-5D01*
G02X-835550I-73550J71710D01*
G03X-852980Y-1348800I-7271J-7095D01*
G01Y-1427800D01*
G02X-925020I-36020J-96200D01*
G01Y-1348800D01*
G03X-942450Y-1341710I-10159J-5D01*
G02X-1089550I-73550J71710D01*
G03X-1106980Y-1348800I-7271J-7095D01*
G01Y-1427800D01*
G37*
G54D24*
X-3302000Y1079500D03*
X-3048000D03*
X-3302000Y1333500D03*
X-3048000D03*
X-2794000Y-1524000D03*
Y-1270000D03*
X-2540000D03*
X-2286000D03*
X-1524000D03*
X-1778000D03*
X-2032000D03*
X-762000Y1333500D03*
X-508000D03*
X-254000D03*
X0D03*
X635000Y-1524000D03*
X762000Y-1270000D03*
X254000Y1333500D03*
X508000D03*
X1143000Y-1524000D03*
X889000D03*
X1016000Y-1270000D03*
X1270000D03*
X1520000Y-1025000D03*
Y-771000D03*
Y-517000D03*
X1100000Y3000D03*
X1520000Y-263000D03*
X1016000Y1333500D03*
G54D23*
X-3147500Y-320000D03*
Y80000D03*
G54D25*
X-1143000Y-332000D03*
X1549400Y482600D03*
Y990600D03*
G54D26*
X1295400D03*
%LPD*%
G75*
G36*
G01X-555080Y53190D02*
X-605980Y104090D01*
Y314090D01*
X-840520Y548640D01*
G02X-833340Y565980I7183J7182D01*
G01X-704090D01*
X-484020Y345910D01*
Y114090D01*
X-524020Y74090D01*
Y73560D01*
X-525810Y72040D01*
G03X-538900Y55650I35818J-42029D01*
G02X-555080Y53190I-8995J4724D01*
G37*
G54D10*
X-2794000Y-1524000D03*
Y-1270000D03*
X-3048000Y-1524000D03*
Y-1270000D03*
X-3302000D03*
Y-1524000D03*
X-2667000Y1079500D03*
X-3302000D03*
X-3048000D03*
X-3302000Y1333500D03*
X-3048000D03*
X-2794000D03*
X-2032000Y-1270000D03*
X-2286000D03*
X-2540000D03*
X-2159000Y1079500D03*
X-2413000D03*
X-2540000Y1333500D03*
X-2286000D03*
X-2032000D03*
X-1524000Y-1270000D03*
X-1778000D03*
X-1651000Y1079500D03*
X-1905000D03*
X-1397000D03*
X-1778000Y1333500D03*
X-1524000D03*
X-1143000Y-1524000D03*
X-889000D03*
X-635000D03*
X-762000Y-1270000D03*
X-1016000D03*
X-1270000D03*
X-1143000Y1079500D03*
X-889000D03*
X-635000D03*
X-1270000Y1333500D03*
X-1016000D03*
X-762000D03*
X-381000Y-1524000D03*
X-127000D03*
X-508000Y-1270000D03*
X-254000D03*
X0D03*
X-381000Y1079500D03*
X-127000D03*
X-508000Y1333500D03*
X-254000D03*
X0D03*
X127000Y-1524000D03*
X381000D03*
X635000D03*
X254000Y-1270000D03*
X508000D03*
X762000D03*
X127000Y1079500D03*
X381000D03*
X254000Y1333500D03*
X508000D03*
X762000D03*
X1143000Y-1524000D03*
X889000D03*
X1016000Y-1270000D03*
X1270000D03*
X1100000Y3000D03*
Y257000D03*
X1016000Y1333500D03*
X1520000Y-1025000D03*
Y-771000D03*
Y-517000D03*
Y-263000D03*
Y-9000D03*
G54D20*
G01X1220000Y-230000D02*
X1299000D01*
X1520000Y-9000D01*
G54D11*
X-3147500Y-320000D03*
Y80000D03*
G54D21*
G01X-2794000Y984000D02*
X-2500000Y690000D01*
X-1870000D01*
X-1570000Y390000D01*
X-1050000D01*
X-850000Y190000D01*
Y-140600D01*
X-787400Y-203200D01*
G01X-2286000Y1036000D02*
X-2020000Y770000D01*
X-1820000D01*
X-1540000Y490000D01*
X-1020000D01*
X-760000Y230000D01*
Y-30000D01*
X-724590Y-65410D01*
X-721990D01*
X-685800Y-101600D01*
G01X-2540000Y940000D02*
X-2330000Y730000D01*
X-1850000D01*
X-1560000Y440000D01*
X-1040000D01*
X-800000Y200000D01*
Y-89380D01*
X-609980Y-279400D01*
X-558800D01*
G01X-1360000Y-710000D02*
X-1323810Y-746190D01*
X-236190D01*
X-210000Y-720000D01*
Y-660000D01*
G01X-787400Y-330200D02*
X-890000Y-227600D01*
Y170000D01*
X-1060000Y340000D01*
X-1607600D01*
X-1737600Y470000D01*
G01X-1700000Y330000D02*
X-1663810Y293810D01*
X-1083810D01*
X-940000Y150000D01*
Y-279200D01*
X-762000Y-457200D01*
G01X-1390000Y160000D02*
Y-175300D01*
X-1388240Y-177060D01*
Y-228240D01*
G01X-1016000Y1237800D02*
X-1051300Y1202500D01*
X-1437500D01*
X-1500000Y1140000D01*
Y790000D01*
X-1450000Y740000D01*
X-950000D01*
X-860000Y650000D01*
X-670000D01*
X-410000Y390000D01*
Y120000D01*
X-340990Y50990D01*
Y-14610D01*
X-304800Y-50800D01*
G01X-1365700Y1333500D02*
X-1540000Y1159200D01*
Y770000D01*
X-1455010Y685010D01*
X-955010D01*
X-870000Y600000D01*
X-690000D01*
X-450000Y360000D01*
Y100000D01*
X-490000Y60000D01*
Y30000D01*
G01X-1627500Y1230000D02*
X-1690000D01*
X-1760000Y1160000D01*
Y930000D01*
X-1470000Y640000D01*
X-980000D01*
X-640000Y300000D01*
Y90000D01*
X-460620Y-89380D01*
X-418620D01*
X-381000Y-127000D01*
G01X-609600Y-25400D02*
X-680000Y45000D01*
Y280000D01*
X-990000Y590000D01*
X-1510000D01*
X-1800000Y880000D01*
Y1215800D01*
G01X-2032000Y860000D02*
X-1982000Y810000D01*
X-1800000D01*
X-1530000Y540000D01*
X-1000000D01*
X-720000Y260000D01*
Y10000D01*
X-660780Y-49220D01*
Y-50800D01*
X-508380Y-203200D01*
X-457200D01*
G01X-1397000Y1079500D02*
X-1227500Y910000D01*
X-941610D01*
X-850000Y818390D01*
X-658390D01*
X-390000Y550000D01*
X-210000D01*
X152400Y187600D01*
Y-25400D01*
G01X10000Y120000D02*
X-330000Y460000D01*
X-410000D01*
X-650000Y700000D01*
X-850000D01*
X-960000Y810000D01*
X-1420000D01*
G01X-180000Y410000D02*
X-280000Y510000D01*
X-400000D01*
X-650000Y760000D01*
X-850000D01*
X-950000Y860000D01*
X-1110000D01*
X-1111190Y858810D01*
X-1378810D01*
X-1415000Y895000D01*
G01X-889000Y-1179000D02*
X-660000Y-950000D01*
X150000D01*
X310000Y-790000D01*
Y-670000D01*
X180000Y-540000D01*
G01X-1143000Y-1163000D02*
X-890000Y-910000D01*
X80000D01*
X240000Y-750000D01*
G01X-889000Y983800D02*
X-813120Y907920D01*
X-637920D01*
X-370000Y640000D01*
X-130000D01*
X390000Y120000D01*
Y59800D01*
X228600Y-101600D01*
G01X330200Y101600D02*
X294010Y137790D01*
X292210D01*
X-168000Y598000D01*
X-373260D01*
X-375260Y600000D01*
X-380000D01*
X-640000Y860000D01*
X-830000D01*
X-938240Y968240D01*
X-1031740D01*
X-1143000Y1079500D01*
G01X-127000Y-1197000D02*
X0Y-1070000D01*
X352400D01*
X550000Y-872400D01*
Y-702400D01*
X279400Y-431800D01*
G01X-381000Y-1171000D02*
X-240000Y-1030000D01*
X210000D01*
X390000Y-850000D01*
X460000D01*
G01X-635000Y-1175000D02*
X-450000Y-990000D01*
X180000D01*
X363810Y-806190D01*
Y-786190D01*
X400000Y-750000D01*
G01X-127000Y897000D02*
X610000Y160000D01*
Y25420D01*
X570770Y-13810D01*
X566190D01*
X530000Y-50000D01*
G01X-381000Y900000D02*
X-231000Y750000D01*
X-70000D01*
X540000Y140000D01*
Y60000D01*
X340990Y-139010D01*
Y-141610D01*
X304800Y-177800D01*
G01X-635000Y983800D02*
X-341200Y690000D01*
X-90000D01*
X457200Y142800D01*
Y76200D01*
G01X381000Y-1209000D02*
X430000Y-1160000D01*
X431180D01*
X730000Y-861180D01*
Y-810000D01*
G01X127000Y-1193000D02*
X210000Y-1110000D01*
X400000D01*
X630000Y-880000D01*
Y-810000D01*
G01X127000Y733000D02*
X686190Y173810D01*
Y-13810D01*
X650000Y-50000D01*
G01X889000Y-1041400D02*
X890000Y-1040400D01*
G01X762000Y778000D02*
X803400Y736600D01*
X1295400D01*
G54D12*
X-3115000Y-895000D03*
X-2921000Y190500D03*
Y381000D03*
X-2794000Y190500D03*
X-2667000D03*
X-1650000Y-720000D03*
X-1651000Y63500D03*
Y190500D03*
X-1778000D03*
Y63500D03*
X-254000Y-444500D03*
X-381000Y-317500D03*
X-127000Y-571500D03*
Y-317500D03*
X-254000Y-190500D03*
X700000Y-490660D03*
G54D22*
G01X-2794000Y-1631800D02*
Y-1524000D01*
G01Y-1377800D02*
Y-1270000D01*
G01D02*
Y-1162200D01*
G01X-2901800Y-1270000D02*
X-2794000D01*
G01D02*
X-2686200D01*
G01X-2794000Y-1524000D02*
Y-1416200D01*
G01X-2901800Y-1524000D02*
X-2794000D01*
G01D02*
X-2686200D01*
G01X-3302000Y971700D02*
Y1079500D01*
G01D02*
Y1187300D01*
G01X-3409800Y1079500D02*
X-3302000D01*
G01D02*
X-3194200D01*
G01X-3302000Y1225700D02*
Y1333500D01*
G01D02*
Y1441300D01*
G01X-3409800Y1333500D02*
X-3302000D01*
G01D02*
X-3194200D01*
G01X1143000Y-1631800D02*
Y-1524000D01*
G01X1412200Y-1025000D02*
X1520000D01*
G01X1143000Y-1524000D02*
Y-1416200D01*
G01X1035200Y-1524000D02*
X1143000D01*
G01D02*
X1250800D01*
G01X1520000Y-1132800D02*
Y-1025000D01*
G01D02*
Y-917200D01*
G01Y-1025000D02*
X1627800D01*
G01X1549400Y384800D02*
Y482600D01*
G01D02*
Y580400D01*
G01X1451600Y482600D02*
X1549400D01*
G01D02*
X1647200D01*
G54D13*
X-1388240Y-228240D03*
X-1360000Y-710000D03*
X-1700000Y330000D03*
X-1390000Y160000D03*
X-1737600Y470000D03*
X-1420000Y810000D03*
X-1415000Y895000D03*
X-787400Y-330200D03*
X-762000Y-457200D03*
X-685800Y-101600D03*
X-787400Y-203200D03*
X-558800Y-279400D03*
X-210000Y-660000D03*
X-30000Y-750000D03*
X-304800Y-50800D03*
X-490000Y30000D03*
X-381000Y-127000D03*
X-609600Y-25400D03*
X-457200Y-203200D03*
X10000Y120000D03*
X-180000Y410000D03*
X-179440Y90560D03*
X-310000Y250000D03*
X730000Y-810000D03*
X630000D03*
X279400Y-431800D03*
X460000Y-850000D03*
X400000Y-750000D03*
X180000Y-540000D03*
X240000Y-750000D03*
X650000Y-50000D03*
X530000D03*
X304800Y-177800D03*
X457200Y76200D03*
X228600Y-101600D03*
X330200Y101600D03*
X152400Y-25400D03*
X1220000Y-230000D03*
G54D14*
X-1143000Y-332000D03*
Y176000D03*
X1295400Y482600D03*
Y736600D03*
X1549400Y482600D03*
Y736600D03*
Y990600D03*
G54D15*
X1295400D03*
G54D16*
X1520000Y245000D03*
G54D17*
G01X-2794000Y1333500D02*
Y984000D01*
G01X-2286000Y1333500D02*
Y1036000D01*
G01X-2540000Y1333500D02*
Y940000D01*
G01X-1016000Y1333500D02*
Y1237800D01*
G01X-1270000Y1333500D02*
X-1365700D01*
G01X-1524000D02*
X-1627500Y1230000D01*
G01X-1800000Y1215800D02*
X-1778000Y1237800D01*
Y1333500D01*
G01X-2032000D02*
Y860000D01*
G01X-889000Y-1524000D02*
Y-1179000D01*
G01X-1143000Y-1524000D02*
Y-1163000D01*
G01X-889000Y1079500D02*
Y983800D01*
G01X-127000Y-1524000D02*
Y-1197000D01*
G01X-381000Y-1524000D02*
Y-1171000D01*
G01X-635000Y-1524000D02*
Y-1175000D01*
G01X1100000Y257000D02*
X800000D01*
X750000Y207000D01*
Y-40000D01*
X520000Y-270000D01*
X290000D01*
X-32950Y52950D01*
X-141830D01*
X-179440Y90560D01*
G01X-127000Y1079500D02*
Y897000D01*
G01X-381000Y1079500D02*
Y900000D01*
G01X-635000Y1079500D02*
Y983800D01*
G01X381000Y-1524000D02*
Y-1209000D01*
G01X127000Y-1524000D02*
Y-1193000D01*
G01X381000Y1079500D02*
Y708580D01*
X670480Y419100D01*
X1100000D01*
G01X127000Y1079500D02*
Y733000D01*
G01X1100000Y419100D02*
Y411000D01*
X1520000Y-9000D01*
G01X1549400Y736600D02*
X1422400Y609600D01*
X1172000D01*
X1100000Y537600D01*
Y419100D01*
G01X762000Y1333500D02*
Y778000D01*
G54D18*
G01X-3048000Y-1524000D02*
Y-1270000D01*
G01X-3302000Y-1524000D02*
Y-1270000D01*
G01X-1650000Y-720000D02*
Y-730000D01*
X-1560000Y-820000D01*
X-100000D01*
X-30000Y-750000D01*
G54D19*
G01X240000Y-350000D02*
X90000Y-500000D01*
Y-630000D01*
X-30000Y-750000D01*
G01X-310000Y250000D02*
X-355000Y205000D01*
Y135000D01*
X-190000Y-30000D01*
X-40000D01*
X240000Y-310000D01*
Y-350000D01*
G01X700000Y-490660D02*
X559340Y-350000D01*
X240000D01*
M02*
