G04 ================== begin FILE IDENTIFICATION RECORD ==================*
G04 Layout Name:  C:/Users/works/Desktop/168paSensor/SMD/demo_sensor.brd*
G04 Film Name:    BOTTOM_MASK*
G04 File Format:  Gerber RS274X*
G04 File Origin:  Cadence Allegro 16.6-2015-S066*
G04 Origin Date:  Sun Sep 10 22:47:33 2017*
G04 *
G04 Layer:  VIA CLASS/SOLDERMASK_BOTTOM*
G04 Layer:  PIN/SOLDERMASK_BOTTOM*
G04 Layer:  PACKAGE GEOMETRY/SOLDERMASK_BOTTOM*
G04 Layer:  BOARD GEOMETRY/SOLDERMASK_BOTTOM*
G04 Layer:  BOARD GEOMETRY/OUTLINE*
G04 *
G04 Offset:    (0.0000 0.0000)*
G04 Mirror:    No*
G04 Mode:      Positive*
G04 Rotation:  0*
G04 FullContactRelief:  No*
G04 UndefLineWidth:     0.0000*
G04 ================== end FILE IDENTIFICATION RECORD ====================*
%FSLAX25Y25*MOMM*%
%IR0*IPPOS*OFA0.00000B0.00000*MIA0B0*SFA1.00000B1.00000*%
%ADD14R,2.0541X.73*%
%ADD19R,.73X2.0541*%
%ADD18R,.68X1.08*%
%ADD10R,.728X1.028*%
%ADD11R,1.028X.928*%
%ADD17R,1.03X1.13*%
%ADD16C,1.5*%
%ADD13C,1.6*%
%ADD12C,1.8*%
%ADD15R,2.328X1.428*%
%ADD20C,.1*%
G75*
%LPD*%
G75*
G54D10*
X382500Y187500D03*
X242500D03*
X382500Y562500D03*
X242500D03*
X2230000Y850000D03*
X2370000D03*
G54D20*
G01X80000Y0D02*
X4920000D01*
G03X5000000Y80000I0J80000D01*
G01Y3920000D01*
G03X4920000Y4000000I-80000J0D01*
G01X80000D01*
G03X0Y3920000I0J-80000D01*
G01Y80000D01*
G03X80000Y0I80000J0D01*
G01X3020000Y240000D02*
G03X3180000I80000J0D01*
G01X3020000D02*
Y1940000D01*
G01X3180000Y240000D02*
Y1940000D01*
G01X3020000D02*
G02X3180000I80000J0D01*
G54D11*
X150000Y1055000D03*
X350000Y1150000D03*
X150000Y1245000D03*
X1650000Y1150000D03*
X1850000Y1245000D03*
Y1055000D03*
G54D12*
X270000Y2200000D03*
X1080000D03*
X810000D03*
X540000D03*
X1620000D03*
X1350000D03*
X2430000D03*
X2160000D03*
X1890000D03*
X2700000D03*
X2970000D03*
X3510000D03*
X3240000D03*
X4320000D03*
X4050000D03*
X3780000D03*
X4590000D03*
X4860000D03*
G54D13*
X381000Y2540000D03*
Y3810000D03*
X889000Y2540000D03*
X635000D03*
X1143000Y3810000D03*
X889000D03*
X635000D03*
X1651000D03*
X1397000D03*
X2413000D03*
X2159000D03*
X1905000D03*
X2794000Y952500D03*
Y698500D03*
Y444500D03*
Y1206500D03*
X2780000Y1840000D03*
X2921000Y2540000D03*
X2667000Y3810000D03*
X2921000D03*
X3365500Y444500D03*
Y698500D03*
Y952500D03*
Y1206500D03*
X3683000Y2540000D03*
X3429000D03*
X3175000D03*
X3683000Y3810000D03*
X3429000D03*
X3175000D03*
X4191000Y2540000D03*
X3937000D03*
X4191000Y3810000D03*
X3937000D03*
X4800000Y700000D03*
Y1450000D03*
Y1700000D03*
X4445000Y2540000D03*
X4699000D03*
Y3810000D03*
X4445000D03*
G54D14*
X1006210Y336500D03*
Y209500D03*
Y590500D03*
Y463500D03*
X1493790Y336500D03*
Y209500D03*
Y590500D03*
Y463500D03*
X1856210Y209500D03*
Y336500D03*
X2343790Y209500D03*
Y336500D03*
X1856210Y463500D03*
Y590500D03*
X2343790Y463500D03*
Y590500D03*
G54D15*
X687500Y165000D03*
Y585000D03*
G54D16*
X650000Y1030000D03*
X1410000D03*
G54D17*
X1075000Y850000D03*
X925000D03*
X2225000Y1000000D03*
X2375000D03*
X2225000Y1150000D03*
X2375000D03*
G54D18*
X4145000Y222490D03*
X4050000D03*
X3955000D03*
Y477510D03*
X4050000D03*
X4145000D03*
G54D19*
X3859500Y906210D03*
X3986500D03*
X4113500D03*
X4240500D03*
X4113500Y1393790D03*
X3859500D03*
X3986500D03*
X4240500D03*
M02*
