G04 ================== begin FILE IDENTIFICATION RECORD ==================*
G04 Layout Name:  D:/MEGA128L/footprint/ATmega128L.brd*
G04 Film Name:    SILKSCREEN_BOTTOM*
G04 File Format:  Gerber RS274X*
G04 File Origin:  Cadence Allegro 16.3-p003*
G04 Origin Date:  Thu Dec 08 14:23:57 2016*
G04 *
G04 Layer:  BOARD GEOMETRY/OUTLINE*
G04 Layer:  BOARD GEOMETRY/SILKSCREEN_BOTTOM*
G04 *
G04 Offset:    (0.0000 0.0000)*
G04 Mirror:    No*
G04 Mode:      Positive*
G04 Rotation:  0*
G04 FullContactRelief:  No*
G04 UndefLineWidth:     0.1600*
G04 ================== end FILE IDENTIFICATION RECORD ====================*
%FSLAX35Y35*MOMM*%
%IR0*IPPOS*OFA0.00000B0.00000*MIA0B0*SFA1.00000B1.00000*%
%ADD10C,.2*%
%ADD11C,.18*%
%ADD12C,.16*%
G75*
%LPD*%
G75*
G54D10*
G01X-2921000Y1473200D02*
Y330200D01*
X1130300D01*
Y1473200D01*
X-2921000D01*
G01X-2654300Y-457200D02*
Y-1701800D01*
X1384300D01*
Y-406400D01*
X-2654300D01*
Y-457200D01*
G54D11*
G01X-2720800Y457830D02*
X-2635800D01*
Y489830D01*
X-2640050Y500500D01*
X-2649970Y508500D01*
X-2661300Y511170D01*
X-2672630Y508500D01*
X-2681130Y501830D01*
X-2685390Y489830D01*
Y457830D01*
G01X-2678300Y580500D02*
Y607170D01*
X-2703800D01*
X-2712300Y599170D01*
X-2717970Y589830D01*
X-2720800Y576500D01*
X-2717970Y563170D01*
X-2712300Y553830D01*
X-2703800Y545830D01*
X-2693880Y540500D01*
X-2682550Y537830D01*
X-2672630D01*
X-2664140Y540500D01*
X-2654220Y545830D01*
X-2645720Y553830D01*
X-2640050Y561830D01*
X-2635800Y572500D01*
Y581830D01*
X-2638630Y592500D01*
X-2644300Y600500D01*
G01X-2635800Y660500D02*
X-2638630Y649830D01*
X-2645720Y641830D01*
X-2654220Y636500D01*
X-2665550Y632500D01*
X-2678300Y631170D01*
X-2691050Y632500D01*
X-2702380Y636500D01*
X-2710890Y641830D01*
X-2717970Y649830D01*
X-2720800Y660500D01*
X-2717970Y671170D01*
X-2710890Y679170D01*
X-2702380Y684500D01*
X-2691050Y688500D01*
X-2678300Y689830D01*
X-2665550Y688500D01*
X-2654220Y684500D01*
X-2645720Y679170D01*
X-2638630Y671170D01*
X-2635800Y660500D01*
G01X-2857500Y737230D02*
X-2772500D01*
Y769230D01*
X-2776750Y779900D01*
X-2786670Y787900D01*
X-2798000Y790570D01*
X-2809330Y787900D01*
X-2817830Y781230D01*
X-2822090Y769230D01*
Y737230D01*
G01X-2857500Y822570D02*
X-2772500D01*
Y849230D01*
X-2776750Y859900D01*
X-2782420Y867900D01*
X-2790920Y874570D01*
X-2800840Y879900D01*
X-2815000Y881230D01*
X-2829170Y879900D01*
X-2839080Y874570D01*
X-2847590Y867900D01*
X-2853250Y859900D01*
X-2857500Y849230D01*
Y822570D01*
G01Y937230D02*
X-2839080Y939900D01*
X-2823500Y943900D01*
X-2809330Y949230D01*
X-2793750Y955900D01*
X-2772500Y966570D01*
Y913230D01*
G01X-2565400Y-710570D02*
X-2480400D01*
Y-678570D01*
X-2484650Y-667900D01*
X-2494570Y-659900D01*
X-2505900Y-657230D01*
X-2517230Y-659900D01*
X-2525730Y-666570D01*
X-2529990Y-678570D01*
Y-710570D01*
G01X-2487480Y-566570D02*
X-2483230Y-574570D01*
X-2480400Y-583900D01*
Y-594570D01*
X-2484650Y-606570D01*
X-2491730Y-615900D01*
X-2500230Y-622570D01*
X-2514400Y-627900D01*
X-2527150Y-629230D01*
X-2539900Y-626570D01*
X-2548400Y-622570D01*
X-2556900Y-614570D01*
X-2562570Y-605230D01*
X-2565400Y-595900D01*
Y-586570D01*
X-2562570Y-577230D01*
X-2558320Y-569230D01*
X-2552650Y-562570D01*
G01X-2480400Y-507900D02*
X-2483230Y-518570D01*
X-2490320Y-526570D01*
X-2498820Y-531900D01*
X-2510150Y-535900D01*
X-2522900Y-537230D01*
X-2535650Y-535900D01*
X-2546980Y-531900D01*
X-2555490Y-526570D01*
X-2562570Y-518570D01*
X-2565400Y-507900D01*
X-2562570Y-497230D01*
X-2555490Y-489230D01*
X-2546980Y-483900D01*
X-2535650Y-479900D01*
X-2522900Y-478570D01*
X-2510150Y-479900D01*
X-2498820Y-483900D01*
X-2490320Y-489230D01*
X-2483230Y-497230D01*
X-2480400Y-507900D01*
G01X-2311400Y-710570D02*
X-2226400D01*
Y-678570D01*
X-2230650Y-667900D01*
X-2240570Y-659900D01*
X-2251900Y-657230D01*
X-2263230Y-659900D01*
X-2271730Y-666570D01*
X-2275990Y-678570D01*
Y-710570D01*
G01X-2233480Y-566570D02*
X-2229230Y-574570D01*
X-2226400Y-583900D01*
Y-594570D01*
X-2230650Y-606570D01*
X-2237730Y-615900D01*
X-2246230Y-622570D01*
X-2260400Y-627900D01*
X-2273150Y-629230D01*
X-2285900Y-626570D01*
X-2294400Y-622570D01*
X-2302900Y-614570D01*
X-2308570Y-605230D01*
X-2311400Y-595900D01*
Y-586570D01*
X-2308570Y-577230D01*
X-2304320Y-569230D01*
X-2298650Y-562570D01*
G01X-2311400Y-507900D02*
X-2226400D01*
X-2243400Y-523900D01*
G01X-2311400D02*
Y-491900D01*
G01X-2057400Y-710570D02*
X-1972400D01*
Y-678570D01*
X-1976650Y-667900D01*
X-1986570Y-659900D01*
X-1997900Y-657230D01*
X-2009230Y-659900D01*
X-2017730Y-666570D01*
X-2021990Y-678570D01*
Y-710570D01*
G01X-1979480Y-566570D02*
X-1975230Y-574570D01*
X-1972400Y-583900D01*
Y-594570D01*
X-1976650Y-606570D01*
X-1983730Y-615900D01*
X-1992230Y-622570D01*
X-2006400Y-627900D01*
X-2019150Y-629230D01*
X-2031900Y-626570D01*
X-2040400Y-622570D01*
X-2048900Y-614570D01*
X-2054570Y-605230D01*
X-2057400Y-595900D01*
Y-586570D01*
X-2054570Y-577230D01*
X-2050320Y-569230D01*
X-2044650Y-562570D01*
G01X-1986570Y-533230D02*
X-1978070Y-525230D01*
X-1973820Y-515900D01*
X-1972400Y-505230D01*
X-1975230Y-491900D01*
X-1982320Y-482570D01*
X-1990820Y-479900D01*
X-1999320Y-481230D01*
X-2006400Y-486570D01*
X-2020570Y-513230D01*
X-2030480Y-525230D01*
X-2044650Y-533230D01*
X-2057400Y-535900D01*
Y-479900D01*
G01X-2466800Y457830D02*
X-2381800D01*
Y489830D01*
X-2386050Y500500D01*
X-2395970Y508500D01*
X-2407300Y511170D01*
X-2418630Y508500D01*
X-2427130Y501830D01*
X-2431390Y489830D01*
Y457830D01*
G01X-2424300Y580500D02*
Y607170D01*
X-2449800D01*
X-2458300Y599170D01*
X-2463970Y589830D01*
X-2466800Y576500D01*
X-2463970Y563170D01*
X-2458300Y553830D01*
X-2449800Y545830D01*
X-2439880Y540500D01*
X-2428550Y537830D01*
X-2418630D01*
X-2410140Y540500D01*
X-2400220Y545830D01*
X-2391720Y553830D01*
X-2386050Y561830D01*
X-2381800Y572500D01*
Y581830D01*
X-2384630Y592500D01*
X-2390300Y600500D01*
G01X-2466800Y660500D02*
X-2381800D01*
X-2398800Y644500D01*
G01X-2466800D02*
Y676500D01*
G01X-2212800Y457830D02*
X-2127800D01*
Y489830D01*
X-2132050Y500500D01*
X-2141970Y508500D01*
X-2153300Y511170D01*
X-2164630Y508500D01*
X-2173130Y501830D01*
X-2177390Y489830D01*
Y457830D01*
G01X-2170300Y580500D02*
Y607170D01*
X-2195800D01*
X-2204300Y599170D01*
X-2209970Y589830D01*
X-2212800Y576500D01*
X-2209970Y563170D01*
X-2204300Y553830D01*
X-2195800Y545830D01*
X-2185880Y540500D01*
X-2174550Y537830D01*
X-2164630D01*
X-2156140Y540500D01*
X-2146220Y545830D01*
X-2137720Y553830D01*
X-2132050Y561830D01*
X-2127800Y572500D01*
Y581830D01*
X-2130630Y592500D01*
X-2136300Y600500D01*
G01X-2141970Y635170D02*
X-2133470Y643170D01*
X-2129220Y652500D01*
X-2127800Y663170D01*
X-2130630Y676500D01*
X-2137720Y685830D01*
X-2146220Y688500D01*
X-2154720Y687170D01*
X-2161800Y681830D01*
X-2175970Y655170D01*
X-2185880Y643170D01*
X-2200050Y635170D01*
X-2212800Y632500D01*
Y688500D01*
G01X-2603500Y737230D02*
X-2518500D01*
Y769230D01*
X-2522750Y779900D01*
X-2532670Y787900D01*
X-2544000Y790570D01*
X-2555330Y787900D01*
X-2563830Y781230D01*
X-2568090Y769230D01*
Y737230D01*
G01X-2603500Y822570D02*
X-2518500D01*
Y849230D01*
X-2522750Y859900D01*
X-2528420Y867900D01*
X-2536920Y874570D01*
X-2546840Y879900D01*
X-2561000Y881230D01*
X-2575170Y879900D01*
X-2585080Y874570D01*
X-2593590Y867900D01*
X-2599250Y859900D01*
X-2603500Y849230D01*
Y822570D01*
G01X-2568090Y914570D02*
X-2558170Y923900D01*
X-2552500Y931900D01*
X-2549670Y942570D01*
X-2552500Y951900D01*
X-2558170Y958570D01*
X-2566670Y963900D01*
X-2576580Y965230D01*
X-2585080Y963900D01*
X-2593590Y958570D01*
X-2600670Y950570D01*
X-2603500Y941230D01*
X-2600670Y930570D01*
X-2592170Y921230D01*
X-2579420Y915900D01*
X-2565250Y914570D01*
X-2546840Y917230D01*
X-2536920Y921230D01*
X-2527000Y927900D01*
X-2519920Y937230D01*
X-2518500Y946570D01*
X-2521330Y955900D01*
X-2528420Y962570D01*
G01X-2349500Y737230D02*
X-2264500D01*
Y769230D01*
X-2268750Y779900D01*
X-2278670Y787900D01*
X-2290000Y790570D01*
X-2301330Y787900D01*
X-2309830Y781230D01*
X-2314090Y769230D01*
Y737230D01*
G01X-2349500Y822570D02*
X-2264500D01*
Y849230D01*
X-2268750Y859900D01*
X-2274420Y867900D01*
X-2282920Y874570D01*
X-2292840Y879900D01*
X-2307000Y881230D01*
X-2321170Y879900D01*
X-2331080Y874570D01*
X-2339590Y867900D01*
X-2345250Y859900D01*
X-2349500Y849230D01*
Y822570D01*
G01X-2336750Y910570D02*
X-2343830Y918570D01*
X-2348080Y927900D01*
X-2349500Y939900D01*
X-2346670Y951900D01*
X-2341000Y961230D01*
X-2331080Y967900D01*
X-2319750Y969230D01*
X-2308420Y966570D01*
X-2301330Y959900D01*
X-2295670Y950570D01*
X-2294250Y941230D01*
X-2295670Y931900D01*
X-2301330Y919900D01*
X-2264500Y923900D01*
Y959900D01*
G01X-2095500Y737230D02*
X-2010500D01*
Y769230D01*
X-2014750Y779900D01*
X-2024670Y787900D01*
X-2036000Y790570D01*
X-2047330Y787900D01*
X-2055830Y781230D01*
X-2060090Y769230D01*
Y737230D01*
G01X-2095500Y822570D02*
X-2010500D01*
Y849230D01*
X-2014750Y859900D01*
X-2020420Y867900D01*
X-2028920Y874570D01*
X-2038840Y879900D01*
X-2053000Y881230D01*
X-2067170Y879900D01*
X-2077080Y874570D01*
X-2085590Y867900D01*
X-2091250Y859900D01*
X-2095500Y849230D01*
Y822570D01*
G01Y955900D02*
X-2010500D01*
X-2071420Y906570D01*
Y973230D01*
G01X-1803400Y-710570D02*
X-1718400D01*
Y-678570D01*
X-1722650Y-667900D01*
X-1732570Y-659900D01*
X-1743900Y-657230D01*
X-1755230Y-659900D01*
X-1763730Y-666570D01*
X-1767990Y-678570D01*
Y-710570D01*
G01X-1725480Y-566570D02*
X-1721230Y-574570D01*
X-1718400Y-583900D01*
Y-594570D01*
X-1722650Y-606570D01*
X-1729730Y-615900D01*
X-1738230Y-622570D01*
X-1752400Y-627900D01*
X-1765150Y-629230D01*
X-1777900Y-626570D01*
X-1786400Y-622570D01*
X-1794900Y-614570D01*
X-1800570Y-605230D01*
X-1803400Y-595900D01*
Y-586570D01*
X-1800570Y-577230D01*
X-1796320Y-569230D01*
X-1790650Y-562570D01*
G01X-1786400Y-537230D02*
X-1796320Y-529230D01*
X-1801980Y-518570D01*
X-1803400Y-506570D01*
X-1801980Y-495900D01*
X-1794900Y-485230D01*
X-1786400Y-478570D01*
X-1777900Y-477230D01*
X-1767990Y-479900D01*
X-1760900Y-489230D01*
X-1758070Y-498570D01*
Y-510570D01*
G01Y-498570D02*
X-1753820Y-490570D01*
X-1746740Y-483900D01*
X-1738230Y-481230D01*
X-1729730Y-483900D01*
X-1722650Y-490570D01*
X-1718400Y-502570D01*
X-1719820Y-514570D01*
X-1725480Y-526570D01*
G01X-1549400Y-710570D02*
X-1464400D01*
Y-678570D01*
X-1468650Y-667900D01*
X-1478570Y-659900D01*
X-1489900Y-657230D01*
X-1501230Y-659900D01*
X-1509730Y-666570D01*
X-1513990Y-678570D01*
Y-710570D01*
G01X-1471480Y-566570D02*
X-1467230Y-574570D01*
X-1464400Y-583900D01*
Y-594570D01*
X-1468650Y-606570D01*
X-1475730Y-615900D01*
X-1484230Y-622570D01*
X-1498400Y-627900D01*
X-1511150Y-629230D01*
X-1523900Y-626570D01*
X-1532400Y-622570D01*
X-1540900Y-614570D01*
X-1546570Y-605230D01*
X-1549400Y-595900D01*
Y-586570D01*
X-1546570Y-577230D01*
X-1542320Y-569230D01*
X-1536650Y-562570D01*
G01X-1549400Y-491900D02*
X-1464400D01*
X-1525320Y-541230D01*
Y-474570D01*
G01X-1958800Y457830D02*
X-1873800D01*
Y489830D01*
X-1878050Y500500D01*
X-1887970Y508500D01*
X-1899300Y511170D01*
X-1910630Y508500D01*
X-1919130Y501830D01*
X-1923390Y489830D01*
Y457830D01*
G01X-1916300Y580500D02*
Y607170D01*
X-1941800D01*
X-1950300Y599170D01*
X-1955970Y589830D01*
X-1958800Y576500D01*
X-1955970Y563170D01*
X-1950300Y553830D01*
X-1941800Y545830D01*
X-1931880Y540500D01*
X-1920550Y537830D01*
X-1910630D01*
X-1902140Y540500D01*
X-1892220Y545830D01*
X-1883720Y553830D01*
X-1878050Y561830D01*
X-1873800Y572500D01*
Y581830D01*
X-1876630Y592500D01*
X-1882300Y600500D01*
G01X-1941800Y631170D02*
X-1951720Y639170D01*
X-1957380Y649830D01*
X-1958800Y661830D01*
X-1957380Y672500D01*
X-1950300Y683170D01*
X-1941800Y689830D01*
X-1933300Y691170D01*
X-1923390Y688500D01*
X-1916300Y679170D01*
X-1913470Y669830D01*
Y657830D01*
G01Y669830D02*
X-1909220Y677830D01*
X-1902140Y684500D01*
X-1893630Y687170D01*
X-1885130Y684500D01*
X-1878050Y677830D01*
X-1873800Y665830D01*
X-1875220Y653830D01*
X-1880880Y641830D01*
G01X-1704800Y457830D02*
X-1619800D01*
Y489830D01*
X-1624050Y500500D01*
X-1633970Y508500D01*
X-1645300Y511170D01*
X-1656630Y508500D01*
X-1665130Y501830D01*
X-1669390Y489830D01*
Y457830D01*
G01X-1662300Y580500D02*
Y607170D01*
X-1687800D01*
X-1696300Y599170D01*
X-1701970Y589830D01*
X-1704800Y576500D01*
X-1701970Y563170D01*
X-1696300Y553830D01*
X-1687800Y545830D01*
X-1677880Y540500D01*
X-1666550Y537830D01*
X-1656630D01*
X-1648140Y540500D01*
X-1638220Y545830D01*
X-1629720Y553830D01*
X-1624050Y561830D01*
X-1619800Y572500D01*
Y581830D01*
X-1622630Y592500D01*
X-1628300Y600500D01*
G01X-1704800Y676500D02*
X-1619800D01*
X-1680720Y627170D01*
Y693830D01*
G01X-1447800Y457830D02*
X-1362800D01*
Y489830D01*
X-1367050Y500500D01*
X-1376970Y508500D01*
X-1388300Y511170D01*
X-1399630Y508500D01*
X-1408130Y501830D01*
X-1412390Y489830D01*
Y457830D01*
G01X-1447800Y599170D02*
Y545830D01*
X-1362800D01*
Y599170D01*
G01X-1403880Y577830D02*
Y545830D01*
G01X-1362800Y660500D02*
X-1365630Y649830D01*
X-1372720Y641830D01*
X-1381220Y636500D01*
X-1392550Y632500D01*
X-1405300Y631170D01*
X-1418050Y632500D01*
X-1429380Y636500D01*
X-1437890Y641830D01*
X-1444970Y649830D01*
X-1447800Y660500D01*
X-1444970Y671170D01*
X-1437890Y679170D01*
X-1429380Y684500D01*
X-1418050Y688500D01*
X-1405300Y689830D01*
X-1392550Y688500D01*
X-1381220Y684500D01*
X-1372720Y679170D01*
X-1365630Y671170D01*
X-1362800Y660500D01*
G01X-1841500Y737230D02*
X-1756500D01*
Y769230D01*
X-1760750Y779900D01*
X-1770670Y787900D01*
X-1782000Y790570D01*
X-1793330Y787900D01*
X-1801830Y781230D01*
X-1806090Y769230D01*
Y737230D01*
G01X-1841500Y822570D02*
X-1756500D01*
Y849230D01*
X-1760750Y859900D01*
X-1766420Y867900D01*
X-1774920Y874570D01*
X-1784840Y879900D01*
X-1799000Y881230D01*
X-1813170Y879900D01*
X-1823080Y874570D01*
X-1831590Y867900D01*
X-1837250Y859900D01*
X-1841500Y849230D01*
Y822570D01*
G01X-1824500Y910570D02*
X-1834420Y918570D01*
X-1840080Y929230D01*
X-1841500Y941230D01*
X-1840080Y951900D01*
X-1833000Y962570D01*
X-1824500Y969230D01*
X-1816000Y970570D01*
X-1806090Y967900D01*
X-1799000Y958570D01*
X-1796170Y949230D01*
Y937230D01*
G01Y949230D02*
X-1791920Y957230D01*
X-1784840Y963900D01*
X-1776330Y966570D01*
X-1767830Y963900D01*
X-1760750Y957230D01*
X-1756500Y945230D01*
X-1757920Y933230D01*
X-1763580Y921230D01*
G01X-1587500Y737230D02*
X-1502500D01*
Y769230D01*
X-1506750Y779900D01*
X-1516670Y787900D01*
X-1528000Y790570D01*
X-1539330Y787900D01*
X-1547830Y781230D01*
X-1552090Y769230D01*
Y737230D01*
G01X-1587500Y822570D02*
X-1502500D01*
Y849230D01*
X-1506750Y859900D01*
X-1512420Y867900D01*
X-1520920Y874570D01*
X-1530840Y879900D01*
X-1545000Y881230D01*
X-1559170Y879900D01*
X-1569080Y874570D01*
X-1577590Y867900D01*
X-1583250Y859900D01*
X-1587500Y849230D01*
Y822570D01*
G01X-1516670Y914570D02*
X-1508170Y922570D01*
X-1503920Y931900D01*
X-1502500Y942570D01*
X-1505330Y955900D01*
X-1512420Y965230D01*
X-1520920Y967900D01*
X-1529420Y966570D01*
X-1536500Y961230D01*
X-1550670Y934570D01*
X-1560580Y922570D01*
X-1574750Y914570D01*
X-1587500Y911900D01*
Y967900D01*
G01X-1333500Y737230D02*
X-1248500D01*
Y769230D01*
X-1252750Y779900D01*
X-1262670Y787900D01*
X-1274000Y790570D01*
X-1285330Y787900D01*
X-1293830Y781230D01*
X-1298090Y769230D01*
Y737230D01*
G01X-1333500Y822570D02*
X-1248500D01*
Y849230D01*
X-1252750Y859900D01*
X-1258420Y867900D01*
X-1266920Y874570D01*
X-1276840Y879900D01*
X-1291000Y881230D01*
X-1305170Y879900D01*
X-1315080Y874570D01*
X-1323590Y867900D01*
X-1329250Y859900D01*
X-1333500Y849230D01*
Y822570D01*
G01Y939900D02*
X-1248500D01*
X-1265500Y923900D01*
G01X-1333500D02*
Y955900D01*
G01X-1168400Y-1129670D02*
X-1083400D01*
Y-1097670D01*
X-1087650Y-1087000D01*
X-1097570Y-1079000D01*
X-1108900Y-1076330D01*
X-1120230Y-1079000D01*
X-1128730Y-1085670D01*
X-1132990Y-1097670D01*
Y-1129670D01*
G01X-1168400Y-1040330D02*
X-1083400D01*
Y-989670D01*
G01X-1124480Y-1008330D02*
Y-1040330D01*
G01X-1168400Y-929670D02*
X-1149980Y-927000D01*
X-1134400Y-923000D01*
X-1120230Y-917670D01*
X-1104650Y-911000D01*
X-1083400Y-900330D01*
Y-953670D01*
G01X-914400Y-1129670D02*
X-829400D01*
Y-1097670D01*
X-833650Y-1087000D01*
X-843570Y-1079000D01*
X-854900Y-1076330D01*
X-866230Y-1079000D01*
X-874730Y-1085670D01*
X-878990Y-1097670D01*
Y-1129670D01*
G01X-914400Y-1040330D02*
X-829400D01*
Y-989670D01*
G01X-870480Y-1008330D02*
Y-1040330D01*
G01X-878990Y-952330D02*
X-869070Y-943000D01*
X-863400Y-935000D01*
X-860570Y-924330D01*
X-863400Y-915000D01*
X-869070Y-908330D01*
X-877570Y-903000D01*
X-887480Y-901670D01*
X-895980Y-903000D01*
X-904490Y-908330D01*
X-911570Y-916330D01*
X-914400Y-925670D01*
X-911570Y-936330D01*
X-903070Y-945670D01*
X-890320Y-951000D01*
X-876150Y-952330D01*
X-857740Y-949670D01*
X-847820Y-945670D01*
X-837900Y-939000D01*
X-830820Y-929670D01*
X-829400Y-920330D01*
X-832230Y-911000D01*
X-839320Y-904330D01*
G01X-660400Y-1129670D02*
X-575400D01*
Y-1097670D01*
X-579650Y-1087000D01*
X-589570Y-1079000D01*
X-600900Y-1076330D01*
X-612230Y-1079000D01*
X-620730Y-1085670D01*
X-624990Y-1097670D01*
Y-1129670D01*
G01X-660400Y-1040330D02*
X-575400D01*
Y-989670D01*
G01X-616480Y-1008330D02*
Y-1040330D01*
G01X-647650Y-956330D02*
X-654730Y-948330D01*
X-658980Y-939000D01*
X-660400Y-927000D01*
X-657570Y-915000D01*
X-651900Y-905670D01*
X-641980Y-899000D01*
X-630650Y-897670D01*
X-619320Y-900330D01*
X-612230Y-907000D01*
X-606570Y-916330D01*
X-605150Y-925670D01*
X-606570Y-935000D01*
X-612230Y-947000D01*
X-575400Y-943000D01*
Y-907000D01*
G01X-1295400Y-710570D02*
X-1210400D01*
Y-678570D01*
X-1214650Y-667900D01*
X-1224570Y-659900D01*
X-1235900Y-657230D01*
X-1247230Y-659900D01*
X-1255730Y-666570D01*
X-1259990Y-678570D01*
Y-710570D01*
G01X-1217480Y-566570D02*
X-1213230Y-574570D01*
X-1210400Y-583900D01*
Y-594570D01*
X-1214650Y-606570D01*
X-1221730Y-615900D01*
X-1230230Y-622570D01*
X-1244400Y-627900D01*
X-1257150Y-629230D01*
X-1269900Y-626570D01*
X-1278400Y-622570D01*
X-1286900Y-614570D01*
X-1292570Y-605230D01*
X-1295400Y-595900D01*
Y-586570D01*
X-1292570Y-577230D01*
X-1288320Y-569230D01*
X-1282650Y-562570D01*
G01Y-537230D02*
X-1289730Y-529230D01*
X-1293980Y-519900D01*
X-1295400Y-507900D01*
X-1292570Y-495900D01*
X-1286900Y-486570D01*
X-1276980Y-479900D01*
X-1265650Y-478570D01*
X-1254320Y-481230D01*
X-1247230Y-487900D01*
X-1241570Y-497230D01*
X-1240150Y-506570D01*
X-1241570Y-515900D01*
X-1247230Y-527900D01*
X-1210400Y-523900D01*
Y-487900D01*
G01X-1041400Y-710570D02*
X-956400D01*
Y-678570D01*
X-960650Y-667900D01*
X-970570Y-659900D01*
X-981900Y-657230D01*
X-993230Y-659900D01*
X-1001730Y-666570D01*
X-1005990Y-678570D01*
Y-710570D01*
G01X-963480Y-566570D02*
X-959230Y-574570D01*
X-956400Y-583900D01*
Y-594570D01*
X-960650Y-606570D01*
X-967730Y-615900D01*
X-976230Y-622570D01*
X-990400Y-627900D01*
X-1003150Y-629230D01*
X-1015900Y-626570D01*
X-1024400Y-622570D01*
X-1032900Y-614570D01*
X-1038570Y-605230D01*
X-1041400Y-595900D01*
Y-586570D01*
X-1038570Y-577230D01*
X-1034320Y-569230D01*
X-1028650Y-562570D01*
G01X-1005990Y-533230D02*
X-996070Y-523900D01*
X-990400Y-515900D01*
X-987570Y-505230D01*
X-990400Y-495900D01*
X-996070Y-489230D01*
X-1004570Y-483900D01*
X-1014480Y-482570D01*
X-1022980Y-483900D01*
X-1031490Y-489230D01*
X-1038570Y-497230D01*
X-1041400Y-506570D01*
X-1038570Y-517230D01*
X-1030070Y-526570D01*
X-1017320Y-531900D01*
X-1003150Y-533230D01*
X-984740Y-530570D01*
X-974820Y-526570D01*
X-964900Y-519900D01*
X-957820Y-510570D01*
X-956400Y-501230D01*
X-959230Y-491900D01*
X-966320Y-485230D01*
G01X-787400Y-710570D02*
X-702400D01*
Y-678570D01*
X-706650Y-667900D01*
X-716570Y-659900D01*
X-727900Y-657230D01*
X-739230Y-659900D01*
X-747730Y-666570D01*
X-751990Y-678570D01*
Y-710570D01*
G01X-709480Y-566570D02*
X-705230Y-574570D01*
X-702400Y-583900D01*
Y-594570D01*
X-706650Y-606570D01*
X-713730Y-615900D01*
X-722230Y-622570D01*
X-736400Y-627900D01*
X-749150Y-629230D01*
X-761900Y-626570D01*
X-770400Y-622570D01*
X-778900Y-614570D01*
X-784570Y-605230D01*
X-787400Y-595900D01*
Y-586570D01*
X-784570Y-577230D01*
X-780320Y-569230D01*
X-774650Y-562570D01*
G01X-787400Y-510570D02*
X-768980Y-507900D01*
X-753400Y-503900D01*
X-739230Y-498570D01*
X-723650Y-491900D01*
X-702400Y-481230D01*
Y-534570D01*
G01X-1193800Y457830D02*
X-1108800D01*
Y489830D01*
X-1113050Y500500D01*
X-1122970Y508500D01*
X-1134300Y511170D01*
X-1145630Y508500D01*
X-1154130Y501830D01*
X-1158390Y489830D01*
Y457830D01*
G01X-1193800Y599170D02*
Y545830D01*
X-1108800D01*
Y599170D01*
G01X-1149880Y577830D02*
Y545830D01*
G01X-1193800Y660500D02*
X-1108800D01*
X-1125800Y644500D01*
G01X-1193800D02*
Y676500D01*
G01X-939800Y457830D02*
X-854800D01*
Y489830D01*
X-859050Y500500D01*
X-868970Y508500D01*
X-880300Y511170D01*
X-891630Y508500D01*
X-900130Y501830D01*
X-904390Y489830D01*
Y457830D01*
G01X-939800Y599170D02*
Y545830D01*
X-854800D01*
Y599170D01*
G01X-895880Y577830D02*
Y545830D01*
G01X-868970Y635170D02*
X-860470Y643170D01*
X-856220Y652500D01*
X-854800Y663170D01*
X-857630Y676500D01*
X-864720Y685830D01*
X-873220Y688500D01*
X-881720Y687170D01*
X-888800Y681830D01*
X-902970Y655170D01*
X-912880Y643170D01*
X-927050Y635170D01*
X-939800Y632500D01*
Y688500D01*
G01X-685800Y457830D02*
X-600800D01*
Y489830D01*
X-605050Y500500D01*
X-614970Y508500D01*
X-626300Y511170D01*
X-637630Y508500D01*
X-646130Y501830D01*
X-650390Y489830D01*
Y457830D01*
G01X-685800Y599170D02*
Y545830D01*
X-600800D01*
Y599170D01*
G01X-641880Y577830D02*
Y545830D01*
G01X-668800Y631170D02*
X-678720Y639170D01*
X-684380Y649830D01*
X-685800Y661830D01*
X-684380Y672500D01*
X-677300Y683170D01*
X-668800Y689830D01*
X-660300Y691170D01*
X-650390Y688500D01*
X-643300Y679170D01*
X-640470Y669830D01*
Y657830D01*
G01Y669830D02*
X-636220Y677830D01*
X-629140Y684500D01*
X-620630Y687170D01*
X-612130Y684500D01*
X-605050Y677830D01*
X-600800Y665830D01*
X-602220Y653830D01*
X-607880Y641830D01*
G01X-1079500Y737230D02*
X-994500D01*
Y769230D01*
X-998750Y779900D01*
X-1008670Y787900D01*
X-1020000Y790570D01*
X-1031330Y787900D01*
X-1039830Y781230D01*
X-1044090Y769230D01*
Y737230D01*
G01X-1079500Y822570D02*
X-994500D01*
Y849230D01*
X-998750Y859900D01*
X-1004420Y867900D01*
X-1012920Y874570D01*
X-1022840Y879900D01*
X-1037000Y881230D01*
X-1051170Y879900D01*
X-1061080Y874570D01*
X-1069590Y867900D01*
X-1075250Y859900D01*
X-1079500Y849230D01*
Y822570D01*
G01X-994500Y939900D02*
X-997330Y929230D01*
X-1004420Y921230D01*
X-1012920Y915900D01*
X-1024250Y911900D01*
X-1037000Y910570D01*
X-1049750Y911900D01*
X-1061080Y915900D01*
X-1069590Y921230D01*
X-1076670Y929230D01*
X-1079500Y939900D01*
X-1076670Y950570D01*
X-1069590Y958570D01*
X-1061080Y963900D01*
X-1049750Y967900D01*
X-1037000Y969230D01*
X-1024250Y967900D01*
X-1012920Y963900D01*
X-1004420Y958570D01*
X-997330Y950570D01*
X-994500Y939900D01*
G01X-825500Y737230D02*
X-740500D01*
Y769230D01*
X-744750Y779900D01*
X-754670Y787900D01*
X-766000Y790570D01*
X-777330Y787900D01*
X-785830Y781230D01*
X-790090Y769230D01*
Y737230D01*
G01X-780170Y862570D02*
X-775920Y867900D01*
X-768840Y871900D01*
X-758920Y874570D01*
X-750420Y871900D01*
X-744750Y866570D01*
X-740500Y857230D01*
Y821230D01*
X-825500D01*
Y865230D01*
X-819830Y874570D01*
X-811330Y879900D01*
X-801420Y882570D01*
X-791500Y879900D01*
X-783000Y871900D01*
X-780170Y862570D01*
Y821230D01*
G01X-825500Y937230D02*
X-807080Y939900D01*
X-791500Y943900D01*
X-777330Y949230D01*
X-761750Y955900D01*
X-740500Y966570D01*
Y913230D01*
G01X-406400Y-1129670D02*
X-321400D01*
Y-1097670D01*
X-325650Y-1087000D01*
X-335570Y-1079000D01*
X-346900Y-1076330D01*
X-358230Y-1079000D01*
X-366730Y-1085670D01*
X-370990Y-1097670D01*
Y-1129670D01*
G01X-406400Y-1040330D02*
X-321400D01*
Y-989670D01*
G01X-362480Y-1008330D02*
Y-1040330D01*
G01X-406400Y-911000D02*
X-321400D01*
X-382320Y-960330D01*
Y-893670D01*
G01X-152400Y-1129670D02*
X-67400D01*
Y-1097670D01*
X-71650Y-1087000D01*
X-81570Y-1079000D01*
X-92900Y-1076330D01*
X-104230Y-1079000D01*
X-112730Y-1085670D01*
X-116990Y-1097670D01*
Y-1129670D01*
G01X-152400Y-1040330D02*
X-67400D01*
Y-989670D01*
G01X-108480Y-1008330D02*
Y-1040330D01*
G01X-135400Y-956330D02*
X-145320Y-948330D01*
X-150980Y-937670D01*
X-152400Y-925670D01*
X-150980Y-915000D01*
X-143900Y-904330D01*
X-135400Y-897670D01*
X-126900Y-896330D01*
X-116990Y-899000D01*
X-109900Y-908330D01*
X-107070Y-917670D01*
Y-929670D01*
G01Y-917670D02*
X-102820Y-909670D01*
X-95740Y-903000D01*
X-87230Y-900330D01*
X-78730Y-903000D01*
X-71650Y-909670D01*
X-67400Y-921670D01*
X-68820Y-933670D01*
X-74480Y-945670D01*
G01X-533400Y-710570D02*
X-448400D01*
Y-678570D01*
X-452650Y-667900D01*
X-462570Y-659900D01*
X-473900Y-657230D01*
X-485230Y-659900D01*
X-493730Y-666570D01*
X-497990Y-678570D01*
Y-710570D01*
G01X-533400Y-629230D02*
X-448400Y-595900D01*
X-533400Y-562570D01*
G01X-503650Y-574570D02*
Y-617230D01*
G01X-533400Y-510570D02*
X-514980Y-507900D01*
X-499400Y-503900D01*
X-485230Y-498570D01*
X-469650Y-491900D01*
X-448400Y-481230D01*
Y-534570D01*
G01X-279400Y-710570D02*
X-194400D01*
Y-678570D01*
X-198650Y-667900D01*
X-208570Y-659900D01*
X-219900Y-657230D01*
X-231230Y-659900D01*
X-239730Y-666570D01*
X-243990Y-678570D01*
Y-710570D01*
G01X-279400Y-629230D02*
X-194400Y-595900D01*
X-279400Y-562570D01*
G01X-249650Y-574570D02*
Y-617230D01*
G01X-243990Y-533230D02*
X-234070Y-523900D01*
X-228400Y-515900D01*
X-225570Y-505230D01*
X-228400Y-495900D01*
X-234070Y-489230D01*
X-242570Y-483900D01*
X-252480Y-482570D01*
X-260980Y-483900D01*
X-269490Y-489230D01*
X-276570Y-497230D01*
X-279400Y-506570D01*
X-276570Y-517230D01*
X-268070Y-526570D01*
X-255320Y-531900D01*
X-241150Y-533230D01*
X-222740Y-530570D01*
X-212820Y-526570D01*
X-202900Y-519900D01*
X-195820Y-510570D01*
X-194400Y-501230D01*
X-197230Y-491900D01*
X-204320Y-485230D01*
G01X-25400Y-710570D02*
X59600D01*
Y-678570D01*
X55350Y-667900D01*
X45430Y-659900D01*
X34100Y-657230D01*
X22770Y-659900D01*
X14270Y-666570D01*
X10010Y-678570D01*
Y-710570D01*
G01X-25400Y-629230D02*
X59600Y-595900D01*
X-25400Y-562570D01*
G01X4350Y-574570D02*
Y-617230D01*
G01X-12650Y-537230D02*
X-19730Y-529230D01*
X-23980Y-519900D01*
X-25400Y-507900D01*
X-22570Y-495900D01*
X-16900Y-486570D01*
X-6980Y-479900D01*
X4350Y-478570D01*
X15680Y-481230D01*
X22770Y-487900D01*
X28430Y-497230D01*
X29850Y-506570D01*
X28430Y-515900D01*
X22770Y-527900D01*
X59600Y-523900D01*
Y-487900D01*
G01X-431800Y457830D02*
X-346800D01*
Y489830D01*
X-351050Y500500D01*
X-360970Y508500D01*
X-372300Y511170D01*
X-383630Y508500D01*
X-392130Y501830D01*
X-396390Y489830D01*
Y457830D01*
G01X-431800Y599170D02*
Y545830D01*
X-346800D01*
Y599170D01*
G01X-387880Y577830D02*
Y545830D01*
G01X-431800Y676500D02*
X-346800D01*
X-407720Y627170D01*
Y693830D01*
G01X-177800Y457830D02*
X-92800D01*
Y489830D01*
X-97050Y500500D01*
X-106970Y508500D01*
X-118300Y511170D01*
X-129630Y508500D01*
X-138130Y501830D01*
X-142390Y489830D01*
Y457830D01*
G01X-177800Y599170D02*
Y545830D01*
X-92800D01*
Y599170D01*
G01X-133880Y577830D02*
Y545830D01*
G01X-165050Y631170D02*
X-172130Y639170D01*
X-176380Y648500D01*
X-177800Y660500D01*
X-174970Y672500D01*
X-169300Y681830D01*
X-159380Y688500D01*
X-148050Y689830D01*
X-136720Y687170D01*
X-129630Y680500D01*
X-123970Y671170D01*
X-122550Y661830D01*
X-123970Y652500D01*
X-129630Y640500D01*
X-92800Y644500D01*
Y680500D01*
G01X-571500Y737230D02*
X-486500D01*
Y769230D01*
X-490750Y779900D01*
X-500670Y787900D01*
X-512000Y790570D01*
X-523330Y787900D01*
X-531830Y781230D01*
X-536090Y769230D01*
Y737230D01*
G01X-526170Y862570D02*
X-521920Y867900D01*
X-514840Y871900D01*
X-504920Y874570D01*
X-496420Y871900D01*
X-490750Y866570D01*
X-486500Y857230D01*
Y821230D01*
X-571500D01*
Y865230D01*
X-565830Y874570D01*
X-557330Y879900D01*
X-547420Y882570D01*
X-537500Y879900D01*
X-529000Y871900D01*
X-526170Y862570D01*
Y821230D01*
G01X-536090Y914570D02*
X-526170Y923900D01*
X-520500Y931900D01*
X-517670Y942570D01*
X-520500Y951900D01*
X-526170Y958570D01*
X-534670Y963900D01*
X-544580Y965230D01*
X-553080Y963900D01*
X-561590Y958570D01*
X-568670Y950570D01*
X-571500Y941230D01*
X-568670Y930570D01*
X-560170Y921230D01*
X-547420Y915900D01*
X-533250Y914570D01*
X-514840Y917230D01*
X-504920Y921230D01*
X-495000Y927900D01*
X-487920Y937230D01*
X-486500Y946570D01*
X-489330Y955900D01*
X-496420Y962570D01*
G01X-317500Y737230D02*
X-232500D01*
Y769230D01*
X-236750Y779900D01*
X-246670Y787900D01*
X-258000Y790570D01*
X-269330Y787900D01*
X-277830Y781230D01*
X-282090Y769230D01*
Y737230D01*
G01X-272170Y862570D02*
X-267920Y867900D01*
X-260840Y871900D01*
X-250920Y874570D01*
X-242420Y871900D01*
X-236750Y866570D01*
X-232500Y857230D01*
Y821230D01*
X-317500D01*
Y865230D01*
X-311830Y874570D01*
X-303330Y879900D01*
X-293420Y882570D01*
X-283500Y879900D01*
X-275000Y871900D01*
X-272170Y862570D01*
Y821230D01*
G01X-304750Y910570D02*
X-311830Y918570D01*
X-316080Y927900D01*
X-317500Y939900D01*
X-314670Y951900D01*
X-309000Y961230D01*
X-299080Y967900D01*
X-287750Y969230D01*
X-276420Y966570D01*
X-269330Y959900D01*
X-263670Y950570D01*
X-262250Y941230D01*
X-263670Y931900D01*
X-269330Y919900D01*
X-232500Y923900D01*
Y959900D01*
G01X-63500Y737230D02*
X21500D01*
Y769230D01*
X17250Y779900D01*
X7330Y787900D01*
X-4000Y790570D01*
X-15330Y787900D01*
X-23830Y781230D01*
X-28090Y769230D01*
Y737230D01*
G01X-18170Y862570D02*
X-13920Y867900D01*
X-6840Y871900D01*
X3080Y874570D01*
X11580Y871900D01*
X17250Y866570D01*
X21500Y857230D01*
Y821230D01*
X-63500D01*
Y865230D01*
X-57830Y874570D01*
X-49330Y879900D01*
X-39420Y882570D01*
X-29500Y879900D01*
X-21000Y871900D01*
X-18170Y862570D01*
Y821230D01*
G01X-63500Y955900D02*
X21500D01*
X-39420Y906570D01*
Y973230D01*
G01X101600Y-1129670D02*
X186600D01*
Y-1097670D01*
X182350Y-1087000D01*
X172430Y-1079000D01*
X161100Y-1076330D01*
X149770Y-1079000D01*
X141270Y-1085670D01*
X137010Y-1097670D01*
Y-1129670D01*
G01X101600Y-1040330D02*
X186600D01*
Y-989670D01*
G01X145520Y-1008330D02*
Y-1040330D01*
G01X172430Y-952330D02*
X180930Y-944330D01*
X185180Y-935000D01*
X186600Y-924330D01*
X183770Y-911000D01*
X176680Y-901670D01*
X168180Y-899000D01*
X159680Y-900330D01*
X152600Y-905670D01*
X138430Y-932330D01*
X128520Y-944330D01*
X114350Y-952330D01*
X101600Y-955000D01*
Y-899000D01*
G01X355600Y-1129670D02*
X440600D01*
Y-1097670D01*
X436350Y-1087000D01*
X426430Y-1079000D01*
X415100Y-1076330D01*
X403770Y-1079000D01*
X395270Y-1085670D01*
X391010Y-1097670D01*
Y-1129670D01*
G01X355600Y-1040330D02*
X440600D01*
Y-989670D01*
G01X399520Y-1008330D02*
Y-1040330D01*
G01X355600Y-927000D02*
X440600D01*
X423600Y-943000D01*
G01X355600D02*
Y-911000D01*
G01X609600Y-1129670D02*
X694600D01*
Y-1097670D01*
X690350Y-1087000D01*
X680430Y-1079000D01*
X669100Y-1076330D01*
X657770Y-1079000D01*
X649270Y-1085670D01*
X645010Y-1097670D01*
Y-1129670D01*
G01X609600Y-1040330D02*
X694600D01*
Y-989670D01*
G01X653520Y-1008330D02*
Y-1040330D01*
G01X694600Y-927000D02*
X691770Y-937670D01*
X684680Y-945670D01*
X676180Y-951000D01*
X664850Y-955000D01*
X652100Y-956330D01*
X639350Y-955000D01*
X628020Y-951000D01*
X619510Y-945670D01*
X612430Y-937670D01*
X609600Y-927000D01*
X612430Y-916330D01*
X619510Y-908330D01*
X628020Y-903000D01*
X639350Y-899000D01*
X652100Y-897670D01*
X664850Y-899000D01*
X676180Y-903000D01*
X684680Y-908330D01*
X691770Y-916330D01*
X694600Y-927000D01*
G01X228600Y-710570D02*
X313600D01*
Y-678570D01*
X309350Y-667900D01*
X299430Y-659900D01*
X288100Y-657230D01*
X276770Y-659900D01*
X268270Y-666570D01*
X264010Y-678570D01*
Y-710570D01*
G01X228600Y-629230D02*
X313600Y-595900D01*
X228600Y-562570D01*
G01X258350Y-574570D02*
Y-617230D01*
G01X228600Y-491900D02*
X313600D01*
X252680Y-541230D01*
Y-474570D01*
G01X482600Y-710570D02*
X567600D01*
Y-678570D01*
X563350Y-667900D01*
X553430Y-659900D01*
X542100Y-657230D01*
X530770Y-659900D01*
X522270Y-666570D01*
X518010Y-678570D01*
Y-710570D01*
G01X482600Y-629230D02*
X567600Y-595900D01*
X482600Y-562570D01*
G01X512350Y-574570D02*
Y-617230D01*
G01X499600Y-537230D02*
X489680Y-529230D01*
X484020Y-518570D01*
X482600Y-506570D01*
X484020Y-495900D01*
X491100Y-485230D01*
X499600Y-478570D01*
X508100Y-477230D01*
X518010Y-479900D01*
X525100Y-489230D01*
X527930Y-498570D01*
Y-510570D01*
G01Y-498570D02*
X532180Y-490570D01*
X539260Y-483900D01*
X547770Y-481230D01*
X556270Y-483900D01*
X563350Y-490570D01*
X567600Y-502570D01*
X566180Y-514570D01*
X560520Y-526570D01*
G01X736600Y-710570D02*
X821600D01*
Y-678570D01*
X817350Y-667900D01*
X807430Y-659900D01*
X796100Y-657230D01*
X784770Y-659900D01*
X776270Y-666570D01*
X772010Y-678570D01*
Y-710570D01*
G01X736600Y-629230D02*
X821600Y-595900D01*
X736600Y-562570D01*
G01X766350Y-574570D02*
Y-617230D01*
G01X807430Y-533230D02*
X815930Y-525230D01*
X820180Y-515900D01*
X821600Y-505230D01*
X818770Y-491900D01*
X811680Y-482570D01*
X803180Y-479900D01*
X794680Y-481230D01*
X787600Y-486570D01*
X773430Y-513230D01*
X763520Y-525230D01*
X749350Y-533230D01*
X736600Y-535900D01*
Y-479900D01*
G01X76200Y457830D02*
X161200D01*
Y489830D01*
X156950Y500500D01*
X147030Y508500D01*
X135700Y511170D01*
X124370Y508500D01*
X115870Y501830D01*
X111610Y489830D01*
Y457830D01*
G01X76200Y599170D02*
Y545830D01*
X161200D01*
Y599170D01*
G01X120120Y577830D02*
Y545830D01*
G01X111610Y635170D02*
X121530Y644500D01*
X127200Y652500D01*
X130030Y663170D01*
X127200Y672500D01*
X121530Y679170D01*
X113030Y684500D01*
X103120Y685830D01*
X94620Y684500D01*
X86110Y679170D01*
X79030Y671170D01*
X76200Y661830D01*
X79030Y651170D01*
X87530Y641830D01*
X100280Y636500D01*
X114450Y635170D01*
X132860Y637830D01*
X142780Y641830D01*
X152700Y648500D01*
X159780Y657830D01*
X161200Y667170D01*
X158370Y676500D01*
X151280Y683170D01*
G01X330200Y457830D02*
X415200D01*
Y489830D01*
X410950Y500500D01*
X401030Y508500D01*
X389700Y511170D01*
X378370Y508500D01*
X369870Y501830D01*
X365610Y489830D01*
Y457830D01*
G01X330200Y599170D02*
Y545830D01*
X415200D01*
Y599170D01*
G01X374120Y577830D02*
Y545830D01*
G01X330200Y657830D02*
X348620Y660500D01*
X364200Y664500D01*
X378370Y669830D01*
X393950Y676500D01*
X415200Y687170D01*
Y633830D01*
G01X190500Y737230D02*
X275500D01*
Y769230D01*
X271250Y779900D01*
X261330Y787900D01*
X250000Y790570D01*
X238670Y787900D01*
X230170Y781230D01*
X225910Y769230D01*
Y737230D01*
G01X235830Y862570D02*
X240080Y867900D01*
X247160Y871900D01*
X257080Y874570D01*
X265580Y871900D01*
X271250Y866570D01*
X275500Y857230D01*
Y821230D01*
X190500D01*
Y865230D01*
X196170Y874570D01*
X204670Y879900D01*
X214580Y882570D01*
X224500Y879900D01*
X233000Y871900D01*
X235830Y862570D01*
Y821230D01*
G01X207500Y910570D02*
X197580Y918570D01*
X191920Y929230D01*
X190500Y941230D01*
X191920Y951900D01*
X199000Y962570D01*
X207500Y969230D01*
X216000Y970570D01*
X225910Y967900D01*
X233000Y958570D01*
X235830Y949230D01*
Y937230D01*
G01Y949230D02*
X240080Y957230D01*
X247160Y963900D01*
X255670Y966570D01*
X264170Y963900D01*
X271250Y957230D01*
X275500Y945230D01*
X274080Y933230D01*
X268420Y921230D01*
G01X444500Y737230D02*
X529500D01*
Y769230D01*
X525250Y779900D01*
X515330Y787900D01*
X504000Y790570D01*
X492670Y787900D01*
X484170Y781230D01*
X479910Y769230D01*
Y737230D01*
G01X489830Y862570D02*
X494080Y867900D01*
X501160Y871900D01*
X511080Y874570D01*
X519580Y871900D01*
X525250Y866570D01*
X529500Y857230D01*
Y821230D01*
X444500D01*
Y865230D01*
X450170Y874570D01*
X458670Y879900D01*
X468580Y882570D01*
X478500Y879900D01*
X487000Y871900D01*
X489830Y862570D01*
Y821230D01*
G01X515330Y914570D02*
X523830Y922570D01*
X528080Y931900D01*
X529500Y942570D01*
X526670Y955900D01*
X519580Y965230D01*
X511080Y967900D01*
X502580Y966570D01*
X495500Y961230D01*
X481330Y934570D01*
X471420Y922570D01*
X457250Y914570D01*
X444500Y911900D01*
Y967900D01*
G01X698500Y737230D02*
X783500D01*
Y769230D01*
X779250Y779900D01*
X769330Y787900D01*
X758000Y790570D01*
X746670Y787900D01*
X738170Y781230D01*
X733910Y769230D01*
Y737230D01*
G01X743830Y862570D02*
X748080Y867900D01*
X755160Y871900D01*
X765080Y874570D01*
X773580Y871900D01*
X779250Y866570D01*
X783500Y857230D01*
Y821230D01*
X698500D01*
Y865230D01*
X704170Y874570D01*
X712670Y879900D01*
X722580Y882570D01*
X732500Y879900D01*
X741000Y871900D01*
X743830Y862570D01*
Y821230D01*
G01X698500Y939900D02*
X783500D01*
X766500Y923900D01*
G01X698500D02*
Y955900D01*
G01X990600Y-710570D02*
X1075600D01*
Y-678570D01*
X1071350Y-667900D01*
X1061430Y-659900D01*
X1050100Y-657230D01*
X1038770Y-659900D01*
X1030270Y-666570D01*
X1026010Y-678570D01*
Y-710570D01*
G01X990600Y-629230D02*
X1075600Y-595900D01*
X990600Y-562570D01*
G01X1020350Y-574570D02*
Y-617230D01*
G01X990600Y-507900D02*
X1075600D01*
X1058600Y-523900D01*
G01X990600D02*
Y-491900D01*
G01X1244600Y-710570D02*
X1329600D01*
Y-678570D01*
X1325350Y-667900D01*
X1315430Y-659900D01*
X1304100Y-657230D01*
X1292770Y-659900D01*
X1284270Y-666570D01*
X1280010Y-678570D01*
Y-710570D01*
G01X1244600Y-629230D02*
X1329600Y-595900D01*
X1244600Y-562570D01*
G01X1274350Y-574570D02*
Y-617230D01*
G01X1329600Y-507900D02*
X1326770Y-518570D01*
X1319680Y-526570D01*
X1311180Y-531900D01*
X1299850Y-535900D01*
X1287100Y-537230D01*
X1274350Y-535900D01*
X1263020Y-531900D01*
X1254510Y-526570D01*
X1247430Y-518570D01*
X1244600Y-507900D01*
X1247430Y-497230D01*
X1254510Y-489230D01*
X1263020Y-483900D01*
X1274350Y-479900D01*
X1287100Y-478570D01*
X1299850Y-479900D01*
X1311180Y-483900D01*
X1319680Y-489230D01*
X1326770Y-497230D01*
X1329600Y-507900D01*
G01X952500Y737230D02*
X1037500D01*
Y769230D01*
X1033250Y779900D01*
X1023330Y787900D01*
X1012000Y790570D01*
X1000670Y787900D01*
X992170Y781230D01*
X987910Y769230D01*
Y737230D01*
G01X997830Y862570D02*
X1002080Y867900D01*
X1009160Y871900D01*
X1019080Y874570D01*
X1027580Y871900D01*
X1033250Y866570D01*
X1037500Y857230D01*
Y821230D01*
X952500D01*
Y865230D01*
X958170Y874570D01*
X966670Y879900D01*
X976580Y882570D01*
X986500Y879900D01*
X995000Y871900D01*
X997830Y862570D01*
Y821230D01*
G01X1037500Y939900D02*
X1034670Y929230D01*
X1027580Y921230D01*
X1019080Y915900D01*
X1007750Y911900D01*
X995000Y910570D01*
X982250Y911900D01*
X970920Y915900D01*
X962410Y921230D01*
X955330Y929230D01*
X952500Y939900D01*
X955330Y950570D01*
X962410Y958570D01*
X970920Y963900D01*
X982250Y967900D01*
X995000Y969230D01*
X1007750Y967900D01*
X1019080Y963900D01*
X1027580Y958570D01*
X1034670Y950570D01*
X1037500Y939900D01*
G54D12*
G01X-3550000Y1440000D02*
Y-1690000D01*
G03X-3470000Y-1770000I80000J0D01*
G01X1640000D01*
G03X1720000Y-1690000I0J80000D01*
G01Y1440000D01*
G03X1640000Y1520000I-80000J0D01*
G01X-3470000D01*
G03X-3550000Y1440000I0J-80000D01*
M02*
