G04 ================== begin FILE IDENTIFICATION RECORD ==================*
G04 Layout Name:  D:/MEGA128L/footprint/ATmega128L.brd*
G04 Film Name:    TOP*
G04 File Format:  Gerber RS274X*
G04 File Origin:  Cadence Allegro 16.3-p003*
G04 Origin Date:  Thu Dec 08 14:23:57 2016*
G04 *
G04 Layer:  ETCH/TOP*
G04 Layer:  PIN/TOP*
G04 Layer:  VIA CLASS/TOP*
G04 *
G04 Offset:    (0.0000 0.0000)*
G04 Mirror:    No*
G04 Mode:      Positive*
G04 Rotation:  0*
G04 FullContactRelief:  No*
G04 UndefLineWidth:     0.1600*
G04 ================== end FILE IDENTIFICATION RECORD ====================*
%FSLAX35Y35*MOMM*%
%IR0*IPPOS*OFA0.00000B0.00000*MIA0B0*SFA1.00000B1.00000*%
%ADD27R,2.1X.4*%
%ADD17R,1.4X.4*%
%ADD21R,1.X.9*%
%ADD13R,.9X1.*%
%ADD16C,.3*%
%ADD23C,.6*%
%ADD18C,.75*%
%ADD14R,.75X.75*%
%AMMACRO24*
21,1,.8382,.2794,0.0,0.0,135.*%
%ADD24MACRO24*%
%ADD20R,1.6X3.*%
%ADD15R,1.4X1.6*%
%ADD12R,1.8X1.03*%
%ADD22R,2.7X1.32*%
%ADD26C,1.3*%
%ADD10R,1.9X1.8*%
%AMMACRO31*
21,1,.6,.9,0.0,0.0,45.*%
%ADD31MACRO31*%
%ADD28R,.9X.6*%
%ADD11C,1.5*%
%ADD19R,5.8X6.2*%
%ADD29R,.9X.8*%
%ADD32R,1.3X1.3*%
%ADD33R,1.55X1.55*%
%AMMACRO30*
21,1,5.588,5.588,0.0,0.0,45.*%
%ADD30MACRO30*%
%AMMACRO25*
21,1,.8382,.2794,0.0,0.0,45.*%
%ADD25MACRO25*%
%ADD34C,.2*%
%ADD35C,.4*%
%ADD36C,.5*%
%ADD37C,.32*%
%ADD38C,.16*%
%ADD39C,.25*%
%ADD40C,1.*%
%ADD44R,2.3544X.6544*%
%ADD45R,1.1544X1.7404*%
%ADD42R,1.1544X1.2544*%
%ADD41R,2.0544X1.2844*%
%ADD43R,2.9544X1.5744*%
G75*
%LPD*%
G75*
G36*
G01X-2970000Y600000D02*
X-2640000D01*
Y320000D01*
X-2580000D01*
X-2520000Y260000D01*
Y60000D01*
X-2650000Y-70000D01*
X-2900000D01*
X-2930000Y-60000D01*
Y60000D01*
X-2980000Y110000D01*
Y590000D01*
X-2970000Y600000D01*
G37*
G36*
G01X-1910000Y-790000D02*
Y-709720D01*
X-1856280D01*
Y-310000D01*
X-1500000D01*
X-1450000Y-390000D01*
Y-790000D01*
X-1910000D01*
G37*
G36*
G01X-1270000Y-250000D02*
X-1350000Y-170000D01*
X-1410000D01*
X-1460000Y-220000D01*
X-1760000D01*
X-1830000Y-170000D01*
Y240000D01*
X-1620000D01*
X-1480000Y100000D01*
X-1186520D01*
Y72720D01*
X-1257720D01*
Y7280D01*
X-1168690D01*
G03X-1111310I28690J32720D01*
G01X-1022280D01*
Y72720D01*
X-1099480D01*
Y100000D01*
X-1080000D01*
X-1060000Y120000D01*
Y197450D01*
X-926170Y331280D01*
X-812800D01*
G03X-804940Y332000I0J43263D01*
G01X-804480Y332080D01*
X-755080D01*
Y333780D01*
X-701790D01*
X-512370Y144360D01*
G02X-519560Y127020I-7189J-7180D01*
G01X-630990D01*
X-710790Y47220D01*
X-755080D01*
Y48920D01*
X-804480D01*
X-804940Y49000D01*
G03X-820660I-7860J-42800D01*
G01X-821120Y48920D01*
X-870520D01*
Y-39970D01*
X-987030Y-156480D01*
X-1140000D01*
G03X-1168690Y-167280I0J-43507D01*
G01X-1257720D01*
Y-232720D01*
X-1186520D01*
Y-250000D01*
X-1270000D01*
G37*
%LPC*%
G75*
G54D44*
X-1140000Y-80000D03*
G54D45*
X-812800Y190500D03*
G54D42*
X-2716600Y431800D03*
G54D41*
X-2770000Y28400D03*
G54D43*
X-1651000Y-411000D03*
Y-97000D03*
%LPD*%
G75*
G54D10*
X-3387500Y-240000D03*
Y-520000D03*
Y280000D03*
Y0D03*
G54D11*
X-2794000Y-1524000D03*
Y-1270000D03*
X-3048000Y-1524000D03*
Y-1270000D03*
X-3302000D03*
Y-1524000D03*
X-2667000Y1079500D03*
X-3302000D03*
X-3048000D03*
X-3302000Y1333500D03*
X-3048000D03*
X-2794000D03*
X-2032000Y-1270000D03*
X-2286000D03*
X-2540000D03*
X-2159000Y1079500D03*
X-2413000D03*
X-2540000Y1333500D03*
X-2286000D03*
X-2032000D03*
X-1524000Y-1270000D03*
X-1778000D03*
X-1651000Y1079500D03*
X-1905000D03*
X-1397000D03*
X-1778000Y1333500D03*
X-1524000D03*
X-1143000Y-1524000D03*
X-889000D03*
X-635000D03*
X-762000Y-1270000D03*
X-1016000D03*
X-1270000D03*
X-1143000Y1079500D03*
X-889000D03*
X-635000D03*
X-1270000Y1333500D03*
X-1016000D03*
X-762000D03*
X-381000Y-1524000D03*
X-127000D03*
X-508000Y-1270000D03*
X-254000D03*
X0D03*
X-381000Y1079500D03*
X-127000D03*
X-508000Y1333500D03*
X-254000D03*
X0D03*
X127000Y-1524000D03*
X381000D03*
X635000D03*
X254000Y-1270000D03*
X508000D03*
X762000D03*
X127000Y1079500D03*
X381000D03*
X254000Y1333500D03*
X508000D03*
X762000D03*
X1143000Y-1524000D03*
X889000D03*
X1016000Y-1270000D03*
X1270000D03*
X1100000Y3000D03*
Y257000D03*
X1016000Y1333500D03*
X1520000Y-1025000D03*
Y-771000D03*
Y-517000D03*
Y-263000D03*
Y-9000D03*
G54D20*
X-2389000Y293000D03*
X-1929000D03*
G54D30*
X-70640Y-302450D03*
G54D12*
X-2770000Y-268400D03*
Y28400D03*
G54D21*
X-2209800Y433000D03*
Y583000D03*
X-630000Y615000D03*
Y765000D03*
X-140000D03*
Y615000D03*
X820000Y405000D03*
Y255000D03*
G54D40*
G01X-1143000Y-332000D02*
Y-736600D01*
G01Y176000D02*
Y584200D01*
G54D31*
X-360500Y349500D03*
X-459500Y250500D03*
X229900Y-913100D03*
X328900Y-814100D03*
G54D22*
X-1651000Y-411000D03*
Y-97000D03*
G54D13*
X-2965000Y-770000D03*
X-3115000D03*
X-2716600Y431800D03*
X-2566600D03*
X1334700Y1206500D03*
X1484700D03*
G54D32*
X1295400Y990600D03*
G54D14*
X-2832500Y-770000D03*
X-2667500D03*
X1327500Y1340000D03*
X1492500D03*
G54D23*
X-1388240Y-228240D03*
X-1360000Y-710000D03*
X-1700000Y330000D03*
X-1390000Y160000D03*
X-1737600Y470000D03*
X-1420000Y810000D03*
X-1415000Y895000D03*
X-787400Y-330200D03*
X-762000Y-457200D03*
X-685800Y-101600D03*
X-787400Y-203200D03*
X-558800Y-279400D03*
X-210000Y-660000D03*
X-30000Y-750000D03*
X-304800Y-50800D03*
X-490000Y30000D03*
X-381000Y-127000D03*
X-609600Y-25400D03*
X-457200Y-203200D03*
X10000Y120000D03*
X-180000Y410000D03*
X-179440Y90560D03*
X-310000Y250000D03*
X730000Y-810000D03*
X630000D03*
X279400Y-431800D03*
X460000Y-850000D03*
X400000Y-750000D03*
X180000Y-540000D03*
X240000Y-750000D03*
X650000Y-50000D03*
X530000D03*
X304800Y-177800D03*
X457200Y76200D03*
X228600Y-101600D03*
X330200Y101600D03*
X152400Y-25400D03*
X1220000Y-230000D03*
G54D33*
X1520000Y245000D03*
G54D15*
X-3137500Y-440000D03*
Y200000D03*
G54D24*
X-649280Y-254000D03*
X-613940Y-218660D03*
X-22190Y-881090D03*
X13150Y-845750D03*
X48500Y-810400D03*
X-119090Y276190D03*
X-154430Y240850D03*
X-189780Y205500D03*
X-225130Y170150D03*
X-260480Y134800D03*
X-295820Y99460D03*
X-331170Y64110D03*
X-366510Y28760D03*
X-401860Y-6580D03*
X-437200Y-41920D03*
X-472550Y-77270D03*
X-507900Y-112620D03*
X-543240Y-147960D03*
X-578590Y-183310D03*
X83850Y-775050D03*
X119190Y-739710D03*
X154540Y-704360D03*
X189890Y-669020D03*
X225240Y-633670D03*
X260580Y-598330D03*
X295920Y-562980D03*
X331270Y-527630D03*
X366610Y-492290D03*
X401960Y-456940D03*
X437310Y-421590D03*
X472660Y-386240D03*
X508000Y-350900D03*
G54D34*
G01X-2540000Y-1270000D02*
X-2140000Y-870000D01*
G01X-2286000Y-1270000D02*
X-1926000Y-910000D01*
G01X-2209800Y433000D02*
Y383000D01*
X-2159000Y332200D01*
Y-387000D01*
G01X-2667000Y1079500D02*
X-2387500Y800000D01*
G01X-2413000Y1079500D02*
X-2183500Y850000D01*
G01X-2159000Y1079500D02*
X-1625600Y546100D01*
G01X-2032000Y-1270000D02*
X-1712000Y-950000D01*
G01X-1778000Y-1270000D02*
X-1498000Y-990000D01*
G01X-1524000Y-1270000D02*
X-1284000Y-1030000D01*
G01X-1905000Y1079500D02*
X-1635500Y810000D01*
G01X-1651000Y1079500D02*
X-1466500Y895000D01*
G01X-1270000Y-1270000D02*
X-1070000Y-1070000D01*
G01X-762000Y-1270000D02*
Y-1099850D01*
G01X-665280Y-254000D02*
X-716080Y-203200D01*
X-787400D01*
G01X-649290Y-350890D02*
X-766710D01*
X-787400Y-330200D01*
G01X-762000Y-457200D02*
X-726400Y-421600D01*
X-649300D01*
G01X-578590Y-183310D02*
X-660300Y-101600D01*
G01X-812800Y374800D02*
X-684800D01*
X-450000Y140000D01*
X-407060D01*
X-331170Y64110D01*
G01X-819000Y381000D02*
X-812800Y374800D01*
G01X-366510Y28760D02*
X-423750Y86000D01*
X-614000D01*
X-693800Y6200D01*
X-812800D01*
G01X-1270000Y1333500D02*
X-1126500Y1190000D01*
G01X0Y-1270000D02*
X-225140Y-1044860D01*
G01X-508000Y-1270000D02*
Y-987220D01*
G01X-210000Y-660000D02*
X-251460D01*
G01X-70640Y-302450D02*
X388870D01*
X472660Y-386240D01*
G01X-438080Y-41920D02*
X-490000Y10000D01*
G01X-180000Y410000D02*
X-225140Y364860D01*
Y240860D01*
G01X-225130Y170150D02*
X-179440Y124460D01*
Y90560D01*
G01X0Y1333500D02*
X103500Y1230000D01*
G01X730000Y-810000D02*
X447650Y-527650D01*
G01X630000Y-810000D02*
X382990Y-562990D01*
G01X460000Y-850000D02*
Y-733630D01*
G01X400000Y-750000D02*
X319030Y-669030D01*
G01X190000Y-740000D02*
X230000D01*
G01X328900Y-814100D02*
X318290Y-803490D01*
X315780Y-806000D01*
X185480D01*
X119190Y-739710D01*
G01X532010Y-372020D02*
X510900Y-350900D01*
X508000D01*
G01X229900Y-913100D02*
X194540Y-877740D01*
X186540D01*
X83850Y-775050D01*
G01X700000Y-490660D02*
X741160Y-449500D01*
G01X1220000Y-230000D02*
X1180480Y-190480D01*
G01X1520000Y-263000D02*
X1371300Y-114300D01*
X714300D01*
X650000Y-50000D01*
G01X1295400Y990600D02*
X1200200D01*
X612730Y403130D01*
Y-12730D01*
X650000Y-50000D01*
G01X530000D02*
X467400Y-112600D01*
G01X304800Y-177800D02*
X331250Y-151350D01*
G01X457200Y76200D02*
X366630Y-14370D01*
G01X228600Y-101600D02*
X252920Y-77280D01*
G01X330200Y101600D02*
X295940Y67340D01*
G01X152400Y-25400D02*
X171210Y-6590D01*
G01X1016000Y1333500D02*
Y887500D01*
G01X762000Y1333500D02*
Y703500D01*
X730000Y671500D01*
G01X1440000Y590000D02*
Y400000D01*
X1460000Y380000D01*
X1600000D01*
X1625500Y354500D01*
G01X1484700Y1206500D02*
X1552400D01*
X1650000Y1108900D01*
Y583200D01*
X1549400Y482600D01*
G01X1440000Y881200D02*
Y590000D01*
G54D25*
X-649290Y-350890D03*
X-613940Y-386240D03*
X-578590Y-421590D03*
X-543250Y-456930D03*
X-507900Y-492280D03*
X-472550Y-527630D03*
X-437200Y-562980D03*
X-401860Y-598320D03*
X-366510Y-633670D03*
X-331170Y-669020D03*
X-295820Y-704360D03*
X-260480Y-739700D03*
X-225130Y-775050D03*
X-189780Y-810400D03*
X-154440Y-845740D03*
X-119090Y-881090D03*
X48500Y205500D03*
X13150Y240850D03*
X-22200Y276200D03*
X508000Y-254000D03*
X472650Y-218650D03*
X437310Y-183310D03*
X401960Y-147960D03*
X366610Y-112610D03*
X331270Y-77270D03*
X295920Y-41920D03*
X260580Y-6580D03*
X225230Y28770D03*
X189890Y64110D03*
X154540Y99460D03*
X119190Y134810D03*
X83840Y170160D03*
G54D16*
X-3147500Y-320000D03*
Y80000D03*
G54D35*
G01X-3115000Y-770000D02*
Y-895000D01*
G01X-1840000Y-420000D02*
X-2130000D01*
X-2159000Y-391000D01*
Y-387000D01*
G01X-1651000Y-411000D02*
Y-721000D01*
G01X-1650000Y-720000D02*
X-1651000Y-721000D01*
G01D02*
Y-729000D01*
G54D26*
X-1143000Y-332000D03*
Y176000D03*
X1295400Y482600D03*
Y736600D03*
X1549400Y482600D03*
Y736600D03*
Y990600D03*
G54D17*
X-3087500Y-250000D03*
Y10000D03*
Y-55000D03*
Y-120000D03*
Y-185000D03*
G54D36*
G01X-2770000Y28400D02*
X-2662200D01*
G01X-2770000D02*
Y97700D01*
G01Y-40900D02*
Y28400D01*
G01X-2716600Y431800D02*
X-2653800D01*
G01X-2779400D02*
X-2716600D01*
G01D02*
Y499600D01*
G01Y364000D02*
Y431800D01*
G01X-1651000Y-411000D02*
Y-327200D01*
G01Y-411000D02*
X-1498200D01*
G01X-1651000Y-180800D02*
Y-97000D01*
G01D02*
Y-13200D01*
G01X-1803800Y-97000D02*
X-1651000D01*
G01D02*
X-1498200D01*
G01X-1140000Y-117800D02*
Y-80000D01*
G01D02*
Y-42200D01*
G01X-1262800Y-80000D02*
X-1140000D01*
G01D02*
X-1017200D01*
G01X-812800Y98400D02*
Y146200D01*
G01X-875600D02*
X-812800D01*
G01D02*
X-750000D01*
G01X-812800Y234800D02*
Y282600D01*
G01X-875600Y234800D02*
X-812800D01*
G01D02*
X-750000D01*
G54D18*
X-3115000Y-895000D03*
X-2921000Y190500D03*
Y381000D03*
X-2794000Y190500D03*
X-2667000D03*
X-1650000Y-720000D03*
X-1651000Y63500D03*
Y190500D03*
X-1778000D03*
Y63500D03*
X-254000Y-444500D03*
X-381000Y-317500D03*
X-127000Y-571500D03*
Y-317500D03*
X-254000Y-190500D03*
X700000Y-490660D03*
G54D27*
X-1140000Y-200000D03*
Y40000D03*
Y-80000D03*
G54D37*
G01X-3048000Y-1270000D02*
X-2730500Y-952500D01*
X-2514600D01*
X-2332100Y-770000D01*
G01X-2770000Y-268400D02*
Y-318400D01*
X-2803660D01*
X-3302000Y-816740D01*
Y-1270000D01*
G01X-2389000Y293000D02*
Y62600D01*
X-2720000Y-268400D01*
X-2770000D01*
G01X-2332100Y-770000D02*
Y-560100D01*
X-2159000Y-387000D01*
G01X-1838700D02*
X-2159000D01*
G01X-2566600Y431800D02*
Y436800D01*
X-2420400Y583000D01*
X-2209800D01*
G01D02*
X-2159800D01*
X-1929000Y352200D01*
Y293000D01*
G01X-1651000Y-411000D02*
X-1814700D01*
G01D02*
X-1838700Y-387000D01*
G01X-360500Y349500D02*
X-359500D01*
X-310000Y300000D01*
Y250000D01*
G01X1520000Y-517000D02*
X1518000Y-515000D01*
X840000D01*
X815660Y-490660D01*
X700000D01*
G01X820000Y10000D02*
X989300D01*
X996300Y3000D01*
X1100000D01*
G01X820000Y150000D02*
X893700D01*
X903700Y140000D01*
X1280000D01*
X1385000Y245000D01*
X1520000D01*
G54D19*
X-2159000Y-387000D03*
G54D28*
X-812800Y146200D03*
Y6200D03*
Y234800D03*
Y374800D03*
X820000Y150000D03*
Y10000D03*
G54D38*
G01X-2945000Y1182500D02*
X-1354330D01*
X-1290000Y1118170D01*
Y1005000D01*
X-975000Y690000D01*
X-970000D01*
G01X-2936500Y1445000D02*
X-1489830D01*
X-1400000Y1355170D01*
Y1300000D01*
X-1250000Y1150000D01*
Y1040830D01*
X-1019170Y810000D01*
X-940000D01*
X-820000Y690000D01*
X-470000D01*
G01X-2140000Y-870000D02*
X-1027000D01*
X-578590Y-421590D01*
G01X-1926000Y-910000D02*
X-996320D01*
X-543250Y-456930D01*
G01X-2387500Y800000D02*
X-2067600D01*
X-1737600Y470000D01*
G01X-2183500Y850000D02*
X-2041230D01*
X-1683600Y492370D01*
Y397580D01*
X-1700000Y381180D01*
Y330000D01*
G01X-1625600Y546100D02*
Y395600D01*
X-1390000Y160000D01*
G01X-1712000Y-950000D02*
X-965620D01*
X-507900Y-492280D01*
G01X-1498000Y-990000D02*
X-934920D01*
X-472550Y-527630D01*
G01X-1284000Y-1030000D02*
X-904220D01*
X-437200Y-562980D01*
G01X-1360000Y-710000D02*
Y-528240D01*
X-1388240Y-500000D01*
Y-228240D01*
G01X-1635500Y810000D02*
X-1420000D01*
G01X-1466500Y895000D02*
X-1415000D01*
G01X-1070000Y-1070000D02*
X-873540D01*
X-401860Y-598320D01*
G01X-1016000Y-1270000D02*
X-415030Y-669030D01*
X-401870D01*
X-366510Y-633670D01*
G01X-762000Y-1099850D02*
X-331170Y-669020D01*
G01X-649280Y-254000D02*
X-665280D01*
G01X-649300Y-421600D02*
X-613940Y-386240D01*
G01X-660300Y-101600D02*
X-685800D01*
G01X-1126500Y1190000D02*
X-853830D01*
X-770000Y1106170D01*
Y785000D01*
G01X-920300Y1333500D02*
X-776800Y1190000D01*
X-599830D01*
X-490000Y1080170D01*
Y955000D01*
X-320000Y785000D01*
X-270000D01*
G01X-678500Y1250000D02*
X-580000D01*
X-520000Y1190000D01*
X-345830D01*
X-270000Y1114170D01*
Y1076830D01*
X-66000Y872830D01*
Y329280D01*
X-119090Y276190D01*
G01X412300Y-1270000D02*
X292300Y-1150000D01*
X149820D01*
X-119090Y-881090D01*
G01X-154440Y-845740D02*
X-189800Y-881100D01*
Y-903600D01*
X176600Y-1270000D01*
X254000D01*
G01X-225140Y-1044860D02*
Y-845760D01*
X-189780Y-810400D01*
G01X-225130Y-775050D02*
X-260490Y-810410D01*
Y-1263510D01*
X-254000Y-1270000D01*
G01X-508000Y-987220D02*
X-260480Y-739700D01*
G01X-613940Y-218660D02*
X-578580Y-254020D01*
Y-259620D01*
X-558800Y-279400D01*
G01X-251460Y-660000D02*
X-295820Y-704360D01*
G01X920300Y-1270000D02*
X700300Y-1050000D01*
X217400D01*
X13150Y-845750D01*
G01X660000Y-1270000D02*
X490000Y-1100000D01*
X196720D01*
X-22190Y-881090D01*
G01X-304800Y-50800D02*
X-355600D01*
X-399820Y-6580D01*
X-401860D01*
G01X-437200Y-41920D02*
X-438080D01*
G01X-490000Y10000D02*
Y30000D01*
G01X-472550Y-77270D02*
X-422820Y-127000D01*
X-381000D01*
G01X-609600Y-25400D02*
X-533300Y-101700D01*
X-507900D01*
Y-112620D01*
G01X-457200Y-203200D02*
X-488000D01*
X-543240Y-147960D01*
G01X10000Y120000D02*
X-75490Y205490D01*
X-119070D01*
X-154430Y240850D01*
G01X-225140Y240860D02*
X-189780Y205500D01*
G01X-153500Y1333500D02*
X-10000Y1190000D01*
X162170D01*
X230000Y1122170D01*
Y457700D01*
X13150Y240850D01*
G01X-404500Y1230000D02*
X-131830D01*
X13160Y1085010D01*
Y311560D01*
X-22200Y276200D01*
G01X103500Y1230000D02*
X376170D01*
X484000Y1122170D01*
Y641000D01*
X48500Y205500D01*
G01X-155000Y1432500D02*
X1235000D01*
X1327500Y1340000D01*
G01X759000Y-1400000D02*
X1285670D01*
X1373000Y-1312670D01*
Y-1227330D01*
X905670Y-760000D01*
X780000D01*
X512300Y-492300D01*
X437320D01*
X401960Y-456940D01*
G01X1174300Y-1270000D02*
X914300Y-1010000D01*
X248100D01*
X48500Y-810400D01*
G01X447650Y-527650D02*
X401970D01*
X366610Y-492290D01*
G01X382990Y-562990D02*
X366630D01*
X331270Y-527630D01*
G01X279400Y-431800D02*
X267750Y-443450D01*
Y-528730D01*
X295920Y-556900D01*
Y-562980D01*
G01X460000Y-733630D02*
X360060Y-633690D01*
X295940D01*
X260580Y-598330D01*
G01X319030Y-669030D02*
X260600D01*
X225240Y-633670D01*
G01X180000Y-540000D02*
X161720Y-558280D01*
Y-641720D01*
X189020Y-669020D01*
X189890D01*
G01X154540Y-704360D02*
Y-704540D01*
X190000Y-740000D01*
G01X230000D02*
X240000Y-750000D01*
G01X741160Y-449500D02*
Y-355960D01*
X619440Y-234240D01*
X527760D01*
X508000Y-254000D01*
G01X992000Y-1627000D02*
X1185670D01*
X1405000Y-1407670D01*
Y-1214070D01*
X900930Y-710000D01*
X800000D01*
X546950Y-456950D01*
X472670D01*
X437310Y-421590D01*
G01X1180480Y-190480D02*
X517820D01*
X517800Y-190500D01*
X500800D01*
X472650Y-218650D01*
G01X650000Y-50000D02*
X552050Y-147950D01*
X472670D01*
X437310Y-183310D01*
G01X467400Y-112600D02*
X437320D01*
X401960Y-147960D01*
G01X366610Y-115990D02*
Y-112610D01*
G01X331250Y-151350D02*
Y-147970D01*
X366610Y-112610D01*
G01X366630Y-14370D02*
Y-41910D01*
X331270Y-77270D01*
G01X252920Y-77280D02*
X260560D01*
X295920Y-41920D01*
G01X295940Y67340D02*
Y28780D01*
X260580Y-6580D01*
G01X171210Y-6590D02*
X189870D01*
X225230Y28770D01*
G01X1016000Y887500D02*
X236880Y108380D01*
X234160D01*
X189890Y64110D01*
G01X730000Y671500D02*
X202230Y143730D01*
X198810D01*
X154540Y99460D01*
G01X119190Y134810D02*
X610000Y625620D01*
Y1231500D01*
X508000Y1333500D01*
G01X83840Y170160D02*
X540000Y626320D01*
Y1143200D01*
X349700Y1333500D01*
X254000D01*
G01X1625500Y354500D02*
Y-411500D01*
G54D29*
X-770000Y595000D03*
X-970000Y690000D03*
X-770000Y785000D03*
X-270000Y595000D03*
X-470000Y690000D03*
X-270000Y785000D03*
G54D39*
G01X-3087500Y-250000D02*
X-3037500D01*
X-3019100Y-268400D01*
X-2770000D01*
G01X-2965000Y-770000D02*
X-2832500D01*
G01X-2885200Y28400D02*
X-2903600Y10000D01*
G01D02*
X-3087500D01*
G01X-2770000Y28400D02*
X-2885200D01*
G01X-3048000Y1079500D02*
X-2945000Y1182500D01*
G01X-3048000Y1333500D02*
X-2936500Y1445000D01*
G01X-2667500Y-770000D02*
X-2332100D01*
G01X-1143000Y-332000D02*
Y-203000D01*
X-1140000Y-200000D01*
G01X-1143000Y176000D02*
Y43000D01*
X-1140000Y40000D01*
G01X-1143000Y176000D02*
X-944200Y374800D01*
X-812800D01*
G01Y6200D02*
Y-43800D01*
X-969000Y-200000D01*
X-1140000D01*
G01X-812800Y234800D02*
Y146200D01*
G01X-770000Y785000D02*
X-650000D01*
X-630000Y765000D01*
G01Y615000D02*
X-750000D01*
X-770000Y595000D01*
G01X-1016000Y1333500D02*
X-920300D01*
G01X-762000D02*
X-678500Y1250000D01*
G01X508000Y-1270000D02*
X412300D01*
G01X1016000D02*
X920300D01*
G01X762000D02*
X660000D01*
G01X-70640Y-302450D02*
Y-125720D01*
X-295820Y99460D01*
G01X119190Y-739710D02*
X83830Y-704350D01*
Y-456920D01*
X-70640Y-302450D01*
G01X83850Y-775050D02*
X48490Y-739690D01*
X-19690D01*
X-30000Y-750000D01*
G01X-254000Y1333500D02*
X-153500D01*
G01X-508000D02*
X-404500Y1230000D01*
G01X-459500Y250500D02*
X-343820Y134820D01*
X-331180D01*
X-295820Y99460D01*
G01X-310000Y250000D02*
X-307930Y247930D01*
Y182250D01*
X-260480Y134800D01*
G01Y130480D02*
Y134800D01*
G01X-270000Y595000D02*
Y440000D01*
X-360500Y349500D01*
G01X-270000Y785000D02*
X-160000D01*
X-140000Y765000D01*
G01X-270000Y595000D02*
X-160000D01*
X-140000Y615000D01*
G01X-270000Y595000D02*
X-320000D01*
X-340000Y615000D01*
X-630000D01*
G01X-254000Y1333500D02*
X-155000Y1432500D01*
G01X635000Y-1524000D02*
X759000Y-1400000D01*
G01X1270000Y-1270000D02*
X1174300D01*
G01X700000Y-490660D02*
X580000Y-370660D01*
X527760D01*
X508000Y-350900D01*
G01X889000Y-1524000D02*
X992000Y-1627000D01*
G01X820000Y255000D02*
X870000D01*
X872000Y257000D01*
X1100000D01*
G01D02*
Y294700D01*
X1287900Y482600D01*
X1295400D01*
G01X1440000Y590000D02*
X955000D01*
X820000Y455000D01*
Y405000D01*
G01X1492500Y1340000D02*
X1463200D01*
X1334700Y1211500D01*
Y1206500D01*
G01X1625500Y-411500D02*
X1520000Y-517000D01*
G01X1549400Y990600D02*
X1440000Y881200D01*
M02*
