G04 ================== begin FILE IDENTIFICATION RECORD ==================*
G04 Layout Name:  C:/Users/works/Desktop/644BOARD/01B/new_644pa_01B.brd*
G04 Film Name:    TOP_SLODERMASK*
G04 File Format:  Gerber RS274X*
G04 File Origin:  Cadence Allegro 16.6-2015-S066*
G04 Origin Date:  Sat Aug 26 02:06:22 2017*
G04 *
G04 Layer:  BOARD GEOMETRY/OUTLINE*
G04 Layer:  VIA CLASS/SOLDERMASK_TOP*
G04 Layer:  PIN/SOLDERMASK_TOP*
G04 Layer:  PACKAGE GEOMETRY/SOLDERMASK_TOP*
G04 Layer:  BOARD GEOMETRY/SOLDERMASK_TOP*
G04 *
G04 Offset:    (0.0000 0.0000)*
G04 Mirror:    No*
G04 Mode:      Positive*
G04 Rotation:  0*
G04 FullContactRelief:  No*
G04 UndefLineWidth:     0.0000*
G04 ================== end FILE IDENTIFICATION RECORD ====================*
%FSLAX25Y25*MOMM*%
%IR0*IPPOS*OFA0.00000B0.00000*MIA0B0*SFA1.00000B1.00000*%
%ADD16R,1.48X.53*%
%ADD24R,1.028X.728*%
%ADD12R,.728X1.028*%
%ADD26R,.5281X2.2281*%
%ADD25R,1.03X.9299*%
%ADD27R,1.5301X.6299*%
%ADD28R,.6299X1.5301*%
%ADD14O,2.03X1.33*%
%ADD11R,1.03X1.13*%
%ADD19R,3.2X1.8*%
%ADD13R,2.03X1.63*%
%ADD20R,6.4X6.*%
%ADD21C,1.4*%
%ADD10C,1.6*%
%ADD22R,1.5X1.5*%
%ADD18O,1.1176X2.0066*%
%ADD15C,1.58*%
%ADD17C,3.048*%
%ADD23O,2.7686X1.3716*%
%ADD29C,.16*%
G75*
%LPD*%
G75*
G36*
G01X98500Y1200000D02*
X301500D01*
Y1326500D01*
X98500D01*
Y1200000D01*
G37*
G36*
G01Y1900000D02*
X301500D01*
Y1773500D01*
X98500D01*
Y1900000D01*
G37*
G54D10*
X355600Y254000D03*
Y508000D03*
X609600Y254000D03*
X1117600D03*
X863600D03*
X609600Y508000D03*
X1117600D03*
X863600D03*
X889000Y2794000D03*
X635000D03*
X1143000D03*
X1879600Y254000D03*
X1625600D03*
X1371600D03*
X1879600Y508000D03*
X1625600D03*
X1371600D03*
X1397000Y2794000D03*
X1905000D03*
X1651000D03*
X2641600Y254000D03*
X2387600D03*
X2133600D03*
X2641600Y508000D03*
X2387600D03*
X2133600D03*
X3403600Y254000D03*
X3149600D03*
X2895600D03*
X3403600Y508000D03*
X3149600D03*
X2895600D03*
X4165600Y254000D03*
X3911600D03*
X3657600D03*
X4165600Y508000D03*
X3911600D03*
X3657600D03*
X3937000Y2794000D03*
X4191000D03*
X4673600Y254000D03*
X4419600D03*
X4650000Y1177000D03*
Y923000D03*
X4673600Y508000D03*
X4419600D03*
G54D20*
X1618900Y1752600D03*
G54D11*
X153600Y762000D03*
X303600D03*
X153600Y2286000D03*
X303600D03*
X875000Y2250000D03*
X725000D03*
G54D21*
X2616200Y863600D03*
Y1117600D03*
X2362200D03*
X2870200Y863600D03*
Y1117600D03*
G54D12*
X501500Y762000D03*
X641500D03*
X870000Y2450000D03*
X730000D03*
X1030000Y2250000D03*
X1170000D03*
X3530000Y2650000D03*
X3670000D03*
X4580000Y1650000D03*
X4720000D03*
Y1450000D03*
X4580000D03*
X4590000Y2250000D03*
X4450000D03*
X4590000Y2430000D03*
X4450000D03*
G54D22*
X2362200Y863600D03*
G54D13*
X200000Y1450000D03*
Y1650000D03*
G54D23*
X2250000Y1950000D03*
Y2254800D03*
G54D14*
X200000Y1200000D03*
Y1900000D03*
G54D15*
X470000Y1300000D03*
Y1800000D03*
G54D24*
X2600000Y2030000D03*
Y2170000D03*
X4400000Y1880000D03*
Y2020000D03*
G54D25*
X2694000Y2794000D03*
X2513000Y2699000D03*
X2313000Y2794000D03*
X2513000Y2889000D03*
X2894000Y2699000D03*
Y2889000D03*
G54D16*
X470000Y1420000D03*
Y1485000D03*
Y1550000D03*
Y1615000D03*
Y1680000D03*
G54D17*
X228600Y2794000D03*
X4546600D03*
G54D26*
X3470010Y1020000D03*
X3709990D03*
X3590000D03*
G54D18*
X838200Y1206500D03*
X1143000D03*
G54D27*
X2991000Y1492300D03*
Y1572310D03*
Y1652300D03*
Y1732310D03*
Y1812290D03*
Y1892300D03*
Y1972310D03*
Y2052290D03*
Y2132300D03*
Y2212290D03*
Y2292300D03*
X4121000Y1812290D03*
Y1732310D03*
Y1652300D03*
Y1572310D03*
Y1492300D03*
Y2292300D03*
Y2212290D03*
Y2132300D03*
Y2052290D03*
Y1972310D03*
Y1892300D03*
G54D19*
X938900Y1522600D03*
Y1982600D03*
G54D28*
X3556000Y1327300D03*
X3475990D03*
X3396010D03*
X3316000D03*
X3236010D03*
X3156000D03*
X3316000Y2457300D03*
X3396010D03*
X3475990D03*
X3556000D03*
X3156000D03*
X3236010D03*
X3796000Y1327300D03*
X3715990D03*
X3636010D03*
X3956000D03*
X3875990D03*
X3636010Y2457300D03*
X3715990D03*
X3796000D03*
X3875990D03*
X3956000D03*
G54D29*
G01X120000Y-80000D02*
X4730000D01*
G03X4850000Y40000I0J120000D01*
G01Y2930000D01*
G03X4730000Y3050000I-120000J0D01*
G01X120000D01*
G03X0Y2930000I0J-120000D01*
G01Y40000D01*
G03X120000Y-80000I120000J0D01*
M02*
