G04 ================== begin FILE IDENTIFICATION RECORD ==================*
G04 Layout Name:  C:/Users/works/Desktop/644BOARD/01B/new_644pa_01B.brd*
G04 Film Name:    BOTTOM*
G04 File Format:  Gerber RS274X*
G04 File Origin:  Cadence Allegro 16.6-2015-S066*
G04 Origin Date:  Sat Aug 26 02:06:22 2017*
G04 *
G04 Layer:  BOARD GEOMETRY/OUTLINE*
G04 Layer:  ETCH/BOTTOM*
G04 Layer:  PIN/BOTTOM*
G04 Layer:  VIA CLASS/BOTTOM*
G04 *
G04 Offset:    (0.0000 0.0000)*
G04 Mirror:    No*
G04 Mode:      Positive*
G04 Rotation:  0*
G04 FullContactRelief:  No*
G04 UndefLineWidth:     0.0000*
G04 ================== end FILE IDENTIFICATION RECORD ====================*
%FSLAX25Y25*MOMM*%
%IR0*IPPOS*OFA0.00000B0.00000*MIA0B0*SFA1.00000B1.00000*%
%ADD11C,.8*%
%ADD17C,.65*%
%ADD12O,1.9X1.2*%
%ADD15C,1.3*%
%ADD10C,1.5*%
%ADD13C,1.45*%
%ADD16R,1.3X1.3*%
%ADD14C,2.54*%
%ADD18C,.2*%
%ADD19C,.22*%
%ADD20C,.16*%
%ADD21C,.38*%
%ADD23C,2.1044*%
%ADD22C,2.1544*%
%ADD24C,1.9544*%
%ADD25R,1.9544X1.9544*%
G75*
%LPD*%
G75*
G36*
G01X50000Y0D02*
Y2663010D01*
G02X68180Y2669250I10161J1D01*
G03X309290Y2980520I160421J124754D01*
G02X313320Y3000000I4035J9322D01*
G01X4461880D01*
G02X4465910Y2980520I-5J-10158D01*
G03X4627290I80690J-186520D01*
G02X4631320Y3000000I4035J9322D01*
G01X4800000D01*
Y0D01*
X50000D01*
G37*
%LPC*%
G75*
G36*
G01X165000Y1807280D02*
G02Y1992720I0J92720D01*
G01X235000D01*
G02Y1807280I0J-92720D01*
G01X165000D01*
G37*
G36*
G01Y1107280D02*
G02Y1292720I0J92720D01*
G01X235000D01*
G02Y1107280I0J-92720D01*
G01X165000D01*
G37*
G36*
G01X3830570Y2850420D02*
G03X3846310Y2852120I7186J7183D01*
G02X3834690Y2760280I90689J-58129D01*
G01X3825330D01*
X3769330Y2816280D01*
X3499890D01*
G02Y2883720I-49890J33720D01*
G01X3797270D01*
X3830570Y2850420D01*
G37*
G36*
G01X913080Y349750D02*
X947880Y384550D01*
Y416340D01*
G03X931330Y424240I-10160J0D01*
G02X939230Y584700I-67732J83759D01*
G01X940720Y583240D01*
X947880D01*
Y594150D01*
X2126450Y1772720D01*
X2726450D01*
X2817280Y1863550D01*
Y1999440D01*
G02X2807620Y2092780I32720J50556D01*
G03Y2107220I-7151J7220D01*
G02Y2192780I42380J42780D01*
G03Y2207220I-7151J7220D01*
G02Y2292780I42380J42780D01*
G03Y2307220I-7151J7220D01*
G02X2900560Y2382720I42384J42780D01*
G01X2993550D01*
X3049940Y2326340D01*
G03X3067280Y2333520I7182J7184D01*
G01Y2549440D01*
G02X3142780Y2642380I32720J50556D01*
G03X3157220I7220J7151D01*
G02X3242780I42780J-42380D01*
G03X3257220I7220J7151D01*
G02X3342780I42780J-42380D01*
G03X3357220I7220J7151D01*
G02X3432720Y2549440I42780J-42384D01*
G01Y1956450D01*
X2893550Y1417280D01*
X2263550D01*
X2192720Y1346450D01*
Y793550D01*
X2303550Y682720D01*
X2473550D01*
X2552720Y603550D01*
Y595740D01*
G03X2569660Y588180I10159J4D01*
G02Y427820I71940J-80180D01*
G03X2552720Y420260I-6781J-7564D01*
G01Y389150D01*
X2592120Y349750D01*
X2595360Y351290D01*
G02X2544310Y300240I46240J-97290D01*
G01X2545850Y303480D01*
X2487280Y362050D01*
Y431310D01*
G03X2469400Y437920I-10161J1D01*
G02X2310180Y433100I-81804J70081D01*
G03X2292720Y426040I-7301J-7065D01*
G01Y395150D01*
X2338120Y349750D01*
X2341360Y351290D01*
G02X2290310Y300240I46240J-97290D01*
G01X2291850Y303480D01*
X2227280Y368050D01*
Y424810D01*
G03X2209920Y431980I-10159J3D01*
G02X2050700Y439220I-76318J76020D01*
G03X2032720Y432730I-7820J-6488D01*
G01Y401150D01*
X2084120Y349750D01*
X2087360Y351290D01*
G02X2036310Y300240I46240J-97290D01*
G01X2037850Y303480D01*
X1967280Y374050D01*
Y419200D01*
G03X1950440Y426850I-10160J-4D01*
G02X1800350Y435040I-70840J81150D01*
G03X1782720Y428160I-7471J-6885D01*
G01Y397150D01*
X1830120Y349750D01*
X1833360Y351290D01*
G02X1782310Y300240I46240J-97290D01*
G01X1783850Y303480D01*
X1717280Y370050D01*
Y422850D01*
G03X1700090Y430190I-10160J4D01*
G02X1550010Y431260I-74489J77811D01*
G03X1532720Y424020I-7129J-7240D01*
G01Y393150D01*
X1576120Y349750D01*
X1579360Y351290D01*
G02X1528310Y300240I46240J-97290D01*
G01X1529850Y303480D01*
X1467280Y366050D01*
Y426870D01*
G03X1449750Y433860I-10159J-1D01*
G02X1299660Y427820I-78150J74139D01*
G03X1282720Y420260I-6781J-7564D01*
G01Y389150D01*
X1322120Y349750D01*
X1325360Y351290D01*
G02X1274310Y300240I46240J-97290D01*
G01X1275850Y303480D01*
X1217280Y362050D01*
Y431310D01*
G03X1199400Y437920I-10161J1D01*
G02X1064490Y414280I-81806J70080D01*
G03X1049320Y405440I-5011J-8837D01*
G01Y368550D01*
X1068120Y349750D01*
X1071360Y351290D01*
G02X1020310Y300240I46240J-97290D01*
G01X1021850Y303480D01*
X990600Y334730D01*
X959350Y303480D01*
X960890Y300240D01*
G02X909840Y351290I-97290J-46240D01*
G01X913080Y349750D01*
G37*
G36*
G01X2991350Y303480D02*
X2992890Y300240D01*
G02X2941840Y351290I-97290J-46240D01*
G01X2945080Y349750D01*
X3015880Y420550D01*
Y642150D01*
X3056450Y682720D01*
X3744440D01*
X3915110Y853390D01*
X4203440D01*
X4207280Y857230D01*
Y1996450D01*
X4204450Y1999280D01*
X4038360D01*
G02X3943690Y2072990I-50558J32716D01*
G03Y2079910I-3726J3460D01*
G02Y2161890I44110J40990D01*
G03Y2168810I-3726J3460D01*
G02X3931680Y2231650I44109J40998D01*
G03X3926230Y2244670I-9465J3689D01*
G02X3907220Y2257620I23774J55328D01*
G03X3892780I-7220J-7151D01*
G02X3807220I-42780J42380D01*
G03X3792780I-7220J-7151D01*
G02X3707220I-42780J42380D01*
G03X3692780I-7220J-7151D01*
G02X3617280Y2350560I-42780J42384D01*
G01Y2471550D01*
X3686450Y2540720D01*
X4368310D01*
X4540720Y2368310D01*
Y1240800D01*
G03X4559420Y1235300I10160J3D01*
G02Y1118700I90580J-58300D01*
G03X4540720Y1113200I-8540J-5503D01*
G01Y986800D01*
G03X4559420Y981300I10160J3D01*
G02Y864700I90580J-58300D01*
G03X4540720Y859200I-8540J-5503D01*
G01Y755560D01*
X4589320Y706960D01*
Y599660D01*
G03X4605870Y591760I10160J0D01*
G02Y424240I67730J-83760D01*
G03X4589320Y416340I-6390J-7900D01*
G01Y384550D01*
X4624120Y349750D01*
X4627360Y351290D01*
G02X4576310Y300240I46240J-97290D01*
G01X4577850Y303480D01*
X4546600Y334730D01*
X4515350Y303480D01*
X4516890Y300240D01*
G02X4465840Y351290I-97290J-46240D01*
G01X4469080Y349750D01*
X4487880Y368550D01*
Y405440D01*
G03X4472710Y414280I-10159J3D01*
G02X4358630Y419200I-53104J93720D01*
G03X4342720Y410820I-5749J-8378D01*
G01Y384850D01*
X4261350Y303480D01*
X4262890Y300240D01*
G02X4113410Y348230I-97289J-46241D01*
G03X4108490Y367280I-4921J8890D01*
G01X4071150D01*
X4007350Y303480D01*
X4008890Y300240D01*
G02X3957840Y351290I-97290J-46240D01*
G01X3961080Y349750D01*
X4044050Y432720D01*
X4067340D01*
G03X4075810Y448490I0J10160D01*
G02X4219260Y601400I89790J59507D01*
G03X4234480Y610210I5059J8812D01*
G01Y679950D01*
X3986970D01*
X3935830Y628800D01*
G03X3940300Y611830I7182J-7182D01*
G02X3848800Y420480I-28702J-103827D01*
G03X3832720Y412220I-5920J-8256D01*
G01Y382850D01*
X3753350Y303480D01*
X3754890Y300240D01*
G02X3566620Y311680I-97292J-46239D01*
G03X3558040Y327280I-8578J5441D01*
G01X3523150D01*
X3499350Y303480D01*
X3500890Y300240D01*
G02X3449840Y351290I-97290J-46240D01*
G01X3453080Y349750D01*
X3496050Y392720D01*
X3604260D01*
G03X3608860Y411940I0J10160D01*
G02X3566620Y565680I48739J96064D01*
G03X3558040Y581280I-8578J5441D01*
G01X3503160D01*
G03X3494580Y565680I-2J-10159D01*
G02X3325180Y434150I-90975J-57683D01*
G03X3307620Y427190I-7400J-6961D01*
G01Y365750D01*
X3245350Y303480D01*
X3246890Y300240D01*
G02X3195840Y351290I-97290J-46240D01*
G01X3199080Y349750D01*
X3242180Y392850D01*
Y423720D01*
G03X3224920Y430990I-10160J3D01*
G02X3096490Y414280I-75322J77009D01*
G03X3081320Y405440I-5011J-8837D01*
G01Y393450D01*
X2991350Y303480D01*
G37*
G54D23*
X470000Y1300000D03*
Y1800000D03*
G54D22*
X355600Y254000D03*
Y508000D03*
X609600Y254000D03*
Y508000D03*
X1143000Y2794000D03*
X889000D03*
X635000D03*
X1905000D03*
X1651000D03*
X1397000D03*
X2895600Y508000D03*
X4191000Y2794000D03*
G54D24*
X2616200Y1117600D03*
Y863600D03*
X2362200Y1117600D03*
X2870200D03*
Y863600D03*
G54D25*
X2362200D03*
%LPD*%
G75*
G54D10*
X355600Y254000D03*
Y508000D03*
X609600Y254000D03*
X1117600D03*
X863600D03*
X609600Y508000D03*
X1117600D03*
X863600D03*
X889000Y2794000D03*
X635000D03*
X1143000D03*
X1879600Y254000D03*
X1625600D03*
X1371600D03*
X1879600Y508000D03*
X1625600D03*
X1371600D03*
X1397000Y2794000D03*
X1905000D03*
X1651000D03*
X2641600Y254000D03*
X2387600D03*
X2133600D03*
X2641600Y508000D03*
X2387600D03*
X2133600D03*
X3403600Y254000D03*
X3149600D03*
X2895600D03*
X3403600Y508000D03*
X3149600D03*
X2895600D03*
X4165600Y254000D03*
X3911600D03*
X3657600D03*
X4165600Y508000D03*
X3911600D03*
X3657600D03*
X3937000Y2794000D03*
X4191000D03*
X4673600Y254000D03*
X4419600D03*
X4650000Y1177000D03*
Y923000D03*
X4673600Y508000D03*
X4419600D03*
G54D20*
G01X120000Y-80000D02*
X4730000D01*
G03X4850000Y40000I0J120000D01*
G01Y2930000D01*
G03X4730000Y3050000I-120000J0D01*
G01X120000D01*
G03X0Y2930000I0J-120000D01*
G01Y40000D01*
G03X120000Y-80000I120000J0D01*
G54D11*
X150000Y900000D03*
Y2150000D03*
X650000Y1400000D03*
X1300000Y1150000D03*
Y1250000D03*
X600000Y2250000D03*
X1400000Y1250000D03*
X2200000Y2400000D03*
X2100000D03*
Y2500000D03*
X2200000D03*
X2300000Y2400000D03*
Y2500000D03*
X2650000Y1900000D03*
X2600000Y2300000D03*
X3550000Y2750000D03*
X3600000Y850000D03*
Y1500000D03*
X4600000Y2000000D03*
G54D21*
G01X496800Y254000D02*
X609600D01*
G01X355600Y141200D02*
Y254000D01*
G01D02*
Y366800D01*
G01X242800Y254000D02*
X355600D01*
G01D02*
X468400D01*
G01X609600Y141200D02*
Y254000D01*
G01D02*
Y366800D01*
G01Y254000D02*
X722400D01*
G01X1143000Y2681200D02*
Y2794000D01*
G01D02*
Y2906800D01*
G01X1030200Y2794000D02*
X1143000D01*
G01D02*
X1255800D01*
G01X1397000Y2681200D02*
Y2794000D01*
G01D02*
Y2906800D01*
G01X1284200Y2794000D02*
X1397000D01*
G01D02*
X1509800D01*
G01X2767400Y1117600D02*
X2870200D01*
G01Y1014800D02*
Y1117600D01*
G01D02*
Y1220400D01*
G01Y1117600D02*
X2973000D01*
G01X4191000Y2681200D02*
Y2794000D01*
G01D02*
Y2906800D01*
G01X4078200Y2794000D02*
X4191000D01*
G01D02*
X4303800D01*
G01X4650000Y810200D02*
Y923000D01*
G01D02*
Y1035800D01*
G01Y923000D02*
X4762800D01*
G54D12*
X200000Y1200000D03*
Y1900000D03*
G54D13*
X470000Y1300000D03*
Y1800000D03*
G54D14*
X228600Y2794000D03*
X4546600D03*
G54D15*
X2616200Y863600D03*
Y1117600D03*
X2362200D03*
X2870200Y863600D03*
Y1117600D03*
G54D16*
X2362200Y863600D03*
G54D17*
X2850000Y2050000D03*
Y2150000D03*
Y2250000D03*
Y2350000D03*
X3100000Y2600000D03*
X3200000D03*
X3300000D03*
X3400000D03*
X3450000Y2850000D03*
X3987800Y2120900D03*
X3950000Y2300000D03*
X3850000D03*
X3750000D03*
X3650000D03*
X3987800Y2032000D03*
Y2209800D03*
X4250000Y2300000D03*
G54D18*
G01X2850000Y2050000D02*
Y1850000D01*
X2740000Y1740000D01*
X2140000D01*
X980600Y580600D01*
Y371000D01*
X863600Y254000D01*
G01X2850000Y2150000D02*
X2930000D01*
X2950000Y2130000D01*
Y1890000D01*
X2760000Y1700000D01*
X2160000D01*
X1016600Y556600D01*
Y355000D01*
X1117600Y254000D01*
G01X2850000Y2250000D02*
X2980000D01*
X3000000Y2230000D01*
Y1870000D01*
X2788000Y1658000D01*
X2178000D01*
X1250000Y730000D01*
Y375600D01*
X1371600Y254000D01*
G01X1625600D02*
X1500000Y379600D01*
Y920000D01*
X2202000Y1622000D01*
X2812000D01*
X3050000Y1860000D01*
Y2280000D01*
X2980000Y2350000D01*
X2850000D01*
G01X1879600Y254000D02*
X1750000Y383600D01*
Y1110000D01*
X2226000Y1586000D01*
X2836000D01*
X2914000Y1664000D01*
X2914920D01*
X2928920Y1678000D01*
X2929840D01*
X3072000Y1820160D01*
Y1821080D01*
X3086000Y1835080D01*
Y1836000D01*
X3100000Y1850000D01*
Y2600000D01*
G01X2133600Y254000D02*
X2000000Y387600D01*
Y1300000D01*
X2084000Y1384000D01*
Y1384920D01*
X2088000Y1388920D01*
Y1389840D01*
X2220160Y1522000D01*
X2221080D01*
X2235080Y1536000D01*
X2236000D01*
X2250000Y1550000D01*
X2860000D01*
X3200000Y1890000D01*
Y2600000D01*
G01X3300000D02*
Y1930000D01*
X2870000Y1500000D01*
X2250000D01*
X2236000Y1486000D01*
X2235080D01*
X2124000Y1374920D01*
Y1374000D01*
X2120000Y1370000D01*
Y760000D01*
X2260000Y620000D01*
Y381600D01*
X2387600Y254000D01*
G01X3400000Y2600000D02*
Y1970000D01*
X2880000Y1450000D01*
X2250000D01*
X2160000Y1360000D01*
Y780000D01*
X2290000Y650000D01*
X2460000D01*
X2520000Y590000D01*
Y375600D01*
X2641600Y254000D01*
G01X3987800Y2120900D02*
X4229100D01*
X4280000Y2070000D01*
Y832760D01*
X4231910Y784670D01*
X3943580D01*
X3772910Y614000D01*
X3327610D01*
X3274900Y561290D01*
Y379300D01*
X3149600Y254000D01*
G01X2895600D02*
X3048600Y407000D01*
Y628600D01*
X3070000Y650000D01*
X3757990D01*
X3928660Y820670D01*
X4216990D01*
X4240000Y843680D01*
Y2010000D01*
X4218000Y2032000D01*
X3987800D01*
G01Y2209800D02*
X4220000D01*
X4320000Y2109800D01*
Y821840D01*
X4246830Y748670D01*
X3958500D01*
X3760000Y550170D01*
Y427000D01*
X3693000Y360000D01*
X3509600D01*
X3403600Y254000D01*
G01X3950000Y2300000D02*
Y2380000D01*
X3970000Y2400000D01*
X4310000D01*
X4400000Y2310000D01*
Y800000D01*
X4267200Y667200D01*
Y431800D01*
X4235400Y400000D01*
X4057600D01*
X3911600Y254000D01*
G01X3850000Y2300000D02*
Y2400000D01*
X3886000Y2436000D01*
X4324920D01*
X4436000Y2324920D01*
Y785080D01*
X4310000Y659080D01*
Y398400D01*
X4165600Y254000D01*
G01X3657600D02*
X3800000Y396400D01*
Y539250D01*
X3973420Y712670D01*
X4261750D01*
X4360000Y810920D01*
Y2134800D01*
X4250000Y2244800D01*
Y2300000D01*
G01X3750000D02*
Y2445630D01*
X3776370Y2472000D01*
X4339840D01*
X4472000Y2339840D01*
Y727090D01*
X4520600Y678490D01*
Y355000D01*
X4419600Y254000D01*
G01X3650000Y2300000D02*
Y2458000D01*
X3700000Y2508000D01*
X4354760D01*
X4508000Y2354760D01*
Y742010D01*
X4556600Y693410D01*
Y371000D01*
X4673600Y254000D01*
G54D19*
G01X3937000Y2794000D02*
X3839300D01*
X3783300Y2850000D01*
X3450000D01*
M02*
