G04 ================== begin FILE IDENTIFICATION RECORD ==================*
G04 Layout Name:  C:/Users/works/Desktop/644BOARD/01B/new_644pa_01B.brd*
G04 Film Name:    BOTTOM_SILKSCREEN*
G04 File Format:  Gerber RS274X*
G04 File Origin:  Cadence Allegro 16.6-2015-S066*
G04 Origin Date:  Sat Aug 26 02:06:22 2017*
G04 *
G04 Layer:  BOARD GEOMETRY/SILKSCREEN_BOTTOM*
G04 *
G04 Offset:    (0.0000 0.0000)*
G04 Mirror:    No*
G04 Mode:      Positive*
G04 Rotation:  0*
G04 FullContactRelief:  No*
G04 UndefLineWidth:     0.0000*
G04 ================== end FILE IDENTIFICATION RECORD ====================*
%FSLAX25Y25*MOMM*%
%IR0*IPPOS*OFA0.00000B0.00000*MIA0B0*SFA1.00000B1.00000*%
%ADD10C,.2*%
%ADD11C,.3*%
%ADD12C,.38*%
G75*
%LPD*%
G75*
G54D10*
G01X561600Y50000D02*
X534930D01*
Y20000D01*
X542930Y10000D01*
X552270Y3330D01*
X565600Y0D01*
X578930Y3330D01*
X588270Y10000D01*
X596270Y20000D01*
X601600Y31670D01*
X604270Y45000D01*
Y56670D01*
X601600Y66660D01*
X596270Y78330D01*
X588270Y88330D01*
X580270Y95000D01*
X569600Y100000D01*
X560270D01*
X549600Y96670D01*
X541600Y90000D01*
G01X512270Y0D02*
Y100000D01*
X450930Y0D01*
Y100000D01*
G01X422930Y0D02*
Y100000D01*
X396270D01*
X385600Y95000D01*
X377600Y88330D01*
X370930Y78330D01*
X365600Y66660D01*
X364270Y50000D01*
X365600Y33330D01*
X370930Y21670D01*
X377600Y11660D01*
X385600Y5000D01*
X396270Y0D01*
X422930D01*
G01X373070Y863670D02*
Y831670D01*
G01X351400Y849000D02*
X394740D01*
G01X391400Y790330D02*
X399730Y782330D01*
X404730Y773000D01*
X406400Y761000D01*
X403070Y749000D01*
X396400Y739670D01*
X384730Y733000D01*
X371400Y731670D01*
X358070Y734330D01*
X349730Y741000D01*
X343070Y750330D01*
X341400Y759670D01*
X343070Y769000D01*
X349730Y781000D01*
X306400Y777000D01*
Y741000D01*
G01Y706330D02*
X406400Y673000D01*
X306400Y639670D01*
G01X914400Y164470D02*
X814400D01*
Y132470D01*
X819400Y121800D01*
X831070Y113800D01*
X844400Y111130D01*
X857730Y113800D01*
X867730Y120470D01*
X872740Y132470D01*
Y164470D01*
G01X914400Y83130D02*
X814400Y49800D01*
X914400Y16470D01*
G01X879400Y28470D02*
Y71130D01*
G01X814400Y-38200D02*
X817730Y-27530D01*
X826070Y-19530D01*
X836070Y-14200D01*
X849400Y-10200D01*
X864400Y-8870D01*
X879400Y-10200D01*
X892730Y-14200D01*
X902740Y-19530D01*
X911070Y-27530D01*
X914400Y-38200D01*
X911070Y-48870D01*
X902740Y-56870D01*
X892730Y-62200D01*
X879400Y-66200D01*
X864400Y-67530D01*
X849400Y-66200D01*
X836070Y-62200D01*
X826070Y-56870D01*
X817730Y-48870D01*
X814400Y-38200D01*
G01X1168400Y164470D02*
X1068400D01*
Y132470D01*
X1073400Y121800D01*
X1085070Y113800D01*
X1098400Y111130D01*
X1111730Y113800D01*
X1121730Y120470D01*
X1126740Y132470D01*
Y164470D01*
G01X1168400Y83130D02*
X1068400Y49800D01*
X1168400Y16470D01*
G01X1133400Y28470D02*
Y71130D01*
G01X1168400Y-38200D02*
X1068400D01*
X1088400Y-22200D01*
G01X1168400D02*
Y-54200D01*
G01X914400Y850270D02*
X814400D01*
Y818270D01*
X819400Y807600D01*
X831070Y799600D01*
X844400Y796930D01*
X857730Y799600D01*
X867730Y806270D01*
X872740Y818270D01*
Y850270D01*
G01X861070Y724930D02*
X856070Y719600D01*
X847740Y715600D01*
X836070Y712930D01*
X826070Y715600D01*
X819400Y720930D01*
X814400Y730270D01*
Y766270D01*
X914400D01*
Y722270D01*
X907730Y712930D01*
X897730Y707600D01*
X886070Y704930D01*
X874400Y707600D01*
X864400Y715600D01*
X861070Y724930D01*
Y766270D01*
G01X814400Y647600D02*
X817730Y658270D01*
X826070Y666270D01*
X836070Y671600D01*
X849400Y675600D01*
X864400Y676930D01*
X879400Y675600D01*
X892730Y671600D01*
X902740Y666270D01*
X911070Y658270D01*
X914400Y647600D01*
X911070Y636930D01*
X902740Y628930D01*
X892730Y623600D01*
X879400Y619600D01*
X864400Y618270D01*
X849400Y619600D01*
X836070Y623600D01*
X826070Y628930D01*
X817730Y636930D01*
X814400Y647600D01*
G01X1168400Y850270D02*
X1068400D01*
Y818270D01*
X1073400Y807600D01*
X1085070Y799600D01*
X1098400Y796930D01*
X1111730Y799600D01*
X1121730Y806270D01*
X1126740Y818270D01*
Y850270D01*
G01X1115070Y724930D02*
X1110070Y719600D01*
X1101740Y715600D01*
X1090070Y712930D01*
X1080070Y715600D01*
X1073400Y720930D01*
X1068400Y730270D01*
Y766270D01*
X1168400D01*
Y722270D01*
X1161730Y712930D01*
X1151730Y707600D01*
X1140070Y704930D01*
X1128400Y707600D01*
X1118400Y715600D01*
X1115070Y724930D01*
Y766270D01*
G01X1168400Y647600D02*
X1068400D01*
X1088400Y663600D01*
G01X1168400D02*
Y631600D01*
G01X627070Y863670D02*
Y831670D01*
G01X605400Y849000D02*
X648740D01*
G01X645400Y790330D02*
X653730Y782330D01*
X658730Y773000D01*
X660400Y761000D01*
X657070Y749000D01*
X650400Y739670D01*
X638730Y733000D01*
X625400Y731670D01*
X612070Y734330D01*
X603730Y741000D01*
X597070Y750330D01*
X595400Y759670D01*
X597070Y769000D01*
X603730Y781000D01*
X560400Y777000D01*
Y741000D01*
G01Y706330D02*
X660400Y673000D01*
X560400Y639670D01*
G01X617530Y2311330D02*
Y2343330D01*
G01X639200Y2326000D02*
X595860D01*
G01X604200Y2384670D02*
X592530Y2392670D01*
X585870Y2403330D01*
X584200Y2415330D01*
X585870Y2426000D01*
X594200Y2436670D01*
X604200Y2443330D01*
X614200Y2444670D01*
X625860Y2442000D01*
X634200Y2432670D01*
X637530Y2423330D01*
Y2411330D01*
G01Y2423330D02*
X642530Y2431330D01*
X650860Y2438000D01*
X660870Y2440670D01*
X670870Y2438000D01*
X679200Y2431330D01*
X684200Y2419330D01*
X682530Y2407330D01*
X675870Y2395330D01*
G01X584200Y2475330D02*
X684200D01*
Y2507330D01*
X679200Y2518000D01*
X667530Y2526000D01*
X654200Y2528670D01*
X640870Y2526000D01*
X630870Y2519330D01*
X625860Y2507330D01*
Y2475330D01*
G01X604200Y2560670D02*
X592530Y2568670D01*
X585870Y2579330D01*
X584200Y2591330D01*
X585870Y2602000D01*
X594200Y2612670D01*
X604200Y2619330D01*
X614200Y2620670D01*
X625860Y2618000D01*
X634200Y2608670D01*
X637530Y2599330D01*
Y2587330D01*
G01Y2599330D02*
X642530Y2607330D01*
X650860Y2614000D01*
X660870Y2616670D01*
X670870Y2614000D01*
X679200Y2607330D01*
X684200Y2595330D01*
X682530Y2583330D01*
X675870Y2571330D01*
G01X684200Y2644670D02*
X584200Y2678000D01*
X684200Y2711330D01*
G01X871530Y2311330D02*
Y2343330D01*
G01X893200Y2326000D02*
X849860D01*
G01X858200Y2384670D02*
X846530Y2392670D01*
X839870Y2403330D01*
X838200Y2415330D01*
X839870Y2426000D01*
X848200Y2436670D01*
X858200Y2443330D01*
X868200Y2444670D01*
X879860Y2442000D01*
X888200Y2432670D01*
X891530Y2423330D01*
Y2411330D01*
G01Y2423330D02*
X896530Y2431330D01*
X904860Y2438000D01*
X914870Y2440670D01*
X924870Y2438000D01*
X933200Y2431330D01*
X938200Y2419330D01*
X936530Y2407330D01*
X929870Y2395330D01*
G01X838200Y2475330D02*
X938200D01*
Y2507330D01*
X933200Y2518000D01*
X921530Y2526000D01*
X908200Y2528670D01*
X894870Y2526000D01*
X884870Y2519330D01*
X879860Y2507330D01*
Y2475330D01*
G01X858200Y2560670D02*
X846530Y2568670D01*
X839870Y2579330D01*
X838200Y2591330D01*
X839870Y2602000D01*
X848200Y2612670D01*
X858200Y2619330D01*
X868200Y2620670D01*
X879860Y2618000D01*
X888200Y2608670D01*
X891530Y2599330D01*
Y2587330D01*
G01Y2599330D02*
X896530Y2607330D01*
X904860Y2614000D01*
X914870Y2616670D01*
X924870Y2614000D01*
X933200Y2607330D01*
X938200Y2595330D01*
X936530Y2583330D01*
X929870Y2571330D01*
G01X938200Y2644670D02*
X838200Y2678000D01*
X938200Y2711330D01*
G01X1349000Y2590000D02*
X1322330D01*
Y2560000D01*
X1330330Y2550000D01*
X1339670Y2543330D01*
X1353000Y2540000D01*
X1366330Y2543330D01*
X1375670Y2550000D01*
X1383670Y2560000D01*
X1389000Y2571670D01*
X1391670Y2585000D01*
Y2596670D01*
X1389000Y2606660D01*
X1383670Y2618330D01*
X1375670Y2628330D01*
X1367670Y2635000D01*
X1357000Y2640000D01*
X1347670D01*
X1337000Y2636670D01*
X1329000Y2630000D01*
G01X1299670Y2540000D02*
Y2640000D01*
X1238330Y2540000D01*
Y2640000D01*
G01X1210330Y2540000D02*
Y2640000D01*
X1183670D01*
X1173000Y2635000D01*
X1165000Y2628330D01*
X1158330Y2618330D01*
X1153000Y2606660D01*
X1151670Y2590000D01*
X1153000Y2573330D01*
X1158330Y2561670D01*
X1165000Y2551660D01*
X1173000Y2545000D01*
X1183670Y2540000D01*
X1210330D01*
G01X1422400Y164470D02*
X1322400D01*
Y132470D01*
X1327400Y121800D01*
X1339070Y113800D01*
X1352400Y111130D01*
X1365730Y113800D01*
X1375730Y120470D01*
X1380740Y132470D01*
Y164470D01*
G01X1422400Y83130D02*
X1322400Y49800D01*
X1422400Y16470D01*
G01X1387400Y28470D02*
Y71130D01*
G01X1339070Y-12870D02*
X1329070Y-20870D01*
X1324070Y-30200D01*
X1322400Y-40870D01*
X1325730Y-54200D01*
X1334070Y-63530D01*
X1344070Y-66200D01*
X1354070Y-64870D01*
X1362400Y-59530D01*
X1379070Y-32870D01*
X1390730Y-20870D01*
X1407400Y-12870D01*
X1422400Y-10200D01*
Y-66200D01*
G01X1676400Y164470D02*
X1576400D01*
Y132470D01*
X1581400Y121800D01*
X1593070Y113800D01*
X1606400Y111130D01*
X1619730Y113800D01*
X1629730Y120470D01*
X1634740Y132470D01*
Y164470D01*
G01X1676400Y83130D02*
X1576400Y49800D01*
X1676400Y16470D01*
G01X1641400Y28470D02*
Y71130D01*
G01X1656400Y-8870D02*
X1668070Y-16870D01*
X1674730Y-27530D01*
X1676400Y-39530D01*
X1674730Y-50200D01*
X1666400Y-60870D01*
X1656400Y-67530D01*
X1646400Y-68870D01*
X1634740Y-66200D01*
X1626400Y-56870D01*
X1623070Y-47530D01*
Y-35530D01*
G01Y-47530D02*
X1618070Y-55530D01*
X1609740Y-62200D01*
X1599730Y-64870D01*
X1589730Y-62200D01*
X1581400Y-55530D01*
X1576400Y-43530D01*
X1578070Y-31530D01*
X1584730Y-19530D01*
G01X1930400Y164470D02*
X1830400D01*
Y132470D01*
X1835400Y121800D01*
X1847070Y113800D01*
X1860400Y111130D01*
X1873730Y113800D01*
X1883730Y120470D01*
X1888740Y132470D01*
Y164470D01*
G01X1930400Y83130D02*
X1830400Y49800D01*
X1930400Y16470D01*
G01X1895400Y28470D02*
Y71130D01*
G01X1930400Y-54200D02*
X1830400D01*
X1902070Y-4870D01*
Y-71530D01*
G01X1422400Y850270D02*
X1322400D01*
Y818270D01*
X1327400Y807600D01*
X1339070Y799600D01*
X1352400Y796930D01*
X1365730Y799600D01*
X1375730Y806270D01*
X1380740Y818270D01*
Y850270D01*
G01X1369070Y724930D02*
X1364070Y719600D01*
X1355740Y715600D01*
X1344070Y712930D01*
X1334070Y715600D01*
X1327400Y720930D01*
X1322400Y730270D01*
Y766270D01*
X1422400D01*
Y722270D01*
X1415730Y712930D01*
X1405730Y707600D01*
X1394070Y704930D01*
X1382400Y707600D01*
X1372400Y715600D01*
X1369070Y724930D01*
Y766270D01*
G01X1339070Y672930D02*
X1329070Y664930D01*
X1324070Y655600D01*
X1322400Y644930D01*
X1325730Y631600D01*
X1334070Y622270D01*
X1344070Y619600D01*
X1354070Y620930D01*
X1362400Y626270D01*
X1379070Y652930D01*
X1390730Y664930D01*
X1407400Y672930D01*
X1422400Y675600D01*
Y619600D01*
G01X1676400Y850270D02*
X1576400D01*
Y818270D01*
X1581400Y807600D01*
X1593070Y799600D01*
X1606400Y796930D01*
X1619730Y799600D01*
X1629730Y806270D01*
X1634740Y818270D01*
Y850270D01*
G01X1623070Y724930D02*
X1618070Y719600D01*
X1609740Y715600D01*
X1598070Y712930D01*
X1588070Y715600D01*
X1581400Y720930D01*
X1576400Y730270D01*
Y766270D01*
X1676400D01*
Y722270D01*
X1669730Y712930D01*
X1659730Y707600D01*
X1648070Y704930D01*
X1636400Y707600D01*
X1626400Y715600D01*
X1623070Y724930D01*
Y766270D01*
G01X1656400Y676930D02*
X1668070Y668930D01*
X1674730Y658270D01*
X1676400Y646270D01*
X1674730Y635600D01*
X1666400Y624930D01*
X1656400Y618270D01*
X1646400Y616930D01*
X1634740Y619600D01*
X1626400Y628930D01*
X1623070Y638270D01*
Y650270D01*
G01Y638270D02*
X1618070Y630270D01*
X1609740Y623600D01*
X1599730Y620930D01*
X1589730Y623600D01*
X1581400Y630270D01*
X1576400Y642270D01*
X1578070Y654270D01*
X1584730Y666270D01*
G01X1930400Y850270D02*
X1830400D01*
Y818270D01*
X1835400Y807600D01*
X1847070Y799600D01*
X1860400Y796930D01*
X1873730Y799600D01*
X1883730Y806270D01*
X1888740Y818270D01*
Y850270D01*
G01X1877070Y724930D02*
X1872070Y719600D01*
X1863740Y715600D01*
X1852070Y712930D01*
X1842070Y715600D01*
X1835400Y720930D01*
X1830400Y730270D01*
Y766270D01*
X1930400D01*
Y722270D01*
X1923730Y712930D01*
X1913730Y707600D01*
X1902070Y704930D01*
X1890400Y707600D01*
X1880400Y715600D01*
X1877070Y724930D01*
Y766270D01*
G01X1930400Y631600D02*
X1830400D01*
X1902070Y680930D01*
Y614270D01*
G01X2935730Y1830000D02*
Y1758330D01*
X2930400Y1743330D01*
X2919730Y1733330D01*
X2906400Y1730000D01*
X2893070Y1733330D01*
X2882400Y1743330D01*
X2877070Y1758330D01*
Y1830000D01*
G01X2851730Y1730000D02*
X2818400Y1830000D01*
X2785070Y1730000D01*
G01X2797070Y1765000D02*
X2839730D01*
G01X2757070Y1730000D02*
Y1830000D01*
X2723730D01*
X2713070Y1825000D01*
X2706400Y1818330D01*
X2703730Y1805000D01*
X2706400Y1791670D01*
X2714400Y1783330D01*
X2723730Y1778330D01*
X2757070D01*
G01X2723730D02*
X2703730Y1730000D01*
G01X2642400Y1830000D02*
Y1730000D01*
G01X2673070Y1830000D02*
X2611730D01*
G01X2554400D02*
X2565070Y1826670D01*
X2573070Y1818330D01*
X2578400Y1808330D01*
X2582400Y1795000D01*
X2583730Y1780000D01*
X2582400Y1765000D01*
X2578400Y1751670D01*
X2573070Y1741660D01*
X2565070Y1733330D01*
X2554400Y1730000D01*
X2543730Y1733330D01*
X2535730Y1741660D01*
X2530400Y1751670D01*
X2526400Y1765000D01*
X2525070Y1780000D01*
X2526400Y1795000D01*
X2530400Y1808330D01*
X2535730Y1818330D01*
X2543730Y1826670D01*
X2554400Y1830000D01*
G01X2466400Y1726670D02*
X2469070Y1728330D01*
Y1731670D01*
X2466400Y1733330D01*
X2463730Y1731670D01*
Y1728330D01*
X2466400Y1726670D01*
G01Y1771660D02*
X2469070Y1773330D01*
Y1776670D01*
X2466400Y1778330D01*
X2463730Y1776670D01*
Y1773330D01*
X2466400Y1771660D01*
G01X2405070Y1730000D02*
Y1830000D01*
X2373070D01*
X2362400Y1825000D01*
X2354400Y1813330D01*
X2351730Y1800000D01*
X2354400Y1786670D01*
X2361070Y1776670D01*
X2373070Y1771660D01*
X2405070D01*
G01X2319730Y1730000D02*
Y1830000D01*
X2293070D01*
X2282400Y1825000D01*
X2274400Y1818330D01*
X2267730Y1808330D01*
X2262400Y1796660D01*
X2261070Y1780000D01*
X2262400Y1763330D01*
X2267730Y1751670D01*
X2274400Y1741660D01*
X2282400Y1735000D01*
X2293070Y1730000D01*
X2319730D01*
G01X2202400Y1830000D02*
X2213070Y1826670D01*
X2221070Y1818330D01*
X2226400Y1808330D01*
X2230400Y1795000D01*
X2231730Y1780000D01*
X2230400Y1765000D01*
X2226400Y1751670D01*
X2221070Y1741660D01*
X2213070Y1733330D01*
X2202400Y1730000D01*
X2191730Y1733330D01*
X2183730Y1741660D01*
X2178400Y1751670D01*
X2174400Y1765000D01*
X2173070Y1780000D01*
X2174400Y1795000D01*
X2178400Y1808330D01*
X2183730Y1818330D01*
X2191730Y1826670D01*
X2202400Y1830000D01*
G01X2117070Y1711670D02*
X2111730Y1733330D01*
G01X2053070Y1730000D02*
Y1830000D01*
X2021070D01*
X2010400Y1825000D01*
X2002400Y1813330D01*
X1999730Y1800000D01*
X2002400Y1786670D01*
X2009070Y1776670D01*
X2021070Y1771660D01*
X2053070D01*
G01X1967730Y1730000D02*
Y1830000D01*
X1941070D01*
X1930400Y1825000D01*
X1922400Y1818330D01*
X1915730Y1808330D01*
X1910400Y1796660D01*
X1909070Y1780000D01*
X1910400Y1763330D01*
X1915730Y1751670D01*
X1922400Y1741660D01*
X1930400Y1735000D01*
X1941070Y1730000D01*
X1967730D01*
G01X1850400D02*
Y1830000D01*
X1866400Y1810000D01*
G01Y1730000D02*
X1834400D01*
G01X2935730Y1655000D02*
Y1583330D01*
X2930400Y1568330D01*
X2919730Y1558330D01*
X2906400Y1555000D01*
X2893070Y1558330D01*
X2882400Y1568330D01*
X2877070Y1583330D01*
Y1655000D01*
G01X2851730Y1555000D02*
X2818400Y1655000D01*
X2785070Y1555000D01*
G01X2797070Y1590000D02*
X2839730D01*
G01X2757070Y1555000D02*
Y1655000D01*
X2723730D01*
X2713070Y1650000D01*
X2706400Y1643330D01*
X2703730Y1630000D01*
X2706400Y1616670D01*
X2714400Y1608330D01*
X2723730Y1603330D01*
X2757070D01*
G01X2723730D02*
X2703730Y1555000D01*
G01X2642400Y1655000D02*
Y1555000D01*
G01X2673070Y1655000D02*
X2611730D01*
G01X2554400Y1555000D02*
Y1655000D01*
X2570400Y1635000D01*
G01Y1555000D02*
X2538400D01*
G01X2466400Y1551670D02*
X2469070Y1553330D01*
Y1556670D01*
X2466400Y1558330D01*
X2463730Y1556670D01*
Y1553330D01*
X2466400Y1551670D01*
G01Y1596660D02*
X2469070Y1598330D01*
Y1601670D01*
X2466400Y1603330D01*
X2463730Y1601670D01*
Y1598330D01*
X2466400Y1596660D01*
G01X2405070Y1555000D02*
Y1655000D01*
X2373070D01*
X2362400Y1650000D01*
X2354400Y1638330D01*
X2351730Y1625000D01*
X2354400Y1611670D01*
X2361070Y1601670D01*
X2373070Y1596660D01*
X2405070D01*
G01X2319730Y1555000D02*
Y1655000D01*
X2293070D01*
X2282400Y1650000D01*
X2274400Y1643330D01*
X2267730Y1633330D01*
X2262400Y1621660D01*
X2261070Y1605000D01*
X2262400Y1588330D01*
X2267730Y1576670D01*
X2274400Y1566660D01*
X2282400Y1560000D01*
X2293070Y1555000D01*
X2319730D01*
G01X2227730Y1638330D02*
X2219730Y1648330D01*
X2210400Y1653330D01*
X2199730Y1655000D01*
X2186400Y1651670D01*
X2177070Y1643330D01*
X2174400Y1633330D01*
X2175730Y1623330D01*
X2181070Y1615000D01*
X2207730Y1598330D01*
X2219730Y1586670D01*
X2227730Y1570000D01*
X2230400Y1555000D01*
X2174400D01*
G01X2117070Y1536670D02*
X2111730Y1558330D01*
G01X2053070Y1555000D02*
Y1655000D01*
X2021070D01*
X2010400Y1650000D01*
X2002400Y1638330D01*
X1999730Y1625000D01*
X2002400Y1611670D01*
X2009070Y1601670D01*
X2021070Y1596660D01*
X2053070D01*
G01X1967730Y1555000D02*
Y1655000D01*
X1941070D01*
X1930400Y1650000D01*
X1922400Y1643330D01*
X1915730Y1633330D01*
X1910400Y1621660D01*
X1909070Y1605000D01*
X1910400Y1588330D01*
X1915730Y1576670D01*
X1922400Y1566660D01*
X1930400Y1560000D01*
X1941070Y1555000D01*
X1967730D01*
G01X1879730Y1575000D02*
X1871730Y1563330D01*
X1861070Y1556670D01*
X1849070Y1555000D01*
X1838400Y1556670D01*
X1827730Y1565000D01*
X1821070Y1575000D01*
X1819730Y1585000D01*
X1822400Y1596660D01*
X1831730Y1605000D01*
X1841070Y1608330D01*
X1853070D01*
G01X1841070D02*
X1833070Y1613330D01*
X1826400Y1621660D01*
X1823730Y1631670D01*
X1826400Y1641670D01*
X1833070Y1650000D01*
X1845070Y1655000D01*
X1857070Y1653330D01*
X1869070Y1646670D01*
G01X1638930Y2450400D02*
X1630600Y2461070D01*
X1625600Y2473070D01*
Y2483730D01*
X1630600Y2494400D01*
X1638930Y2502400D01*
X1650600Y2506400D01*
X1662260Y2503730D01*
X1672270Y2497070D01*
X1678930Y2485070D01*
X1682270Y2469070D01*
X1688930Y2459730D01*
X1700600Y2455730D01*
X1712270Y2458400D01*
X1720600Y2465070D01*
X1725600Y2474400D01*
Y2483730D01*
X1722270Y2493070D01*
X1713930Y2501070D01*
G01X1625600Y2537070D02*
X1725600D01*
Y2563730D01*
X1720600Y2574400D01*
X1713930Y2582400D01*
X1703930Y2589070D01*
X1692260Y2594400D01*
X1675600Y2595730D01*
X1658930Y2594400D01*
X1647270Y2589070D01*
X1637260Y2582400D01*
X1630600Y2574400D01*
X1625600Y2563730D01*
Y2537070D01*
G01Y2621070D02*
X1725600Y2654400D01*
X1625600Y2687730D01*
G01X1660600Y2675730D02*
Y2633070D01*
G01X1892930Y2450400D02*
X1884600Y2461070D01*
X1879600Y2473070D01*
Y2483730D01*
X1884600Y2494400D01*
X1892930Y2502400D01*
X1904600Y2506400D01*
X1916260Y2503730D01*
X1926270Y2497070D01*
X1932930Y2485070D01*
X1936270Y2469070D01*
X1942930Y2459730D01*
X1954600Y2455730D01*
X1966270Y2458400D01*
X1974600Y2465070D01*
X1979600Y2474400D01*
Y2483730D01*
X1976270Y2493070D01*
X1967930Y2501070D01*
G01X1971270Y2595730D02*
X1976270Y2587730D01*
X1979600Y2578400D01*
Y2567730D01*
X1974600Y2555730D01*
X1966270Y2546400D01*
X1956270Y2539730D01*
X1939600Y2534400D01*
X1924600Y2533070D01*
X1909600Y2535730D01*
X1899600Y2539730D01*
X1889600Y2547730D01*
X1882930Y2557070D01*
X1879600Y2566400D01*
Y2575730D01*
X1882930Y2585070D01*
X1887930Y2593070D01*
X1894600Y2599730D01*
G01X1979600Y2627730D02*
X1879600D01*
Y2681070D01*
G01X2922400Y2005000D02*
X2890400D01*
G01X2906400D02*
Y1905000D01*
G01X2922400D02*
X2890400D01*
G01X2843730Y1988330D02*
X2835730Y1998330D01*
X2826400Y2003330D01*
X2815730Y2005000D01*
X2802400Y2001670D01*
X2793070Y1993330D01*
X2790400Y1983330D01*
X2791730Y1973330D01*
X2797070Y1965000D01*
X2823730Y1948330D01*
X2835730Y1936670D01*
X2843730Y1920000D01*
X2846400Y1905000D01*
X2790400D01*
G01X2701070Y1996670D02*
X2709070Y2001670D01*
X2718400Y2005000D01*
X2729070D01*
X2741070Y2000000D01*
X2750400Y1991670D01*
X2757070Y1981670D01*
X2762400Y1965000D01*
X2763730Y1950000D01*
X2761070Y1935000D01*
X2757070Y1925000D01*
X2749070Y1915000D01*
X2739730Y1908330D01*
X2730400Y1905000D01*
X2721070D01*
X2711730Y1908330D01*
X2703730Y1913330D01*
X2697070Y1920000D01*
G01X2642400Y1901670D02*
X2645070Y1903330D01*
Y1906670D01*
X2642400Y1908330D01*
X2639730Y1906670D01*
Y1903330D01*
X2642400Y1901670D01*
G01Y1946660D02*
X2645070Y1948330D01*
Y1951670D01*
X2642400Y1953330D01*
X2639730Y1951670D01*
Y1948330D01*
X2642400Y1946660D01*
G01X2581070Y1905000D02*
Y2005000D01*
X2549070D01*
X2538400Y2000000D01*
X2530400Y1988330D01*
X2527730Y1975000D01*
X2530400Y1961670D01*
X2537070Y1951670D01*
X2549070Y1946660D01*
X2581070D01*
G01X2437070Y1996670D02*
X2445070Y2001670D01*
X2454400Y2005000D01*
X2465070D01*
X2477070Y2000000D01*
X2486400Y1991670D01*
X2493070Y1981670D01*
X2498400Y1965000D01*
X2499730Y1950000D01*
X2497070Y1935000D01*
X2493070Y1925000D01*
X2485070Y1915000D01*
X2475730Y1908330D01*
X2466400Y1905000D01*
X2457070D01*
X2447730Y1908330D01*
X2439730Y1913330D01*
X2433070Y1920000D01*
G01X2378400Y2005000D02*
X2389070Y2001670D01*
X2397070Y1993330D01*
X2402400Y1983330D01*
X2406400Y1970000D01*
X2407730Y1955000D01*
X2406400Y1940000D01*
X2402400Y1926670D01*
X2397070Y1916660D01*
X2389070Y1908330D01*
X2378400Y1905000D01*
X2367730Y1908330D01*
X2359730Y1916660D01*
X2354400Y1926670D01*
X2350400Y1940000D01*
X2349070Y1955000D01*
X2350400Y1970000D01*
X2354400Y1983330D01*
X2359730Y1993330D01*
X2367730Y2001670D01*
X2378400Y2005000D01*
G01X2293070Y1886670D02*
X2287730Y1908330D01*
G01X2229070Y1905000D02*
Y2005000D01*
X2197070D01*
X2186400Y2000000D01*
X2178400Y1988330D01*
X2175730Y1975000D01*
X2178400Y1961670D01*
X2185070Y1951670D01*
X2197070Y1946660D01*
X2229070D01*
G01X2085070Y1996670D02*
X2093070Y2001670D01*
X2102400Y2005000D01*
X2113070D01*
X2125070Y2000000D01*
X2134400Y1991670D01*
X2141070Y1981670D01*
X2146400Y1965000D01*
X2147730Y1950000D01*
X2145070Y1935000D01*
X2141070Y1925000D01*
X2133070Y1915000D01*
X2123730Y1908330D01*
X2114400Y1905000D01*
X2105070D01*
X2095730Y1908330D01*
X2087730Y1913330D01*
X2081070Y1920000D01*
G01X2026400Y1905000D02*
Y2005000D01*
X2042400Y1985000D01*
G01Y1905000D02*
X2010400D01*
G01X2184400Y164470D02*
X2084400D01*
Y132470D01*
X2089400Y121800D01*
X2101070Y113800D01*
X2114400Y111130D01*
X2127730Y113800D01*
X2137730Y120470D01*
X2142740Y132470D01*
Y164470D01*
G01X2184400Y83130D02*
X2084400Y49800D01*
X2184400Y16470D01*
G01X2149400Y28470D02*
Y71130D01*
G01X2169400Y-8870D02*
X2177730Y-16870D01*
X2182730Y-26200D01*
X2184400Y-38200D01*
X2181070Y-50200D01*
X2174400Y-59530D01*
X2162730Y-66200D01*
X2149400Y-67530D01*
X2136070Y-64870D01*
X2127730Y-58200D01*
X2121070Y-48870D01*
X2119400Y-39530D01*
X2121070Y-30200D01*
X2127730Y-18200D01*
X2084400Y-22200D01*
Y-58200D01*
G01X2438400Y164470D02*
X2338400D01*
Y132470D01*
X2343400Y121800D01*
X2355070Y113800D01*
X2368400Y111130D01*
X2381730Y113800D01*
X2391730Y120470D01*
X2396740Y132470D01*
Y164470D01*
G01X2438400Y83130D02*
X2338400Y49800D01*
X2438400Y16470D01*
G01X2403400Y28470D02*
Y71130D01*
G01X2396740Y-12870D02*
X2385070Y-22200D01*
X2378400Y-30200D01*
X2375070Y-40870D01*
X2378400Y-50200D01*
X2385070Y-56870D01*
X2395070Y-62200D01*
X2406730Y-63530D01*
X2416730Y-62200D01*
X2426740Y-56870D01*
X2435070Y-48870D01*
X2438400Y-39530D01*
X2435070Y-28870D01*
X2425070Y-19530D01*
X2410070Y-14200D01*
X2393400Y-12870D01*
X2371740Y-15530D01*
X2360070Y-19530D01*
X2348400Y-26200D01*
X2340070Y-35530D01*
X2338400Y-44870D01*
X2341730Y-54200D01*
X2350070Y-60870D01*
G01X2692400Y164470D02*
X2592400D01*
Y132470D01*
X2597400Y121800D01*
X2609070Y113800D01*
X2622400Y111130D01*
X2635730Y113800D01*
X2645730Y120470D01*
X2650740Y132470D01*
Y164470D01*
G01X2692400Y83130D02*
X2592400Y49800D01*
X2692400Y16470D01*
G01X2657400Y28470D02*
Y71130D01*
G01X2692400Y-35530D02*
X2670730Y-38200D01*
X2652400Y-42200D01*
X2635730Y-47530D01*
X2617400Y-54200D01*
X2592400Y-64870D01*
Y-11530D01*
G01X2184400Y850270D02*
X2084400D01*
Y818270D01*
X2089400Y807600D01*
X2101070Y799600D01*
X2114400Y796930D01*
X2127730Y799600D01*
X2137730Y806270D01*
X2142740Y818270D01*
Y850270D01*
G01X2131070Y724930D02*
X2126070Y719600D01*
X2117740Y715600D01*
X2106070Y712930D01*
X2096070Y715600D01*
X2089400Y720930D01*
X2084400Y730270D01*
Y766270D01*
X2184400D01*
Y722270D01*
X2177730Y712930D01*
X2167730Y707600D01*
X2156070Y704930D01*
X2144400Y707600D01*
X2134400Y715600D01*
X2131070Y724930D01*
Y766270D01*
G01X2169400Y676930D02*
X2177730Y668930D01*
X2182730Y659600D01*
X2184400Y647600D01*
X2181070Y635600D01*
X2174400Y626270D01*
X2162730Y619600D01*
X2149400Y618270D01*
X2136070Y620930D01*
X2127730Y627600D01*
X2121070Y636930D01*
X2119400Y646270D01*
X2121070Y655600D01*
X2127730Y667600D01*
X2084400Y663600D01*
Y627600D01*
G01X2413000Y850270D02*
X2313000D01*
Y818270D01*
X2318000Y807600D01*
X2329670Y799600D01*
X2343000Y796930D01*
X2356330Y799600D01*
X2366330Y806270D01*
X2371340Y818270D01*
Y850270D01*
G01X2359670Y724930D02*
X2354670Y719600D01*
X2346340Y715600D01*
X2334670Y712930D01*
X2324670Y715600D01*
X2318000Y720930D01*
X2313000Y730270D01*
Y766270D01*
X2413000D01*
Y722270D01*
X2406330Y712930D01*
X2396330Y707600D01*
X2384670Y704930D01*
X2373000Y707600D01*
X2363000Y715600D01*
X2359670Y724930D01*
Y766270D01*
G01X2371340Y672930D02*
X2359670Y663600D01*
X2353000Y655600D01*
X2349670Y644930D01*
X2353000Y635600D01*
X2359670Y628930D01*
X2369670Y623600D01*
X2381330Y622270D01*
X2391330Y623600D01*
X2401340Y628930D01*
X2409670Y636930D01*
X2413000Y646270D01*
X2409670Y656930D01*
X2399670Y666270D01*
X2384670Y671600D01*
X2368000Y672930D01*
X2346340Y670270D01*
X2334670Y666270D01*
X2323000Y659600D01*
X2314670Y650270D01*
X2313000Y640930D01*
X2316330Y631600D01*
X2324670Y624930D01*
G01X2692400Y850270D02*
X2592400D01*
Y818270D01*
X2597400Y807600D01*
X2609070Y799600D01*
X2622400Y796930D01*
X2635730Y799600D01*
X2645730Y806270D01*
X2650740Y818270D01*
Y850270D01*
G01X2639070Y724930D02*
X2634070Y719600D01*
X2625740Y715600D01*
X2614070Y712930D01*
X2604070Y715600D01*
X2597400Y720930D01*
X2592400Y730270D01*
Y766270D01*
X2692400D01*
Y722270D01*
X2685730Y712930D01*
X2675730Y707600D01*
X2664070Y704930D01*
X2652400Y707600D01*
X2642400Y715600D01*
X2639070Y724930D01*
Y766270D01*
G01X2692400Y650270D02*
X2670730Y647600D01*
X2652400Y643600D01*
X2635730Y638270D01*
X2617400Y631600D01*
X2592400Y620930D01*
Y674270D01*
G01X2946400Y164470D02*
X2846400D01*
Y132470D01*
X2851400Y121800D01*
X2863070Y113800D01*
X2876400Y111130D01*
X2889730Y113800D01*
X2899730Y120470D01*
X2904740Y132470D01*
Y164470D01*
G01X2854730Y20470D02*
X2849730Y28470D01*
X2846400Y37800D01*
Y48470D01*
X2851400Y60470D01*
X2859730Y69800D01*
X2869730Y76470D01*
X2886400Y81800D01*
X2901400Y83130D01*
X2916400Y80470D01*
X2926400Y76470D01*
X2936400Y68470D01*
X2943070Y59130D01*
X2946400Y49800D01*
Y40470D01*
X2943070Y31130D01*
X2938070Y23130D01*
X2931400Y16470D01*
G01X2846400Y-38200D02*
X2849730Y-27530D01*
X2858070Y-19530D01*
X2868070Y-14200D01*
X2881400Y-10200D01*
X2896400Y-8870D01*
X2911400Y-10200D01*
X2924730Y-14200D01*
X2934740Y-19530D01*
X2943070Y-27530D01*
X2946400Y-38200D01*
X2943070Y-48870D01*
X2934740Y-56870D01*
X2924730Y-62200D01*
X2911400Y-66200D01*
X2896400Y-67530D01*
X2881400Y-66200D01*
X2868070Y-62200D01*
X2858070Y-56870D01*
X2849730Y-48870D01*
X2846400Y-38200D01*
G01X3200400Y164470D02*
X3100400D01*
Y132470D01*
X3105400Y121800D01*
X3117070Y113800D01*
X3130400Y111130D01*
X3143730Y113800D01*
X3153730Y120470D01*
X3158740Y132470D01*
Y164470D01*
G01X3108730Y20470D02*
X3103730Y28470D01*
X3100400Y37800D01*
Y48470D01*
X3105400Y60470D01*
X3113730Y69800D01*
X3123730Y76470D01*
X3140400Y81800D01*
X3155400Y83130D01*
X3170400Y80470D01*
X3180400Y76470D01*
X3190400Y68470D01*
X3197070Y59130D01*
X3200400Y49800D01*
Y40470D01*
X3197070Y31130D01*
X3192070Y23130D01*
X3185400Y16470D01*
G01X3200400Y-38200D02*
X3100400D01*
X3120400Y-22200D01*
G01X3200400D02*
Y-54200D01*
G01X3454400Y164470D02*
X3354400D01*
Y132470D01*
X3359400Y121800D01*
X3371070Y113800D01*
X3384400Y111130D01*
X3397730Y113800D01*
X3407730Y120470D01*
X3412740Y132470D01*
Y164470D01*
G01X3362730Y20470D02*
X3357730Y28470D01*
X3354400Y37800D01*
Y48470D01*
X3359400Y60470D01*
X3367730Y69800D01*
X3377730Y76470D01*
X3394400Y81800D01*
X3409400Y83130D01*
X3424400Y80470D01*
X3434400Y76470D01*
X3444400Y68470D01*
X3451070Y59130D01*
X3454400Y49800D01*
Y40470D01*
X3451070Y31130D01*
X3446070Y23130D01*
X3439400Y16470D01*
G01X3371070Y-12870D02*
X3361070Y-20870D01*
X3356070Y-30200D01*
X3354400Y-40870D01*
X3357730Y-54200D01*
X3366070Y-63530D01*
X3376070Y-66200D01*
X3386070Y-64870D01*
X3394400Y-59530D01*
X3411070Y-32870D01*
X3422730Y-20870D01*
X3439400Y-12870D01*
X3454400Y-10200D01*
Y-66200D01*
G01Y850270D02*
X3354400D01*
Y818270D01*
X3359400Y807600D01*
X3371070Y799600D01*
X3384400Y796930D01*
X3397730Y799600D01*
X3407730Y806270D01*
X3412740Y818270D01*
Y850270D01*
G01X3454400Y764930D02*
X3354400D01*
Y738270D01*
X3359400Y727600D01*
X3366070Y719600D01*
X3376070Y712930D01*
X3387740Y707600D01*
X3404400Y706270D01*
X3421070Y707600D01*
X3432730Y712930D01*
X3442740Y719600D01*
X3449400Y727600D01*
X3454400Y738270D01*
Y764930D01*
G01X3371070Y672930D02*
X3361070Y664930D01*
X3356070Y655600D01*
X3354400Y644930D01*
X3357730Y631600D01*
X3366070Y622270D01*
X3376070Y619600D01*
X3386070Y620930D01*
X3394400Y626270D01*
X3411070Y652930D01*
X3422730Y664930D01*
X3439400Y672930D01*
X3454400Y675600D01*
Y619600D01*
G01X3073400Y1358270D02*
X2973400D01*
Y1326270D01*
X2978400Y1315600D01*
X2990070Y1307600D01*
X3003400Y1304930D01*
X3016730Y1307600D01*
X3026730Y1314270D01*
X3031740Y1326270D01*
Y1358270D01*
G01X3073400Y1272930D02*
X2973400D01*
Y1246270D01*
X2978400Y1235600D01*
X2985070Y1227600D01*
X2995070Y1220930D01*
X3006740Y1215600D01*
X3023400Y1214270D01*
X3040070Y1215600D01*
X3051730Y1220930D01*
X3061740Y1227600D01*
X3068400Y1235600D01*
X3073400Y1246270D01*
Y1272930D01*
G01X2973400Y1155600D02*
X2976730Y1166270D01*
X2985070Y1174270D01*
X2995070Y1179600D01*
X3008400Y1183600D01*
X3023400Y1184930D01*
X3038400Y1183600D01*
X3051730Y1179600D01*
X3061740Y1174270D01*
X3070070Y1166270D01*
X3073400Y1155600D01*
X3070070Y1144930D01*
X3061740Y1136930D01*
X3051730Y1131600D01*
X3038400Y1127600D01*
X3023400Y1126270D01*
X3008400Y1127600D01*
X2995070Y1131600D01*
X2985070Y1136930D01*
X2976730Y1144930D01*
X2973400Y1155600D01*
G01X3251200Y1358270D02*
X3151200D01*
Y1326270D01*
X3156200Y1315600D01*
X3167870Y1307600D01*
X3181200Y1304930D01*
X3194530Y1307600D01*
X3204530Y1314270D01*
X3209540Y1326270D01*
Y1358270D01*
G01X3251200Y1272930D02*
X3151200D01*
Y1246270D01*
X3156200Y1235600D01*
X3162870Y1227600D01*
X3172870Y1220930D01*
X3184540Y1215600D01*
X3201200Y1214270D01*
X3217870Y1215600D01*
X3229530Y1220930D01*
X3239540Y1227600D01*
X3246200Y1235600D01*
X3251200Y1246270D01*
Y1272930D01*
G01Y1155600D02*
X3151200D01*
X3171200Y1171600D01*
G01X3251200D02*
Y1139600D01*
G01X3769930Y1574800D02*
Y1674800D01*
X3719270D01*
G01X3737930Y1626470D02*
X3769930D01*
G01X3656600Y1674800D02*
Y1574800D01*
G01X3687270Y1674800D02*
X3625930D01*
G01X3597930Y1574800D02*
Y1674800D01*
X3571270D01*
X3560600Y1669800D01*
X3552600Y1663130D01*
X3545930Y1653130D01*
X3540600Y1641460D01*
X3539270Y1624800D01*
X3540600Y1608130D01*
X3545930Y1596470D01*
X3552600Y1586460D01*
X3560600Y1579800D01*
X3571270Y1574800D01*
X3597930D01*
G01X3496600Y1674800D02*
X3464600D01*
G01X3480600D02*
Y1574800D01*
G01X3496600D02*
X3464600D01*
G01X3708400Y164470D02*
X3608400D01*
Y132470D01*
X3613400Y121800D01*
X3625070Y113800D01*
X3638400Y111130D01*
X3651730Y113800D01*
X3661730Y120470D01*
X3666740Y132470D01*
Y164470D01*
G01X3616730Y20470D02*
X3611730Y28470D01*
X3608400Y37800D01*
Y48470D01*
X3613400Y60470D01*
X3621730Y69800D01*
X3631730Y76470D01*
X3648400Y81800D01*
X3663400Y83130D01*
X3678400Y80470D01*
X3688400Y76470D01*
X3698400Y68470D01*
X3705070Y59130D01*
X3708400Y49800D01*
Y40470D01*
X3705070Y31130D01*
X3700070Y23130D01*
X3693400Y16470D01*
G01X3688400Y-8870D02*
X3700070Y-16870D01*
X3706730Y-27530D01*
X3708400Y-39530D01*
X3706730Y-50200D01*
X3698400Y-60870D01*
X3688400Y-67530D01*
X3678400Y-68870D01*
X3666740Y-66200D01*
X3658400Y-56870D01*
X3655070Y-47530D01*
Y-35530D01*
G01Y-47530D02*
X3650070Y-55530D01*
X3641740Y-62200D01*
X3631730Y-64870D01*
X3621730Y-62200D01*
X3613400Y-55530D01*
X3608400Y-43530D01*
X3610070Y-31530D01*
X3616730Y-19530D01*
G01X3962400Y164470D02*
X3862400D01*
Y132470D01*
X3867400Y121800D01*
X3879070Y113800D01*
X3892400Y111130D01*
X3905730Y113800D01*
X3915730Y120470D01*
X3920740Y132470D01*
Y164470D01*
G01X3870730Y20470D02*
X3865730Y28470D01*
X3862400Y37800D01*
Y48470D01*
X3867400Y60470D01*
X3875730Y69800D01*
X3885730Y76470D01*
X3902400Y81800D01*
X3917400Y83130D01*
X3932400Y80470D01*
X3942400Y76470D01*
X3952400Y68470D01*
X3959070Y59130D01*
X3962400Y49800D01*
Y40470D01*
X3959070Y31130D01*
X3954070Y23130D01*
X3947400Y16470D01*
G01X3962400Y-54200D02*
X3862400D01*
X3934070Y-4870D01*
Y-71530D01*
G01X4216400Y164470D02*
X4116400D01*
Y132470D01*
X4121400Y121800D01*
X4133070Y113800D01*
X4146400Y111130D01*
X4159730Y113800D01*
X4169730Y120470D01*
X4174740Y132470D01*
Y164470D01*
G01X4124730Y20470D02*
X4119730Y28470D01*
X4116400Y37800D01*
Y48470D01*
X4121400Y60470D01*
X4129730Y69800D01*
X4139730Y76470D01*
X4156400Y81800D01*
X4171400Y83130D01*
X4186400Y80470D01*
X4196400Y76470D01*
X4206400Y68470D01*
X4213070Y59130D01*
X4216400Y49800D01*
Y40470D01*
X4213070Y31130D01*
X4208070Y23130D01*
X4201400Y16470D01*
G01Y-8870D02*
X4209730Y-16870D01*
X4214730Y-26200D01*
X4216400Y-38200D01*
X4213070Y-50200D01*
X4206400Y-59530D01*
X4194730Y-66200D01*
X4181400Y-67530D01*
X4168070Y-64870D01*
X4159730Y-58200D01*
X4153070Y-48870D01*
X4151400Y-39530D01*
X4153070Y-30200D01*
X4159730Y-18200D01*
X4116400Y-22200D01*
Y-58200D01*
G01X3708400Y850270D02*
X3608400D01*
Y818270D01*
X3613400Y807600D01*
X3625070Y799600D01*
X3638400Y796930D01*
X3651730Y799600D01*
X3661730Y806270D01*
X3666740Y818270D01*
Y850270D01*
G01X3708400Y764930D02*
X3608400D01*
Y738270D01*
X3613400Y727600D01*
X3620070Y719600D01*
X3630070Y712930D01*
X3641740Y707600D01*
X3658400Y706270D01*
X3675070Y707600D01*
X3686730Y712930D01*
X3696740Y719600D01*
X3703400Y727600D01*
X3708400Y738270D01*
Y764930D01*
G01X3688400Y676930D02*
X3700070Y668930D01*
X3706730Y658270D01*
X3708400Y646270D01*
X3706730Y635600D01*
X3698400Y624930D01*
X3688400Y618270D01*
X3678400Y616930D01*
X3666740Y619600D01*
X3658400Y628930D01*
X3655070Y638270D01*
Y650270D01*
G01Y638270D02*
X3650070Y630270D01*
X3641740Y623600D01*
X3631730Y620930D01*
X3621730Y623600D01*
X3613400Y630270D01*
X3608400Y642270D01*
X3610070Y654270D01*
X3616730Y666270D01*
G01X3937000Y850270D02*
X3837000D01*
Y818270D01*
X3842000Y807600D01*
X3853670Y799600D01*
X3867000Y796930D01*
X3880330Y799600D01*
X3890330Y806270D01*
X3895340Y818270D01*
Y850270D01*
G01X3937000Y764930D02*
X3837000D01*
Y738270D01*
X3842000Y727600D01*
X3848670Y719600D01*
X3858670Y712930D01*
X3870340Y707600D01*
X3887000Y706270D01*
X3903670Y707600D01*
X3915330Y712930D01*
X3925340Y719600D01*
X3932000Y727600D01*
X3937000Y738270D01*
Y764930D01*
G01Y631600D02*
X3837000D01*
X3908670Y680930D01*
Y614270D01*
G01X4191000Y850270D02*
X4091000D01*
Y818270D01*
X4096000Y807600D01*
X4107670Y799600D01*
X4121000Y796930D01*
X4134330Y799600D01*
X4144330Y806270D01*
X4149340Y818270D01*
Y850270D01*
G01X4191000Y764930D02*
X4091000D01*
Y738270D01*
X4096000Y727600D01*
X4102670Y719600D01*
X4112670Y712930D01*
X4124340Y707600D01*
X4141000Y706270D01*
X4157670Y707600D01*
X4169330Y712930D01*
X4179340Y719600D01*
X4186000Y727600D01*
X4191000Y738270D01*
Y764930D01*
G01X4176000Y676930D02*
X4184330Y668930D01*
X4189330Y659600D01*
X4191000Y647600D01*
X4187670Y635600D01*
X4181000Y626270D01*
X4169330Y619600D01*
X4156000Y618270D01*
X4142670Y620930D01*
X4134330Y627600D01*
X4127670Y636930D01*
X4126000Y646270D01*
X4127670Y655600D01*
X4134330Y667600D01*
X4091000Y663600D01*
Y627600D01*
G01X4394200Y1360930D02*
X4294200D01*
Y1334270D01*
X4299200Y1323600D01*
X4305870Y1315600D01*
X4315870Y1308930D01*
X4327540Y1303600D01*
X4344200Y1302270D01*
X4360870Y1303600D01*
X4372530Y1308930D01*
X4382540Y1315600D01*
X4389200Y1323600D01*
X4394200Y1334270D01*
Y1360930D01*
G01X4294200Y1243600D02*
X4394200D01*
G01X4294200Y1274270D02*
Y1212930D01*
G01X4394200Y1182270D02*
X4294200D01*
Y1148930D01*
X4299200Y1138270D01*
X4305870Y1131600D01*
X4319200Y1128930D01*
X4332530Y1131600D01*
X4340870Y1139600D01*
X4345870Y1148930D01*
Y1182270D01*
G01Y1148930D02*
X4394200Y1128930D01*
G01X4082730Y2463800D02*
X4049400Y2563800D01*
X4016070Y2463800D01*
G01X4028070Y2498800D02*
X4070730D01*
G01X3988070Y2463800D02*
Y2563800D01*
X3954730D01*
X3944070Y2558800D01*
X3937400Y2552130D01*
X3934730Y2538800D01*
X3937400Y2525470D01*
X3945400Y2517130D01*
X3954730Y2512130D01*
X3988070D01*
G01X3954730D02*
X3934730Y2463800D01*
G01X3846730D02*
X3900070D01*
Y2563800D01*
X3846730D01*
G01X3868070Y2515470D02*
X3900070D01*
G01X3810730Y2463800D02*
Y2563800D01*
X3760070D01*
G01X3778730Y2515470D02*
X3810730D01*
G01X4371600Y2513800D02*
X4344930D01*
Y2483800D01*
X4352930Y2473800D01*
X4362270Y2467130D01*
X4375600Y2463800D01*
X4388930Y2467130D01*
X4398270Y2473800D01*
X4406270Y2483800D01*
X4411600Y2495470D01*
X4414270Y2508800D01*
Y2520470D01*
X4411600Y2530460D01*
X4406270Y2542130D01*
X4398270Y2552130D01*
X4390270Y2558800D01*
X4379600Y2563800D01*
X4370270D01*
X4359600Y2560470D01*
X4351600Y2553800D01*
G01X4322270Y2463800D02*
Y2563800D01*
X4260930Y2463800D01*
Y2563800D01*
G01X4232930Y2463800D02*
Y2563800D01*
X4206270D01*
X4195600Y2558800D01*
X4187600Y2552130D01*
X4180930Y2542130D01*
X4175600Y2530460D01*
X4174270Y2513800D01*
X4175600Y2497130D01*
X4180930Y2485470D01*
X4187600Y2475460D01*
X4195600Y2468800D01*
X4206270Y2463800D01*
X4232930D01*
G01X4470400Y164470D02*
X4370400D01*
Y132470D01*
X4375400Y121800D01*
X4387070Y113800D01*
X4400400Y111130D01*
X4413730Y113800D01*
X4423730Y120470D01*
X4428740Y132470D01*
Y164470D01*
G01X4378730Y20470D02*
X4373730Y28470D01*
X4370400Y37800D01*
Y48470D01*
X4375400Y60470D01*
X4383730Y69800D01*
X4393730Y76470D01*
X4410400Y81800D01*
X4425400Y83130D01*
X4440400Y80470D01*
X4450400Y76470D01*
X4460400Y68470D01*
X4467070Y59130D01*
X4470400Y49800D01*
Y40470D01*
X4467070Y31130D01*
X4462070Y23130D01*
X4455400Y16470D01*
G01X4428740Y-12870D02*
X4417070Y-22200D01*
X4410400Y-30200D01*
X4407070Y-40870D01*
X4410400Y-50200D01*
X4417070Y-56870D01*
X4427070Y-62200D01*
X4438730Y-63530D01*
X4448730Y-62200D01*
X4458740Y-56870D01*
X4467070Y-48870D01*
X4470400Y-39530D01*
X4467070Y-28870D01*
X4457070Y-19530D01*
X4442070Y-14200D01*
X4425400Y-12870D01*
X4403740Y-15530D01*
X4392070Y-19530D01*
X4380400Y-26200D01*
X4372070Y-35530D01*
X4370400Y-44870D01*
X4373730Y-54200D01*
X4382070Y-60870D01*
G01X4724400Y164470D02*
X4624400D01*
Y132470D01*
X4629400Y121800D01*
X4641070Y113800D01*
X4654400Y111130D01*
X4667730Y113800D01*
X4677730Y120470D01*
X4682740Y132470D01*
Y164470D01*
G01X4632730Y20470D02*
X4627730Y28470D01*
X4624400Y37800D01*
Y48470D01*
X4629400Y60470D01*
X4637730Y69800D01*
X4647730Y76470D01*
X4664400Y81800D01*
X4679400Y83130D01*
X4694400Y80470D01*
X4704400Y76470D01*
X4714400Y68470D01*
X4721070Y59130D01*
X4724400Y49800D01*
Y40470D01*
X4721070Y31130D01*
X4716070Y23130D01*
X4709400Y16470D01*
G01X4724400Y-35530D02*
X4702730Y-38200D01*
X4684400Y-42200D01*
X4667730Y-47530D01*
X4649400Y-54200D01*
X4624400Y-64870D01*
Y-11530D01*
G01X4470400Y850270D02*
X4370400D01*
Y818270D01*
X4375400Y807600D01*
X4387070Y799600D01*
X4400400Y796930D01*
X4413730Y799600D01*
X4423730Y806270D01*
X4428740Y818270D01*
Y850270D01*
G01X4470400Y764930D02*
X4370400D01*
Y738270D01*
X4375400Y727600D01*
X4382070Y719600D01*
X4392070Y712930D01*
X4403740Y707600D01*
X4420400Y706270D01*
X4437070Y707600D01*
X4448730Y712930D01*
X4458740Y719600D01*
X4465400Y727600D01*
X4470400Y738270D01*
Y764930D01*
G01X4428740Y672930D02*
X4417070Y663600D01*
X4410400Y655600D01*
X4407070Y644930D01*
X4410400Y635600D01*
X4417070Y628930D01*
X4427070Y623600D01*
X4438730Y622270D01*
X4448730Y623600D01*
X4458740Y628930D01*
X4467070Y636930D01*
X4470400Y646270D01*
X4467070Y656930D01*
X4457070Y666270D01*
X4442070Y671600D01*
X4425400Y672930D01*
X4403740Y670270D01*
X4392070Y666270D01*
X4380400Y659600D01*
X4372070Y650270D01*
X4370400Y640930D01*
X4373730Y631600D01*
X4382070Y624930D01*
G01X4724400Y850270D02*
X4624400D01*
Y818270D01*
X4629400Y807600D01*
X4641070Y799600D01*
X4654400Y796930D01*
X4667730Y799600D01*
X4677730Y806270D01*
X4682740Y818270D01*
Y850270D01*
G01X4724400Y764930D02*
X4624400D01*
Y738270D01*
X4629400Y727600D01*
X4636070Y719600D01*
X4646070Y712930D01*
X4657740Y707600D01*
X4674400Y706270D01*
X4691070Y707600D01*
X4702730Y712930D01*
X4712740Y719600D01*
X4719400Y727600D01*
X4724400Y738270D01*
Y764930D01*
G01Y650270D02*
X4702730Y647600D01*
X4684400Y643600D01*
X4667730Y638270D01*
X4649400Y631600D01*
X4624400Y620930D01*
Y674270D01*
G54D11*
G01X3048000Y1092200D02*
Y736600D01*
X2921000Y609600D01*
G01X3225800Y1117600D02*
Y660400D01*
X3149600Y584200D01*
G01X2946400Y1447800D02*
X4394200D01*
G01X3937000Y2692400D02*
Y2616200D01*
G01X4191000Y2692400D02*
Y2616200D01*
G01X4572000Y1193800D02*
X4419600D01*
G54D12*
G01X1532740Y1696200D02*
X1449400Y1346200D01*
X1366060Y1696200D01*
G01X1162730Y1346200D02*
X1296070D01*
Y1696200D01*
X1162730D01*
G01X1216070Y1527040D02*
X1296070D01*
G01X1076070Y1346200D02*
Y1696200D01*
X992730D01*
X966070Y1678690D01*
X949400Y1655360D01*
X942730Y1608700D01*
X949400Y1562030D01*
X969400Y1532870D01*
X992730Y1515360D01*
X1076070D01*
G01X992730D02*
X942730Y1346200D01*
G01X789400Y1334540D02*
X796070Y1340370D01*
Y1352030D01*
X789400Y1357860D01*
X782730Y1352030D01*
Y1340370D01*
X789400Y1334540D01*
G01Y1492020D02*
X796070Y1497870D01*
Y1509530D01*
X789400Y1515360D01*
X782730Y1509530D01*
Y1497870D01*
X789400Y1492020D01*
G01X569400Y1696200D02*
X596070Y1684540D01*
X616070Y1655360D01*
X629400Y1620370D01*
X639400Y1573690D01*
X642730Y1521190D01*
X639400Y1468700D01*
X629400Y1422030D01*
X616070Y1387020D01*
X596070Y1357860D01*
X569400Y1346200D01*
X542740Y1357860D01*
X522730Y1387020D01*
X509400Y1422030D01*
X499400Y1468700D01*
X496070Y1521190D01*
X499400Y1573690D01*
X509400Y1620370D01*
X522730Y1655360D01*
X542740Y1684540D01*
X569400Y1696200D01*
G01X349400Y1346200D02*
Y1696200D01*
X389400Y1626200D01*
G01Y1346200D02*
X309410D01*
G01X212740D02*
X129400Y1696200D01*
X46060Y1346200D01*
G01X76070Y1468700D02*
X182740D01*
M02*
