G75*
%MOMM*%
%OFA0B0*%
%FSLAX33Y33*%
%IPPOS*%
%LPD*%
%AMOC8*
5,1,8,0,0,1.08239X$1,22.5*
%
%ADD10C,0.076*%
%ADD11C,0.305*%
%ADD12C,0.406*%
%ADD13C,0.203*%
%ADD14R,0.864X0.762*%
%ADD15C,0.178*%
D10*
X11492Y53881D02*
X12433Y53881D01*
X12433Y53568D02*
X12433Y54195D01*
X12433Y54503D02*
X11492Y55130D01*
X11492Y54503D02*
X12433Y55130D01*
X14032Y53568D02*
X14973Y53568D01*
X14973Y54038D01*
X14816Y54195D01*
X14503Y54195D01*
X14346Y54038D01*
X14346Y53568D01*
X14346Y53881D02*
X14032Y54195D01*
X14032Y55130D02*
X14973Y54503D01*
X14973Y55130D02*
X14032Y54503D01*
X17356Y50453D02*
X17513Y50296D01*
X17513Y49982D01*
X17356Y49826D01*
X17199Y49826D01*
X17043Y49982D01*
X17043Y50296D01*
X16886Y50453D01*
X16729Y50453D01*
X16572Y50296D01*
X16572Y49982D01*
X16729Y49826D01*
X17356Y51388D02*
X17513Y51231D01*
X17513Y50918D01*
X17356Y50761D01*
X16729Y50761D01*
X16572Y50918D01*
X16572Y51231D01*
X16729Y51388D01*
X17513Y51697D02*
X16572Y51697D01*
X16572Y52324D01*
X16572Y52632D02*
X17513Y53259D01*
X17513Y53724D02*
X16572Y53724D01*
X16572Y54038D02*
X17513Y54038D01*
X17199Y53568D02*
X17199Y54038D01*
X17199Y54195D01*
X16886Y54195D02*
X16886Y53568D01*
X17513Y55130D02*
X17513Y54503D01*
X17043Y54503D01*
X17199Y54817D01*
X17199Y54973D01*
X17043Y55130D01*
X16729Y55130D01*
X16572Y54973D01*
X16572Y54660D01*
X16729Y54503D01*
X19896Y50453D02*
X20053Y50296D01*
X20053Y49982D01*
X19896Y49826D01*
X19739Y49826D01*
X19583Y49982D01*
X19583Y50296D01*
X19426Y50453D01*
X19269Y50453D01*
X19112Y50296D01*
X19112Y49982D01*
X19269Y49826D01*
X20053Y50761D02*
X19112Y50761D01*
X19112Y51231D01*
X19269Y51388D01*
X19896Y51388D01*
X20053Y51231D01*
X20053Y50761D01*
X19112Y51697D02*
X19739Y51697D01*
X20053Y52010D01*
X19739Y52324D01*
X19112Y52324D01*
X19583Y52324D02*
X19583Y51697D01*
X19112Y52632D02*
X20053Y53259D01*
X20053Y53724D02*
X19112Y53724D01*
X19112Y54038D02*
X20053Y54038D01*
X19739Y53568D02*
X19739Y54038D01*
X19739Y54195D01*
X19426Y54195D02*
X19426Y53568D01*
X19112Y54973D02*
X20053Y54973D01*
X19583Y54503D01*
X19583Y55130D01*
X21652Y53724D02*
X22593Y53724D01*
X22593Y54038D02*
X21652Y54038D01*
X22279Y53568D02*
X22279Y54038D01*
X22279Y54195D01*
X21966Y54195D02*
X21966Y53568D01*
X21809Y54503D02*
X22436Y54503D01*
X22593Y54660D01*
X22593Y54973D01*
X22436Y55130D01*
X21809Y55130D01*
X21652Y54973D01*
X21652Y54660D01*
X21809Y54503D01*
X22436Y55130D01*
X24192Y53724D02*
X25133Y53724D01*
X25133Y54038D02*
X24192Y54038D01*
X24819Y53568D02*
X24819Y54038D01*
X24819Y54195D01*
X24506Y54195D02*
X24506Y53568D01*
X24192Y55130D02*
X24192Y54503D01*
X24819Y55130D01*
X24976Y55130D01*
X25133Y54973D01*
X25133Y54660D01*
X24976Y54503D01*
X26732Y52789D02*
X27673Y52789D01*
X27673Y53102D02*
X26732Y53102D01*
X27359Y52632D02*
X27359Y53102D01*
X27359Y53259D01*
X27046Y53259D02*
X27046Y52632D01*
X27359Y53568D02*
X27673Y53881D01*
X26732Y53881D01*
X26732Y53568D02*
X26732Y54195D01*
X27673Y55130D02*
X27673Y54503D01*
X27203Y54503D01*
X27359Y54817D01*
X27359Y54973D01*
X27203Y55130D01*
X26889Y55130D01*
X26732Y54973D01*
X26732Y54660D01*
X26889Y54503D01*
X30056Y51697D02*
X30213Y51853D01*
X30213Y52167D01*
X30056Y52324D01*
X29899Y52324D01*
X29743Y52167D01*
X29743Y52010D01*
X29743Y52167D02*
X29586Y52324D01*
X29429Y52324D01*
X29272Y52167D01*
X29272Y51853D01*
X29429Y51697D01*
X29272Y52632D02*
X30213Y52632D01*
X30213Y53102D01*
X30056Y53259D01*
X29743Y53259D01*
X29586Y53102D01*
X29586Y52632D01*
X30056Y53568D02*
X30213Y53724D01*
X30213Y54038D01*
X30056Y54195D01*
X29899Y54195D01*
X29743Y54038D01*
X29743Y53881D01*
X29743Y54038D02*
X29586Y54195D01*
X29429Y54195D01*
X29272Y54038D01*
X29272Y53724D01*
X29429Y53568D01*
X30213Y54503D02*
X29586Y54503D01*
X29272Y54817D01*
X29586Y55130D01*
X30213Y55130D01*
X32753Y52632D02*
X31812Y52632D01*
X31812Y53259D01*
X32753Y53568D02*
X31812Y53568D01*
X31812Y54038D01*
X31969Y54195D01*
X32596Y54195D01*
X32753Y54038D01*
X32753Y53568D01*
X32753Y54973D02*
X32753Y54660D01*
X32596Y54503D01*
X31969Y54503D01*
X31812Y54660D01*
X31812Y54973D01*
X31969Y55130D01*
X32596Y55130D01*
X32753Y54973D01*
X35136Y53259D02*
X35293Y53102D01*
X35293Y52789D01*
X35136Y52632D01*
X34509Y52632D01*
X34352Y52789D01*
X34352Y53102D01*
X34509Y53259D01*
X34823Y53259D01*
X34823Y52946D01*
X34352Y53568D02*
X35293Y53568D01*
X34352Y54195D01*
X35293Y54195D01*
X35293Y54503D02*
X34352Y54503D01*
X34352Y54973D01*
X34509Y55130D01*
X35136Y55130D01*
X35293Y54973D01*
X35293Y54503D01*
X12508Y35119D02*
X13449Y35119D01*
X13449Y35589D01*
X13292Y35746D01*
X12979Y35746D01*
X12822Y35589D01*
X12822Y35119D01*
X12822Y35432D02*
X12508Y35746D01*
X13449Y36681D02*
X13449Y36054D01*
X12508Y36054D01*
X12508Y36681D01*
X12979Y36368D02*
X12979Y36054D01*
X12508Y37303D02*
X13449Y37303D01*
X13449Y36990D02*
X13449Y37617D01*
X15048Y35119D02*
X15675Y35119D01*
X15989Y35432D01*
X15675Y35746D01*
X15048Y35746D01*
X15519Y35746D02*
X15519Y35119D01*
X15989Y36054D02*
X15048Y36054D01*
X15048Y36525D01*
X15205Y36681D01*
X15832Y36681D01*
X15989Y36525D01*
X15989Y36054D01*
X15832Y37617D02*
X15989Y37460D01*
X15989Y37147D01*
X15832Y36990D01*
X15205Y36990D01*
X15048Y37147D01*
X15048Y37460D01*
X15205Y37617D01*
X18529Y35746D02*
X18529Y35119D01*
X17588Y35119D01*
X17588Y35746D01*
X18059Y35432D02*
X18059Y35119D01*
X17588Y36054D02*
X18529Y36054D01*
X17588Y36681D01*
X18529Y36681D01*
X20755Y35119D02*
X21069Y35432D01*
X20128Y35432D01*
X20128Y35119D02*
X20128Y35746D01*
X21069Y36681D02*
X20912Y36368D01*
X20599Y36054D01*
X20285Y36054D01*
X20128Y36211D01*
X20128Y36525D01*
X20285Y36681D01*
X20442Y36681D01*
X20599Y36525D01*
X20599Y36054D01*
X23295Y35119D02*
X23609Y35432D01*
X22668Y35432D01*
X22668Y35119D02*
X22668Y35746D01*
X22668Y36525D02*
X23609Y36525D01*
X23139Y36054D01*
X23139Y36681D01*
X25835Y35119D02*
X26149Y35432D01*
X25208Y35432D01*
X25208Y35119D02*
X25208Y35746D01*
X25208Y36681D02*
X25208Y36054D01*
X25835Y36681D01*
X25992Y36681D01*
X26149Y36525D01*
X26149Y36211D01*
X25992Y36054D01*
X28375Y35119D02*
X28689Y35432D01*
X27748Y35432D01*
X27748Y35119D02*
X27748Y35746D01*
X28532Y36054D02*
X28689Y36211D01*
X28689Y36525D01*
X28532Y36681D01*
X28375Y36681D01*
X28219Y36525D01*
X28219Y36368D01*
X28219Y36525D02*
X28062Y36681D01*
X27905Y36681D01*
X27748Y36525D01*
X27748Y36211D01*
X27905Y36054D01*
X31229Y35119D02*
X30602Y35119D01*
X30288Y35432D01*
X30602Y35746D01*
X31229Y35746D01*
X30288Y36054D02*
X30288Y36368D01*
X30288Y36211D02*
X31229Y36211D01*
X31229Y36054D02*
X31229Y36368D01*
X30288Y36678D02*
X31229Y36678D01*
X30288Y37305D01*
X31229Y37305D01*
X33769Y35119D02*
X33142Y35119D01*
X32828Y35432D01*
X33142Y35746D01*
X33769Y35746D01*
X32828Y36054D02*
X33769Y36054D01*
X33769Y36525D01*
X33612Y36681D01*
X33455Y36681D01*
X33299Y36525D01*
X33142Y36681D01*
X32985Y36681D01*
X32828Y36525D01*
X32828Y36054D01*
X33299Y36054D02*
X33299Y36525D01*
X32828Y36990D02*
X33455Y36990D01*
X33769Y37303D01*
X33455Y37617D01*
X32828Y37617D01*
X33299Y37617D02*
X33299Y36990D01*
X32828Y38239D02*
X33769Y38239D01*
X33769Y38552D02*
X33769Y37925D01*
X36152Y35746D02*
X36309Y35589D01*
X36309Y35275D01*
X36152Y35119D01*
X35525Y35119D01*
X35368Y35275D01*
X35368Y35589D01*
X35525Y35746D01*
X35839Y35746D01*
X35839Y35432D01*
X35368Y36054D02*
X36309Y36054D01*
X35368Y36681D01*
X36309Y36681D01*
X36309Y36990D02*
X35368Y36990D01*
X35368Y37460D01*
X35525Y37617D01*
X36152Y37617D01*
X36309Y37460D01*
X36309Y36990D01*
X38120Y39183D02*
X38120Y40123D01*
X38433Y40123D02*
X37806Y40123D01*
X37498Y40123D02*
X36871Y39183D01*
X37498Y39183D02*
X36871Y40123D01*
X33395Y42253D02*
X33552Y42409D01*
X33865Y42409D01*
X34022Y42253D01*
X34022Y41625D01*
X33865Y41469D01*
X33552Y41469D01*
X33395Y41625D01*
X33395Y41939D01*
X33709Y41939D01*
X33087Y41469D02*
X33087Y42409D01*
X32459Y41469D01*
X32459Y42409D01*
X32151Y42409D02*
X32151Y41469D01*
X31681Y41469D01*
X31524Y41625D01*
X31524Y42253D01*
X31681Y42409D01*
X32151Y42409D01*
X33865Y44009D02*
X33865Y44949D01*
X33552Y44949D02*
X33552Y44009D01*
X34022Y44636D02*
X33552Y44636D01*
X33395Y44636D01*
X33395Y44322D02*
X34022Y44322D01*
X32459Y44009D02*
X33087Y44009D01*
X32459Y44636D01*
X32459Y44793D01*
X32616Y44949D01*
X32930Y44949D01*
X33087Y44793D01*
X33865Y46549D02*
X33865Y47489D01*
X33552Y47489D02*
X33552Y46549D01*
X34022Y47176D02*
X33552Y47176D01*
X33395Y47176D01*
X33395Y46862D02*
X34022Y46862D01*
X33087Y46705D02*
X33087Y47333D01*
X32930Y47489D01*
X32616Y47489D01*
X32459Y47333D01*
X32459Y46705D01*
X32616Y46549D01*
X32930Y46549D01*
X33087Y46705D01*
X32459Y47333D01*
X34022Y49089D02*
X34022Y50029D01*
X33552Y50029D01*
X33395Y49873D01*
X33395Y49559D01*
X33552Y49402D01*
X34022Y49402D01*
X33709Y49402D02*
X33395Y49089D01*
X32459Y49089D02*
X33087Y50029D01*
X32459Y50029D02*
X33087Y49089D01*
X39102Y51143D02*
X38945Y51299D01*
X38632Y51299D01*
X38475Y51143D01*
X38475Y50986D01*
X38632Y50829D01*
X38789Y50829D01*
X38632Y50829D02*
X38475Y50672D01*
X38475Y50515D01*
X38632Y50359D01*
X38945Y50359D01*
X39102Y50515D01*
X38167Y50359D02*
X38167Y51299D01*
X37696Y51299D01*
X37539Y51143D01*
X37539Y50829D01*
X37696Y50672D01*
X38167Y50672D01*
X37231Y51143D02*
X37074Y51299D01*
X36761Y51299D01*
X36604Y51143D01*
X36604Y50986D01*
X36761Y50829D01*
X36917Y50829D01*
X36761Y50829D02*
X36604Y50672D01*
X36604Y50515D01*
X36761Y50359D01*
X37074Y50359D01*
X37231Y50515D01*
X36296Y51299D02*
X36296Y50672D01*
X35982Y50359D01*
X35668Y50672D01*
X35668Y51299D01*
X42912Y53839D02*
X42912Y53055D01*
X42755Y52899D01*
X42442Y52899D01*
X42285Y53055D01*
X42285Y53839D01*
X41977Y53683D02*
X41820Y53839D01*
X41506Y53839D01*
X41349Y53683D01*
X41349Y53526D01*
X41506Y53369D01*
X41663Y53369D01*
X41506Y53369D02*
X41349Y53212D01*
X41349Y53055D01*
X41506Y52899D01*
X41820Y52899D01*
X41977Y53055D01*
D11*
X12321Y42187D02*
X08813Y42187D01*
X08813Y43941D01*
X09397Y44525D01*
X11736Y44525D01*
X12321Y43941D01*
X12321Y42187D01*
X08813Y45695D02*
X12321Y45695D01*
X12321Y48034D01*
X10567Y46864D02*
X10567Y45695D01*
D12*
X05612Y45876D02*
X05614Y46018D01*
X05620Y46161D01*
X05630Y46303D01*
X05644Y46445D01*
X05662Y46586D01*
X05684Y46727D01*
X05710Y46867D01*
X05739Y47006D01*
X05773Y47145D01*
X05811Y47282D01*
X05852Y47419D01*
X05897Y47554D01*
X05946Y47688D01*
X05999Y47820D01*
X06055Y47951D01*
X06115Y48080D01*
X06179Y48208D01*
X06246Y48333D01*
X06317Y48457D01*
X06391Y48579D01*
X06468Y48698D01*
X06549Y48816D01*
X06633Y48931D01*
X06720Y49043D01*
X06811Y49153D01*
X06904Y49261D01*
X07001Y49366D01*
X07100Y49468D01*
X07202Y49567D01*
X07307Y49664D01*
X07415Y49757D01*
X07525Y49848D01*
X07637Y49935D01*
X07752Y50019D01*
X07870Y50100D01*
X07989Y50177D01*
X08111Y50251D01*
X08235Y50322D01*
X08360Y50389D01*
X08488Y50453D01*
X08617Y50513D01*
X08748Y50569D01*
X08880Y50622D01*
X09014Y50671D01*
X09149Y50716D01*
X09286Y50757D01*
X09423Y50795D01*
X09562Y50829D01*
X09701Y50858D01*
X09841Y50884D01*
X09982Y50906D01*
X10123Y50924D01*
X10265Y50938D01*
X10407Y50948D01*
X10550Y50954D01*
X10692Y50956D01*
X10834Y50954D01*
X10977Y50948D01*
X11119Y50938D01*
X11261Y50924D01*
X11402Y50906D01*
X11543Y50884D01*
X11683Y50858D01*
X11822Y50829D01*
X11961Y50795D01*
X12098Y50757D01*
X12235Y50716D01*
X12370Y50671D01*
X12504Y50622D01*
X12636Y50569D01*
X12767Y50513D01*
X12896Y50453D01*
X13024Y50389D01*
X13149Y50322D01*
X13273Y50251D01*
X13395Y50177D01*
X13514Y50100D01*
X13632Y50019D01*
X13747Y49935D01*
X13859Y49848D01*
X13969Y49757D01*
X14077Y49664D01*
X14182Y49567D01*
X14284Y49468D01*
X14383Y49366D01*
X14480Y49261D01*
X14573Y49153D01*
X14664Y49043D01*
X14751Y48931D01*
X14835Y48816D01*
X14916Y48698D01*
X14993Y48579D01*
X15067Y48457D01*
X15138Y48333D01*
X15205Y48208D01*
X15269Y48080D01*
X15329Y47951D01*
X15385Y47820D01*
X15438Y47688D01*
X15487Y47554D01*
X15532Y47419D01*
X15573Y47282D01*
X15611Y47145D01*
X15645Y47006D01*
X15674Y46867D01*
X15700Y46727D01*
X15722Y46586D01*
X15740Y46445D01*
X15754Y46303D01*
X15764Y46161D01*
X15770Y46018D01*
X15772Y45876D01*
X15770Y45734D01*
X15764Y45591D01*
X15754Y45449D01*
X15740Y45307D01*
X15722Y45166D01*
X15700Y45025D01*
X15674Y44885D01*
X15645Y44746D01*
X15611Y44607D01*
X15573Y44470D01*
X15532Y44333D01*
X15487Y44198D01*
X15438Y44064D01*
X15385Y43932D01*
X15329Y43801D01*
X15269Y43672D01*
X15205Y43544D01*
X15138Y43419D01*
X15067Y43295D01*
X14993Y43173D01*
X14916Y43054D01*
X14835Y42936D01*
X14751Y42821D01*
X14664Y42709D01*
X14573Y42599D01*
X14480Y42491D01*
X14383Y42386D01*
X14284Y42284D01*
X14182Y42185D01*
X14077Y42088D01*
X13969Y41995D01*
X13859Y41904D01*
X13747Y41817D01*
X13632Y41733D01*
X13514Y41652D01*
X13395Y41575D01*
X13273Y41501D01*
X13149Y41430D01*
X13024Y41363D01*
X12896Y41299D01*
X12767Y41239D01*
X12636Y41183D01*
X12504Y41130D01*
X12370Y41081D01*
X12235Y41036D01*
X12098Y40995D01*
X11961Y40957D01*
X11822Y40923D01*
X11683Y40894D01*
X11543Y40868D01*
X11402Y40846D01*
X11261Y40828D01*
X11119Y40814D01*
X10977Y40804D01*
X10834Y40798D01*
X10692Y40796D01*
X10550Y40798D01*
X10407Y40804D01*
X10265Y40814D01*
X10123Y40828D01*
X09982Y40846D01*
X09841Y40868D01*
X09701Y40894D01*
X09562Y40923D01*
X09423Y40957D01*
X09286Y40995D01*
X09149Y41036D01*
X09014Y41081D01*
X08880Y41130D01*
X08748Y41183D01*
X08617Y41239D01*
X08488Y41299D01*
X08360Y41363D01*
X08235Y41430D01*
X08111Y41501D01*
X07989Y41575D01*
X07870Y41652D01*
X07752Y41733D01*
X07637Y41817D01*
X07525Y41904D01*
X07415Y41995D01*
X07307Y42088D01*
X07202Y42185D01*
X07100Y42284D01*
X07001Y42386D01*
X06904Y42491D01*
X06811Y42599D01*
X06720Y42709D01*
X06633Y42821D01*
X06549Y42936D01*
X06468Y43054D01*
X06391Y43173D01*
X06317Y43295D01*
X06246Y43419D01*
X06179Y43544D01*
X06115Y43672D01*
X06055Y43801D01*
X05999Y43932D01*
X05946Y44064D01*
X05897Y44198D01*
X05852Y44333D01*
X05811Y44470D01*
X05773Y44607D01*
X05739Y44746D01*
X05710Y44885D01*
X05684Y45025D01*
X05662Y45166D01*
X05644Y45307D01*
X05630Y45449D01*
X05620Y45591D01*
X05614Y45734D01*
X05612Y45876D01*
D13*
X39674Y50346D02*
X39673Y44352D01*
X46227Y44352D01*
X46227Y50346D01*
X16455Y43681D02*
X16455Y39181D01*
X19955Y37431D02*
X23955Y37431D01*
X23955Y38281D01*
X21455Y38281D01*
X21455Y39681D01*
X21455Y43181D02*
X21455Y44581D01*
X23955Y44581D01*
X23955Y45431D01*
X19955Y45431D01*
D14*
X42950Y43869D03*
D15*
X16001Y40567D02*
X15163Y41126D01*
X15163Y40567D02*
X16001Y41126D01*
X15722Y41503D02*
X16001Y41782D01*
X15163Y41782D01*
X15163Y41503D02*
X15163Y42062D01*
M02*
