G75*
%MOMM*%
%OFA0B0*%
%FSLAX33Y33*%
%IPPOS*%
%LPD*%
%AMOC8*
5,1,8,0,0,1.08239X$1,22.5*
%
%ADD10R,1.500X1.300*%
%ADD11R,1.300X1.500*%
%ADD12R,1.200X1.200*%
%ADD13R,2.200X2.150*%
%ADD14R,0.450X1.450*%
%ADD15R,0.650X1.062*%
%ADD16R,0.900X0.900*%
%ADD17R,1.100X1.000*%
%ADD18R,1.000X1.100*%
%ADD19R,1.500X2.000*%
%ADD20R,1.200X2.000*%
%ADD21R,2.000X1.200*%
D10*
X40410Y50641D03*
X40410Y52541D03*
X42442Y50641D03*
X42442Y52541D03*
D11*
X42630Y41431D03*
X40730Y41431D03*
D12*
X40410Y57340D03*
X40410Y55240D03*
D13*
X41340Y37621D03*
X36940Y37621D03*
D14*
X43925Y48736D03*
X43275Y48736D03*
X42625Y48736D03*
X41975Y48736D03*
X41975Y44286D03*
X42625Y44286D03*
X43275Y44286D03*
X43925Y44286D03*
D15*
X44540Y38817D03*
X45490Y38817D03*
X46440Y38817D03*
X46440Y41505D03*
X45490Y41505D03*
X44540Y41505D03*
D16*
X05320Y42211D03*
X06920Y42211D03*
X06920Y38111D03*
X05320Y38111D03*
D17*
X38124Y55821D03*
X38124Y57521D03*
X37489Y51884D03*
X37489Y53584D03*
X35457Y51884D03*
X35457Y53584D03*
X34695Y36517D03*
X34695Y38217D03*
X45490Y47361D03*
X45490Y45661D03*
X40410Y45661D03*
X40410Y47361D03*
D18*
X18224Y35589D03*
X19924Y35589D03*
X12382Y35589D03*
X14082Y35589D03*
D19*
X40640Y33811D03*
X37640Y33811D03*
D20*
X16860Y37741D03*
X18860Y37741D03*
X20860Y37741D03*
X22860Y37741D03*
X24860Y37741D03*
X26860Y37741D03*
X28860Y37741D03*
X30860Y37741D03*
X30860Y52741D03*
X28860Y52741D03*
X26860Y52741D03*
X24860Y52741D03*
X22860Y52741D03*
X20860Y52741D03*
X18860Y52741D03*
X16860Y52741D03*
D21*
X31630Y44241D03*
X31630Y46241D03*
X31630Y48241D03*
X31630Y50241D03*
X31630Y42241D03*
X31630Y40241D03*
M02*
