G75*
%MOMM*%
%OFA0B0*%
%FSLAX33Y33*%
%IPPOS*%
%LPD*%
%AMOC8*
5,1,8,0,0,1.08239X$1,22.5*
%
%ADD10R,1.703X1.503*%
%ADD11R,1.503X1.703*%
%ADD12R,1.403X1.403*%
%ADD13R,2.403X2.353*%
%ADD14C,1.203*%
%ADD15C,0.500*%
%ADD16R,0.653X1.653*%
%ADD17R,0.853X1.265*%
%ADD18OC8,1.626*%
%ADD19C,1.981*%
%ADD20R,1.103X1.103*%
%ADD21C,3.719*%
%ADD22R,1.303X1.203*%
%ADD23R,1.203X1.303*%
%ADD24R,1.703X2.203*%
%ADD25R,1.403X2.203*%
%ADD26R,2.203X1.403*%
D10*
X40410Y50641D03*
X40410Y52541D03*
X42442Y50641D03*
X42442Y52541D03*
D11*
X42630Y41431D03*
X40730Y41431D03*
D12*
X40410Y57340D03*
X40410Y55240D03*
D13*
X41340Y37621D03*
X36940Y37621D03*
D14*
X09930Y35081D03*
X46760Y52861D03*
D15*
X09930Y35831D02*
X09876Y35829D01*
X09823Y35823D01*
X09771Y35814D01*
X09719Y35801D01*
X09668Y35784D01*
X09618Y35763D01*
X09571Y35739D01*
X09525Y35712D01*
X09481Y35681D01*
X09439Y35648D01*
X09400Y35611D01*
X09363Y35572D01*
X09330Y35530D01*
X09299Y35486D01*
X09272Y35440D01*
X09248Y35393D01*
X09227Y35343D01*
X09210Y35292D01*
X09197Y35240D01*
X09188Y35188D01*
X09182Y35135D01*
X09180Y35081D01*
X09930Y35831D02*
X09984Y35829D01*
X10037Y35823D01*
X10089Y35814D01*
X10141Y35801D01*
X10192Y35784D01*
X10242Y35763D01*
X10289Y35739D01*
X10335Y35712D01*
X10379Y35681D01*
X10421Y35648D01*
X10460Y35611D01*
X10497Y35572D01*
X10530Y35530D01*
X10561Y35486D01*
X10588Y35440D01*
X10612Y35393D01*
X10633Y35343D01*
X10650Y35292D01*
X10663Y35240D01*
X10672Y35188D01*
X10678Y35135D01*
X10680Y35081D01*
X10678Y35027D01*
X10672Y34974D01*
X10663Y34922D01*
X10650Y34870D01*
X10633Y34819D01*
X10612Y34769D01*
X10588Y34722D01*
X10561Y34676D01*
X10530Y34632D01*
X10497Y34590D01*
X10460Y34551D01*
X10421Y34514D01*
X10379Y34481D01*
X10335Y34450D01*
X10289Y34423D01*
X10242Y34399D01*
X10192Y34378D01*
X10141Y34361D01*
X10089Y34348D01*
X10037Y34339D01*
X09984Y34333D01*
X09930Y34331D01*
X09876Y34333D01*
X09823Y34339D01*
X09771Y34348D01*
X09719Y34361D01*
X09668Y34378D01*
X09618Y34399D01*
X09571Y34423D01*
X09525Y34450D01*
X09481Y34481D01*
X09439Y34514D01*
X09400Y34551D01*
X09363Y34590D01*
X09330Y34632D01*
X09299Y34676D01*
X09272Y34722D01*
X09248Y34769D01*
X09227Y34819D01*
X09210Y34870D01*
X09197Y34922D01*
X09188Y34974D01*
X09182Y35027D01*
X09180Y35081D01*
X46010Y52861D02*
X46012Y52915D01*
X46018Y52968D01*
X46027Y53020D01*
X46040Y53072D01*
X46057Y53123D01*
X46078Y53173D01*
X46102Y53220D01*
X46129Y53266D01*
X46160Y53310D01*
X46193Y53352D01*
X46230Y53391D01*
X46269Y53428D01*
X46311Y53461D01*
X46355Y53492D01*
X46401Y53519D01*
X46448Y53543D01*
X46498Y53564D01*
X46549Y53581D01*
X46601Y53594D01*
X46653Y53603D01*
X46706Y53609D01*
X46760Y53611D01*
X46814Y53609D01*
X46867Y53603D01*
X46919Y53594D01*
X46971Y53581D01*
X47022Y53564D01*
X47072Y53543D01*
X47119Y53519D01*
X47165Y53492D01*
X47209Y53461D01*
X47251Y53428D01*
X47290Y53391D01*
X47327Y53352D01*
X47360Y53310D01*
X47391Y53266D01*
X47418Y53220D01*
X47442Y53173D01*
X47463Y53123D01*
X47480Y53072D01*
X47493Y53020D01*
X47502Y52968D01*
X47508Y52915D01*
X47510Y52861D01*
X47508Y52807D01*
X47502Y52754D01*
X47493Y52702D01*
X47480Y52650D01*
X47463Y52599D01*
X47442Y52549D01*
X47418Y52502D01*
X47391Y52456D01*
X47360Y52412D01*
X47327Y52370D01*
X47290Y52331D01*
X47251Y52294D01*
X47209Y52261D01*
X47165Y52230D01*
X47119Y52203D01*
X47072Y52179D01*
X47022Y52158D01*
X46971Y52141D01*
X46919Y52128D01*
X46867Y52119D01*
X46814Y52113D01*
X46760Y52111D01*
X46706Y52113D01*
X46653Y52119D01*
X46601Y52128D01*
X46549Y52141D01*
X46498Y52158D01*
X46448Y52179D01*
X46401Y52203D01*
X46355Y52230D01*
X46311Y52261D01*
X46269Y52294D01*
X46230Y52331D01*
X46193Y52370D01*
X46160Y52412D01*
X46129Y52456D01*
X46102Y52502D01*
X46078Y52549D01*
X46057Y52599D01*
X46040Y52650D01*
X46027Y52702D01*
X46018Y52754D01*
X46012Y52807D01*
X46010Y52861D01*
D16*
X43925Y48736D03*
X43275Y48736D03*
X42625Y48736D03*
X41975Y48736D03*
X41975Y44286D03*
X42625Y44286D03*
X43275Y44286D03*
X43925Y44286D03*
D17*
X44540Y38817D03*
X45490Y38817D03*
X46440Y38817D03*
X46440Y41505D03*
X45490Y41505D03*
X44540Y41505D03*
D18*
X35330Y49051D03*
X37870Y49051D03*
X35330Y46511D03*
X37870Y46511D03*
X35330Y43971D03*
X37870Y43971D03*
X37870Y41431D03*
X35330Y41431D03*
D19*
X12470Y33811D03*
X15010Y33811D03*
X17550Y33811D03*
X20090Y33811D03*
X22630Y33811D03*
X25170Y33811D03*
X27710Y33811D03*
X30250Y33811D03*
X32790Y33811D03*
X35330Y33811D03*
X35330Y56671D03*
X32790Y56671D03*
X30250Y56671D03*
X27710Y56671D03*
X25170Y56671D03*
X22630Y56671D03*
X20090Y56671D03*
X17550Y56671D03*
X15010Y56671D03*
X12470Y56671D03*
D20*
X05320Y42211D03*
X06920Y42211D03*
X06920Y38111D03*
X05320Y38111D03*
D21*
X45490Y56671D03*
X45490Y33811D03*
D22*
X38124Y55821D03*
X38124Y57521D03*
X37489Y51884D03*
X37489Y53584D03*
X35457Y51884D03*
X35457Y53584D03*
X34695Y36517D03*
X34695Y38217D03*
X45490Y47361D03*
X45490Y45661D03*
X40410Y45661D03*
X40410Y47361D03*
D23*
X18224Y35589D03*
X19924Y35589D03*
X12382Y35589D03*
X14082Y35589D03*
D24*
X40640Y33811D03*
X37640Y33811D03*
D25*
X16860Y37741D03*
X18860Y37741D03*
X20860Y37741D03*
X22860Y37741D03*
X24860Y37741D03*
X26860Y37741D03*
X28860Y37741D03*
X30860Y37741D03*
X30860Y52741D03*
X28860Y52741D03*
X26860Y52741D03*
X24860Y52741D03*
X22860Y52741D03*
X20860Y52741D03*
X18860Y52741D03*
X16860Y52741D03*
D26*
X31630Y44241D03*
X31630Y46241D03*
X31630Y48241D03*
X31630Y50241D03*
X31630Y42241D03*
X31630Y40241D03*
M02*
