G75*
%MOMM*%
%OFA0B0*%
%FSLAX33Y33*%
%IPPOS*%
%LPD*%
%AMOC8*
5,1,8,0,0,1.08239X$1,22.5*
%
%ADD10OC8,1.422*%
%ADD11C,1.778*%
%ADD12C,3.516*%
%ADD13R,5.800X6.200*%
%ADD14R,1.600X3.000*%
%ADD15R,4.600X1.000*%
%ADD16R,3.400X1.600*%
%ADD17C,0.508*%
%ADD18C,0.806*%
%ADD19C,0.756*%
%ADD20C,0.305*%
%ADD21C,0.610*%
%ADD22C,0.406*%
D10*
X35330Y49051D03*
X37870Y49051D03*
X35330Y46511D03*
X37870Y46511D03*
X35330Y43971D03*
X37870Y43971D03*
X37870Y41431D03*
X35330Y41431D03*
D11*
X12470Y33811D03*
X15010Y33811D03*
X17550Y33811D03*
X20090Y33811D03*
X22630Y33811D03*
X25170Y33811D03*
X27710Y33811D03*
X30250Y33811D03*
X32790Y33811D03*
X35330Y33811D03*
X35330Y56671D03*
X32790Y56671D03*
X30250Y56671D03*
X27710Y56671D03*
X25170Y56671D03*
X22630Y56671D03*
X20090Y56671D03*
X17550Y56671D03*
X15010Y56671D03*
X12470Y56671D03*
D12*
X45490Y56671D03*
X45490Y33811D03*
D13*
X42950Y48891D03*
D14*
X45230Y41711D03*
X40670Y41711D03*
D15*
X23155Y42431D03*
X23155Y40431D03*
D16*
X17955Y44831D03*
X17955Y38031D03*
D17*
X45490Y41431D02*
X45230Y41691D01*
X45230Y41711D01*
X25440Y42431D02*
X23155Y42431D01*
X32790Y36351D02*
X31520Y36351D01*
X25440Y42431D01*
X32790Y36351D02*
X35330Y33811D01*
X32536Y38510D02*
X32917Y38891D01*
X41680Y38891D01*
X42950Y40161D01*
X42950Y47781D01*
X42950Y48736D01*
X23155Y40431D02*
X25027Y40431D01*
X30123Y35335D01*
X31520Y35335D01*
X32790Y34065D01*
X32790Y33811D01*
X45490Y38256D02*
X45490Y37621D01*
X40156Y32287D01*
X34314Y32287D01*
X32790Y33811D01*
X40670Y41711D02*
X40670Y42441D01*
X40410Y42701D01*
D18*
X41426Y52861D03*
X32536Y38510D03*
X43925Y48736D03*
X45490Y38256D03*
X41299Y42828D03*
D19*
X05358Y36859D03*
X28980Y43971D03*
X28980Y42701D03*
X36600Y51591D03*
X38759Y56036D03*
D20*
X05358Y36859D02*
X15772Y36859D01*
X16280Y36351D01*
X20217Y36351D01*
X20598Y36732D01*
X20598Y38891D01*
X21090Y42431D02*
X23155Y42431D01*
X20090Y41431D02*
X20090Y39399D01*
X20598Y38891D01*
X20090Y41431D02*
X21090Y42431D01*
X37870Y46511D02*
X36600Y45241D01*
X34060Y45241D01*
X32790Y43971D01*
X28980Y43971D01*
X37870Y43971D02*
X36600Y42701D01*
X28980Y42701D01*
X25170Y56671D02*
X25170Y55401D01*
X26440Y54131D01*
X34060Y54131D01*
X36600Y51591D01*
X26440Y52861D02*
X34060Y52861D01*
X36600Y50321D01*
X36600Y47781D01*
X35330Y46511D01*
X26440Y52861D02*
X22630Y56671D01*
X24027Y58068D01*
X36727Y58068D01*
X38759Y56036D01*
X15010Y56671D02*
X20090Y51591D01*
X27710Y51591D01*
X30250Y49051D01*
X35330Y49051D01*
X36600Y40161D02*
X30250Y40161D01*
X27710Y42701D01*
X36600Y40161D02*
X37870Y41431D01*
X12470Y56671D02*
X18820Y50321D01*
X26440Y50321D01*
X27710Y49051D01*
X27710Y42701D01*
D21*
X35330Y33811D02*
X37870Y33811D01*
X41680Y37621D01*
X42950Y37621D01*
X45230Y39901D01*
X45230Y41691D01*
X41426Y52861D02*
X46760Y52861D01*
X46760Y42701D01*
X45490Y41431D01*
X35330Y56671D02*
X35330Y54131D01*
X36600Y52861D01*
X41426Y52861D01*
X37870Y49051D02*
X42635Y49051D01*
X42950Y48736D01*
D22*
X42950Y48891D02*
X42950Y47781D01*
X41299Y42828D02*
X40537Y42828D01*
X40410Y42701D01*
M02*
