%
M48
METRIC,TZ,000.000
T01C0.350000
T02C0.400000
T03C0.914400
T04C1.000000
T05C2.500000
%
T01
X5358Y36859
X28980Y43971
X28980Y42701
X36600Y51591
X38759Y56036
T02
X41426Y52861
X32536Y38510
X43925Y48736
X45490Y38256
X41299Y42828
T03
X35330Y49051
X37870Y49051
X35330Y46511
X37870Y46511
X35330Y43971
X37870Y43971
X37870Y41431
X35330Y41431
T04
X12470Y33811
X15010Y33811
X17550Y33811
X20090Y33811
X22630Y33811
X25170Y33811
X27710Y33811
X30250Y33811
X32790Y33811
X35330Y33811
X35330Y56671
X32790Y56671
X30250Y56671
X27710Y56671
X25170Y56671
X22630Y56671
X20090Y56671
X17550Y56671
X15010Y56671
X12470Y56671
T05
X45490Y56671
X45490Y33811
M30
